  0
SECTION
  2
HEADER
  9
$ACADVER
  1
AC1014
  9
$HANDSEED
  5
FFFF
  9
$MEASUREMENT
 70
     1
  0
ENDSEC
  0
SECTION
  2
TABLES
  0
TABLE
  2
VPORT
  5
8
330
0
100
AcDbSymbolTable
 70
     4
  0
VPORT
  5
2E
330
8
100
AcDbSymbolTableRecord
100
AcDbViewportTableRecord
  2
*ACTIVE
 70
     0
 10
0.0
 20
0.0
 11
1.0
 21
1.0
 12
210.0
 22
148.5
 13
0.0
 23
0.0
 14
10.0
 24
10.0
 15
10.0
 25
10.0
 16
0.0
 26
0.0
 36
1.0
 17
0.0
 27
0.0
 37
0.0
 40
341.0
 41
1.24
 42
50.0
 43
0.0
 44
0.0
 50
0.0
 51
0.0
 71
     0
 72
   100
 73
     1
 74
     3
 75
     0
 76
     0
 77
     0
 78
     0
  0
ENDTAB
  0
TABLE
  2
LTYPE
  5
5
330
0
100
AcDbSymbolTable
 70
     1
  0
LTYPE
  5
14
330
5
100
AcDbSymbolTableRecord
100
AcDbLinetypeTableRecord
  2
BYBLOCK
 70
     0
  3

 72
    65
 73
     0
 40
0.0
  0
LTYPE
  5
15
330
5
100
AcDbSymbolTableRecord
100
AcDbLinetypeTableRecord
  2
BYLAYER
 70
     0
  3

 72
    65
 73
     0
 40
0.0
  0
LTYPE
  5
16
330
5
100
AcDbSymbolTableRecord
100
AcDbLinetypeTableRecord
  2
CONTINUOUS
 70
     0
  3
Solid line
 72
    65
 73
     0
 40
0.0
  0
ENDTAB
  0
TABLE
  2
LAYER
  5
2
100
AcDbSymbolTable
 70
8
  0
LAYER
  5
50
100
AcDbSymbolTableRecord
100
AcDbLayerTableRecord
  2
0
 70
0
  6
CONTINUOUS
  0
LAYER
  5
51
100
AcDbSymbolTableRecord
100
AcDbLayerTableRecord
  2
base
 70
0
  6
CONTINUOUS
  0
LAYER
  5
52
100
AcDbSymbolTableRecord
100
AcDbLayerTableRecord
  2
switches
 70
0
  6
CONTINUOUS
  0
LAYER
  5
53
100
AcDbSymbolTableRecord
100
AcDbLayerTableRecord
  2
switches_copy
 70
0
  6
CONTINUOUS
  0
LAYER
  5
54
100
AcDbSymbolTableRecord
100
AcDbLayerTableRecord
  2
1u
 70
0
  6
CONTINUOUS
  0
LAYER
  5
55
100
AcDbSymbolTableRecord
100
AcDbLayerTableRecord
  2
2x2u
 70
0
  6
CONTINUOUS
  0
LAYER
  5
56
100
AcDbSymbolTableRecord
100
AcDbLayerTableRecord
  2
7u
 70
0
  6
CONTINUOUS
  0
LAYER
  5
57
100
AcDbSymbolTableRecord
100
AcDbLayerTableRecord
  2
1u+7u+2u
 70
0
  6
CONTINUOUS
  0
ENDTAB
  0
TABLE
  2
STYLE
  5
3
330
0
100
AcDbSymbolTable
 70
     1
  0
STYLE
  5
11
330
3
100
AcDbSymbolTableRecord
100
AcDbTextStyleTableRecord
  2
STANDARD
 70
     0
 40
0.0
 41
1.0
 50
0.0
 71
     0
 42
2.5
  3
txt
  4

  0
ENDTAB
  0
TABLE
  2
VIEW
  5
6
330
0
100
AcDbSymbolTable
 70
     0
  0
ENDTAB
  0
TABLE
  2
UCS
  5
7
330
0
100
AcDbSymbolTable
 70
     0
  0
ENDTAB
  0
TABLE
  2
APPID
  5
9
330
0
100
AcDbSymbolTable
 70
     2
  0
APPID
  5
12
330
9
100
AcDbSymbolTableRecord
100
AcDbRegAppTableRecord
  2
ACAD
 70
     0
  0
ENDTAB
  0
TABLE
  2
DIMSTYLE
  5
A
330
0
100
AcDbSymbolTable
 70
     1
  0
DIMSTYLE
105
27
330
A
100
AcDbSymbolTableRecord
100
AcDbDimStyleTableRecord
  2
ISO-25
 70
     0
  3

  4

  5

  6

  7

 40
1.0
 41
2.5
 42
0.625
 43
3.75
 44
1.25
 45
0.0
 46
0.0
 47
0.0
 48
0.0
140
2.5
141
2.5
142
0.0
143
0.03937007874016
144
1.0
145
0.0
146
1.0
147
0.625
 71
     0
 72
     0
 73
     0
 74
     0
 75
     0
 76
     0
 77
     1
 78
     8
170
     0
171
     3
172
     1
173
     0
174
     0
175
     0
176
     0
177
     0
178
     0
270
     2
271
     2
272
     2
273
     2
274
     3
340
11
275
     0
280
     0
281
     0
282
     0
283
     0
284
     8
285
     0
286
     0
287
     3
288
     0
  0
ENDTAB
  0
TABLE
  2
BLOCK_RECORD
  5
1
330
0
100
AcDbSymbolTable
 70
     1
  0
BLOCK_RECORD
  5
1F
330
1
100
AcDbSymbolTableRecord
100
AcDbBlockTableRecord
  2
*MODEL_SPACE
  0
BLOCK_RECORD
  5
1B
330
1
100
AcDbSymbolTableRecord
100
AcDbBlockTableRecord
  2
*PAPER_SPACE
  0
ENDTAB
  0
ENDSEC
  0
SECTION
  2
BLOCKS
  0
BLOCK
  5
20
330
1F
100
AcDbEntity
  8
0
100
AcDbBlockBegin
  2
*MODEL_SPACE
 70
     0
 10
0.0
 20
0.0
 30
0.0
  3
*MODEL_SPACE
  1

  0
ENDBLK
  5
21
330
1F
100
AcDbEntity
  8
0
100
AcDbBlockEnd
  0
BLOCK
  5
1C
330
1B
100
AcDbEntity
 67
     1
  8
0
100
AcDbBlockBegin
  2
*PAPER_SPACE
  1

  0
ENDBLK
  5
1D
330
1B
100
AcDbEntity
 67
     1
  8
0
100
AcDbBlockEnd
  0
ENDSEC
  0
SECTION
  2
ENTITIES
  0
SPLINE
  5
100
100
AcDbEntity
  8
base
 62
7
100
AcDbSpline
 70
8
 71
3
 72
8
 73
4
 74
0
 40
0
 40
0
 40
0
 40
0
 40
1
 40
1
 40
1
 40
1
 10
145.846350
 20
480.396955
 30
0.0
 10
145.340775
 20
480.396955
 30
0.0
 10
144.884980
 20
480.092405
 30
0.0
 10
144.691505
 20
479.625310
 30
0.0
  0
SPLINE
  5
101
100
AcDbEntity
  8
base
 62
7
100
AcDbSpline
 70
8
 71
3
 72
8
 73
4
 74
0
 40
0
 40
0
 40
0
 40
0
 40
1
 40
1
 40
1
 40
1
 10
144.691505
 20
479.625310
 30
0.0
 10
144.498025
 20
479.158215
 30
0.0
 10
144.604970
 20
478.620565
 30
0.0
 10
144.962470
 20
478.263075
 30
0.0
  0
SPLINE
  5
102
100
AcDbEntity
  8
base
 62
7
100
AcDbSpline
 70
8
 71
3
 72
8
 73
4
 74
0
 40
0
 40
0
 40
0
 40
0
 40
1
 40
1
 40
1
 40
1
 10
144.962470
 20
478.263075
 30
0.0
 10
145.319965
 20
477.905570
 30
0.0
 10
145.857615
 20
477.798625
 30
0.0
 10
146.324705
 20
477.992100
 30
0.0
  0
SPLINE
  5
103
100
AcDbEntity
  8
base
 62
7
100
AcDbSpline
 70
8
 71
3
 72
8
 73
4
 74
0
 40
0
 40
0
 40
0
 40
0
 40
1
 40
1
 40
1
 40
1
 10
146.324705
 20
477.992100
 30
0.0
 10
146.791800
 20
478.185580
 30
0.0
 10
147.096350
 20
478.641375
 30
0.0
 10
147.096350
 20
479.146955
 30
0.0
  0
SPLINE
  5
104
100
AcDbEntity
  8
base
 62
7
100
AcDbSpline
 70
8
 71
3
 72
8
 73
4
 74
0
 40
0
 40
0
 40
0
 40
0
 40
1
 40
1
 40
1
 40
1
 10
147.096350
 20
479.146955
 30
0.0
 10
147.096350
 20
479.478480
 30
0.0
 10
146.964655
 20
479.796415
 30
0.0
 10
146.730235
 20
480.030835
 30
0.0
  0
SPLINE
  5
105
100
AcDbEntity
  8
base
 62
7
100
AcDbSpline
 70
8
 71
3
 72
8
 73
4
 74
0
 40
0
 40
0
 40
0
 40
0
 40
1
 40
1
 40
1
 40
1
 10
146.730235
 20
480.030835
 30
0.0
 10
146.495815
 20
480.265255
 30
0.0
 10
146.177870
 20
480.396955
 30
0.0
 10
145.846350
 20
480.396955
 30
0.0
  0
SPLINE
  5
106
100
AcDbEntity
  8
base
 62
7
100
AcDbSpline
 70
8
 71
3
 72
8
 73
4
 74
0
 40
0
 40
0
 40
0
 40
0
 40
1
 40
1
 40
1
 40
1
 10
183.946350
 20
518.496953
 30
0.0
 10
183.440775
 20
518.496953
 30
0.0
 10
182.984980
 20
518.192404
 30
0.0
 10
182.791500
 20
517.725308
 30
0.0
  0
SPLINE
  5
107
100
AcDbEntity
  8
base
 62
7
100
AcDbSpline
 70
8
 71
3
 72
8
 73
4
 74
0
 40
0
 40
0
 40
0
 40
0
 40
1
 40
1
 40
1
 40
1
 10
182.791500
 20
517.725308
 30
0.0
 10
182.598025
 20
517.258213
 30
0.0
 10
182.704970
 20
516.720567
 30
0.0
 10
183.062470
 20
516.363075
 30
0.0
  0
SPLINE
  5
108
100
AcDbEntity
  8
base
 62
7
100
AcDbSpline
 70
8
 71
3
 72
8
 73
4
 74
0
 40
0
 40
0
 40
0
 40
0
 40
1
 40
1
 40
1
 40
1
 10
183.062470
 20
516.363075
 30
0.0
 10
183.419965
 20
516.005570
 30
0.0
 10
183.957615
 20
515.898625
 30
0.0
 10
184.424705
 20
516.092102
 30
0.0
  0
SPLINE
  5
109
100
AcDbEntity
  8
base
 62
7
100
AcDbSpline
 70
8
 71
3
 72
8
 73
4
 74
0
 40
0
 40
0
 40
0
 40
0
 40
1
 40
1
 40
1
 40
1
 10
184.424705
 20
516.092102
 30
0.0
 10
184.891800
 20
516.285579
 30
0.0
 10
185.196350
 20
516.741376
 30
0.0
 10
185.196350
 20
517.246955
 30
0.0
  0
SPLINE
  5
10a
100
AcDbEntity
  8
base
 62
7
100
AcDbSpline
 70
8
 71
3
 72
8
 73
4
 74
0
 40
0
 40
0
 40
0
 40
0
 40
1
 40
1
 40
1
 40
1
 10
185.196350
 20
517.246955
 30
0.0
 10
185.196350
 20
517.578478
 30
0.0
 10
185.064655
 20
517.896414
 30
0.0
 10
184.830235
 20
518.130835
 30
0.0
  0
SPLINE
  5
10b
100
AcDbEntity
  8
base
 62
7
100
AcDbSpline
 70
8
 71
3
 72
8
 73
4
 74
0
 40
0
 40
0
 40
0
 40
0
 40
1
 40
1
 40
1
 40
1
 10
184.830235
 20
518.130835
 30
0.0
 10
184.595815
 20
518.365256
 30
0.0
 10
184.277870
 20
518.496953
 30
0.0
 10
183.946350
 20
518.496953
 30
0.0
  0
SPLINE
  5
10c
100
AcDbEntity
  8
base
 62
7
100
AcDbSpline
 70
8
 71
3
 72
8
 73
4
 74
0
 40
0
 40
0
 40
0
 40
0
 40
1
 40
1
 40
1
 40
1
 10
183.946350
 20
442.296955
 30
0.0
 10
183.440775
 20
442.296955
 30
0.0
 10
182.984980
 20
441.992405
 30
0.0
 10
182.791500
 20
441.525310
 30
0.0
  0
SPLINE
  5
10d
100
AcDbEntity
  8
base
 62
7
100
AcDbSpline
 70
8
 71
3
 72
8
 73
4
 74
0
 40
0
 40
0
 40
0
 40
0
 40
1
 40
1
 40
1
 40
1
 10
182.791500
 20
441.525310
 30
0.0
 10
182.598025
 20
441.058215
 30
0.0
 10
182.704970
 20
440.520565
 30
0.0
 10
183.062470
 20
440.163075
 30
0.0
  0
SPLINE
  5
10e
100
AcDbEntity
  8
base
 62
7
100
AcDbSpline
 70
8
 71
3
 72
8
 73
4
 74
0
 40
0
 40
0
 40
0
 40
0
 40
1
 40
1
 40
1
 40
1
 10
183.062470
 20
440.163075
 30
0.0
 10
183.419965
 20
439.805570
 30
0.0
 10
183.957615
 20
439.698625
 30
0.0
 10
184.424705
 20
439.892100
 30
0.0
  0
SPLINE
  5
10f
100
AcDbEntity
  8
base
 62
7
100
AcDbSpline
 70
8
 71
3
 72
8
 73
4
 74
0
 40
0
 40
0
 40
0
 40
0
 40
1
 40
1
 40
1
 40
1
 10
184.424705
 20
439.892100
 30
0.0
 10
184.891800
 20
440.085580
 30
0.0
 10
185.196350
 20
440.541375
 30
0.0
 10
185.196350
 20
441.046955
 30
0.0
  0
SPLINE
  5
110
100
AcDbEntity
  8
base
 62
7
100
AcDbSpline
 70
8
 71
3
 72
8
 73
4
 74
0
 40
0
 40
0
 40
0
 40
0
 40
1
 40
1
 40
1
 40
1
 10
185.196350
 20
441.046955
 30
0.0
 10
185.196350
 20
441.378480
 30
0.0
 10
185.064655
 20
441.696415
 30
0.0
 10
184.830235
 20
441.930835
 30
0.0
  0
SPLINE
  5
111
100
AcDbEntity
  8
base
 62
7
100
AcDbSpline
 70
8
 71
3
 72
8
 73
4
 74
0
 40
0
 40
0
 40
0
 40
0
 40
1
 40
1
 40
1
 40
1
 10
184.830235
 20
441.930835
 30
0.0
 10
184.595815
 20
442.165255
 30
0.0
 10
184.277870
 20
442.296955
 30
0.0
 10
183.946350
 20
442.296955
 30
0.0
  0
SPLINE
  5
112
100
AcDbEntity
  8
base
 62
7
100
AcDbSpline
 70
8
 71
3
 72
8
 73
4
 74
0
 40
0
 40
0
 40
0
 40
0
 40
1
 40
1
 40
1
 40
1
 10
107.746350
 20
442.296955
 30
0.0
 10
107.240775
 20
442.296955
 30
0.0
 10
106.784980
 20
441.992405
 30
0.0
 10
106.591505
 20
441.525310
 30
0.0
  0
SPLINE
  5
113
100
AcDbEntity
  8
base
 62
7
100
AcDbSpline
 70
8
 71
3
 72
8
 73
4
 74
0
 40
0
 40
0
 40
0
 40
0
 40
1
 40
1
 40
1
 40
1
 10
106.591505
 20
441.525310
 30
0.0
 10
106.398025
 20
441.058215
 30
0.0
 10
106.504970
 20
440.520565
 30
0.0
 10
106.862470
 20
440.163075
 30
0.0
  0
SPLINE
  5
114
100
AcDbEntity
  8
base
 62
7
100
AcDbSpline
 70
8
 71
3
 72
8
 73
4
 74
0
 40
0
 40
0
 40
0
 40
0
 40
1
 40
1
 40
1
 40
1
 10
106.862470
 20
440.163075
 30
0.0
 10
107.219965
 20
439.805570
 30
0.0
 10
107.757615
 20
439.698625
 30
0.0
 10
108.224705
 20
439.892100
 30
0.0
  0
SPLINE
  5
115
100
AcDbEntity
  8
base
 62
7
100
AcDbSpline
 70
8
 71
3
 72
8
 73
4
 74
0
 40
0
 40
0
 40
0
 40
0
 40
1
 40
1
 40
1
 40
1
 10
108.224705
 20
439.892100
 30
0.0
 10
108.691800
 20
440.085580
 30
0.0
 10
108.996350
 20
440.541375
 30
0.0
 10
108.996350
 20
441.046955
 30
0.0
  0
SPLINE
  5
116
100
AcDbEntity
  8
base
 62
7
100
AcDbSpline
 70
8
 71
3
 72
8
 73
4
 74
0
 40
0
 40
0
 40
0
 40
0
 40
1
 40
1
 40
1
 40
1
 10
108.996350
 20
441.046955
 30
0.0
 10
108.996350
 20
441.378480
 30
0.0
 10
108.864655
 20
441.696415
 30
0.0
 10
108.630235
 20
441.930835
 30
0.0
  0
SPLINE
  5
117
100
AcDbEntity
  8
base
 62
7
100
AcDbSpline
 70
8
 71
3
 72
8
 73
4
 74
0
 40
0
 40
0
 40
0
 40
0
 40
1
 40
1
 40
1
 40
1
 10
108.630235
 20
441.930835
 30
0.0
 10
108.395815
 20
442.165255
 30
0.0
 10
108.077870
 20
442.296955
 30
0.0
 10
107.746350
 20
442.296955
 30
0.0
  0
SPLINE
  5
118
100
AcDbEntity
  8
base
 62
7
100
AcDbSpline
 70
8
 71
3
 72
8
 73
4
 74
0
 40
0
 40
0
 40
0
 40
0
 40
1
 40
1
 40
1
 40
1
 10
107.746350
 20
518.496953
 30
0.0
 10
107.240775
 20
518.496953
 30
0.0
 10
106.784980
 20
518.192404
 30
0.0
 10
106.591505
 20
517.725308
 30
0.0
  0
SPLINE
  5
119
100
AcDbEntity
  8
base
 62
7
100
AcDbSpline
 70
8
 71
3
 72
8
 73
4
 74
0
 40
0
 40
0
 40
0
 40
0
 40
1
 40
1
 40
1
 40
1
 10
106.591505
 20
517.725308
 30
0.0
 10
106.398025
 20
517.258213
 30
0.0
 10
106.504970
 20
516.720567
 30
0.0
 10
106.862470
 20
516.363075
 30
0.0
  0
SPLINE
  5
11a
100
AcDbEntity
  8
base
 62
7
100
AcDbSpline
 70
8
 71
3
 72
8
 73
4
 74
0
 40
0
 40
0
 40
0
 40
0
 40
1
 40
1
 40
1
 40
1
 10
106.862470
 20
516.363075
 30
0.0
 10
107.219965
 20
516.005570
 30
0.0
 10
107.757615
 20
515.898625
 30
0.0
 10
108.224705
 20
516.092102
 30
0.0
  0
SPLINE
  5
11b
100
AcDbEntity
  8
base
 62
7
100
AcDbSpline
 70
8
 71
3
 72
8
 73
4
 74
0
 40
0
 40
0
 40
0
 40
0
 40
1
 40
1
 40
1
 40
1
 10
108.224705
 20
516.092102
 30
0.0
 10
108.691800
 20
516.285579
 30
0.0
 10
108.996350
 20
516.741376
 30
0.0
 10
108.996350
 20
517.246955
 30
0.0
  0
SPLINE
  5
11c
100
AcDbEntity
  8
base
 62
7
100
AcDbSpline
 70
8
 71
3
 72
8
 73
4
 74
0
 40
0
 40
0
 40
0
 40
0
 40
1
 40
1
 40
1
 40
1
 10
108.996350
 20
517.246955
 30
0.0
 10
108.996350
 20
517.578478
 30
0.0
 10
108.864655
 20
517.896414
 30
0.0
 10
108.630235
 20
518.130835
 30
0.0
  0
SPLINE
  5
11d
100
AcDbEntity
  8
base
 62
7
100
AcDbSpline
 70
8
 71
3
 72
8
 73
4
 74
0
 40
0
 40
0
 40
0
 40
0
 40
1
 40
1
 40
1
 40
1
 10
108.630235
 20
518.130835
 30
0.0
 10
108.395815
 20
518.365256
 30
0.0
 10
108.077870
 20
518.496953
 30
0.0
 10
107.746350
 20
518.496953
 30
0.0
  0
SPLINE
  5
11e
100
AcDbEntity
  8
base
 62
7
100
AcDbSpline
 70
8
 71
3
 72
8
 73
4
 74
0
 40
0
 40
0
 40
0
 40
0
 40
1
 40
1
 40
1
 40
1
 10
260.145645
 20
442.296955
 30
0.0
 10
259.640065
 20
442.296955
 30
0.0
 10
259.184265
 20
441.992405
 30
0.0
 10
258.990790
 20
441.525310
 30
0.0
  0
SPLINE
  5
11f
100
AcDbEntity
  8
base
 62
7
100
AcDbSpline
 70
8
 71
3
 72
8
 73
4
 74
0
 40
0
 40
0
 40
0
 40
0
 40
1
 40
1
 40
1
 40
1
 10
258.990790
 20
441.525310
 30
0.0
 10
258.797315
 20
441.058215
 30
0.0
 10
258.904260
 20
440.520565
 30
0.0
 10
259.261765
 20
440.163075
 30
0.0
  0
SPLINE
  5
120
100
AcDbEntity
  8
base
 62
7
100
AcDbSpline
 70
8
 71
3
 72
8
 73
4
 74
0
 40
0
 40
0
 40
0
 40
0
 40
1
 40
1
 40
1
 40
1
 10
259.261765
 20
440.163075
 30
0.0
 10
259.619255
 20
439.805570
 30
0.0
 10
260.156900
 20
439.698625
 30
0.0
 10
260.623995
 20
439.892100
 30
0.0
  0
SPLINE
  5
121
100
AcDbEntity
  8
base
 62
7
100
AcDbSpline
 70
8
 71
3
 72
8
 73
4
 74
0
 40
0
 40
0
 40
0
 40
0
 40
1
 40
1
 40
1
 40
1
 10
260.623995
 20
439.892100
 30
0.0
 10
261.091090
 20
440.085580
 30
0.0
 10
261.395640
 20
440.541375
 30
0.0
 10
261.395640
 20
441.046955
 30
0.0
  0
SPLINE
  5
122
100
AcDbEntity
  8
base
 62
7
100
AcDbSpline
 70
8
 71
3
 72
8
 73
4
 74
0
 40
0
 40
0
 40
0
 40
0
 40
1
 40
1
 40
1
 40
1
 10
261.395640
 20
441.046955
 30
0.0
 10
261.395640
 20
441.737320
 30
0.0
 10
260.835995
 20
442.296955
 30
0.0
 10
260.145645
 20
442.296955
 30
0.0
  0
SPLINE
  5
123
100
AcDbEntity
  8
base
 62
7
100
AcDbSpline
 70
8
 71
3
 72
8
 73
4
 74
0
 40
0
 40
0
 40
0
 40
0
 40
1
 40
1
 40
1
 40
1
 10
260.145645
 20
518.496953
 30
0.0
 10
259.640065
 20
518.496953
 30
0.0
 10
259.184265
 20
518.192404
 30
0.0
 10
258.990790
 20
517.725308
 30
0.0
  0
SPLINE
  5
124
100
AcDbEntity
  8
base
 62
7
100
AcDbSpline
 70
8
 71
3
 72
8
 73
4
 74
0
 40
0
 40
0
 40
0
 40
0
 40
1
 40
1
 40
1
 40
1
 10
258.990790
 20
517.725308
 30
0.0
 10
258.797315
 20
517.258213
 30
0.0
 10
258.904260
 20
516.720567
 30
0.0
 10
259.261765
 20
516.363075
 30
0.0
  0
SPLINE
  5
125
100
AcDbEntity
  8
base
 62
7
100
AcDbSpline
 70
8
 71
3
 72
8
 73
4
 74
0
 40
0
 40
0
 40
0
 40
0
 40
1
 40
1
 40
1
 40
1
 10
259.261765
 20
516.363075
 30
0.0
 10
259.619255
 20
516.005570
 30
0.0
 10
260.156900
 20
515.898625
 30
0.0
 10
260.623995
 20
516.092102
 30
0.0
  0
SPLINE
  5
126
100
AcDbEntity
  8
base
 62
7
100
AcDbSpline
 70
8
 71
3
 72
8
 73
4
 74
0
 40
0
 40
0
 40
0
 40
0
 40
1
 40
1
 40
1
 40
1
 10
260.623995
 20
516.092102
 30
0.0
 10
261.091090
 20
516.285579
 30
0.0
 10
261.395640
 20
516.741376
 30
0.0
 10
261.395640
 20
517.246955
 30
0.0
  0
SPLINE
  5
127
100
AcDbEntity
  8
base
 62
7
100
AcDbSpline
 70
8
 71
3
 72
8
 73
4
 74
0
 40
0
 40
0
 40
0
 40
0
 40
1
 40
1
 40
1
 40
1
 10
261.395640
 20
517.246955
 30
0.0
 10
261.395640
 20
517.937319
 30
0.0
 10
260.835995
 20
518.496953
 30
0.0
 10
260.145645
 20
518.496953
 30
0.0
  0
SPLINE
  5
128
100
AcDbEntity
  8
base
 62
7
100
AcDbSpline
 70
8
 71
3
 72
8
 73
4
 74
0
 40
0
 40
0
 40
0
 40
0
 40
1
 40
1
 40
1
 40
1
 10
50.596353
 20
480.396955
 30
0.0
 10
49.905997
 20
480.396955
 30
0.0
 10
49.346353
 20
479.837320
 30
0.0
 10
49.346353
 20
479.146955
 30
0.0
  0
SPLINE
  5
129
100
AcDbEntity
  8
base
 62
7
100
AcDbSpline
 70
8
 71
3
 72
8
 73
4
 74
0
 40
0
 40
0
 40
0
 40
0
 40
1
 40
1
 40
1
 40
1
 10
49.346353
 20
479.146955
 30
0.0
 10
49.346353
 20
478.456605
 30
0.0
 10
49.905997
 20
477.896960
 30
0.0
 10
50.596353
 20
477.896960
 30
0.0
  0
SPLINE
  5
12a
100
AcDbEntity
  8
base
 62
7
100
AcDbSpline
 70
8
 71
3
 72
8
 73
4
 74
0
 40
0
 40
0
 40
0
 40
0
 40
1
 40
1
 40
1
 40
1
 10
50.596353
 20
477.896960
 30
0.0
 10
51.286709
 20
477.896960
 30
0.0
 10
51.846353
 20
478.456605
 30
0.0
 10
51.846353
 20
479.146955
 30
0.0
  0
SPLINE
  5
12b
100
AcDbEntity
  8
base
 62
7
100
AcDbSpline
 70
8
 71
3
 72
8
 73
4
 74
0
 40
0
 40
0
 40
0
 40
0
 40
1
 40
1
 40
1
 40
1
 10
51.846353
 20
479.146955
 30
0.0
 10
51.846353
 20
479.478480
 30
0.0
 10
51.714657
 20
479.796415
 30
0.0
 10
51.480236
 20
480.030835
 30
0.0
  0
SPLINE
  5
12c
100
AcDbEntity
  8
base
 62
7
100
AcDbSpline
 70
8
 71
3
 72
8
 73
4
 74
0
 40
0
 40
0
 40
0
 40
0
 40
1
 40
1
 40
1
 40
1
 10
51.480236
 20
480.030835
 30
0.0
 10
51.245816
 20
480.265255
 30
0.0
 10
50.927873
 20
480.396955
 30
0.0
 10
50.596353
 20
480.396955
 30
0.0
  0
SPLINE
  5
12d
100
AcDbEntity
  8
base
 62
7
100
AcDbSpline
 70
8
 71
3
 72
8
 73
4
 74
0
 40
0
 40
0
 40
0
 40
0
 40
1
 40
1
 40
1
 40
1
 10
50.596353
 20
442.296955
 30
0.0
 10
49.905997
 20
442.296955
 30
0.0
 10
49.346353
 20
441.737320
 30
0.0
 10
49.346353
 20
441.046955
 30
0.0
  0
SPLINE
  5
12e
100
AcDbEntity
  8
base
 62
7
100
AcDbSpline
 70
8
 71
3
 72
8
 73
4
 74
0
 40
0
 40
0
 40
0
 40
0
 40
1
 40
1
 40
1
 40
1
 10
49.346353
 20
441.046955
 30
0.0
 10
49.346353
 20
440.356605
 30
0.0
 10
49.905997
 20
439.796960
 30
0.0
 10
50.596353
 20
439.796960
 30
0.0
  0
SPLINE
  5
12f
100
AcDbEntity
  8
base
 62
7
100
AcDbSpline
 70
8
 71
3
 72
8
 73
4
 74
0
 40
0
 40
0
 40
0
 40
0
 40
1
 40
1
 40
1
 40
1
 10
50.596353
 20
439.796960
 30
0.0
 10
51.286709
 20
439.796960
 30
0.0
 10
51.846353
 20
440.356605
 30
0.0
 10
51.846353
 20
441.046955
 30
0.0
  0
SPLINE
  5
130
100
AcDbEntity
  8
base
 62
7
100
AcDbSpline
 70
8
 71
3
 72
8
 73
4
 74
0
 40
0
 40
0
 40
0
 40
0
 40
1
 40
1
 40
1
 40
1
 10
51.846353
 20
441.046955
 30
0.0
 10
51.846353
 20
441.378480
 30
0.0
 10
51.714657
 20
441.696415
 30
0.0
 10
51.480236
 20
441.930835
 30
0.0
  0
SPLINE
  5
131
100
AcDbEntity
  8
base
 62
7
100
AcDbSpline
 70
8
 71
3
 72
8
 73
4
 74
0
 40
0
 40
0
 40
0
 40
0
 40
1
 40
1
 40
1
 40
1
 10
51.480236
 20
441.930835
 30
0.0
 10
51.245816
 20
442.165255
 30
0.0
 10
50.927873
 20
442.296955
 30
0.0
 10
50.596353
 20
442.296955
 30
0.0
  0
SPLINE
  5
132
100
AcDbEntity
  8
base
 62
7
100
AcDbSpline
 70
8
 71
3
 72
8
 73
4
 74
0
 40
0
 40
0
 40
0
 40
0
 40
1
 40
1
 40
1
 40
1
 10
50.596353
 20
518.496953
 30
0.0
 10
49.905997
 20
518.496953
 30
0.0
 10
49.346353
 20
517.937319
 30
0.0
 10
49.346353
 20
517.246955
 30
0.0
  0
SPLINE
  5
133
100
AcDbEntity
  8
base
 62
7
100
AcDbSpline
 70
8
 71
3
 72
8
 73
4
 74
0
 40
0
 40
0
 40
0
 40
0
 40
1
 40
1
 40
1
 40
1
 10
49.346353
 20
517.246955
 30
0.0
 10
49.346353
 20
516.556605
 30
0.0
 10
49.905997
 20
515.996958
 30
0.0
 10
50.596353
 20
515.996958
 30
0.0
  0
SPLINE
  5
134
100
AcDbEntity
  8
base
 62
7
100
AcDbSpline
 70
8
 71
3
 72
8
 73
4
 74
0
 40
0
 40
0
 40
0
 40
0
 40
1
 40
1
 40
1
 40
1
 10
50.596353
 20
515.996958
 30
0.0
 10
51.286709
 20
515.996958
 30
0.0
 10
51.846353
 20
516.556605
 30
0.0
 10
51.846353
 20
517.246955
 30
0.0
  0
SPLINE
  5
135
100
AcDbEntity
  8
base
 62
7
100
AcDbSpline
 70
8
 71
3
 72
8
 73
4
 74
0
 40
0
 40
0
 40
0
 40
0
 40
1
 40
1
 40
1
 40
1
 10
51.846353
 20
517.246955
 30
0.0
 10
51.846353
 20
517.578478
 30
0.0
 10
51.714657
 20
517.896414
 30
0.0
 10
51.480236
 20
518.130835
 30
0.0
  0
SPLINE
  5
136
100
AcDbEntity
  8
base
 62
7
100
AcDbSpline
 70
8
 71
3
 72
8
 73
4
 74
0
 40
0
 40
0
 40
0
 40
0
 40
1
 40
1
 40
1
 40
1
 10
51.480236
 20
518.130835
 30
0.0
 10
51.245816
 20
518.365256
 30
0.0
 10
50.927873
 20
518.496953
 30
0.0
 10
50.596353
 20
518.496953
 30
0.0
  0
SPLINE
  5
137
100
AcDbEntity
  8
base
 62
7
100
AcDbSpline
 70
8
 71
3
 72
8
 73
4
 74
0
 40
0
 40
0
 40
0
 40
0
 40
1
 40
1
 40
1
 40
1
 10
213.869030
 20
548.222210
 30
0.0
 10
213.779830
 20
548.148020
 30
0.0
 10
213.730590
 20
548.037795
 30
0.0
 10
213.730600
 20
547.921802
 30
0.0
  0
SPLINE
  5
138
100
AcDbEntity
  8
base
 62
7
100
AcDbSpline
 70
8
 71
3
 72
8
 73
4
 74
0
 40
0
 40
0
 40
0
 40
0
 40
1
 40
1
 40
1
 40
1
 10
224.971110
 20
558.921986
 30
0.0
 10
224.826970
 20
558.921933
 30
0.0
 10
224.689860
 20
558.859706
 30
0.0
 10
224.594940
 20
558.751224
 30
0.0
  0
SPLINE
  5
139
100
AcDbEntity
  8
base
 62
7
100
AcDbSpline
 70
8
 71
3
 72
8
 73
4
 74
0
 40
0
 40
0
 40
0
 40
0
 40
1
 40
1
 40
1
 40
1
 10
281.471130
 20
418.922000
 30
0.0
 10
281.603790
 20
418.921900
 30
0.0
 10
281.731030
 20
418.974500
 30
0.0
 10
281.824870
 20
419.068270
 30
0.0
  0
SPLINE
  5
13a
100
AcDbEntity
  8
base
 62
7
100
AcDbSpline
 70
8
 71
3
 72
8
 73
4
 74
0
 40
0
 40
0
 40
0
 40
0
 40
1
 40
1
 40
1
 40
1
 10
281.824870
 20
419.068270
 30
0.0
 10
281.918770
 20
419.161970
 30
0.0
 10
281.971480
 20
419.289220
 30
0.0
 10
281.971510
 20
419.421850
 30
0.0
  0
SPLINE
  5
13b
100
AcDbEntity
  8
base
 62
7
100
AcDbSpline
 70
8
 71
3
 72
8
 73
4
 74
0
 40
0
 40
0
 40
0
 40
0
 40
1
 40
1
 40
1
 40
1
 10
27.971255
 20
419.421850
 30
0.0
 10
27.971324
 20
419.145810
 30
0.0
 10
28.195085
 20
418.922060
 30
0.0
 10
28.471127
 20
418.922000
 30
0.0
  0
SPLINE
  5
13c
100
AcDbEntity
  8
base
 62
7
100
AcDbSpline
 70
8
 71
3
 72
8
 73
4
 74
0
 40
0
 40
0
 40
0
 40
0
 40
1
 40
1
 40
1
 40
1
 10
28.469349
 20
539.924030
 30
0.0
 10
28.193257
 20
539.923977
 30
0.0
 10
27.968969
 20
539.699743
 30
0.0
 10
27.968969
 20
539.423650
 30
0.0
  0
SPLINE
  5
13d
100
AcDbEntity
  8
base
 62
7
100
AcDbSpline
 70
8
 71
3
 72
8
 73
4
 74
0
 40
0
 40
0
 40
0
 40
0
 40
1
 40
1
 40
1
 40
1
 10
213.218790
 20
539.924030
 30
0.0
 10
213.351420
 20
539.924004
 30
0.0
 10
213.480910
 20
539.974620
 30
0.0
 10
213.574710
 20
540.068387
 30
0.0
  0
SPLINE
  5
13e
100
AcDbEntity
  8
base
 62
7
100
AcDbSpline
 70
8
 71
3
 72
8
 73
4
 74
0
 40
0
 40
0
 40
0
 40
0
 40
1
 40
1
 40
1
 40
1
 10
213.574710
 20
540.068387
 30
0.0
 10
213.668510
 20
540.162157
 30
0.0
 10
213.719130
 20
540.291774
 30
0.0
 10
213.719130
 20
540.424410
 30
0.0
  0
SPLINE
  5
13f
100
AcDbEntity
  8
base
 62
7
100
AcDbSpline
 70
8
 71
3
 72
8
 73
4
 74
0
 40
0
 40
0
 40
0
 40
0
 40
1
 40
1
 40
1
 40
1
 10
281.971510
 20
557.921967
 30
0.0
 10
281.971510
 20
558.187318
 30
0.0
 10
281.866040
 20
558.441794
 30
0.0
 10
281.678350
 20
558.629357
 30
0.0
  0
SPLINE
  5
140
100
AcDbEntity
  8
base
 62
7
100
AcDbSpline
 70
8
 71
3
 72
8
 73
4
 74
0
 40
0
 40
0
 40
0
 40
0
 40
1
 40
1
 40
1
 40
1
 10
281.678350
 20
558.629357
 30
0.0
 10
281.490650
 20
558.816920
 30
0.0
 10
281.236100
 20
558.922171
 30
0.0
 10
280.970750
 20
558.921986
 30
0.0
  0
LWPOLYLINE
  5
141
100
AcDbEntity
  8
base
 62
7
100
AcDbPolyline
 90
1
 70
1
 10
213.574710
 20
540.068387
 30
0.0
  0
LWPOLYLINE
  5
142
100
AcDbEntity
  8
base
 62
7
100
AcDbPolyline
 90
2
 70
0
 10
213.729330
 20
547.922490
 30
0.0
 10
213.719130
 20
540.424410
 30
0.0
  0
LWPOLYLINE
  5
143
100
AcDbEntity
  8
base
 62
7
100
AcDbPolyline
 90
2
 70
0
 10
213.869030
 20
548.222210
 30
0.0
 10
224.592910
 20
558.753050
 30
0.0
  0
LWPOLYLINE
  5
144
100
AcDbEntity
  8
base
 62
7
100
AcDbPolyline
 90
2
 70
0
 10
280.970750
 20
558.923230
 30
0.0
 10
224.968830
 20
558.923230
 30
0.0
  0
LWPOLYLINE
  5
145
100
AcDbEntity
  8
base
 62
7
100
AcDbPolyline
 90
2
 70
0
 10
27.968969
 20
539.423650
 30
0.0
 10
27.968969
 20
419.423890
 30
0.0
  0
LWPOLYLINE
  5
146
100
AcDbEntity
  8
base
 62
7
100
AcDbPolyline
 90
2
 70
0
 10
281.968970
 20
419.423890
 30
0.0
 10
281.968970
 20
557.922470
 30
0.0
  0
LWPOLYLINE
  5
147
100
AcDbEntity
  8
base
 62
7
100
AcDbPolyline
 90
2
 70
0
 10
28.469349
 20
418.923510
 30
0.0
 10
281.471130
 20
418.923510
 30
0.0
  0
SPLINE
  5
148
100
AcDbEntity
  8
base
 62
7
100
AcDbSpline
 70
8
 71
3
 72
8
 73
4
 74
0
 40
0
 40
0
 40
0
 40
0
 40
1
 40
1
 40
1
 40
1
 10
260.145150
 20
480.396455
 30
0.0
 10
259.639575
 20
480.396455
 30
0.0
 10
259.183780
 20
480.091905
 30
0.0
 10
258.990305
 20
479.624810
 30
0.0
  0
SPLINE
  5
149
100
AcDbEntity
  8
base
 62
7
100
AcDbSpline
 70
8
 71
3
 72
8
 73
4
 74
0
 40
0
 40
0
 40
0
 40
0
 40
1
 40
1
 40
1
 40
1
 10
258.990305
 20
479.624810
 30
0.0
 10
258.796825
 20
479.157715
 30
0.0
 10
258.903770
 20
478.620065
 30
0.0
 10
259.261270
 20
478.262575
 30
0.0
  0
SPLINE
  5
14a
100
AcDbEntity
  8
base
 62
7
100
AcDbSpline
 70
8
 71
3
 72
8
 73
4
 74
0
 40
0
 40
0
 40
0
 40
0
 40
1
 40
1
 40
1
 40
1
 10
259.261270
 20
478.262575
 30
0.0
 10
259.618765
 20
477.905070
 30
0.0
 10
260.156415
 20
477.798125
 30
0.0
 10
260.623505
 20
477.991600
 30
0.0
  0
SPLINE
  5
14b
100
AcDbEntity
  8
base
 62
7
100
AcDbSpline
 70
8
 71
3
 72
8
 73
4
 74
0
 40
0
 40
0
 40
0
 40
0
 40
1
 40
1
 40
1
 40
1
 10
260.623505
 20
477.991600
 30
0.0
 10
261.090600
 20
478.185080
 30
0.0
 10
261.395150
 20
478.640875
 30
0.0
 10
261.395150
 20
479.146455
 30
0.0
  0
SPLINE
  5
14c
100
AcDbEntity
  8
base
 62
7
100
AcDbSpline
 70
8
 71
3
 72
8
 73
4
 74
0
 40
0
 40
0
 40
0
 40
0
 40
1
 40
1
 40
1
 40
1
 10
261.395150
 20
479.146455
 30
0.0
 10
261.395150
 20
479.477980
 30
0.0
 10
261.263455
 20
479.795915
 30
0.0
 10
261.029035
 20
480.030335
 30
0.0
  0
SPLINE
  5
14d
100
AcDbEntity
  8
base
 62
7
100
AcDbSpline
 70
8
 71
3
 72
8
 73
4
 74
0
 40
0
 40
0
 40
0
 40
0
 40
1
 40
1
 40
1
 40
1
 10
261.029035
 20
480.030335
 30
0.0
 10
260.794615
 20
480.264755
 30
0.0
 10
260.476670
 20
480.396455
 30
0.0
 10
260.145150
 20
480.396455
 30
0.0
  0
LWPOLYLINE
  5
14e
100
AcDbEntity
  8
base
 62
7
100
AcDbPolyline
 90
2
 70
0
 10
28.469349
 20
539.924030
 30
0.0
 10
213.218790
 20
539.924030
 30
0.0
  0
ENDSEC
  0
SECTION
  2
OBJECTS
  0
DICTIONARY
  5
C
330
0
100
AcDbDictionary
  3
ACAD_GROUP
350
D
  3
ACAD_MLINESTYLE
350
17
  0
DICTIONARY
  5
D
330
C
100
AcDbDictionary
  0
DICTIONARY
  5
1A
330
C
100
AcDbDictionary
  0
DICTIONARY
  5
17
330
C
100
AcDbDictionary
  3
STANDARD
350
18
  0
DICTIONARY
  5
19
330
C
100
AcDbDictionary
  0
ENDSEC
  0
EOF
