M48
; DRILL file {KiCad (5.1.4)-1} date 14.02.2021 12:55:57
; FORMAT={-:-/ absolute / metric / decimal}
; #@! TF.CreationDate,2021-02-14T12:55:57+01:00
; #@! TF.GenerationSoftware,Kicad,Pcbnew,(5.1.4)-1
FMAT,2
METRIC
T1C0.400
T2C0.600
T3C0.650
T4C1.702
T5C3.000
T6C3.048
T7C3.988
%
G90
G05
T1
X-17.8Y-129.4
X37.2Y-66.7
X46.325Y-52.075
X46.33Y-71.12
X46.335Y-90.175
X46.34Y-109.235
X46.345Y-128.255
X46.35Y-147.3
X50.7Y-64.6
X50.7Y-140.5
X50.8Y-103.2
X55.8Y-146.9
X65.3Y-52.075
X65.3Y-71.125
X65.3Y-90.175
X65.3Y-109.225
X65.3Y-128.275
X65.3Y-147.325
X81.85Y-158.29
X84.375Y-109.225
X84.4Y-52.075
X84.4Y-71.1
X84.4Y-90.175
X84.4Y-128.2
X84.4Y-147.325
X103.475Y-52.075
X103.475Y-71.125
X103.475Y-90.15
X103.475Y-109.225
X103.475Y-128.225
X103.475Y-147.325
X108.0Y-141.0
X108.2Y-65.4
X122.425Y-71.1
X122.45Y-52.075
X122.45Y-90.15
X122.45Y-109.25
X122.45Y-128.325
X122.5Y-147.25
X128.6Y-154.3
X141.625Y-71.125
X141.625Y-109.225
X141.625Y-128.275
X141.637Y-90.237
X141.65Y-52.075
X141.75Y-147.25
X151.4Y-70.5
X160.225Y-146.475
X160.625Y-128.425
X160.65Y-52.05
X160.65Y-71.1
X160.65Y-90.125
X160.65Y-109.175
X178.09Y-145.59
X179.625Y-71.125
X179.625Y-90.175
X179.65Y-52.075
X179.65Y-109.225
X179.65Y-128.275
X184.3Y-65.2
X198.875Y-52.075
X198.875Y-71.075
X198.875Y-90.175
X198.875Y-109.2
X198.875Y-128.275
X199.0Y-147.25
X209.7Y-147.9
X217.95Y-52.075
X217.95Y-71.125
X217.95Y-90.175
X217.95Y-109.225
X217.95Y-128.275
X217.95Y-147.325
X221.1Y-157.8
X227.1Y-160.4
X230.6Y-37.1
X231.3Y-36.3
X231.8Y-30.705
X232.0Y-35.5
X232.8Y-31.5
X232.8Y-34.7
X233.5Y-32.3
X233.5Y-33.9
X234.2Y-33.1
X236.85Y-109.225
X236.9Y-52.075
X236.9Y-71.1
X236.9Y-90.175
X236.9Y-128.275
X236.9Y-147.325
X237.8Y-29.0
X237.825Y-105.375
X237.825Y-142.0
X237.9Y-39.5
X237.9Y-46.0
X237.9Y-66.875
X239.7Y-26.1
X241.0Y-44.8
X245.0Y-27.55
X246.3Y-146.9
X247.6Y-32.1
X248.2Y-27.55
X248.3Y-45.1
X248.5Y-48.8
X249.0Y-38.6
X249.8Y-27.6
X251.6Y-33.9
X253.1Y-144.4
X255.1Y-30.65
X255.95Y-52.075
X255.95Y-71.125
X255.95Y-90.175
X255.95Y-109.225
X255.95Y-128.275
X255.95Y-147.325
X266.219Y-33.234
X268.1Y-31.6
X269.9Y-34.0
X270.1Y-35.5
X270.4Y-37.1
X270.7Y-140.3
X271.2Y-100.1
X274.187Y-50.138
X274.95Y-52.075
X274.95Y-71.125
X274.95Y-90.175
X274.95Y-109.225
X274.95Y-128.275
X274.95Y-147.325
X275.7Y-105.2
X276.4Y-139.775
X276.5Y-141.2
T3
X274.275Y-32.61
X274.275Y-38.39
T4
X71.12Y-152.4
X81.28Y-152.4
X204.47Y-57.15
X214.63Y-57.15
X118.745Y-152.4
X128.905Y-152.4
X261.62Y-76.2
X271.78Y-76.2
X147.32Y-57.15
X157.48Y-57.15
X223.52Y-57.15
X233.68Y-57.15
X52.07Y-152.4
X62.23Y-152.4
X109.22Y-114.3
X119.38Y-114.3
X223.52Y-76.2
X233.68Y-76.2
X52.07Y-95.25
X62.23Y-95.25
X147.32Y-95.25
X157.48Y-95.25
X242.57Y-152.4
X252.73Y-152.4
X109.22Y-76.2
X119.38Y-76.2
X166.37Y-114.3
X176.53Y-114.3
X242.57Y-95.25
X252.73Y-95.25
X71.12Y-95.25
X81.28Y-95.25
X242.57Y-57.15
X252.73Y-57.15
X128.27Y-133.35
X138.43Y-133.35
X223.52Y-114.3
X233.68Y-114.3
X185.42Y-76.2
X195.58Y-76.2
X185.42Y-57.15
X195.58Y-57.15
X33.02Y-133.35
X43.18Y-133.35
X204.47Y-76.2
X214.63Y-76.2
X109.22Y-152.4
X119.38Y-152.4
X128.27Y-152.4
X138.43Y-152.4
X90.17Y-152.4
X100.33Y-152.4
X33.02Y-152.4
X43.18Y-152.4
X109.22Y-133.35
X119.38Y-133.35
X71.12Y-133.35
X81.28Y-133.35
X71.12Y-114.3
X81.28Y-114.3
X185.42Y-152.4
X195.58Y-152.4
X242.57Y-76.2
X252.73Y-76.2
X128.27Y-57.15
X138.43Y-57.15
X204.47Y-114.3
X214.63Y-114.3
X147.32Y-114.3
X157.48Y-114.3
X204.47Y-95.25
X214.63Y-95.25
X147.32Y-152.4
X157.48Y-152.4
X204.47Y-133.35
X214.63Y-133.35
X261.62Y-133.35
X271.78Y-133.35
X185.42Y-114.3
X195.58Y-114.3
X261.62Y-57.15
X271.78Y-57.15
X71.12Y-76.2
X81.28Y-76.2
X261.62Y-114.3
X271.78Y-114.3
X128.27Y-76.2
X138.43Y-76.2
X33.02Y-57.15
X43.18Y-57.15
X261.62Y-95.25
X271.78Y-95.25
X71.12Y-57.15
X81.28Y-57.15
X166.37Y-95.25
X176.53Y-95.25
X90.17Y-114.3
X100.33Y-114.3
X109.22Y-57.15
X119.38Y-57.15
X166.37Y-76.2
X176.53Y-76.2
X156.845Y-152.4
X167.005Y-152.4
X90.17Y-57.15
X100.33Y-57.15
X33.02Y-114.3
X43.18Y-114.3
X90.17Y-95.25
X100.33Y-95.25
X223.52Y-133.35
X233.68Y-133.35
X52.07Y-133.35
X62.23Y-133.35
X147.32Y-76.2
X157.48Y-76.2
X223.52Y-95.25
X233.68Y-95.25
X52.07Y-114.3
X62.23Y-114.3
X166.37Y-57.15
X176.53Y-57.15
X242.57Y-114.3
X252.73Y-114.3
X33.02Y-95.25
X43.18Y-95.25
X109.22Y-95.25
X119.38Y-95.25
X204.47Y-152.4
X214.63Y-152.4
X90.17Y-76.2
X100.33Y-76.2
X185.42Y-133.35
X195.58Y-133.35
X242.57Y-133.35
X252.73Y-133.35
X52.07Y-57.15
X62.23Y-57.15
X261.62Y-152.4
X271.78Y-152.4
X147.32Y-133.35
X157.48Y-133.35
X223.52Y-152.4
X233.68Y-152.4
X185.42Y-95.25
X195.58Y-95.25
X52.07Y-76.2
X62.23Y-76.2
X128.27Y-95.25
X138.43Y-95.25
X166.37Y-133.35
X176.53Y-133.35
X166.37Y-152.4
X176.53Y-152.4
X90.17Y-133.35
X100.33Y-133.35
X33.02Y-76.2
X43.18Y-76.2
X128.27Y-114.3
X138.43Y-114.3
T5
X148.59Y-54.61
X154.94Y-52.07
X224.79Y-54.61
X231.14Y-52.07
X53.34Y-149.86
X59.69Y-147.32
X110.49Y-111.76
X116.84Y-109.22
X224.79Y-73.66
X231.14Y-71.12
X53.34Y-92.71
X59.69Y-90.17
X148.59Y-92.71
X154.94Y-90.17
X243.84Y-149.86
X250.19Y-147.32
X110.49Y-73.66
X116.84Y-71.12
X167.64Y-111.76
X173.99Y-109.22
X243.84Y-92.71
X250.19Y-90.17
X72.39Y-92.71
X78.74Y-90.17
X243.84Y-54.61
X250.19Y-52.07
X129.54Y-130.81
X135.89Y-128.27
X224.79Y-111.76
X231.14Y-109.22
X186.69Y-73.66
X193.04Y-71.12
X186.69Y-54.61
X193.04Y-52.07
X34.29Y-130.81
X40.64Y-128.27
X205.74Y-73.66
X212.09Y-71.12
X111.76Y-157.48
X118.11Y-154.94
X130.81Y-157.48
X137.16Y-154.94
X91.44Y-149.86
X97.79Y-147.32
X34.29Y-149.86
X40.64Y-147.32
X110.49Y-130.81
X116.84Y-128.27
X72.39Y-130.81
X78.74Y-128.27
X72.39Y-111.76
X78.74Y-109.22
X186.69Y-149.86
X193.04Y-147.32
X243.84Y-73.66
X250.19Y-71.12
X129.54Y-54.61
X135.89Y-52.07
X205.74Y-111.76
X212.09Y-109.22
X148.59Y-111.76
X154.94Y-109.22
X205.74Y-92.71
X212.09Y-90.17
X149.86Y-157.48
X156.21Y-154.94
X205.74Y-130.81
X212.09Y-128.27
X262.89Y-130.81
X269.24Y-128.27
X186.69Y-111.76
X193.04Y-109.22
X262.89Y-54.61
X269.24Y-52.07
X72.39Y-73.66
X78.74Y-71.12
X262.89Y-111.76
X269.24Y-109.22
X129.54Y-73.66
X135.89Y-71.12
X34.29Y-54.61
X40.64Y-52.07
X262.89Y-92.71
X269.24Y-90.17
X72.39Y-54.61
X78.74Y-52.07
X167.64Y-92.71
X173.99Y-90.17
X91.44Y-111.76
X97.79Y-109.22
X110.49Y-54.61
X116.84Y-52.07
X167.64Y-73.66
X173.99Y-71.12
X158.115Y-149.86
X164.465Y-147.32
X91.44Y-54.61
X97.79Y-52.07
X34.29Y-111.76
X40.64Y-109.22
X91.44Y-92.71
X97.79Y-90.17
X224.79Y-130.81
X231.14Y-128.27
X53.34Y-130.81
X59.69Y-128.27
X148.59Y-73.66
X154.94Y-71.12
X224.79Y-92.71
X231.14Y-90.17
X53.34Y-111.76
X59.69Y-109.22
X167.64Y-54.61
X173.99Y-52.07
X243.84Y-111.76
X250.19Y-109.22
X34.29Y-92.71
X40.64Y-90.17
X110.49Y-92.71
X116.84Y-90.17
X205.74Y-149.86
X212.09Y-147.32
X91.44Y-73.66
X97.79Y-71.12
X186.69Y-130.81
X193.04Y-128.27
X243.84Y-130.81
X250.19Y-128.27
X53.34Y-54.61
X59.69Y-52.07
X262.89Y-149.86
X269.24Y-147.32
X148.59Y-130.81
X154.94Y-128.27
X224.79Y-149.86
X231.14Y-147.32
X186.69Y-92.71
X193.04Y-90.17
X53.34Y-73.66
X59.69Y-71.12
X129.54Y-92.71
X135.89Y-90.17
X167.64Y-130.81
X173.99Y-128.27
X168.91Y-157.48
X175.26Y-154.94
X91.44Y-130.81
X97.79Y-128.27
X34.29Y-73.66
X40.64Y-71.12
X129.54Y-111.76
X135.89Y-109.22
X72.39Y-149.86
X78.74Y-147.32
X205.74Y-54.61
X212.09Y-52.07
X120.015Y-149.86
X126.365Y-147.32
X262.89Y-73.66
X269.24Y-71.12
T6
X111.925Y-145.415
X135.725Y-145.415
X150.025Y-145.415
X173.825Y-145.415
X95.25Y-145.415
X209.55Y-145.415
T7
X228.6Y-133.35
X57.15Y-133.35
X152.4Y-76.2
X228.6Y-95.25
X57.15Y-114.3
X171.45Y-57.15
X247.65Y-114.3
X38.1Y-95.25
X114.3Y-95.25
X209.55Y-152.4
X95.25Y-76.2
X190.5Y-133.35
X247.65Y-133.35
X57.15Y-57.15
X266.7Y-152.4
X152.4Y-133.35
X228.6Y-152.4
X190.5Y-95.25
X57.15Y-76.2
X133.35Y-95.25
X150.025Y-160.655
X173.825Y-160.655
X171.45Y-133.35
X171.45Y-152.4
X95.25Y-133.35
X38.1Y-76.2
X133.35Y-114.3
X76.2Y-152.4
X209.55Y-57.15
X123.825Y-152.4
X266.7Y-76.2
X152.4Y-57.15
X228.6Y-57.15
X57.15Y-152.4
X114.3Y-114.3
X228.6Y-76.2
X57.15Y-95.25
X152.4Y-95.25
X247.65Y-152.4
X114.3Y-76.2
X171.45Y-114.3
X247.65Y-95.25
X76.2Y-95.25
X247.65Y-57.15
X133.35Y-133.35
X95.25Y-160.655
X209.55Y-160.655
X228.6Y-114.3
X190.5Y-76.2
X190.5Y-57.15
X38.1Y-133.35
X209.55Y-76.2
X114.3Y-152.4
X133.35Y-152.4
X95.25Y-152.4
X38.1Y-152.4
X114.3Y-133.35
X76.2Y-133.35
X76.2Y-114.3
X190.5Y-152.4
X247.65Y-76.2
X133.35Y-57.15
X209.55Y-114.3
X152.4Y-114.3
X209.55Y-95.25
X152.4Y-152.4
X209.55Y-133.35
X266.7Y-133.35
X190.5Y-114.3
X266.7Y-57.15
X76.2Y-76.2
X266.7Y-114.3
X133.35Y-76.2
X38.1Y-57.15
X266.7Y-95.25
X76.2Y-57.15
X171.45Y-95.25
X95.25Y-114.3
X114.3Y-57.15
X111.925Y-160.655
X135.725Y-160.655
X171.45Y-76.2
X161.925Y-152.4
X95.25Y-57.15
X38.1Y-114.3
X95.25Y-95.25
T2
G00X274.295Y-31.18
M15
G01X273.195Y-31.18
M16
G05
G00X274.295Y-39.82
M15
G01X273.195Y-39.82
M16
G05
G00X278.225Y-31.18
M15
G01X277.625Y-31.18
M16
G05
G00X278.225Y-39.82
M15
G01X277.625Y-39.82
M16
G05
T0
M30
