M48
; DRILL file {KiCad (5.1.6)-1} date 05/26/20 01:00:51
; FORMAT={3:3/ absolute / metric / suppress leading zeros}
; #@! TF.CreationDate,2020-05-26T01:00:51+02:00
; #@! TF.GenerationSoftware,Kicad,Pcbnew,(5.1.6)-1
; #@! TF.FileFunction,NonPlated,1,2,NPTH
FMAT,2
METRIC,TZ
T1C0.650
T2C1.702
T3C2.200
T4C3.000
T5C3.048
T6C3.988
%
G90
G05
T1
X274275Y-32610
X274275Y-38390
T2
X33020Y-114300
X43180Y-114300
X223520Y-76200
X233680Y-76200
X71120Y-57150
X81280Y-57150
X261620Y-95250
X271780Y-95250
X90170Y-133350
X100330Y-133350
X147320Y-76200
X157480Y-76200
X242570Y-95250
X252730Y-95250
X118745Y-152400
X128905Y-152400
X71120Y-114300
X81280Y-114300
X175895Y-152400
X186055Y-152400
X147320Y-114300
X157480Y-114300
X166370Y-57150
X176530Y-57150
X90170Y-95250
X100330Y-95250
X90170Y-152400
X100330Y-152400
X33020Y-152400
X43180Y-152400
X261620Y-133350
X271780Y-133350
X185420Y-95250
X195580Y-95250
X204470Y-95250
X214630Y-95250
X90170Y-57150
X100330Y-57150
X147320Y-57150
X157480Y-57150
X71120Y-152400
X81280Y-152400
X33020Y-57150
X43180Y-57150
X204470Y-152400
X214630Y-152400
X223520Y-95250
X233680Y-95250
X109220Y-152400
X119380Y-152400
X109220Y-95250
X119380Y-95250
X33020Y-76200
X43180Y-76200
X204470Y-133350
X214630Y-133350
X109220Y-114300
X119380Y-114300
X204470Y-114300
X214630Y-114300
X109220Y-57150
X119380Y-57150
X71120Y-133350
X81280Y-133350
X52070Y-95250
X62230Y-95250
X223520Y-152400
X233680Y-152400
X52070Y-152400
X62230Y-152400
X242570Y-133350
X252730Y-133350
X242570Y-114300
X252730Y-114300
X128270Y-133350
X138430Y-133350
X109220Y-76200
X119380Y-76200
X166370Y-95250
X176530Y-95250
X52070Y-114300
X62230Y-114300
X185420Y-152400
X195580Y-152400
X147320Y-95250
X157480Y-95250
X147320Y-152400
X157480Y-152400
X109220Y-133350
X119380Y-133350
X52070Y-76200
X62230Y-76200
X223520Y-57150
X233680Y-57150
X261620Y-57150
X271780Y-57150
X242570Y-152400
X252730Y-152400
X185420Y-57150
X195580Y-57150
X242570Y-57150
X252730Y-57150
X128270Y-76200
X138430Y-76200
X52070Y-133350
X62230Y-133350
X204470Y-57150
X214630Y-57150
X166370Y-133350
X176530Y-133350
X128270Y-95250
X138430Y-95250
X194945Y-152400
X205105Y-152400
X147320Y-133350
X157480Y-133350
X128270Y-152400
X138430Y-152400
X242570Y-76200
X252730Y-76200
X261620Y-152400
X271780Y-152400
X261620Y-76200
X271780Y-76200
X185420Y-114300
X195580Y-114300
X90170Y-76200
X100330Y-76200
X128270Y-57150
X138430Y-57150
X52070Y-57150
X62230Y-57150
X204470Y-76200
X214630Y-76200
X99695Y-152400
X109855Y-152400
X71120Y-95250
X81280Y-95250
X185420Y-76200
X195580Y-76200
X156845Y-152400
X167005Y-152400
X166370Y-76200
X176530Y-76200
X33020Y-95250
X43180Y-95250
X261620Y-114300
X271780Y-114300
X33020Y-133350
X43180Y-133350
X185420Y-133350
X195580Y-133350
X223520Y-133350
X233680Y-133350
X166370Y-114300
X176530Y-114300
X223520Y-114300
X233680Y-114300
X137795Y-152400
X147955Y-152400
X71120Y-76200
X81280Y-76200
X128270Y-114300
X138430Y-114300
X166370Y-152400
X176530Y-152400
X90170Y-114300
X100330Y-114300
T3
X161760Y-142890
X256890Y-142890
X47610Y-142890
X142540Y-104700
X213980Y-38050
X47610Y-104700
X47610Y-66830
X256890Y-104700
X263140Y-41450
X161760Y-66830
T4
X34290Y-92710
X40640Y-90170
X262890Y-111760
X269240Y-109220
X34290Y-130810
X40640Y-128270
X186690Y-130810
X193040Y-128270
X224790Y-130810
X231140Y-128270
X167640Y-111760
X173990Y-109220
X224790Y-111760
X231140Y-109220
X140335Y-157480
X146685Y-154940
X72390Y-73660
X78740Y-71120
X129540Y-111760
X135890Y-109220
X167640Y-149860
X173990Y-147320
X91440Y-111760
X97790Y-109220
X34290Y-111760
X40640Y-109220
X224790Y-73660
X231140Y-71120
X72390Y-54610
X78740Y-52070
X262890Y-92710
X269240Y-90170
X91440Y-130810
X97790Y-128270
X148590Y-73660
X154940Y-71120
X243840Y-92710
X250190Y-90170
X121285Y-157480
X127635Y-154940
X72390Y-111760
X78740Y-109220
X178435Y-157480
X184785Y-154940
X148590Y-111760
X154940Y-109220
X167640Y-54610
X173990Y-52070
X91440Y-92710
X97790Y-90170
X91440Y-149860
X97790Y-147320
X34290Y-149860
X40640Y-147320
X262890Y-130810
X269240Y-128270
X186690Y-92710
X193040Y-90170
X205740Y-92710
X212090Y-90170
X91440Y-54610
X97790Y-52070
X148590Y-54610
X154940Y-52070
X72390Y-149860
X78740Y-147320
X34290Y-54610
X40640Y-52070
X205740Y-149860
X212090Y-147320
X224790Y-92710
X231140Y-90170
X110490Y-149860
X116840Y-147320
X110490Y-92710
X116840Y-90170
X34290Y-73660
X40640Y-71120
X205740Y-130810
X212090Y-128270
X110490Y-111760
X116840Y-109220
X205740Y-111760
X212090Y-109220
X110490Y-54610
X116840Y-52070
X72390Y-130810
X78740Y-128270
X53340Y-92710
X59690Y-90170
X224790Y-149860
X231140Y-147320
X53340Y-149860
X59690Y-147320
X243840Y-130810
X250190Y-128270
X243840Y-111760
X250190Y-109220
X129540Y-130810
X135890Y-128270
X110490Y-73660
X116840Y-71120
X167640Y-92710
X173990Y-90170
X53340Y-111760
X59690Y-109220
X186690Y-149860
X193040Y-147320
X148590Y-92710
X154940Y-90170
X148590Y-149860
X154940Y-147320
X110490Y-130810
X116840Y-128270
X53340Y-73660
X59690Y-71120
X224790Y-54610
X231140Y-52070
X262890Y-54610
X269240Y-52070
X243840Y-149860
X250190Y-147320
X186690Y-54610
X193040Y-52070
X243840Y-54610
X250190Y-52070
X129540Y-73660
X135890Y-71120
X53340Y-130810
X59690Y-128270
X205740Y-54610
X212090Y-52070
X167640Y-130810
X173990Y-128270
X129540Y-92710
X135890Y-90170
X197485Y-157480
X203835Y-154940
X148590Y-130810
X154940Y-128270
X129540Y-149860
X135890Y-147320
X243840Y-73660
X250190Y-71120
X262890Y-149860
X269240Y-147320
X262890Y-73660
X269240Y-71120
X186690Y-111760
X193040Y-109220
X91440Y-73660
X97790Y-71120
X129540Y-54610
X135890Y-52070
X53340Y-54610
X59690Y-52070
X205740Y-73660
X212090Y-71120
X102235Y-157480
X108585Y-154940
X72390Y-92710
X78740Y-90170
X186690Y-73660
X193040Y-71120
X159385Y-157480
X165735Y-154940
X167640Y-73660
X173990Y-71120
T5
X92875Y-145415
X116675Y-145415
X95250Y-145415
X133350Y-145415
X150025Y-145415
X173825Y-145415
X169075Y-145415
X192875Y-145415
X152400Y-145415
X190500Y-145415
X111925Y-145415
X135725Y-145415
X171450Y-145415
X209550Y-145415
X188125Y-145415
X211925Y-145415
X114300Y-145415
X152400Y-145415
X130975Y-145415
X154775Y-145415
T6
X95250Y-95250
X95250Y-152400
X38100Y-152400
X266700Y-133350
X190500Y-95250
X209550Y-95250
X92875Y-160655
X116675Y-160655
X95250Y-57150
X95250Y-160655
X133350Y-160655
X152400Y-57150
X76200Y-152400
X38100Y-57150
X209550Y-152400
X228600Y-95250
X114300Y-152400
X114300Y-95250
X38100Y-76200
X209550Y-133350
X114300Y-114300
X209550Y-114300
X150025Y-160655
X173825Y-160655
X114300Y-57150
X169075Y-160655
X192875Y-160655
X76200Y-133350
X57150Y-95250
X228600Y-152400
X57150Y-152400
X247650Y-133350
X247650Y-114300
X133350Y-133350
X114300Y-76200
X171450Y-95250
X57150Y-114300
X190500Y-152400
X152400Y-160655
X190500Y-160655
X152400Y-95250
X111925Y-160655
X135725Y-160655
X152400Y-152400
X171450Y-160655
X209550Y-160655
X114300Y-133350
X57150Y-76200
X228600Y-57150
X266700Y-57150
X247650Y-152400
X190500Y-57150
X247650Y-57150
X133350Y-76200
X57150Y-133350
X209550Y-57150
X171450Y-133350
X188125Y-160655
X211925Y-160655
X133350Y-95250
X200025Y-152400
X152400Y-133350
X133350Y-152400
X247650Y-76200
X266700Y-152400
X266700Y-76200
X190500Y-114300
X95250Y-76200
X133350Y-57150
X57150Y-57150
X209550Y-76200
X104775Y-152400
X76200Y-95250
X114300Y-160655
X152400Y-160655
X190500Y-76200
X161925Y-152400
X171450Y-76200
X38100Y-95250
X266700Y-114300
X38100Y-133350
X190500Y-133350
X228600Y-133350
X171450Y-114300
X228600Y-114300
X142875Y-152400
X76200Y-76200
X130975Y-160655
X154775Y-160655
X133350Y-114300
X171450Y-152400
X95250Y-114300
X38100Y-114300
X228600Y-76200
X76200Y-57150
X266700Y-95250
X95250Y-133350
X152400Y-76200
X247650Y-95250
X123825Y-152400
X76200Y-114300
X180975Y-152400
X152400Y-114300
X171450Y-57150
T0
M30
