G04 #@! TF.GenerationSoftware,KiCad,Pcbnew,(5.1.5)-3*
G04 #@! TF.CreationDate,2020-03-08T23:01:55+01:00*
G04 #@! TF.ProjectId,index-tab,696e6465-782d-4746-9162-2e6b69636164,rev?*
G04 #@! TF.SameCoordinates,Original*
G04 #@! TF.FileFunction,Legend,Top*
G04 #@! TF.FilePolarity,Positive*
%FSLAX46Y46*%
G04 Gerber Fmt 4.6, Leading zero omitted, Abs format (unit mm)*
G04 Created by KiCad (PCBNEW (5.1.5)-3) date 2020-03-08 23:01:55*
%MOMM*%
%LPD*%
G04 APERTURE LIST*
%ADD10C,0.010000*%
%ADD11C,0.150000*%
G04 APERTURE END LIST*
D10*
G36*
X196921191Y-69427926D02*
G01*
X198053583Y-69724167D01*
X199065382Y-70232050D01*
X199946140Y-70944116D01*
X200685408Y-71852908D01*
X201272738Y-72950970D01*
X201697680Y-74230844D01*
X201949787Y-75685074D01*
X202003192Y-76376759D01*
X201986788Y-77830354D01*
X201807893Y-79406492D01*
X201478082Y-81042742D01*
X201008934Y-82676672D01*
X200651659Y-83665000D01*
X199665194Y-85889392D01*
X198498111Y-88013320D01*
X197170255Y-90010693D01*
X195701469Y-91855422D01*
X194111597Y-93521418D01*
X192420484Y-94982591D01*
X191562500Y-95614771D01*
X190120688Y-96509048D01*
X188671974Y-97194995D01*
X187238703Y-97665774D01*
X185843223Y-97914549D01*
X184507881Y-97934480D01*
X184114489Y-97893772D01*
X183433281Y-97734807D01*
X182679264Y-97451460D01*
X181959477Y-97090816D01*
X181380961Y-96699957D01*
X181359296Y-96681848D01*
X180944438Y-96265708D01*
X180496794Y-95714698D01*
X180088614Y-95125210D01*
X179792150Y-94593636D01*
X179789107Y-94587000D01*
X179350224Y-93345702D01*
X179087790Y-91944507D01*
X179034780Y-90991481D01*
X180101841Y-90991481D01*
X180253627Y-92227616D01*
X180460921Y-93030365D01*
X180764368Y-93846660D01*
X181126726Y-94590390D01*
X181510752Y-95175447D01*
X181548363Y-95221256D01*
X182270467Y-95886689D01*
X183146686Y-96363768D01*
X184154422Y-96646590D01*
X185271076Y-96729253D01*
X186474048Y-96605852D01*
X186687077Y-96563625D01*
X187974785Y-96177946D01*
X189307938Y-95566405D01*
X190663465Y-94747727D01*
X192018298Y-93740634D01*
X193349366Y-92563851D01*
X194633599Y-91236100D01*
X195847927Y-89776105D01*
X196946630Y-88237000D01*
X197268538Y-87743420D01*
X197553338Y-87296945D01*
X197760924Y-86960928D01*
X197831019Y-86840000D01*
X198778429Y-84981547D01*
X199530616Y-83243570D01*
X200096690Y-81595668D01*
X200485763Y-80007442D01*
X200706946Y-78448493D01*
X200770000Y-77034258D01*
X200697986Y-75559340D01*
X200478706Y-74286772D01*
X200107303Y-73208583D01*
X199578920Y-72316801D01*
X198888698Y-71603454D01*
X198031781Y-71060569D01*
X197003311Y-70680173D01*
X196878715Y-70647711D01*
X195880630Y-70520689D01*
X194779490Y-70603754D01*
X193599004Y-70886888D01*
X192362887Y-71360074D01*
X191094849Y-72013296D01*
X189818601Y-72836535D01*
X188557856Y-73819774D01*
X187832370Y-74469484D01*
X186425520Y-75908659D01*
X185131133Y-77461674D01*
X183959852Y-79103590D01*
X182922320Y-80809470D01*
X182029179Y-82554376D01*
X181291072Y-84313370D01*
X180718642Y-86061515D01*
X180322532Y-87773874D01*
X180113384Y-89425508D01*
X180101841Y-90991481D01*
X179034780Y-90991481D01*
X179002250Y-90406651D01*
X179094045Y-88755368D01*
X179363619Y-87013895D01*
X179623226Y-85887500D01*
X180112121Y-84309685D01*
X180775141Y-82643542D01*
X181582069Y-80951610D01*
X182502690Y-79296432D01*
X183506789Y-77740546D01*
X183672813Y-77505500D01*
X184040551Y-77014699D01*
X184500974Y-76434455D01*
X185012912Y-75813158D01*
X185535194Y-75199196D01*
X186026651Y-74640958D01*
X186446111Y-74186835D01*
X186752406Y-73885214D01*
X186754879Y-73883024D01*
X188061845Y-72771571D01*
X189256325Y-71851373D01*
X190367946Y-71103161D01*
X191426338Y-70507669D01*
X192461128Y-70045629D01*
X192904951Y-69883613D01*
X194336426Y-69500192D01*
X195678656Y-69350781D01*
X196921191Y-69427926D01*
G37*
X196921191Y-69427926D02*
X198053583Y-69724167D01*
X199065382Y-70232050D01*
X199946140Y-70944116D01*
X200685408Y-71852908D01*
X201272738Y-72950970D01*
X201697680Y-74230844D01*
X201949787Y-75685074D01*
X202003192Y-76376759D01*
X201986788Y-77830354D01*
X201807893Y-79406492D01*
X201478082Y-81042742D01*
X201008934Y-82676672D01*
X200651659Y-83665000D01*
X199665194Y-85889392D01*
X198498111Y-88013320D01*
X197170255Y-90010693D01*
X195701469Y-91855422D01*
X194111597Y-93521418D01*
X192420484Y-94982591D01*
X191562500Y-95614771D01*
X190120688Y-96509048D01*
X188671974Y-97194995D01*
X187238703Y-97665774D01*
X185843223Y-97914549D01*
X184507881Y-97934480D01*
X184114489Y-97893772D01*
X183433281Y-97734807D01*
X182679264Y-97451460D01*
X181959477Y-97090816D01*
X181380961Y-96699957D01*
X181359296Y-96681848D01*
X180944438Y-96265708D01*
X180496794Y-95714698D01*
X180088614Y-95125210D01*
X179792150Y-94593636D01*
X179789107Y-94587000D01*
X179350224Y-93345702D01*
X179087790Y-91944507D01*
X179034780Y-90991481D01*
X180101841Y-90991481D01*
X180253627Y-92227616D01*
X180460921Y-93030365D01*
X180764368Y-93846660D01*
X181126726Y-94590390D01*
X181510752Y-95175447D01*
X181548363Y-95221256D01*
X182270467Y-95886689D01*
X183146686Y-96363768D01*
X184154422Y-96646590D01*
X185271076Y-96729253D01*
X186474048Y-96605852D01*
X186687077Y-96563625D01*
X187974785Y-96177946D01*
X189307938Y-95566405D01*
X190663465Y-94747727D01*
X192018298Y-93740634D01*
X193349366Y-92563851D01*
X194633599Y-91236100D01*
X195847927Y-89776105D01*
X196946630Y-88237000D01*
X197268538Y-87743420D01*
X197553338Y-87296945D01*
X197760924Y-86960928D01*
X197831019Y-86840000D01*
X198778429Y-84981547D01*
X199530616Y-83243570D01*
X200096690Y-81595668D01*
X200485763Y-80007442D01*
X200706946Y-78448493D01*
X200770000Y-77034258D01*
X200697986Y-75559340D01*
X200478706Y-74286772D01*
X200107303Y-73208583D01*
X199578920Y-72316801D01*
X198888698Y-71603454D01*
X198031781Y-71060569D01*
X197003311Y-70680173D01*
X196878715Y-70647711D01*
X195880630Y-70520689D01*
X194779490Y-70603754D01*
X193599004Y-70886888D01*
X192362887Y-71360074D01*
X191094849Y-72013296D01*
X189818601Y-72836535D01*
X188557856Y-73819774D01*
X187832370Y-74469484D01*
X186425520Y-75908659D01*
X185131133Y-77461674D01*
X183959852Y-79103590D01*
X182922320Y-80809470D01*
X182029179Y-82554376D01*
X181291072Y-84313370D01*
X180718642Y-86061515D01*
X180322532Y-87773874D01*
X180113384Y-89425508D01*
X180101841Y-90991481D01*
X179034780Y-90991481D01*
X179002250Y-90406651D01*
X179094045Y-88755368D01*
X179363619Y-87013895D01*
X179623226Y-85887500D01*
X180112121Y-84309685D01*
X180775141Y-82643542D01*
X181582069Y-80951610D01*
X182502690Y-79296432D01*
X183506789Y-77740546D01*
X183672813Y-77505500D01*
X184040551Y-77014699D01*
X184500974Y-76434455D01*
X185012912Y-75813158D01*
X185535194Y-75199196D01*
X186026651Y-74640958D01*
X186446111Y-74186835D01*
X186752406Y-73885214D01*
X186754879Y-73883024D01*
X188061845Y-72771571D01*
X189256325Y-71851373D01*
X190367946Y-71103161D01*
X191426338Y-70507669D01*
X192461128Y-70045629D01*
X192904951Y-69883613D01*
X194336426Y-69500192D01*
X195678656Y-69350781D01*
X196921191Y-69427926D01*
G36*
X256550876Y-67089426D02*
G01*
X257843106Y-67541487D01*
X258966865Y-68160777D01*
X260164394Y-69085926D01*
X261207398Y-70192132D01*
X262102386Y-71488868D01*
X262855869Y-72985608D01*
X263474355Y-74691822D01*
X263489669Y-74742295D01*
X263719516Y-75532325D01*
X263894934Y-76221882D01*
X264022829Y-76867125D01*
X264110108Y-77524215D01*
X264163677Y-78249310D01*
X264190441Y-79098570D01*
X264197308Y-80128155D01*
X264196486Y-80490000D01*
X264184056Y-81641301D01*
X264151245Y-82601210D01*
X264090827Y-83431995D01*
X263995574Y-84195922D01*
X263858259Y-84955259D01*
X263671655Y-85772274D01*
X263510186Y-86402938D01*
X263318151Y-87121297D01*
X263161253Y-87673544D01*
X263012804Y-88139931D01*
X262846117Y-88600707D01*
X262634505Y-89136123D01*
X262456800Y-89570500D01*
X261543291Y-91543714D01*
X260504883Y-93337382D01*
X259351359Y-94941071D01*
X258092506Y-96344352D01*
X256738109Y-97536795D01*
X255297954Y-98507970D01*
X253781826Y-99247447D01*
X253166647Y-99472590D01*
X252363619Y-99678586D01*
X251443777Y-99817464D01*
X250503338Y-99881347D01*
X249638521Y-99862360D01*
X249157000Y-99800813D01*
X247822402Y-99423574D01*
X246577154Y-98820301D01*
X245430492Y-98005996D01*
X244391652Y-96995658D01*
X243469870Y-95804290D01*
X242674382Y-94446892D01*
X242014425Y-92938465D01*
X241499235Y-91294011D01*
X241138047Y-89528530D01*
X240940098Y-87657023D01*
X240903342Y-86395500D01*
X240904940Y-86344373D01*
X242839116Y-86344373D01*
X242850469Y-86840000D01*
X243012282Y-88723756D01*
X243325848Y-90462384D01*
X243784435Y-92045096D01*
X244381310Y-93461103D01*
X245109741Y-94699617D01*
X245962995Y-95749849D01*
X246934339Y-96601011D01*
X248017041Y-97242314D01*
X249204369Y-97662971D01*
X249665000Y-97759863D01*
X250157839Y-97834697D01*
X250567201Y-97860050D01*
X250975463Y-97830051D01*
X251465007Y-97738829D01*
X252093465Y-97586797D01*
X253396817Y-97151024D01*
X254621528Y-96517824D01*
X255796690Y-95668964D01*
X256951392Y-94586214D01*
X257054516Y-94477511D01*
X258196439Y-93116016D01*
X259201297Y-91620450D01*
X260067062Y-90014503D01*
X260791711Y-88321867D01*
X261373217Y-86566234D01*
X261809554Y-84771294D01*
X262098696Y-82960738D01*
X262238619Y-81158258D01*
X262227296Y-79387545D01*
X262062702Y-77672290D01*
X261742810Y-76036184D01*
X261265596Y-74502918D01*
X260629033Y-73096184D01*
X259831096Y-71839673D01*
X259066268Y-70949489D01*
X258096510Y-70097061D01*
X257099103Y-69486413D01*
X256046757Y-69105325D01*
X254912182Y-68941578D01*
X254562795Y-68933000D01*
X253336916Y-69056950D01*
X252101213Y-69419672D01*
X250873717Y-70007466D01*
X249672460Y-70806635D01*
X248515475Y-71803482D01*
X247420793Y-72984309D01*
X246406447Y-74335418D01*
X245507733Y-75811463D01*
X245120028Y-76583625D01*
X244706993Y-77512567D01*
X244302817Y-78512199D01*
X243941686Y-79496429D01*
X243657788Y-80379168D01*
X243575213Y-80677991D01*
X243264266Y-82076997D01*
X243031081Y-83545996D01*
X242885938Y-84997588D01*
X242839116Y-86344373D01*
X240904940Y-86344373D01*
X240936029Y-85350097D01*
X241026812Y-84197755D01*
X241165336Y-83022202D01*
X241341243Y-81907164D01*
X241544178Y-80936368D01*
X241610219Y-80680500D01*
X241740386Y-80201686D01*
X241858399Y-79763989D01*
X241918768Y-79537500D01*
X242391919Y-78047640D01*
X243033851Y-76487339D01*
X243808116Y-74935815D01*
X244678267Y-73472283D01*
X244781970Y-73314500D01*
X245197671Y-72695722D01*
X245537657Y-72214815D01*
X245854646Y-71807386D01*
X246201351Y-71409043D01*
X246630488Y-70955391D01*
X247125000Y-70452408D01*
X248410764Y-69292265D01*
X249740966Y-68354016D01*
X251101101Y-67640469D01*
X252476663Y-67154429D01*
X253853150Y-66898704D01*
X255216055Y-66876101D01*
X256550876Y-67089426D01*
G37*
X256550876Y-67089426D02*
X257843106Y-67541487D01*
X258966865Y-68160777D01*
X260164394Y-69085926D01*
X261207398Y-70192132D01*
X262102386Y-71488868D01*
X262855869Y-72985608D01*
X263474355Y-74691822D01*
X263489669Y-74742295D01*
X263719516Y-75532325D01*
X263894934Y-76221882D01*
X264022829Y-76867125D01*
X264110108Y-77524215D01*
X264163677Y-78249310D01*
X264190441Y-79098570D01*
X264197308Y-80128155D01*
X264196486Y-80490000D01*
X264184056Y-81641301D01*
X264151245Y-82601210D01*
X264090827Y-83431995D01*
X263995574Y-84195922D01*
X263858259Y-84955259D01*
X263671655Y-85772274D01*
X263510186Y-86402938D01*
X263318151Y-87121297D01*
X263161253Y-87673544D01*
X263012804Y-88139931D01*
X262846117Y-88600707D01*
X262634505Y-89136123D01*
X262456800Y-89570500D01*
X261543291Y-91543714D01*
X260504883Y-93337382D01*
X259351359Y-94941071D01*
X258092506Y-96344352D01*
X256738109Y-97536795D01*
X255297954Y-98507970D01*
X253781826Y-99247447D01*
X253166647Y-99472590D01*
X252363619Y-99678586D01*
X251443777Y-99817464D01*
X250503338Y-99881347D01*
X249638521Y-99862360D01*
X249157000Y-99800813D01*
X247822402Y-99423574D01*
X246577154Y-98820301D01*
X245430492Y-98005996D01*
X244391652Y-96995658D01*
X243469870Y-95804290D01*
X242674382Y-94446892D01*
X242014425Y-92938465D01*
X241499235Y-91294011D01*
X241138047Y-89528530D01*
X240940098Y-87657023D01*
X240903342Y-86395500D01*
X240904940Y-86344373D01*
X242839116Y-86344373D01*
X242850469Y-86840000D01*
X243012282Y-88723756D01*
X243325848Y-90462384D01*
X243784435Y-92045096D01*
X244381310Y-93461103D01*
X245109741Y-94699617D01*
X245962995Y-95749849D01*
X246934339Y-96601011D01*
X248017041Y-97242314D01*
X249204369Y-97662971D01*
X249665000Y-97759863D01*
X250157839Y-97834697D01*
X250567201Y-97860050D01*
X250975463Y-97830051D01*
X251465007Y-97738829D01*
X252093465Y-97586797D01*
X253396817Y-97151024D01*
X254621528Y-96517824D01*
X255796690Y-95668964D01*
X256951392Y-94586214D01*
X257054516Y-94477511D01*
X258196439Y-93116016D01*
X259201297Y-91620450D01*
X260067062Y-90014503D01*
X260791711Y-88321867D01*
X261373217Y-86566234D01*
X261809554Y-84771294D01*
X262098696Y-82960738D01*
X262238619Y-81158258D01*
X262227296Y-79387545D01*
X262062702Y-77672290D01*
X261742810Y-76036184D01*
X261265596Y-74502918D01*
X260629033Y-73096184D01*
X259831096Y-71839673D01*
X259066268Y-70949489D01*
X258096510Y-70097061D01*
X257099103Y-69486413D01*
X256046757Y-69105325D01*
X254912182Y-68941578D01*
X254562795Y-68933000D01*
X253336916Y-69056950D01*
X252101213Y-69419672D01*
X250873717Y-70007466D01*
X249672460Y-70806635D01*
X248515475Y-71803482D01*
X247420793Y-72984309D01*
X246406447Y-74335418D01*
X245507733Y-75811463D01*
X245120028Y-76583625D01*
X244706993Y-77512567D01*
X244302817Y-78512199D01*
X243941686Y-79496429D01*
X243657788Y-80379168D01*
X243575213Y-80677991D01*
X243264266Y-82076997D01*
X243031081Y-83545996D01*
X242885938Y-84997588D01*
X242839116Y-86344373D01*
X240904940Y-86344373D01*
X240936029Y-85350097D01*
X241026812Y-84197755D01*
X241165336Y-83022202D01*
X241341243Y-81907164D01*
X241544178Y-80936368D01*
X241610219Y-80680500D01*
X241740386Y-80201686D01*
X241858399Y-79763989D01*
X241918768Y-79537500D01*
X242391919Y-78047640D01*
X243033851Y-76487339D01*
X243808116Y-74935815D01*
X244678267Y-73472283D01*
X244781970Y-73314500D01*
X245197671Y-72695722D01*
X245537657Y-72214815D01*
X245854646Y-71807386D01*
X246201351Y-71409043D01*
X246630488Y-70955391D01*
X247125000Y-70452408D01*
X248410764Y-69292265D01*
X249740966Y-68354016D01*
X251101101Y-67640469D01*
X252476663Y-67154429D01*
X253853150Y-66898704D01*
X255216055Y-66876101D01*
X256550876Y-67089426D01*
G36*
X201663110Y-61343616D02*
G01*
X202708506Y-61380012D01*
X203698599Y-61445655D01*
X204561745Y-61538307D01*
X205088000Y-61625255D01*
X206982298Y-62127020D01*
X208730699Y-62824946D01*
X210323963Y-63712447D01*
X211752849Y-64782940D01*
X213008116Y-66029838D01*
X214080522Y-67446557D01*
X214676335Y-68457607D01*
X215439010Y-70165807D01*
X215974799Y-71982053D01*
X216282963Y-73898750D01*
X216362766Y-75908305D01*
X216213468Y-78003123D01*
X215834332Y-80175608D01*
X215820737Y-80236000D01*
X215673492Y-80855497D01*
X215521246Y-81445059D01*
X215386051Y-81921495D01*
X215319886Y-82125217D01*
X215201973Y-82463998D01*
X215130667Y-82686844D01*
X215121000Y-82728467D01*
X215243309Y-82742515D01*
X215591503Y-82754011D01*
X216137480Y-82763032D01*
X216853138Y-82769655D01*
X217710374Y-82773954D01*
X218681088Y-82776008D01*
X219737177Y-82775891D01*
X220850540Y-82773680D01*
X221993074Y-82769451D01*
X223136678Y-82763281D01*
X224253249Y-82755245D01*
X225314687Y-82745421D01*
X226292889Y-82733883D01*
X227159753Y-82720709D01*
X227887178Y-82705975D01*
X228367289Y-82692535D01*
X230859424Y-82609071D01*
X230939607Y-82025785D01*
X231371279Y-79742996D01*
X232035291Y-77509667D01*
X232940713Y-75297012D01*
X233284984Y-74584500D01*
X234211606Y-72891824D01*
X235220419Y-71370283D01*
X236368484Y-69938259D01*
X237072320Y-69167254D01*
X238892940Y-67424877D01*
X240826069Y-65910190D01*
X242872851Y-64622598D01*
X245034430Y-63561508D01*
X247311951Y-62726325D01*
X249706556Y-62116454D01*
X251114727Y-61870821D01*
X251921388Y-61785048D01*
X252901409Y-61732269D01*
X253991202Y-61711349D01*
X255127182Y-61721152D01*
X256245762Y-61760544D01*
X257283355Y-61828390D01*
X258176375Y-61923552D01*
X258682000Y-62005928D01*
X261139255Y-62613989D01*
X263479282Y-63436317D01*
X265691053Y-64464604D01*
X267763539Y-65690544D01*
X269685712Y-67105827D01*
X271446542Y-68702147D01*
X273035002Y-70471196D01*
X274440063Y-72404665D01*
X275650696Y-74494247D01*
X275885690Y-74965500D01*
X276785840Y-77032861D01*
X277458265Y-79071296D01*
X277915354Y-81134713D01*
X278169496Y-83277018D01*
X278235204Y-85189000D01*
X278130622Y-87571927D01*
X277812865Y-89834190D01*
X277276448Y-92001348D01*
X276515887Y-94098956D01*
X276144585Y-94930816D01*
X275594257Y-96100133D01*
X275454797Y-101344316D01*
X275426810Y-102396947D01*
X275393096Y-103665395D01*
X275354667Y-105111570D01*
X275312533Y-106697378D01*
X275267708Y-108384728D01*
X275221203Y-110135526D01*
X275174031Y-111911681D01*
X275127202Y-113675100D01*
X275081729Y-115387692D01*
X275069203Y-115859500D01*
X275027103Y-117434353D01*
X274985170Y-118982258D01*
X274944148Y-120477078D01*
X274904777Y-121892679D01*
X274867799Y-123202924D01*
X274833956Y-124381678D01*
X274803989Y-125402805D01*
X274778640Y-126240168D01*
X274758651Y-126867633D01*
X274748446Y-127162500D01*
X274732618Y-127630102D01*
X274710960Y-128325618D01*
X274684206Y-129223046D01*
X274653090Y-130296385D01*
X274618347Y-131519633D01*
X274580709Y-132866789D01*
X274540911Y-134311851D01*
X274499687Y-135828818D01*
X274457771Y-137391689D01*
X274427621Y-138529000D01*
X274383244Y-140206064D01*
X274337367Y-141929743D01*
X274290959Y-143664180D01*
X274244991Y-145373517D01*
X274200434Y-147021895D01*
X274158258Y-148573456D01*
X274119432Y-149992343D01*
X274084928Y-151242698D01*
X274055715Y-152288663D01*
X274046177Y-152626000D01*
X274010305Y-153891421D01*
X273972140Y-155241564D01*
X273933407Y-156615242D01*
X273895825Y-157951263D01*
X273861119Y-159188437D01*
X273831009Y-160265576D01*
X273817411Y-160754000D01*
X273788818Y-161658898D01*
X273756183Y-162483747D01*
X273721425Y-163193420D01*
X273686463Y-163752790D01*
X273653214Y-164126731D01*
X273624948Y-164278250D01*
X273514565Y-164312306D01*
X273225275Y-164341637D01*
X272751774Y-164366244D01*
X272088755Y-164386130D01*
X271230912Y-164401297D01*
X270172940Y-164411748D01*
X268909532Y-164417485D01*
X267435383Y-164418510D01*
X265745188Y-164414826D01*
X263833640Y-164406435D01*
X261695433Y-164393341D01*
X259325262Y-164375544D01*
X256717820Y-164353048D01*
X253867803Y-164325856D01*
X250769904Y-164293969D01*
X250300000Y-164288957D01*
X248928735Y-164274427D01*
X247329669Y-164257752D01*
X245528986Y-164239194D01*
X243552873Y-164219016D01*
X241427517Y-164197479D01*
X239179104Y-164174845D01*
X236833819Y-164151376D01*
X234417849Y-164127334D01*
X231957381Y-164102981D01*
X229478600Y-164078579D01*
X227007693Y-164054390D01*
X224570846Y-164030675D01*
X222194246Y-164007697D01*
X221788500Y-164003790D01*
X203246500Y-163825382D01*
X198738000Y-162990606D01*
X197610102Y-162781783D01*
X196482929Y-162573121D01*
X195400325Y-162372734D01*
X194406132Y-162188736D01*
X193544196Y-162029242D01*
X192858361Y-161902366D01*
X192515000Y-161838872D01*
X191860983Y-161718929D01*
X191024647Y-161567009D01*
X190073794Y-161395345D01*
X189076227Y-161216170D01*
X188099751Y-161041717D01*
X187879500Y-161002521D01*
X186929213Y-160832745D01*
X185952398Y-160656815D01*
X185013922Y-160486515D01*
X184178655Y-160333627D01*
X183511465Y-160209936D01*
X183371000Y-160183535D01*
X182702196Y-160059420D01*
X182064854Y-159944858D01*
X181532397Y-159852826D01*
X181185977Y-159797409D01*
X180780364Y-159729507D01*
X180499913Y-159635077D01*
X180322187Y-159471373D01*
X180224750Y-159195650D01*
X180187035Y-158785500D01*
X181021500Y-158785500D01*
X187479024Y-158818420D01*
X193936549Y-158851341D01*
X193602072Y-158453838D01*
X193316309Y-158044114D01*
X193023304Y-157482092D01*
X192721436Y-156760644D01*
X192409080Y-155872645D01*
X192084612Y-154810968D01*
X191746411Y-153568486D01*
X191392851Y-152138072D01*
X191022311Y-150512599D01*
X190633167Y-148684941D01*
X190223794Y-146647971D01*
X189792571Y-144394562D01*
X189337873Y-141917587D01*
X188858078Y-139209920D01*
X188351562Y-136264434D01*
X188337324Y-136179500D01*
X190941408Y-136179500D01*
X190942916Y-137360312D01*
X190954799Y-138383219D01*
X190981260Y-139296996D01*
X191026502Y-140150422D01*
X191094728Y-140992275D01*
X191190143Y-141871332D01*
X191316949Y-142836370D01*
X191479350Y-143936168D01*
X191681550Y-145219502D01*
X191764963Y-145736250D01*
X192041780Y-147286653D01*
X192396807Y-149021512D01*
X192817479Y-150888054D01*
X193291229Y-152833508D01*
X193805493Y-154805105D01*
X194347705Y-156750072D01*
X194562178Y-157483750D01*
X194966801Y-158849000D01*
X196884150Y-158866791D01*
X197360344Y-158871385D01*
X198061520Y-158878399D01*
X198958674Y-158887531D01*
X200022802Y-158898480D01*
X201224901Y-158910945D01*
X202535967Y-158924627D01*
X203926995Y-158939224D01*
X205368984Y-158954436D01*
X206739000Y-158968963D01*
X208426721Y-158985935D01*
X210268978Y-159002738D01*
X212209258Y-159018961D01*
X214191048Y-159034190D01*
X216157833Y-159048016D01*
X218053101Y-159060026D01*
X219820338Y-159069808D01*
X221403032Y-159076952D01*
X221733123Y-159078172D01*
X228789746Y-159103000D01*
X230750123Y-157165859D01*
X232618423Y-155271322D01*
X234303361Y-153457453D01*
X235843189Y-151680812D01*
X237276158Y-149897960D01*
X238047063Y-148879500D01*
X239613471Y-146646738D01*
X240951691Y-144485331D01*
X242061082Y-142397968D01*
X242941003Y-140387336D01*
X243590815Y-138456123D01*
X244009875Y-136607018D01*
X244197545Y-134842709D01*
X244153183Y-133165884D01*
X243876148Y-131579231D01*
X243365801Y-130085439D01*
X242792385Y-128964584D01*
X241959566Y-127788478D01*
X240893208Y-126660350D01*
X239611662Y-125595499D01*
X238133278Y-124609226D01*
X236529446Y-123742535D01*
X234333433Y-122761012D01*
X232131892Y-121944604D01*
X229956637Y-121301671D01*
X227839480Y-120840572D01*
X225812234Y-120569665D01*
X224170585Y-120495173D01*
X222232525Y-120599905D01*
X220435276Y-120915277D01*
X218774200Y-121443699D01*
X217244654Y-122187582D01*
X215841998Y-123149337D01*
X214561591Y-124331374D01*
X213398794Y-125736104D01*
X213011435Y-126291759D01*
X212560692Y-127039018D01*
X212110128Y-127911007D01*
X211698995Y-128821781D01*
X211366544Y-129685395D01*
X211178248Y-130305750D01*
X211073091Y-130654219D01*
X210973280Y-130872115D01*
X210931154Y-130909000D01*
X210852295Y-130797214D01*
X210774995Y-130519332D01*
X210758040Y-130424823D01*
X210648347Y-129934513D01*
X210460671Y-129289217D01*
X210221334Y-128565543D01*
X209956658Y-127840102D01*
X209692962Y-127189503D01*
X209511241Y-126795903D01*
X208698221Y-125389978D01*
X207769508Y-124177499D01*
X206738436Y-123170153D01*
X205618342Y-122379632D01*
X204422559Y-121817623D01*
X203544755Y-121565828D01*
X202274336Y-121409481D01*
X200914309Y-121448792D01*
X199517470Y-121669095D01*
X198136618Y-122055724D01*
X196824549Y-122594011D01*
X195634063Y-123269292D01*
X194650675Y-124036447D01*
X193840582Y-124872345D01*
X193153992Y-125780922D01*
X192573233Y-126798006D01*
X192080632Y-127959424D01*
X191658515Y-129301004D01*
X191291933Y-130845500D01*
X191191455Y-131339610D01*
X191112597Y-131772166D01*
X191052679Y-132183939D01*
X191009022Y-132615704D01*
X190978947Y-133108232D01*
X190959773Y-133702297D01*
X190948823Y-134438672D01*
X190943415Y-135358131D01*
X190941408Y-136179500D01*
X188337324Y-136179500D01*
X187816701Y-133074002D01*
X187805182Y-133004500D01*
X187645808Y-132044631D01*
X187482954Y-131067328D01*
X187326809Y-130133471D01*
X187187558Y-129303941D01*
X187075389Y-128639618D01*
X187040166Y-128432500D01*
X186904583Y-127627551D01*
X186753106Y-126712309D01*
X186608797Y-125826723D01*
X186537896Y-125384500D01*
X186410832Y-124611469D01*
X186264268Y-123760115D01*
X186120018Y-122955569D01*
X186039801Y-122527251D01*
X185827132Y-121106402D01*
X185776205Y-119855291D01*
X185894775Y-118741657D01*
X186190596Y-117733239D01*
X186671423Y-116797775D01*
X187345011Y-115903003D01*
X187732482Y-115485211D01*
X188817926Y-114536774D01*
X190144657Y-113656470D01*
X191708868Y-112845773D01*
X193506750Y-112106153D01*
X195534494Y-111439085D01*
X197788292Y-110846041D01*
X200264334Y-110328492D01*
X201722500Y-110076071D01*
X203944762Y-109757943D01*
X206327712Y-109491119D01*
X208831540Y-109276322D01*
X211416441Y-109114277D01*
X214042605Y-109005705D01*
X216670226Y-108951331D01*
X219259496Y-108951878D01*
X221770607Y-109008069D01*
X224163752Y-109120628D01*
X226399123Y-109290278D01*
X228436913Y-109517741D01*
X228900500Y-109582226D01*
X231237775Y-110016470D01*
X233619978Y-110637996D01*
X235962203Y-111420730D01*
X238179546Y-112338596D01*
X238743000Y-112604843D01*
X240385377Y-113455112D01*
X241992971Y-114386450D01*
X243519748Y-115368299D01*
X244919673Y-116370102D01*
X246146712Y-117361302D01*
X246788048Y-117945177D01*
X247748487Y-119041174D01*
X248504580Y-120286698D01*
X249056308Y-121680389D01*
X249403652Y-123220887D01*
X249546594Y-124906834D01*
X249485114Y-126736871D01*
X249219194Y-128709637D01*
X248748815Y-130823775D01*
X248073957Y-133077924D01*
X247194603Y-135470726D01*
X247036704Y-135862000D01*
X246371475Y-137401185D01*
X245585178Y-139068773D01*
X244714148Y-140793813D01*
X243794720Y-142505358D01*
X242863227Y-144132459D01*
X242451457Y-144815500D01*
X241346378Y-146569726D01*
X240209191Y-148286814D01*
X239055257Y-149947629D01*
X237899940Y-151533041D01*
X236758604Y-153023915D01*
X235646610Y-154401119D01*
X234579323Y-155645521D01*
X233572104Y-156737988D01*
X232640318Y-157659387D01*
X231799327Y-158390585D01*
X231200905Y-158826605D01*
X230678500Y-159166500D01*
X237790500Y-159231601D01*
X239256327Y-159244966D01*
X240762037Y-159258599D01*
X242266776Y-159272135D01*
X243729690Y-159285210D01*
X245109923Y-159297462D01*
X246366621Y-159308525D01*
X247458931Y-159318038D01*
X248345997Y-159325635D01*
X248490250Y-159326851D01*
X252078000Y-159357000D01*
X252078483Y-158563250D01*
X252082298Y-158267524D01*
X252092998Y-157746552D01*
X252109783Y-157028972D01*
X252131851Y-156143422D01*
X252158401Y-155118539D01*
X252188633Y-153982961D01*
X252221745Y-152765326D01*
X252256937Y-151494271D01*
X252293407Y-150198435D01*
X252330356Y-148906455D01*
X252366981Y-147646969D01*
X252402481Y-146448614D01*
X252436057Y-145340029D01*
X252466907Y-144349850D01*
X252494230Y-143506717D01*
X252517225Y-142839266D01*
X252521581Y-142720000D01*
X252542573Y-142114652D01*
X252568644Y-141301886D01*
X252598414Y-140328201D01*
X252630504Y-139240097D01*
X252663537Y-138084073D01*
X252696133Y-136906628D01*
X252717384Y-136116000D01*
X252760450Y-134502173D01*
X252806602Y-132790926D01*
X252855198Y-131004984D01*
X252905595Y-129167070D01*
X252957150Y-127299907D01*
X253009221Y-125426220D01*
X253061166Y-123568731D01*
X253112342Y-121750164D01*
X253162107Y-119993244D01*
X253209818Y-118320693D01*
X253254833Y-116755235D01*
X253296508Y-115319595D01*
X253334203Y-114036495D01*
X253367273Y-112928659D01*
X253395078Y-112018811D01*
X253416973Y-111329674D01*
X253424898Y-111092648D01*
X253509871Y-108611796D01*
X252066934Y-108451349D01*
X249599517Y-108053144D01*
X247215685Y-107418763D01*
X244926773Y-106552784D01*
X242744115Y-105459786D01*
X240679044Y-104144347D01*
X239822500Y-103505573D01*
X238859167Y-102688809D01*
X237844332Y-101714532D01*
X236832531Y-100642887D01*
X235878301Y-99534024D01*
X235036180Y-98448090D01*
X234431933Y-97560435D01*
X234086245Y-96964652D01*
X233684059Y-96201756D01*
X233258034Y-95340712D01*
X232840831Y-94450489D01*
X232465110Y-93600053D01*
X232163530Y-92858372D01*
X232029226Y-92486727D01*
X231404933Y-90269577D01*
X231022216Y-88042398D01*
X230874087Y-85775277D01*
X233189463Y-85775277D01*
X233360411Y-87855267D01*
X233708290Y-89815319D01*
X234246537Y-91695119D01*
X234988587Y-93534353D01*
X235947874Y-95372707D01*
X237010930Y-97063500D01*
X237690999Y-97968760D01*
X238539058Y-98939757D01*
X239499322Y-99922058D01*
X240516005Y-100861234D01*
X241533319Y-101702855D01*
X242426000Y-102346938D01*
X244477122Y-103563028D01*
X246586806Y-104540433D01*
X248743685Y-105274851D01*
X250936391Y-105761979D01*
X251760500Y-105879408D01*
X252311481Y-105947861D01*
X252798532Y-106011579D01*
X253142786Y-106060127D01*
X253221000Y-106072643D01*
X253567280Y-106099543D01*
X254106003Y-106102674D01*
X254777032Y-106085121D01*
X255520234Y-106049974D01*
X256275475Y-106000322D01*
X256982619Y-105939251D01*
X257581533Y-105869850D01*
X257793000Y-105837851D01*
X259351329Y-105539222D01*
X260744171Y-105183808D01*
X262058250Y-104744897D01*
X263380292Y-104195776D01*
X263883073Y-103962065D01*
X264614087Y-103587123D01*
X265425401Y-103127323D01*
X266250654Y-102624069D01*
X267023485Y-102118767D01*
X267677531Y-101652823D01*
X268016500Y-101383060D01*
X269375584Y-100158654D01*
X270540803Y-98955872D01*
X271560730Y-97720579D01*
X272471699Y-96417621D01*
X273565522Y-94492101D01*
X274453581Y-92429914D01*
X275126720Y-90255214D01*
X275513230Y-88396809D01*
X275602929Y-87640896D01*
X275661486Y-86707056D01*
X275688928Y-85669441D01*
X275685279Y-84602203D01*
X275650563Y-83579496D01*
X275584805Y-82675471D01*
X275511121Y-82095163D01*
X275016116Y-79845527D01*
X274288609Y-77682813D01*
X273339921Y-75622755D01*
X272181369Y-73681088D01*
X270824273Y-71873546D01*
X269279952Y-70215865D01*
X267559726Y-68723778D01*
X265674912Y-67413019D01*
X264438831Y-66703719D01*
X263194745Y-66114346D01*
X261786739Y-65567347D01*
X260296584Y-65087840D01*
X258806053Y-64700946D01*
X257396916Y-64431784D01*
X256787401Y-64353241D01*
X254577014Y-64233834D01*
X252338256Y-64329912D01*
X250127878Y-64635348D01*
X248002634Y-65144012D01*
X247246078Y-65383569D01*
X246787912Y-65558738D01*
X246172864Y-65820818D01*
X245468709Y-66138210D01*
X244743226Y-66479316D01*
X244064189Y-66812535D01*
X243499376Y-67106271D01*
X243249653Y-67246786D01*
X242415755Y-67784248D01*
X241498202Y-68452967D01*
X240577878Y-69190697D01*
X239735664Y-69935193D01*
X239644316Y-70021434D01*
X238048971Y-71707310D01*
X236669551Y-73517973D01*
X235511222Y-75440809D01*
X234579155Y-77463207D01*
X233878515Y-79572553D01*
X233414471Y-81756233D01*
X233192192Y-84001635D01*
X233189463Y-85775277D01*
X230874087Y-85775277D01*
X230872685Y-85753834D01*
X230869842Y-85390888D01*
X230869000Y-83497276D01*
X227609898Y-83581138D01*
X226676606Y-83601457D01*
X225548544Y-83620001D01*
X224284943Y-83636155D01*
X222945031Y-83649303D01*
X221588036Y-83658828D01*
X220273188Y-83664116D01*
X219542676Y-83665000D01*
X214734554Y-83665000D01*
X214590976Y-84014250D01*
X214406159Y-84436323D01*
X214140559Y-85007749D01*
X213823378Y-85669249D01*
X213483819Y-86361545D01*
X213151081Y-87025360D01*
X212854367Y-87601416D01*
X212622878Y-88030434D01*
X212553556Y-88150141D01*
X211795123Y-89374717D01*
X211069931Y-90458584D01*
X210315378Y-91488972D01*
X209468863Y-92553108D01*
X208936633Y-93190000D01*
X208334968Y-93893256D01*
X207803954Y-94494469D01*
X207301931Y-95035502D01*
X206787239Y-95558221D01*
X206218221Y-96104492D01*
X205553215Y-96716179D01*
X204750564Y-97435149D01*
X204426426Y-97722520D01*
X202895863Y-98971177D01*
X201171297Y-100192064D01*
X199312630Y-101350493D01*
X197379764Y-102411773D01*
X195432601Y-103341217D01*
X193531045Y-104104136D01*
X193213500Y-104215851D01*
X191518127Y-104737745D01*
X189781174Y-105157730D01*
X188056331Y-105467351D01*
X186397286Y-105658154D01*
X184857728Y-105721687D01*
X183878050Y-105685769D01*
X182759926Y-105601362D01*
X182688926Y-106412431D01*
X182661781Y-106808050D01*
X182630917Y-107397677D01*
X182599015Y-108121399D01*
X182568758Y-108919304D01*
X182547472Y-109573000D01*
X182483954Y-111682444D01*
X182420904Y-113759470D01*
X182358888Y-115786344D01*
X182298466Y-117745330D01*
X182240204Y-119618694D01*
X182184665Y-121388702D01*
X182132412Y-123037618D01*
X182084009Y-124547708D01*
X182040019Y-125901237D01*
X182001005Y-127080471D01*
X181967531Y-128067675D01*
X181940161Y-128845115D01*
X181919458Y-129395055D01*
X181911945Y-129575500D01*
X181898433Y-129922047D01*
X181878014Y-130500554D01*
X181851366Y-131289095D01*
X181819166Y-132265741D01*
X181782091Y-133408568D01*
X181740819Y-134695647D01*
X181696027Y-136105052D01*
X181648394Y-137614856D01*
X181598596Y-139203133D01*
X181547311Y-140847955D01*
X181495216Y-142527396D01*
X181442989Y-144219529D01*
X181391308Y-145902428D01*
X181340850Y-147554164D01*
X181292292Y-149152813D01*
X181246311Y-150676446D01*
X181203587Y-152103137D01*
X181164795Y-153410960D01*
X181130613Y-154577987D01*
X181101720Y-155582291D01*
X181078791Y-156401947D01*
X181062506Y-157015026D01*
X181056504Y-157261500D01*
X181021500Y-158785500D01*
X180187035Y-158785500D01*
X180185164Y-158765163D01*
X180180994Y-158137166D01*
X180183474Y-157887503D01*
X180193291Y-157325067D01*
X180211790Y-156565931D01*
X180237292Y-155667183D01*
X180268123Y-154685912D01*
X180302603Y-153679206D01*
X180324959Y-153070500D01*
X180351684Y-152337471D01*
X180384889Y-151384729D01*
X180423459Y-150246445D01*
X180466275Y-148956792D01*
X180512221Y-147549942D01*
X180560181Y-146060069D01*
X180609037Y-144521343D01*
X180657673Y-142967938D01*
X180700596Y-141577000D01*
X180746104Y-140102609D01*
X180791269Y-138660942D01*
X180835194Y-137279229D01*
X180876984Y-135984699D01*
X180915745Y-134804583D01*
X180950580Y-133766109D01*
X180980595Y-132896508D01*
X181004894Y-132223009D01*
X181022581Y-131772841D01*
X181024244Y-131734500D01*
X181035816Y-131436298D01*
X181054278Y-130914490D01*
X181078960Y-130190265D01*
X181109191Y-129284812D01*
X181144299Y-128219318D01*
X181183615Y-127014975D01*
X181226467Y-125692969D01*
X181272185Y-124274490D01*
X181320097Y-122780728D01*
X181369532Y-121232870D01*
X181419821Y-119652105D01*
X181470291Y-118059624D01*
X181520272Y-116476614D01*
X181569094Y-114924264D01*
X181616084Y-113423763D01*
X181660574Y-111996301D01*
X181701891Y-110663065D01*
X181739364Y-109445245D01*
X181772324Y-108364030D01*
X181800098Y-107440609D01*
X181822017Y-106696170D01*
X181837408Y-106151903D01*
X181845603Y-105828996D01*
X181846798Y-105754549D01*
X181764586Y-105623506D01*
X181495667Y-105507178D01*
X181007050Y-105391457D01*
X180989749Y-105388061D01*
X179183119Y-104913545D01*
X177495656Y-104226581D01*
X175942056Y-103340747D01*
X174537020Y-102269625D01*
X173295246Y-101026793D01*
X172231431Y-99625831D01*
X171360276Y-98080319D01*
X170696477Y-96403837D01*
X170488916Y-95686575D01*
X170099842Y-93684892D01*
X169955383Y-91619317D01*
X169969528Y-91317657D01*
X171195944Y-91317657D01*
X171199398Y-92328844D01*
X171242441Y-93235702D01*
X171326773Y-93975428D01*
X171363154Y-94168439D01*
X171788216Y-95804739D01*
X172321245Y-97266211D01*
X172952340Y-98528654D01*
X173464320Y-99304037D01*
X174628212Y-100660945D01*
X175936715Y-101810985D01*
X177391075Y-102754728D01*
X178992537Y-103492748D01*
X180742348Y-104025618D01*
X182641753Y-104353910D01*
X184691996Y-104478198D01*
X184716056Y-104478440D01*
X185451179Y-104472106D01*
X186221846Y-104443491D01*
X186921504Y-104397574D01*
X187319556Y-104356837D01*
X189881052Y-103903933D01*
X192424255Y-103204022D01*
X194933086Y-102264088D01*
X197391465Y-101091114D01*
X199783312Y-99692084D01*
X202092546Y-98073981D01*
X202484500Y-97770749D01*
X204844991Y-95769384D01*
X206983533Y-93644630D01*
X208900330Y-91396248D01*
X210595583Y-89023995D01*
X212069495Y-86527629D01*
X212334093Y-86020571D01*
X213366838Y-83778287D01*
X214152019Y-81575684D01*
X214691504Y-79404481D01*
X214987159Y-77256400D01*
X215040853Y-75123159D01*
X214992142Y-74235250D01*
X214754176Y-72467206D01*
X214322904Y-70845309D01*
X213686825Y-69338325D01*
X212834435Y-67915023D01*
X212489584Y-67439706D01*
X211370607Y-66170727D01*
X210083225Y-65088457D01*
X208634527Y-64195983D01*
X207031605Y-63496392D01*
X205281550Y-62992773D01*
X203391453Y-62688212D01*
X201368406Y-62585797D01*
X201341500Y-62585810D01*
X199043759Y-62711750D01*
X196719950Y-63077552D01*
X194387450Y-63672821D01*
X192063632Y-64487162D01*
X189765873Y-65510178D01*
X187511547Y-66731475D01*
X185318031Y-68140658D01*
X183202699Y-69727330D01*
X181182926Y-71481097D01*
X179276088Y-73391564D01*
X177499561Y-75448334D01*
X175870719Y-77641013D01*
X175660986Y-77950000D01*
X174645324Y-79603389D01*
X173706562Y-81406157D01*
X172874874Y-83288418D01*
X172180433Y-85180285D01*
X171653412Y-87011871D01*
X171544024Y-87485671D01*
X171406119Y-88286147D01*
X171301004Y-89233505D01*
X171230379Y-90264943D01*
X171195944Y-91317657D01*
X169969528Y-91317657D01*
X170055101Y-89492786D01*
X170398561Y-87308234D01*
X170985325Y-85068597D01*
X171814958Y-82776810D01*
X172702184Y-80807500D01*
X174043205Y-78351139D01*
X175609349Y-75982961D01*
X177381217Y-73722413D01*
X179339410Y-71588943D01*
X181464530Y-69601998D01*
X183737175Y-67781024D01*
X186137948Y-66145469D01*
X188647450Y-64714781D01*
X188867793Y-64601900D01*
X191076269Y-63564456D01*
X193217216Y-62735667D01*
X195341512Y-62099477D01*
X197500036Y-61639831D01*
X198911535Y-61432297D01*
X199692981Y-61367521D01*
X200634054Y-61338707D01*
X201663110Y-61343616D01*
G37*
X201663110Y-61343616D02*
X202708506Y-61380012D01*
X203698599Y-61445655D01*
X204561745Y-61538307D01*
X205088000Y-61625255D01*
X206982298Y-62127020D01*
X208730699Y-62824946D01*
X210323963Y-63712447D01*
X211752849Y-64782940D01*
X213008116Y-66029838D01*
X214080522Y-67446557D01*
X214676335Y-68457607D01*
X215439010Y-70165807D01*
X215974799Y-71982053D01*
X216282963Y-73898750D01*
X216362766Y-75908305D01*
X216213468Y-78003123D01*
X215834332Y-80175608D01*
X215820737Y-80236000D01*
X215673492Y-80855497D01*
X215521246Y-81445059D01*
X215386051Y-81921495D01*
X215319886Y-82125217D01*
X215201973Y-82463998D01*
X215130667Y-82686844D01*
X215121000Y-82728467D01*
X215243309Y-82742515D01*
X215591503Y-82754011D01*
X216137480Y-82763032D01*
X216853138Y-82769655D01*
X217710374Y-82773954D01*
X218681088Y-82776008D01*
X219737177Y-82775891D01*
X220850540Y-82773680D01*
X221993074Y-82769451D01*
X223136678Y-82763281D01*
X224253249Y-82755245D01*
X225314687Y-82745421D01*
X226292889Y-82733883D01*
X227159753Y-82720709D01*
X227887178Y-82705975D01*
X228367289Y-82692535D01*
X230859424Y-82609071D01*
X230939607Y-82025785D01*
X231371279Y-79742996D01*
X232035291Y-77509667D01*
X232940713Y-75297012D01*
X233284984Y-74584500D01*
X234211606Y-72891824D01*
X235220419Y-71370283D01*
X236368484Y-69938259D01*
X237072320Y-69167254D01*
X238892940Y-67424877D01*
X240826069Y-65910190D01*
X242872851Y-64622598D01*
X245034430Y-63561508D01*
X247311951Y-62726325D01*
X249706556Y-62116454D01*
X251114727Y-61870821D01*
X251921388Y-61785048D01*
X252901409Y-61732269D01*
X253991202Y-61711349D01*
X255127182Y-61721152D01*
X256245762Y-61760544D01*
X257283355Y-61828390D01*
X258176375Y-61923552D01*
X258682000Y-62005928D01*
X261139255Y-62613989D01*
X263479282Y-63436317D01*
X265691053Y-64464604D01*
X267763539Y-65690544D01*
X269685712Y-67105827D01*
X271446542Y-68702147D01*
X273035002Y-70471196D01*
X274440063Y-72404665D01*
X275650696Y-74494247D01*
X275885690Y-74965500D01*
X276785840Y-77032861D01*
X277458265Y-79071296D01*
X277915354Y-81134713D01*
X278169496Y-83277018D01*
X278235204Y-85189000D01*
X278130622Y-87571927D01*
X277812865Y-89834190D01*
X277276448Y-92001348D01*
X276515887Y-94098956D01*
X276144585Y-94930816D01*
X275594257Y-96100133D01*
X275454797Y-101344316D01*
X275426810Y-102396947D01*
X275393096Y-103665395D01*
X275354667Y-105111570D01*
X275312533Y-106697378D01*
X275267708Y-108384728D01*
X275221203Y-110135526D01*
X275174031Y-111911681D01*
X275127202Y-113675100D01*
X275081729Y-115387692D01*
X275069203Y-115859500D01*
X275027103Y-117434353D01*
X274985170Y-118982258D01*
X274944148Y-120477078D01*
X274904777Y-121892679D01*
X274867799Y-123202924D01*
X274833956Y-124381678D01*
X274803989Y-125402805D01*
X274778640Y-126240168D01*
X274758651Y-126867633D01*
X274748446Y-127162500D01*
X274732618Y-127630102D01*
X274710960Y-128325618D01*
X274684206Y-129223046D01*
X274653090Y-130296385D01*
X274618347Y-131519633D01*
X274580709Y-132866789D01*
X274540911Y-134311851D01*
X274499687Y-135828818D01*
X274457771Y-137391689D01*
X274427621Y-138529000D01*
X274383244Y-140206064D01*
X274337367Y-141929743D01*
X274290959Y-143664180D01*
X274244991Y-145373517D01*
X274200434Y-147021895D01*
X274158258Y-148573456D01*
X274119432Y-149992343D01*
X274084928Y-151242698D01*
X274055715Y-152288663D01*
X274046177Y-152626000D01*
X274010305Y-153891421D01*
X273972140Y-155241564D01*
X273933407Y-156615242D01*
X273895825Y-157951263D01*
X273861119Y-159188437D01*
X273831009Y-160265576D01*
X273817411Y-160754000D01*
X273788818Y-161658898D01*
X273756183Y-162483747D01*
X273721425Y-163193420D01*
X273686463Y-163752790D01*
X273653214Y-164126731D01*
X273624948Y-164278250D01*
X273514565Y-164312306D01*
X273225275Y-164341637D01*
X272751774Y-164366244D01*
X272088755Y-164386130D01*
X271230912Y-164401297D01*
X270172940Y-164411748D01*
X268909532Y-164417485D01*
X267435383Y-164418510D01*
X265745188Y-164414826D01*
X263833640Y-164406435D01*
X261695433Y-164393341D01*
X259325262Y-164375544D01*
X256717820Y-164353048D01*
X253867803Y-164325856D01*
X250769904Y-164293969D01*
X250300000Y-164288957D01*
X248928735Y-164274427D01*
X247329669Y-164257752D01*
X245528986Y-164239194D01*
X243552873Y-164219016D01*
X241427517Y-164197479D01*
X239179104Y-164174845D01*
X236833819Y-164151376D01*
X234417849Y-164127334D01*
X231957381Y-164102981D01*
X229478600Y-164078579D01*
X227007693Y-164054390D01*
X224570846Y-164030675D01*
X222194246Y-164007697D01*
X221788500Y-164003790D01*
X203246500Y-163825382D01*
X198738000Y-162990606D01*
X197610102Y-162781783D01*
X196482929Y-162573121D01*
X195400325Y-162372734D01*
X194406132Y-162188736D01*
X193544196Y-162029242D01*
X192858361Y-161902366D01*
X192515000Y-161838872D01*
X191860983Y-161718929D01*
X191024647Y-161567009D01*
X190073794Y-161395345D01*
X189076227Y-161216170D01*
X188099751Y-161041717D01*
X187879500Y-161002521D01*
X186929213Y-160832745D01*
X185952398Y-160656815D01*
X185013922Y-160486515D01*
X184178655Y-160333627D01*
X183511465Y-160209936D01*
X183371000Y-160183535D01*
X182702196Y-160059420D01*
X182064854Y-159944858D01*
X181532397Y-159852826D01*
X181185977Y-159797409D01*
X180780364Y-159729507D01*
X180499913Y-159635077D01*
X180322187Y-159471373D01*
X180224750Y-159195650D01*
X180187035Y-158785500D01*
X181021500Y-158785500D01*
X187479024Y-158818420D01*
X193936549Y-158851341D01*
X193602072Y-158453838D01*
X193316309Y-158044114D01*
X193023304Y-157482092D01*
X192721436Y-156760644D01*
X192409080Y-155872645D01*
X192084612Y-154810968D01*
X191746411Y-153568486D01*
X191392851Y-152138072D01*
X191022311Y-150512599D01*
X190633167Y-148684941D01*
X190223794Y-146647971D01*
X189792571Y-144394562D01*
X189337873Y-141917587D01*
X188858078Y-139209920D01*
X188351562Y-136264434D01*
X188337324Y-136179500D01*
X190941408Y-136179500D01*
X190942916Y-137360312D01*
X190954799Y-138383219D01*
X190981260Y-139296996D01*
X191026502Y-140150422D01*
X191094728Y-140992275D01*
X191190143Y-141871332D01*
X191316949Y-142836370D01*
X191479350Y-143936168D01*
X191681550Y-145219502D01*
X191764963Y-145736250D01*
X192041780Y-147286653D01*
X192396807Y-149021512D01*
X192817479Y-150888054D01*
X193291229Y-152833508D01*
X193805493Y-154805105D01*
X194347705Y-156750072D01*
X194562178Y-157483750D01*
X194966801Y-158849000D01*
X196884150Y-158866791D01*
X197360344Y-158871385D01*
X198061520Y-158878399D01*
X198958674Y-158887531D01*
X200022802Y-158898480D01*
X201224901Y-158910945D01*
X202535967Y-158924627D01*
X203926995Y-158939224D01*
X205368984Y-158954436D01*
X206739000Y-158968963D01*
X208426721Y-158985935D01*
X210268978Y-159002738D01*
X212209258Y-159018961D01*
X214191048Y-159034190D01*
X216157833Y-159048016D01*
X218053101Y-159060026D01*
X219820338Y-159069808D01*
X221403032Y-159076952D01*
X221733123Y-159078172D01*
X228789746Y-159103000D01*
X230750123Y-157165859D01*
X232618423Y-155271322D01*
X234303361Y-153457453D01*
X235843189Y-151680812D01*
X237276158Y-149897960D01*
X238047063Y-148879500D01*
X239613471Y-146646738D01*
X240951691Y-144485331D01*
X242061082Y-142397968D01*
X242941003Y-140387336D01*
X243590815Y-138456123D01*
X244009875Y-136607018D01*
X244197545Y-134842709D01*
X244153183Y-133165884D01*
X243876148Y-131579231D01*
X243365801Y-130085439D01*
X242792385Y-128964584D01*
X241959566Y-127788478D01*
X240893208Y-126660350D01*
X239611662Y-125595499D01*
X238133278Y-124609226D01*
X236529446Y-123742535D01*
X234333433Y-122761012D01*
X232131892Y-121944604D01*
X229956637Y-121301671D01*
X227839480Y-120840572D01*
X225812234Y-120569665D01*
X224170585Y-120495173D01*
X222232525Y-120599905D01*
X220435276Y-120915277D01*
X218774200Y-121443699D01*
X217244654Y-122187582D01*
X215841998Y-123149337D01*
X214561591Y-124331374D01*
X213398794Y-125736104D01*
X213011435Y-126291759D01*
X212560692Y-127039018D01*
X212110128Y-127911007D01*
X211698995Y-128821781D01*
X211366544Y-129685395D01*
X211178248Y-130305750D01*
X211073091Y-130654219D01*
X210973280Y-130872115D01*
X210931154Y-130909000D01*
X210852295Y-130797214D01*
X210774995Y-130519332D01*
X210758040Y-130424823D01*
X210648347Y-129934513D01*
X210460671Y-129289217D01*
X210221334Y-128565543D01*
X209956658Y-127840102D01*
X209692962Y-127189503D01*
X209511241Y-126795903D01*
X208698221Y-125389978D01*
X207769508Y-124177499D01*
X206738436Y-123170153D01*
X205618342Y-122379632D01*
X204422559Y-121817623D01*
X203544755Y-121565828D01*
X202274336Y-121409481D01*
X200914309Y-121448792D01*
X199517470Y-121669095D01*
X198136618Y-122055724D01*
X196824549Y-122594011D01*
X195634063Y-123269292D01*
X194650675Y-124036447D01*
X193840582Y-124872345D01*
X193153992Y-125780922D01*
X192573233Y-126798006D01*
X192080632Y-127959424D01*
X191658515Y-129301004D01*
X191291933Y-130845500D01*
X191191455Y-131339610D01*
X191112597Y-131772166D01*
X191052679Y-132183939D01*
X191009022Y-132615704D01*
X190978947Y-133108232D01*
X190959773Y-133702297D01*
X190948823Y-134438672D01*
X190943415Y-135358131D01*
X190941408Y-136179500D01*
X188337324Y-136179500D01*
X187816701Y-133074002D01*
X187805182Y-133004500D01*
X187645808Y-132044631D01*
X187482954Y-131067328D01*
X187326809Y-130133471D01*
X187187558Y-129303941D01*
X187075389Y-128639618D01*
X187040166Y-128432500D01*
X186904583Y-127627551D01*
X186753106Y-126712309D01*
X186608797Y-125826723D01*
X186537896Y-125384500D01*
X186410832Y-124611469D01*
X186264268Y-123760115D01*
X186120018Y-122955569D01*
X186039801Y-122527251D01*
X185827132Y-121106402D01*
X185776205Y-119855291D01*
X185894775Y-118741657D01*
X186190596Y-117733239D01*
X186671423Y-116797775D01*
X187345011Y-115903003D01*
X187732482Y-115485211D01*
X188817926Y-114536774D01*
X190144657Y-113656470D01*
X191708868Y-112845773D01*
X193506750Y-112106153D01*
X195534494Y-111439085D01*
X197788292Y-110846041D01*
X200264334Y-110328492D01*
X201722500Y-110076071D01*
X203944762Y-109757943D01*
X206327712Y-109491119D01*
X208831540Y-109276322D01*
X211416441Y-109114277D01*
X214042605Y-109005705D01*
X216670226Y-108951331D01*
X219259496Y-108951878D01*
X221770607Y-109008069D01*
X224163752Y-109120628D01*
X226399123Y-109290278D01*
X228436913Y-109517741D01*
X228900500Y-109582226D01*
X231237775Y-110016470D01*
X233619978Y-110637996D01*
X235962203Y-111420730D01*
X238179546Y-112338596D01*
X238743000Y-112604843D01*
X240385377Y-113455112D01*
X241992971Y-114386450D01*
X243519748Y-115368299D01*
X244919673Y-116370102D01*
X246146712Y-117361302D01*
X246788048Y-117945177D01*
X247748487Y-119041174D01*
X248504580Y-120286698D01*
X249056308Y-121680389D01*
X249403652Y-123220887D01*
X249546594Y-124906834D01*
X249485114Y-126736871D01*
X249219194Y-128709637D01*
X248748815Y-130823775D01*
X248073957Y-133077924D01*
X247194603Y-135470726D01*
X247036704Y-135862000D01*
X246371475Y-137401185D01*
X245585178Y-139068773D01*
X244714148Y-140793813D01*
X243794720Y-142505358D01*
X242863227Y-144132459D01*
X242451457Y-144815500D01*
X241346378Y-146569726D01*
X240209191Y-148286814D01*
X239055257Y-149947629D01*
X237899940Y-151533041D01*
X236758604Y-153023915D01*
X235646610Y-154401119D01*
X234579323Y-155645521D01*
X233572104Y-156737988D01*
X232640318Y-157659387D01*
X231799327Y-158390585D01*
X231200905Y-158826605D01*
X230678500Y-159166500D01*
X237790500Y-159231601D01*
X239256327Y-159244966D01*
X240762037Y-159258599D01*
X242266776Y-159272135D01*
X243729690Y-159285210D01*
X245109923Y-159297462D01*
X246366621Y-159308525D01*
X247458931Y-159318038D01*
X248345997Y-159325635D01*
X248490250Y-159326851D01*
X252078000Y-159357000D01*
X252078483Y-158563250D01*
X252082298Y-158267524D01*
X252092998Y-157746552D01*
X252109783Y-157028972D01*
X252131851Y-156143422D01*
X252158401Y-155118539D01*
X252188633Y-153982961D01*
X252221745Y-152765326D01*
X252256937Y-151494271D01*
X252293407Y-150198435D01*
X252330356Y-148906455D01*
X252366981Y-147646969D01*
X252402481Y-146448614D01*
X252436057Y-145340029D01*
X252466907Y-144349850D01*
X252494230Y-143506717D01*
X252517225Y-142839266D01*
X252521581Y-142720000D01*
X252542573Y-142114652D01*
X252568644Y-141301886D01*
X252598414Y-140328201D01*
X252630504Y-139240097D01*
X252663537Y-138084073D01*
X252696133Y-136906628D01*
X252717384Y-136116000D01*
X252760450Y-134502173D01*
X252806602Y-132790926D01*
X252855198Y-131004984D01*
X252905595Y-129167070D01*
X252957150Y-127299907D01*
X253009221Y-125426220D01*
X253061166Y-123568731D01*
X253112342Y-121750164D01*
X253162107Y-119993244D01*
X253209818Y-118320693D01*
X253254833Y-116755235D01*
X253296508Y-115319595D01*
X253334203Y-114036495D01*
X253367273Y-112928659D01*
X253395078Y-112018811D01*
X253416973Y-111329674D01*
X253424898Y-111092648D01*
X253509871Y-108611796D01*
X252066934Y-108451349D01*
X249599517Y-108053144D01*
X247215685Y-107418763D01*
X244926773Y-106552784D01*
X242744115Y-105459786D01*
X240679044Y-104144347D01*
X239822500Y-103505573D01*
X238859167Y-102688809D01*
X237844332Y-101714532D01*
X236832531Y-100642887D01*
X235878301Y-99534024D01*
X235036180Y-98448090D01*
X234431933Y-97560435D01*
X234086245Y-96964652D01*
X233684059Y-96201756D01*
X233258034Y-95340712D01*
X232840831Y-94450489D01*
X232465110Y-93600053D01*
X232163530Y-92858372D01*
X232029226Y-92486727D01*
X231404933Y-90269577D01*
X231022216Y-88042398D01*
X230874087Y-85775277D01*
X233189463Y-85775277D01*
X233360411Y-87855267D01*
X233708290Y-89815319D01*
X234246537Y-91695119D01*
X234988587Y-93534353D01*
X235947874Y-95372707D01*
X237010930Y-97063500D01*
X237690999Y-97968760D01*
X238539058Y-98939757D01*
X239499322Y-99922058D01*
X240516005Y-100861234D01*
X241533319Y-101702855D01*
X242426000Y-102346938D01*
X244477122Y-103563028D01*
X246586806Y-104540433D01*
X248743685Y-105274851D01*
X250936391Y-105761979D01*
X251760500Y-105879408D01*
X252311481Y-105947861D01*
X252798532Y-106011579D01*
X253142786Y-106060127D01*
X253221000Y-106072643D01*
X253567280Y-106099543D01*
X254106003Y-106102674D01*
X254777032Y-106085121D01*
X255520234Y-106049974D01*
X256275475Y-106000322D01*
X256982619Y-105939251D01*
X257581533Y-105869850D01*
X257793000Y-105837851D01*
X259351329Y-105539222D01*
X260744171Y-105183808D01*
X262058250Y-104744897D01*
X263380292Y-104195776D01*
X263883073Y-103962065D01*
X264614087Y-103587123D01*
X265425401Y-103127323D01*
X266250654Y-102624069D01*
X267023485Y-102118767D01*
X267677531Y-101652823D01*
X268016500Y-101383060D01*
X269375584Y-100158654D01*
X270540803Y-98955872D01*
X271560730Y-97720579D01*
X272471699Y-96417621D01*
X273565522Y-94492101D01*
X274453581Y-92429914D01*
X275126720Y-90255214D01*
X275513230Y-88396809D01*
X275602929Y-87640896D01*
X275661486Y-86707056D01*
X275688928Y-85669441D01*
X275685279Y-84602203D01*
X275650563Y-83579496D01*
X275584805Y-82675471D01*
X275511121Y-82095163D01*
X275016116Y-79845527D01*
X274288609Y-77682813D01*
X273339921Y-75622755D01*
X272181369Y-73681088D01*
X270824273Y-71873546D01*
X269279952Y-70215865D01*
X267559726Y-68723778D01*
X265674912Y-67413019D01*
X264438831Y-66703719D01*
X263194745Y-66114346D01*
X261786739Y-65567347D01*
X260296584Y-65087840D01*
X258806053Y-64700946D01*
X257396916Y-64431784D01*
X256787401Y-64353241D01*
X254577014Y-64233834D01*
X252338256Y-64329912D01*
X250127878Y-64635348D01*
X248002634Y-65144012D01*
X247246078Y-65383569D01*
X246787912Y-65558738D01*
X246172864Y-65820818D01*
X245468709Y-66138210D01*
X244743226Y-66479316D01*
X244064189Y-66812535D01*
X243499376Y-67106271D01*
X243249653Y-67246786D01*
X242415755Y-67784248D01*
X241498202Y-68452967D01*
X240577878Y-69190697D01*
X239735664Y-69935193D01*
X239644316Y-70021434D01*
X238048971Y-71707310D01*
X236669551Y-73517973D01*
X235511222Y-75440809D01*
X234579155Y-77463207D01*
X233878515Y-79572553D01*
X233414471Y-81756233D01*
X233192192Y-84001635D01*
X233189463Y-85775277D01*
X230874087Y-85775277D01*
X230872685Y-85753834D01*
X230869842Y-85390888D01*
X230869000Y-83497276D01*
X227609898Y-83581138D01*
X226676606Y-83601457D01*
X225548544Y-83620001D01*
X224284943Y-83636155D01*
X222945031Y-83649303D01*
X221588036Y-83658828D01*
X220273188Y-83664116D01*
X219542676Y-83665000D01*
X214734554Y-83665000D01*
X214590976Y-84014250D01*
X214406159Y-84436323D01*
X214140559Y-85007749D01*
X213823378Y-85669249D01*
X213483819Y-86361545D01*
X213151081Y-87025360D01*
X212854367Y-87601416D01*
X212622878Y-88030434D01*
X212553556Y-88150141D01*
X211795123Y-89374717D01*
X211069931Y-90458584D01*
X210315378Y-91488972D01*
X209468863Y-92553108D01*
X208936633Y-93190000D01*
X208334968Y-93893256D01*
X207803954Y-94494469D01*
X207301931Y-95035502D01*
X206787239Y-95558221D01*
X206218221Y-96104492D01*
X205553215Y-96716179D01*
X204750564Y-97435149D01*
X204426426Y-97722520D01*
X202895863Y-98971177D01*
X201171297Y-100192064D01*
X199312630Y-101350493D01*
X197379764Y-102411773D01*
X195432601Y-103341217D01*
X193531045Y-104104136D01*
X193213500Y-104215851D01*
X191518127Y-104737745D01*
X189781174Y-105157730D01*
X188056331Y-105467351D01*
X186397286Y-105658154D01*
X184857728Y-105721687D01*
X183878050Y-105685769D01*
X182759926Y-105601362D01*
X182688926Y-106412431D01*
X182661781Y-106808050D01*
X182630917Y-107397677D01*
X182599015Y-108121399D01*
X182568758Y-108919304D01*
X182547472Y-109573000D01*
X182483954Y-111682444D01*
X182420904Y-113759470D01*
X182358888Y-115786344D01*
X182298466Y-117745330D01*
X182240204Y-119618694D01*
X182184665Y-121388702D01*
X182132412Y-123037618D01*
X182084009Y-124547708D01*
X182040019Y-125901237D01*
X182001005Y-127080471D01*
X181967531Y-128067675D01*
X181940161Y-128845115D01*
X181919458Y-129395055D01*
X181911945Y-129575500D01*
X181898433Y-129922047D01*
X181878014Y-130500554D01*
X181851366Y-131289095D01*
X181819166Y-132265741D01*
X181782091Y-133408568D01*
X181740819Y-134695647D01*
X181696027Y-136105052D01*
X181648394Y-137614856D01*
X181598596Y-139203133D01*
X181547311Y-140847955D01*
X181495216Y-142527396D01*
X181442989Y-144219529D01*
X181391308Y-145902428D01*
X181340850Y-147554164D01*
X181292292Y-149152813D01*
X181246311Y-150676446D01*
X181203587Y-152103137D01*
X181164795Y-153410960D01*
X181130613Y-154577987D01*
X181101720Y-155582291D01*
X181078791Y-156401947D01*
X181062506Y-157015026D01*
X181056504Y-157261500D01*
X181021500Y-158785500D01*
X180187035Y-158785500D01*
X180185164Y-158765163D01*
X180180994Y-158137166D01*
X180183474Y-157887503D01*
X180193291Y-157325067D01*
X180211790Y-156565931D01*
X180237292Y-155667183D01*
X180268123Y-154685912D01*
X180302603Y-153679206D01*
X180324959Y-153070500D01*
X180351684Y-152337471D01*
X180384889Y-151384729D01*
X180423459Y-150246445D01*
X180466275Y-148956792D01*
X180512221Y-147549942D01*
X180560181Y-146060069D01*
X180609037Y-144521343D01*
X180657673Y-142967938D01*
X180700596Y-141577000D01*
X180746104Y-140102609D01*
X180791269Y-138660942D01*
X180835194Y-137279229D01*
X180876984Y-135984699D01*
X180915745Y-134804583D01*
X180950580Y-133766109D01*
X180980595Y-132896508D01*
X181004894Y-132223009D01*
X181022581Y-131772841D01*
X181024244Y-131734500D01*
X181035816Y-131436298D01*
X181054278Y-130914490D01*
X181078960Y-130190265D01*
X181109191Y-129284812D01*
X181144299Y-128219318D01*
X181183615Y-127014975D01*
X181226467Y-125692969D01*
X181272185Y-124274490D01*
X181320097Y-122780728D01*
X181369532Y-121232870D01*
X181419821Y-119652105D01*
X181470291Y-118059624D01*
X181520272Y-116476614D01*
X181569094Y-114924264D01*
X181616084Y-113423763D01*
X181660574Y-111996301D01*
X181701891Y-110663065D01*
X181739364Y-109445245D01*
X181772324Y-108364030D01*
X181800098Y-107440609D01*
X181822017Y-106696170D01*
X181837408Y-106151903D01*
X181845603Y-105828996D01*
X181846798Y-105754549D01*
X181764586Y-105623506D01*
X181495667Y-105507178D01*
X181007050Y-105391457D01*
X180989749Y-105388061D01*
X179183119Y-104913545D01*
X177495656Y-104226581D01*
X175942056Y-103340747D01*
X174537020Y-102269625D01*
X173295246Y-101026793D01*
X172231431Y-99625831D01*
X171360276Y-98080319D01*
X170696477Y-96403837D01*
X170488916Y-95686575D01*
X170099842Y-93684892D01*
X169955383Y-91619317D01*
X169969528Y-91317657D01*
X171195944Y-91317657D01*
X171199398Y-92328844D01*
X171242441Y-93235702D01*
X171326773Y-93975428D01*
X171363154Y-94168439D01*
X171788216Y-95804739D01*
X172321245Y-97266211D01*
X172952340Y-98528654D01*
X173464320Y-99304037D01*
X174628212Y-100660945D01*
X175936715Y-101810985D01*
X177391075Y-102754728D01*
X178992537Y-103492748D01*
X180742348Y-104025618D01*
X182641753Y-104353910D01*
X184691996Y-104478198D01*
X184716056Y-104478440D01*
X185451179Y-104472106D01*
X186221846Y-104443491D01*
X186921504Y-104397574D01*
X187319556Y-104356837D01*
X189881052Y-103903933D01*
X192424255Y-103204022D01*
X194933086Y-102264088D01*
X197391465Y-101091114D01*
X199783312Y-99692084D01*
X202092546Y-98073981D01*
X202484500Y-97770749D01*
X204844991Y-95769384D01*
X206983533Y-93644630D01*
X208900330Y-91396248D01*
X210595583Y-89023995D01*
X212069495Y-86527629D01*
X212334093Y-86020571D01*
X213366838Y-83778287D01*
X214152019Y-81575684D01*
X214691504Y-79404481D01*
X214987159Y-77256400D01*
X215040853Y-75123159D01*
X214992142Y-74235250D01*
X214754176Y-72467206D01*
X214322904Y-70845309D01*
X213686825Y-69338325D01*
X212834435Y-67915023D01*
X212489584Y-67439706D01*
X211370607Y-66170727D01*
X210083225Y-65088457D01*
X208634527Y-64195983D01*
X207031605Y-63496392D01*
X205281550Y-62992773D01*
X203391453Y-62688212D01*
X201368406Y-62585797D01*
X201341500Y-62585810D01*
X199043759Y-62711750D01*
X196719950Y-63077552D01*
X194387450Y-63672821D01*
X192063632Y-64487162D01*
X189765873Y-65510178D01*
X187511547Y-66731475D01*
X185318031Y-68140658D01*
X183202699Y-69727330D01*
X181182926Y-71481097D01*
X179276088Y-73391564D01*
X177499561Y-75448334D01*
X175870719Y-77641013D01*
X175660986Y-77950000D01*
X174645324Y-79603389D01*
X173706562Y-81406157D01*
X172874874Y-83288418D01*
X172180433Y-85180285D01*
X171653412Y-87011871D01*
X171544024Y-87485671D01*
X171406119Y-88286147D01*
X171301004Y-89233505D01*
X171230379Y-90264943D01*
X171195944Y-91317657D01*
X169969528Y-91317657D01*
X170055101Y-89492786D01*
X170398561Y-87308234D01*
X170985325Y-85068597D01*
X171814958Y-82776810D01*
X172702184Y-80807500D01*
X174043205Y-78351139D01*
X175609349Y-75982961D01*
X177381217Y-73722413D01*
X179339410Y-71588943D01*
X181464530Y-69601998D01*
X183737175Y-67781024D01*
X186137948Y-66145469D01*
X188647450Y-64714781D01*
X188867793Y-64601900D01*
X191076269Y-63564456D01*
X193217216Y-62735667D01*
X195341512Y-62099477D01*
X197500036Y-61639831D01*
X198911535Y-61432297D01*
X199692981Y-61367521D01*
X200634054Y-61338707D01*
X201663110Y-61343616D01*
D11*
X254650000Y-50150000D02*
X254650000Y-51150000D01*
X253650000Y-64150000D02*
X254650000Y-64150000D01*
X254650000Y-50150000D02*
X253650000Y-50150000D01*
X254650000Y-63150000D02*
X254650000Y-64150000D01*
X240650000Y-64150000D02*
X240650000Y-63150000D01*
X241650000Y-50150000D02*
X240650000Y-50150000D01*
X240650000Y-64150000D02*
X241650000Y-64150000D01*
X240650000Y-51150000D02*
X240650000Y-50150000D01*
X102250000Y-69200000D02*
X102250000Y-70200000D01*
X101250000Y-83200000D02*
X102250000Y-83200000D01*
X102250000Y-69200000D02*
X101250000Y-69200000D01*
X102250000Y-82200000D02*
X102250000Y-83200000D01*
X88250000Y-83200000D02*
X88250000Y-82200000D01*
X89250000Y-69200000D02*
X88250000Y-69200000D01*
X88250000Y-83200000D02*
X89250000Y-83200000D01*
X88250000Y-70200000D02*
X88250000Y-69200000D01*
X121300000Y-69200000D02*
X121300000Y-70200000D01*
X120300000Y-83200000D02*
X121300000Y-83200000D01*
X121300000Y-69200000D02*
X120300000Y-69200000D01*
X121300000Y-82200000D02*
X121300000Y-83200000D01*
X107300000Y-83200000D02*
X107300000Y-82200000D01*
X108300000Y-69200000D02*
X107300000Y-69200000D01*
X107300000Y-83200000D02*
X108300000Y-83200000D01*
X107300000Y-70200000D02*
X107300000Y-69200000D01*
X273700000Y-126350000D02*
X273700000Y-127350000D01*
X272700000Y-140350000D02*
X273700000Y-140350000D01*
X273700000Y-126350000D02*
X272700000Y-126350000D01*
X273700000Y-139350000D02*
X273700000Y-140350000D01*
X259700000Y-140350000D02*
X259700000Y-139350000D01*
X260700000Y-126350000D02*
X259700000Y-126350000D01*
X259700000Y-140350000D02*
X260700000Y-140350000D01*
X259700000Y-127350000D02*
X259700000Y-126350000D01*
X273700000Y-145400000D02*
X273700000Y-146400000D01*
X272700000Y-159400000D02*
X273700000Y-159400000D01*
X273700000Y-145400000D02*
X272700000Y-145400000D01*
X273700000Y-158400000D02*
X273700000Y-159400000D01*
X259700000Y-159400000D02*
X259700000Y-158400000D01*
X260700000Y-145400000D02*
X259700000Y-145400000D01*
X259700000Y-159400000D02*
X260700000Y-159400000D01*
X259700000Y-146400000D02*
X259700000Y-145400000D01*
X273700000Y-107300000D02*
X273700000Y-108300000D01*
X272700000Y-121300000D02*
X273700000Y-121300000D01*
X273700000Y-107300000D02*
X272700000Y-107300000D01*
X273700000Y-120300000D02*
X273700000Y-121300000D01*
X259700000Y-121300000D02*
X259700000Y-120300000D01*
X260700000Y-107300000D02*
X259700000Y-107300000D01*
X259700000Y-121300000D02*
X260700000Y-121300000D01*
X259700000Y-108300000D02*
X259700000Y-107300000D01*
X273700000Y-88250000D02*
X273700000Y-89250000D01*
X272700000Y-102250000D02*
X273700000Y-102250000D01*
X273700000Y-88250000D02*
X272700000Y-88250000D01*
X273700000Y-101250000D02*
X273700000Y-102250000D01*
X259700000Y-102250000D02*
X259700000Y-101250000D01*
X260700000Y-88250000D02*
X259700000Y-88250000D01*
X259700000Y-102250000D02*
X260700000Y-102250000D01*
X259700000Y-89250000D02*
X259700000Y-88250000D01*
X273700000Y-69200000D02*
X273700000Y-70200000D01*
X272700000Y-83200000D02*
X273700000Y-83200000D01*
X273700000Y-69200000D02*
X272700000Y-69200000D01*
X273700000Y-82200000D02*
X273700000Y-83200000D01*
X259700000Y-83200000D02*
X259700000Y-82200000D01*
X260700000Y-69200000D02*
X259700000Y-69200000D01*
X259700000Y-83200000D02*
X260700000Y-83200000D01*
X259700000Y-70200000D02*
X259700000Y-69200000D01*
X273700000Y-50150000D02*
X273700000Y-51150000D01*
X272700000Y-64150000D02*
X273700000Y-64150000D01*
X273700000Y-50150000D02*
X272700000Y-50150000D01*
X273700000Y-63150000D02*
X273700000Y-64150000D01*
X259700000Y-64150000D02*
X259700000Y-63150000D01*
X260700000Y-50150000D02*
X259700000Y-50150000D01*
X259700000Y-64150000D02*
X260700000Y-64150000D01*
X259700000Y-51150000D02*
X259700000Y-50150000D01*
X254650000Y-145400000D02*
X254650000Y-146400000D01*
X253650000Y-159400000D02*
X254650000Y-159400000D01*
X254650000Y-145400000D02*
X253650000Y-145400000D01*
X254650000Y-158400000D02*
X254650000Y-159400000D01*
X240650000Y-159400000D02*
X240650000Y-158400000D01*
X241650000Y-145400000D02*
X240650000Y-145400000D01*
X240650000Y-159400000D02*
X241650000Y-159400000D01*
X240650000Y-146400000D02*
X240650000Y-145400000D01*
X254650000Y-126350000D02*
X254650000Y-127350000D01*
X253650000Y-140350000D02*
X254650000Y-140350000D01*
X254650000Y-126350000D02*
X253650000Y-126350000D01*
X254650000Y-139350000D02*
X254650000Y-140350000D01*
X240650000Y-140350000D02*
X240650000Y-139350000D01*
X241650000Y-126350000D02*
X240650000Y-126350000D01*
X240650000Y-140350000D02*
X241650000Y-140350000D01*
X240650000Y-127350000D02*
X240650000Y-126350000D01*
X254650000Y-107300000D02*
X254650000Y-108300000D01*
X253650000Y-121300000D02*
X254650000Y-121300000D01*
X254650000Y-107300000D02*
X253650000Y-107300000D01*
X254650000Y-120300000D02*
X254650000Y-121300000D01*
X240650000Y-121300000D02*
X240650000Y-120300000D01*
X241650000Y-107300000D02*
X240650000Y-107300000D01*
X240650000Y-121300000D02*
X241650000Y-121300000D01*
X240650000Y-108300000D02*
X240650000Y-107300000D01*
X254650000Y-88250000D02*
X254650000Y-89250000D01*
X253650000Y-102250000D02*
X254650000Y-102250000D01*
X254650000Y-88250000D02*
X253650000Y-88250000D01*
X254650000Y-101250000D02*
X254650000Y-102250000D01*
X240650000Y-102250000D02*
X240650000Y-101250000D01*
X241650000Y-88250000D02*
X240650000Y-88250000D01*
X240650000Y-102250000D02*
X241650000Y-102250000D01*
X240650000Y-89250000D02*
X240650000Y-88250000D01*
X254650000Y-69200000D02*
X254650000Y-70200000D01*
X253650000Y-83200000D02*
X254650000Y-83200000D01*
X254650000Y-69200000D02*
X253650000Y-69200000D01*
X254650000Y-82200000D02*
X254650000Y-83200000D01*
X240650000Y-83200000D02*
X240650000Y-82200000D01*
X241650000Y-69200000D02*
X240650000Y-69200000D01*
X240650000Y-83200000D02*
X241650000Y-83200000D01*
X240650000Y-70200000D02*
X240650000Y-69200000D01*
X235600000Y-145400000D02*
X235600000Y-146400000D01*
X234600000Y-159400000D02*
X235600000Y-159400000D01*
X235600000Y-145400000D02*
X234600000Y-145400000D01*
X235600000Y-158400000D02*
X235600000Y-159400000D01*
X221600000Y-159400000D02*
X221600000Y-158400000D01*
X222600000Y-145400000D02*
X221600000Y-145400000D01*
X221600000Y-159400000D02*
X222600000Y-159400000D01*
X221600000Y-146400000D02*
X221600000Y-145400000D01*
X235600000Y-126350000D02*
X235600000Y-127350000D01*
X234600000Y-140350000D02*
X235600000Y-140350000D01*
X235600000Y-126350000D02*
X234600000Y-126350000D01*
X235600000Y-139350000D02*
X235600000Y-140350000D01*
X221600000Y-140350000D02*
X221600000Y-139350000D01*
X222600000Y-126350000D02*
X221600000Y-126350000D01*
X221600000Y-140350000D02*
X222600000Y-140350000D01*
X221600000Y-127350000D02*
X221600000Y-126350000D01*
X235600000Y-107300000D02*
X235600000Y-108300000D01*
X234600000Y-121300000D02*
X235600000Y-121300000D01*
X235600000Y-107300000D02*
X234600000Y-107300000D01*
X235600000Y-120300000D02*
X235600000Y-121300000D01*
X221600000Y-121300000D02*
X221600000Y-120300000D01*
X222600000Y-107300000D02*
X221600000Y-107300000D01*
X221600000Y-121300000D02*
X222600000Y-121300000D01*
X221600000Y-108300000D02*
X221600000Y-107300000D01*
X235600000Y-88250000D02*
X235600000Y-89250000D01*
X234600000Y-102250000D02*
X235600000Y-102250000D01*
X235600000Y-88250000D02*
X234600000Y-88250000D01*
X235600000Y-101250000D02*
X235600000Y-102250000D01*
X221600000Y-102250000D02*
X221600000Y-101250000D01*
X222600000Y-88250000D02*
X221600000Y-88250000D01*
X221600000Y-102250000D02*
X222600000Y-102250000D01*
X221600000Y-89250000D02*
X221600000Y-88250000D01*
X235600000Y-69200000D02*
X235600000Y-70200000D01*
X234600000Y-83200000D02*
X235600000Y-83200000D01*
X235600000Y-69200000D02*
X234600000Y-69200000D01*
X235600000Y-82200000D02*
X235600000Y-83200000D01*
X221600000Y-83200000D02*
X221600000Y-82200000D01*
X222600000Y-69200000D02*
X221600000Y-69200000D01*
X221600000Y-83200000D02*
X222600000Y-83200000D01*
X221600000Y-70200000D02*
X221600000Y-69200000D01*
X235600000Y-50150000D02*
X235600000Y-51150000D01*
X234600000Y-64150000D02*
X235600000Y-64150000D01*
X235600000Y-50150000D02*
X234600000Y-50150000D01*
X235600000Y-63150000D02*
X235600000Y-64150000D01*
X221600000Y-64150000D02*
X221600000Y-63150000D01*
X222600000Y-50150000D02*
X221600000Y-50150000D01*
X221600000Y-64150000D02*
X222600000Y-64150000D01*
X221600000Y-51150000D02*
X221600000Y-50150000D01*
X216550000Y-145400000D02*
X216550000Y-146400000D01*
X215550000Y-159400000D02*
X216550000Y-159400000D01*
X216550000Y-145400000D02*
X215550000Y-145400000D01*
X216550000Y-158400000D02*
X216550000Y-159400000D01*
X202550000Y-159400000D02*
X202550000Y-158400000D01*
X203550000Y-145400000D02*
X202550000Y-145400000D01*
X202550000Y-159400000D02*
X203550000Y-159400000D01*
X202550000Y-146400000D02*
X202550000Y-145400000D01*
X216550000Y-126350000D02*
X216550000Y-127350000D01*
X215550000Y-140350000D02*
X216550000Y-140350000D01*
X216550000Y-126350000D02*
X215550000Y-126350000D01*
X216550000Y-139350000D02*
X216550000Y-140350000D01*
X202550000Y-140350000D02*
X202550000Y-139350000D01*
X203550000Y-126350000D02*
X202550000Y-126350000D01*
X202550000Y-140350000D02*
X203550000Y-140350000D01*
X202550000Y-127350000D02*
X202550000Y-126350000D01*
X216550000Y-107300000D02*
X216550000Y-108300000D01*
X215550000Y-121300000D02*
X216550000Y-121300000D01*
X216550000Y-107300000D02*
X215550000Y-107300000D01*
X216550000Y-120300000D02*
X216550000Y-121300000D01*
X202550000Y-121300000D02*
X202550000Y-120300000D01*
X203550000Y-107300000D02*
X202550000Y-107300000D01*
X202550000Y-121300000D02*
X203550000Y-121300000D01*
X202550000Y-108300000D02*
X202550000Y-107300000D01*
X216550000Y-88250000D02*
X216550000Y-89250000D01*
X215550000Y-102250000D02*
X216550000Y-102250000D01*
X216550000Y-88250000D02*
X215550000Y-88250000D01*
X216550000Y-101250000D02*
X216550000Y-102250000D01*
X202550000Y-102250000D02*
X202550000Y-101250000D01*
X203550000Y-88250000D02*
X202550000Y-88250000D01*
X202550000Y-102250000D02*
X203550000Y-102250000D01*
X202550000Y-89250000D02*
X202550000Y-88250000D01*
X216550000Y-69200000D02*
X216550000Y-70200000D01*
X215550000Y-83200000D02*
X216550000Y-83200000D01*
X216550000Y-69200000D02*
X215550000Y-69200000D01*
X216550000Y-82200000D02*
X216550000Y-83200000D01*
X202550000Y-83200000D02*
X202550000Y-82200000D01*
X203550000Y-69200000D02*
X202550000Y-69200000D01*
X202550000Y-83200000D02*
X203550000Y-83200000D01*
X202550000Y-70200000D02*
X202550000Y-69200000D01*
X216550000Y-50150000D02*
X216550000Y-51150000D01*
X215550000Y-64150000D02*
X216550000Y-64150000D01*
X216550000Y-50150000D02*
X215550000Y-50150000D01*
X216550000Y-63150000D02*
X216550000Y-64150000D01*
X202550000Y-64150000D02*
X202550000Y-63150000D01*
X203550000Y-50150000D02*
X202550000Y-50150000D01*
X202550000Y-64150000D02*
X203550000Y-64150000D01*
X202550000Y-51150000D02*
X202550000Y-50150000D01*
X187975000Y-145400000D02*
X187975000Y-146400000D01*
X186975000Y-159400000D02*
X187975000Y-159400000D01*
X187975000Y-145400000D02*
X186975000Y-145400000D01*
X187975000Y-158400000D02*
X187975000Y-159400000D01*
X173975000Y-159400000D02*
X173975000Y-158400000D01*
X174975000Y-145400000D02*
X173975000Y-145400000D01*
X173975000Y-159400000D02*
X174975000Y-159400000D01*
X173975000Y-146400000D02*
X173975000Y-145400000D01*
X197500000Y-126350000D02*
X197500000Y-127350000D01*
X196500000Y-140350000D02*
X197500000Y-140350000D01*
X197500000Y-126350000D02*
X196500000Y-126350000D01*
X197500000Y-139350000D02*
X197500000Y-140350000D01*
X183500000Y-140350000D02*
X183500000Y-139350000D01*
X184500000Y-126350000D02*
X183500000Y-126350000D01*
X183500000Y-140350000D02*
X184500000Y-140350000D01*
X183500000Y-127350000D02*
X183500000Y-126350000D01*
X197500000Y-107300000D02*
X197500000Y-108300000D01*
X196500000Y-121300000D02*
X197500000Y-121300000D01*
X197500000Y-107300000D02*
X196500000Y-107300000D01*
X197500000Y-120300000D02*
X197500000Y-121300000D01*
X183500000Y-121300000D02*
X183500000Y-120300000D01*
X184500000Y-107300000D02*
X183500000Y-107300000D01*
X183500000Y-121300000D02*
X184500000Y-121300000D01*
X183500000Y-108300000D02*
X183500000Y-107300000D01*
X197500000Y-88250000D02*
X197500000Y-89250000D01*
X196500000Y-102250000D02*
X197500000Y-102250000D01*
X197500000Y-88250000D02*
X196500000Y-88250000D01*
X197500000Y-101250000D02*
X197500000Y-102250000D01*
X183500000Y-102250000D02*
X183500000Y-101250000D01*
X184500000Y-88250000D02*
X183500000Y-88250000D01*
X183500000Y-102250000D02*
X184500000Y-102250000D01*
X183500000Y-89250000D02*
X183500000Y-88250000D01*
X197500000Y-69200000D02*
X197500000Y-70200000D01*
X196500000Y-83200000D02*
X197500000Y-83200000D01*
X197500000Y-69200000D02*
X196500000Y-69200000D01*
X197500000Y-82200000D02*
X197500000Y-83200000D01*
X183500000Y-83200000D02*
X183500000Y-82200000D01*
X184500000Y-69200000D02*
X183500000Y-69200000D01*
X183500000Y-83200000D02*
X184500000Y-83200000D01*
X183500000Y-70200000D02*
X183500000Y-69200000D01*
X197500000Y-50150000D02*
X197500000Y-51150000D01*
X196500000Y-64150000D02*
X197500000Y-64150000D01*
X197500000Y-50150000D02*
X196500000Y-50150000D01*
X197500000Y-63150000D02*
X197500000Y-64150000D01*
X183500000Y-64150000D02*
X183500000Y-63150000D01*
X184500000Y-50150000D02*
X183500000Y-50150000D01*
X183500000Y-64150000D02*
X184500000Y-64150000D01*
X183500000Y-51150000D02*
X183500000Y-50150000D01*
X178450000Y-126350000D02*
X178450000Y-127350000D01*
X177450000Y-140350000D02*
X178450000Y-140350000D01*
X178450000Y-126350000D02*
X177450000Y-126350000D01*
X178450000Y-139350000D02*
X178450000Y-140350000D01*
X164450000Y-140350000D02*
X164450000Y-139350000D01*
X165450000Y-126350000D02*
X164450000Y-126350000D01*
X164450000Y-140350000D02*
X165450000Y-140350000D01*
X164450000Y-127350000D02*
X164450000Y-126350000D01*
X178450000Y-107300000D02*
X178450000Y-108300000D01*
X177450000Y-121300000D02*
X178450000Y-121300000D01*
X178450000Y-107300000D02*
X177450000Y-107300000D01*
X178450000Y-120300000D02*
X178450000Y-121300000D01*
X164450000Y-121300000D02*
X164450000Y-120300000D01*
X165450000Y-107300000D02*
X164450000Y-107300000D01*
X164450000Y-121300000D02*
X165450000Y-121300000D01*
X164450000Y-108300000D02*
X164450000Y-107300000D01*
X178450000Y-88250000D02*
X178450000Y-89250000D01*
X177450000Y-102250000D02*
X178450000Y-102250000D01*
X178450000Y-88250000D02*
X177450000Y-88250000D01*
X178450000Y-101250000D02*
X178450000Y-102250000D01*
X164450000Y-102250000D02*
X164450000Y-101250000D01*
X165450000Y-88250000D02*
X164450000Y-88250000D01*
X164450000Y-102250000D02*
X165450000Y-102250000D01*
X164450000Y-89250000D02*
X164450000Y-88250000D01*
X178450000Y-69200000D02*
X178450000Y-70200000D01*
X177450000Y-83200000D02*
X178450000Y-83200000D01*
X178450000Y-69200000D02*
X177450000Y-69200000D01*
X178450000Y-82200000D02*
X178450000Y-83200000D01*
X164450000Y-83200000D02*
X164450000Y-82200000D01*
X165450000Y-69200000D02*
X164450000Y-69200000D01*
X164450000Y-83200000D02*
X165450000Y-83200000D01*
X164450000Y-70200000D02*
X164450000Y-69200000D01*
X178450000Y-50150000D02*
X178450000Y-51150000D01*
X177450000Y-64150000D02*
X178450000Y-64150000D01*
X178450000Y-50150000D02*
X177450000Y-50150000D01*
X178450000Y-63150000D02*
X178450000Y-64150000D01*
X164450000Y-64150000D02*
X164450000Y-63150000D01*
X165450000Y-50150000D02*
X164450000Y-50150000D01*
X164450000Y-64150000D02*
X165450000Y-64150000D01*
X164450000Y-51150000D02*
X164450000Y-50150000D01*
X159400000Y-145400000D02*
X159400000Y-146400000D01*
X158400000Y-159400000D02*
X159400000Y-159400000D01*
X159400000Y-145400000D02*
X158400000Y-145400000D01*
X159400000Y-158400000D02*
X159400000Y-159400000D01*
X145400000Y-159400000D02*
X145400000Y-158400000D01*
X146400000Y-145400000D02*
X145400000Y-145400000D01*
X145400000Y-159400000D02*
X146400000Y-159400000D01*
X145400000Y-146400000D02*
X145400000Y-145400000D01*
X159400000Y-126350000D02*
X159400000Y-127350000D01*
X158400000Y-140350000D02*
X159400000Y-140350000D01*
X159400000Y-126350000D02*
X158400000Y-126350000D01*
X159400000Y-139350000D02*
X159400000Y-140350000D01*
X145400000Y-140350000D02*
X145400000Y-139350000D01*
X146400000Y-126350000D02*
X145400000Y-126350000D01*
X145400000Y-140350000D02*
X146400000Y-140350000D01*
X145400000Y-127350000D02*
X145400000Y-126350000D01*
X159400000Y-107300000D02*
X159400000Y-108300000D01*
X158400000Y-121300000D02*
X159400000Y-121300000D01*
X159400000Y-107300000D02*
X158400000Y-107300000D01*
X159400000Y-120300000D02*
X159400000Y-121300000D01*
X145400000Y-121300000D02*
X145400000Y-120300000D01*
X146400000Y-107300000D02*
X145400000Y-107300000D01*
X145400000Y-121300000D02*
X146400000Y-121300000D01*
X145400000Y-108300000D02*
X145400000Y-107300000D01*
X159400000Y-88250000D02*
X159400000Y-89250000D01*
X158400000Y-102250000D02*
X159400000Y-102250000D01*
X159400000Y-88250000D02*
X158400000Y-88250000D01*
X159400000Y-101250000D02*
X159400000Y-102250000D01*
X145400000Y-102250000D02*
X145400000Y-101250000D01*
X146400000Y-88250000D02*
X145400000Y-88250000D01*
X145400000Y-102250000D02*
X146400000Y-102250000D01*
X145400000Y-89250000D02*
X145400000Y-88250000D01*
X159400000Y-69200000D02*
X159400000Y-70200000D01*
X158400000Y-83200000D02*
X159400000Y-83200000D01*
X159400000Y-69200000D02*
X158400000Y-69200000D01*
X159400000Y-82200000D02*
X159400000Y-83200000D01*
X145400000Y-83200000D02*
X145400000Y-82200000D01*
X146400000Y-69200000D02*
X145400000Y-69200000D01*
X145400000Y-83200000D02*
X146400000Y-83200000D01*
X145400000Y-70200000D02*
X145400000Y-69200000D01*
X159400000Y-50150000D02*
X159400000Y-51150000D01*
X158400000Y-64150000D02*
X159400000Y-64150000D01*
X159400000Y-50150000D02*
X158400000Y-50150000D01*
X159400000Y-63150000D02*
X159400000Y-64150000D01*
X145400000Y-64150000D02*
X145400000Y-63150000D01*
X146400000Y-50150000D02*
X145400000Y-50150000D01*
X145400000Y-64150000D02*
X146400000Y-64150000D01*
X145400000Y-51150000D02*
X145400000Y-50150000D01*
X140350000Y-126350000D02*
X140350000Y-127350000D01*
X139350000Y-140350000D02*
X140350000Y-140350000D01*
X140350000Y-126350000D02*
X139350000Y-126350000D01*
X140350000Y-139350000D02*
X140350000Y-140350000D01*
X126350000Y-140350000D02*
X126350000Y-139350000D01*
X127350000Y-126350000D02*
X126350000Y-126350000D01*
X126350000Y-140350000D02*
X127350000Y-140350000D01*
X126350000Y-127350000D02*
X126350000Y-126350000D01*
X140350000Y-107300000D02*
X140350000Y-108300000D01*
X139350000Y-121300000D02*
X140350000Y-121300000D01*
X140350000Y-107300000D02*
X139350000Y-107300000D01*
X140350000Y-120300000D02*
X140350000Y-121300000D01*
X126350000Y-121300000D02*
X126350000Y-120300000D01*
X127350000Y-107300000D02*
X126350000Y-107300000D01*
X126350000Y-121300000D02*
X127350000Y-121300000D01*
X126350000Y-108300000D02*
X126350000Y-107300000D01*
X140350000Y-88250000D02*
X140350000Y-89250000D01*
X139350000Y-102250000D02*
X140350000Y-102250000D01*
X140350000Y-88250000D02*
X139350000Y-88250000D01*
X140350000Y-101250000D02*
X140350000Y-102250000D01*
X126350000Y-102250000D02*
X126350000Y-101250000D01*
X127350000Y-88250000D02*
X126350000Y-88250000D01*
X126350000Y-102250000D02*
X127350000Y-102250000D01*
X126350000Y-89250000D02*
X126350000Y-88250000D01*
X140350000Y-69200000D02*
X140350000Y-70200000D01*
X139350000Y-83200000D02*
X140350000Y-83200000D01*
X140350000Y-69200000D02*
X139350000Y-69200000D01*
X140350000Y-82200000D02*
X140350000Y-83200000D01*
X126350000Y-83200000D02*
X126350000Y-82200000D01*
X127350000Y-69200000D02*
X126350000Y-69200000D01*
X126350000Y-83200000D02*
X127350000Y-83200000D01*
X126350000Y-70200000D02*
X126350000Y-69200000D01*
X140350000Y-50150000D02*
X140350000Y-51150000D01*
X139350000Y-64150000D02*
X140350000Y-64150000D01*
X140350000Y-50150000D02*
X139350000Y-50150000D01*
X140350000Y-63150000D02*
X140350000Y-64150000D01*
X126350000Y-64150000D02*
X126350000Y-63150000D01*
X127350000Y-50150000D02*
X126350000Y-50150000D01*
X126350000Y-64150000D02*
X127350000Y-64150000D01*
X126350000Y-51150000D02*
X126350000Y-50150000D01*
X130825000Y-145400000D02*
X130825000Y-146400000D01*
X129825000Y-159400000D02*
X130825000Y-159400000D01*
X130825000Y-145400000D02*
X129825000Y-145400000D01*
X130825000Y-158400000D02*
X130825000Y-159400000D01*
X116825000Y-159400000D02*
X116825000Y-158400000D01*
X117825000Y-145400000D02*
X116825000Y-145400000D01*
X116825000Y-159400000D02*
X117825000Y-159400000D01*
X116825000Y-146400000D02*
X116825000Y-145400000D01*
X121300000Y-126350000D02*
X121300000Y-127350000D01*
X120300000Y-140350000D02*
X121300000Y-140350000D01*
X121300000Y-126350000D02*
X120300000Y-126350000D01*
X121300000Y-139350000D02*
X121300000Y-140350000D01*
X107300000Y-140350000D02*
X107300000Y-139350000D01*
X108300000Y-126350000D02*
X107300000Y-126350000D01*
X107300000Y-140350000D02*
X108300000Y-140350000D01*
X107300000Y-127350000D02*
X107300000Y-126350000D01*
X121300000Y-107300000D02*
X121300000Y-108300000D01*
X120300000Y-121300000D02*
X121300000Y-121300000D01*
X121300000Y-107300000D02*
X120300000Y-107300000D01*
X121300000Y-120300000D02*
X121300000Y-121300000D01*
X107300000Y-121300000D02*
X107300000Y-120300000D01*
X108300000Y-107300000D02*
X107300000Y-107300000D01*
X107300000Y-121300000D02*
X108300000Y-121300000D01*
X107300000Y-108300000D02*
X107300000Y-107300000D01*
X121300000Y-88250000D02*
X121300000Y-89250000D01*
X120300000Y-102250000D02*
X121300000Y-102250000D01*
X121300000Y-88250000D02*
X120300000Y-88250000D01*
X121300000Y-101250000D02*
X121300000Y-102250000D01*
X107300000Y-102250000D02*
X107300000Y-101250000D01*
X108300000Y-88250000D02*
X107300000Y-88250000D01*
X107300000Y-102250000D02*
X108300000Y-102250000D01*
X107300000Y-89250000D02*
X107300000Y-88250000D01*
X121300000Y-50150000D02*
X121300000Y-51150000D01*
X120300000Y-64150000D02*
X121300000Y-64150000D01*
X121300000Y-50150000D02*
X120300000Y-50150000D01*
X121300000Y-63150000D02*
X121300000Y-64150000D01*
X107300000Y-64150000D02*
X107300000Y-63150000D01*
X108300000Y-50150000D02*
X107300000Y-50150000D01*
X107300000Y-64150000D02*
X108300000Y-64150000D01*
X107300000Y-51150000D02*
X107300000Y-50150000D01*
X102250000Y-145400000D02*
X102250000Y-146400000D01*
X101250000Y-159400000D02*
X102250000Y-159400000D01*
X102250000Y-145400000D02*
X101250000Y-145400000D01*
X102250000Y-158400000D02*
X102250000Y-159400000D01*
X88250000Y-159400000D02*
X88250000Y-158400000D01*
X89250000Y-145400000D02*
X88250000Y-145400000D01*
X88250000Y-159400000D02*
X89250000Y-159400000D01*
X88250000Y-146400000D02*
X88250000Y-145400000D01*
X102250000Y-126350000D02*
X102250000Y-127350000D01*
X101250000Y-140350000D02*
X102250000Y-140350000D01*
X102250000Y-126350000D02*
X101250000Y-126350000D01*
X102250000Y-139350000D02*
X102250000Y-140350000D01*
X88250000Y-140350000D02*
X88250000Y-139350000D01*
X89250000Y-126350000D02*
X88250000Y-126350000D01*
X88250000Y-140350000D02*
X89250000Y-140350000D01*
X88250000Y-127350000D02*
X88250000Y-126350000D01*
X102250000Y-107300000D02*
X102250000Y-108300000D01*
X101250000Y-121300000D02*
X102250000Y-121300000D01*
X102250000Y-107300000D02*
X101250000Y-107300000D01*
X102250000Y-120300000D02*
X102250000Y-121300000D01*
X88250000Y-121300000D02*
X88250000Y-120300000D01*
X89250000Y-107300000D02*
X88250000Y-107300000D01*
X88250000Y-121300000D02*
X89250000Y-121300000D01*
X88250000Y-108300000D02*
X88250000Y-107300000D01*
X102250000Y-88250000D02*
X102250000Y-89250000D01*
X101250000Y-102250000D02*
X102250000Y-102250000D01*
X102250000Y-88250000D02*
X101250000Y-88250000D01*
X102250000Y-101250000D02*
X102250000Y-102250000D01*
X88250000Y-102250000D02*
X88250000Y-101250000D01*
X89250000Y-88250000D02*
X88250000Y-88250000D01*
X88250000Y-102250000D02*
X89250000Y-102250000D01*
X88250000Y-89250000D02*
X88250000Y-88250000D01*
X102250000Y-50150000D02*
X102250000Y-51150000D01*
X101250000Y-64150000D02*
X102250000Y-64150000D01*
X102250000Y-50150000D02*
X101250000Y-50150000D01*
X102250000Y-63150000D02*
X102250000Y-64150000D01*
X88250000Y-64150000D02*
X88250000Y-63150000D01*
X89250000Y-50150000D02*
X88250000Y-50150000D01*
X88250000Y-64150000D02*
X89250000Y-64150000D01*
X88250000Y-51150000D02*
X88250000Y-50150000D01*
X83200000Y-145400000D02*
X83200000Y-146400000D01*
X82200000Y-159400000D02*
X83200000Y-159400000D01*
X83200000Y-145400000D02*
X82200000Y-145400000D01*
X83200000Y-158400000D02*
X83200000Y-159400000D01*
X69200000Y-159400000D02*
X69200000Y-158400000D01*
X70200000Y-145400000D02*
X69200000Y-145400000D01*
X69200000Y-159400000D02*
X70200000Y-159400000D01*
X69200000Y-146400000D02*
X69200000Y-145400000D01*
X83200000Y-126350000D02*
X83200000Y-127350000D01*
X82200000Y-140350000D02*
X83200000Y-140350000D01*
X83200000Y-126350000D02*
X82200000Y-126350000D01*
X83200000Y-139350000D02*
X83200000Y-140350000D01*
X69200000Y-140350000D02*
X69200000Y-139350000D01*
X70200000Y-126350000D02*
X69200000Y-126350000D01*
X69200000Y-140350000D02*
X70200000Y-140350000D01*
X69200000Y-127350000D02*
X69200000Y-126350000D01*
X83200000Y-107300000D02*
X83200000Y-108300000D01*
X82200000Y-121300000D02*
X83200000Y-121300000D01*
X83200000Y-107300000D02*
X82200000Y-107300000D01*
X83200000Y-120300000D02*
X83200000Y-121300000D01*
X69200000Y-121300000D02*
X69200000Y-120300000D01*
X70200000Y-107300000D02*
X69200000Y-107300000D01*
X69200000Y-121300000D02*
X70200000Y-121300000D01*
X69200000Y-108300000D02*
X69200000Y-107300000D01*
X83200000Y-88250000D02*
X83200000Y-89250000D01*
X82200000Y-102250000D02*
X83200000Y-102250000D01*
X83200000Y-88250000D02*
X82200000Y-88250000D01*
X83200000Y-101250000D02*
X83200000Y-102250000D01*
X69200000Y-102250000D02*
X69200000Y-101250000D01*
X70200000Y-88250000D02*
X69200000Y-88250000D01*
X69200000Y-102250000D02*
X70200000Y-102250000D01*
X69200000Y-89250000D02*
X69200000Y-88250000D01*
X83200000Y-69200000D02*
X83200000Y-70200000D01*
X82200000Y-83200000D02*
X83200000Y-83200000D01*
X83200000Y-69200000D02*
X82200000Y-69200000D01*
X83200000Y-82200000D02*
X83200000Y-83200000D01*
X69200000Y-83200000D02*
X69200000Y-82200000D01*
X70200000Y-69200000D02*
X69200000Y-69200000D01*
X69200000Y-83200000D02*
X70200000Y-83200000D01*
X69200000Y-70200000D02*
X69200000Y-69200000D01*
X83200000Y-50150000D02*
X83200000Y-51150000D01*
X82200000Y-64150000D02*
X83200000Y-64150000D01*
X83200000Y-50150000D02*
X82200000Y-50150000D01*
X83200000Y-63150000D02*
X83200000Y-64150000D01*
X69200000Y-64150000D02*
X69200000Y-63150000D01*
X70200000Y-50150000D02*
X69200000Y-50150000D01*
X69200000Y-64150000D02*
X70200000Y-64150000D01*
X69200000Y-51150000D02*
X69200000Y-50150000D01*
X64150000Y-145400000D02*
X64150000Y-146400000D01*
X63150000Y-159400000D02*
X64150000Y-159400000D01*
X64150000Y-145400000D02*
X63150000Y-145400000D01*
X64150000Y-158400000D02*
X64150000Y-159400000D01*
X50150000Y-159400000D02*
X50150000Y-158400000D01*
X51150000Y-145400000D02*
X50150000Y-145400000D01*
X50150000Y-159400000D02*
X51150000Y-159400000D01*
X50150000Y-146400000D02*
X50150000Y-145400000D01*
X64150000Y-126350000D02*
X64150000Y-127350000D01*
X63150000Y-140350000D02*
X64150000Y-140350000D01*
X64150000Y-126350000D02*
X63150000Y-126350000D01*
X64150000Y-139350000D02*
X64150000Y-140350000D01*
X50150000Y-140350000D02*
X50150000Y-139350000D01*
X51150000Y-126350000D02*
X50150000Y-126350000D01*
X50150000Y-140350000D02*
X51150000Y-140350000D01*
X50150000Y-127350000D02*
X50150000Y-126350000D01*
X64150000Y-107300000D02*
X64150000Y-108300000D01*
X63150000Y-121300000D02*
X64150000Y-121300000D01*
X64150000Y-107300000D02*
X63150000Y-107300000D01*
X64150000Y-120300000D02*
X64150000Y-121300000D01*
X50150000Y-121300000D02*
X50150000Y-120300000D01*
X51150000Y-107300000D02*
X50150000Y-107300000D01*
X50150000Y-121300000D02*
X51150000Y-121300000D01*
X50150000Y-108300000D02*
X50150000Y-107300000D01*
X64150000Y-88250000D02*
X64150000Y-89250000D01*
X63150000Y-102250000D02*
X64150000Y-102250000D01*
X64150000Y-88250000D02*
X63150000Y-88250000D01*
X64150000Y-101250000D02*
X64150000Y-102250000D01*
X50150000Y-102250000D02*
X50150000Y-101250000D01*
X51150000Y-88250000D02*
X50150000Y-88250000D01*
X50150000Y-102250000D02*
X51150000Y-102250000D01*
X50150000Y-89250000D02*
X50150000Y-88250000D01*
X64150000Y-69200000D02*
X64150000Y-70200000D01*
X63150000Y-83200000D02*
X64150000Y-83200000D01*
X64150000Y-69200000D02*
X63150000Y-69200000D01*
X64150000Y-82200000D02*
X64150000Y-83200000D01*
X50150000Y-83200000D02*
X50150000Y-82200000D01*
X51150000Y-69200000D02*
X50150000Y-69200000D01*
X50150000Y-83200000D02*
X51150000Y-83200000D01*
X50150000Y-70200000D02*
X50150000Y-69200000D01*
X64150000Y-50150000D02*
X64150000Y-51150000D01*
X63150000Y-64150000D02*
X64150000Y-64150000D01*
X64150000Y-50150000D02*
X63150000Y-50150000D01*
X64150000Y-63150000D02*
X64150000Y-64150000D01*
X50150000Y-64150000D02*
X50150000Y-63150000D01*
X51150000Y-50150000D02*
X50150000Y-50150000D01*
X50150000Y-64150000D02*
X51150000Y-64150000D01*
X50150000Y-51150000D02*
X50150000Y-50150000D01*
X45100000Y-145400000D02*
X45100000Y-146400000D01*
X44100000Y-159400000D02*
X45100000Y-159400000D01*
X45100000Y-145400000D02*
X44100000Y-145400000D01*
X45100000Y-158400000D02*
X45100000Y-159400000D01*
X31100000Y-159400000D02*
X31100000Y-158400000D01*
X32100000Y-145400000D02*
X31100000Y-145400000D01*
X31100000Y-159400000D02*
X32100000Y-159400000D01*
X31100000Y-146400000D02*
X31100000Y-145400000D01*
X45100000Y-126350000D02*
X45100000Y-127350000D01*
X44100000Y-140350000D02*
X45100000Y-140350000D01*
X45100000Y-126350000D02*
X44100000Y-126350000D01*
X45100000Y-139350000D02*
X45100000Y-140350000D01*
X31100000Y-140350000D02*
X31100000Y-139350000D01*
X32100000Y-126350000D02*
X31100000Y-126350000D01*
X31100000Y-140350000D02*
X32100000Y-140350000D01*
X31100000Y-127350000D02*
X31100000Y-126350000D01*
X45100000Y-107300000D02*
X45100000Y-108300000D01*
X44100000Y-121300000D02*
X45100000Y-121300000D01*
X45100000Y-107300000D02*
X44100000Y-107300000D01*
X45100000Y-120300000D02*
X45100000Y-121300000D01*
X31100000Y-121300000D02*
X31100000Y-120300000D01*
X32100000Y-107300000D02*
X31100000Y-107300000D01*
X31100000Y-121300000D02*
X32100000Y-121300000D01*
X31100000Y-108300000D02*
X31100000Y-107300000D01*
X45100000Y-88250000D02*
X45100000Y-89250000D01*
X44100000Y-102250000D02*
X45100000Y-102250000D01*
X45100000Y-88250000D02*
X44100000Y-88250000D01*
X45100000Y-101250000D02*
X45100000Y-102250000D01*
X31100000Y-102250000D02*
X31100000Y-101250000D01*
X32100000Y-88250000D02*
X31100000Y-88250000D01*
X31100000Y-102250000D02*
X32100000Y-102250000D01*
X31100000Y-89250000D02*
X31100000Y-88250000D01*
X45100000Y-69200000D02*
X45100000Y-70200000D01*
X44100000Y-83200000D02*
X45100000Y-83200000D01*
X45100000Y-69200000D02*
X44100000Y-69200000D01*
X45100000Y-82200000D02*
X45100000Y-83200000D01*
X31100000Y-83200000D02*
X31100000Y-82200000D01*
X32100000Y-69200000D02*
X31100000Y-69200000D01*
X31100000Y-83200000D02*
X32100000Y-83200000D01*
X31100000Y-70200000D02*
X31100000Y-69200000D01*
X45100000Y-50150000D02*
X45100000Y-51150000D01*
X44100000Y-64150000D02*
X45100000Y-64150000D01*
X45100000Y-50150000D02*
X44100000Y-50150000D01*
X45100000Y-63150000D02*
X45100000Y-64150000D01*
X31100000Y-64150000D02*
X31100000Y-63150000D01*
X32100000Y-50150000D02*
X31100000Y-50150000D01*
X31100000Y-64150000D02*
X32100000Y-64150000D01*
X31100000Y-51150000D02*
X31100000Y-50150000D01*
M02*
