M48
; DRILL file {KiCad (5.1.6)-1} date 05/26/20 01:00:51
; FORMAT={3:3/ absolute / metric / suppress leading zeros}
; #@! TF.CreationDate,2020-05-26T01:00:51+02:00
; #@! TF.GenerationSoftware,Kicad,Pcbnew,(5.1.6)-1
; #@! TF.FileFunction,Plated,1,2,PTH
FMAT,2
METRIC,TZ
T1C0.400
T2C0.600
T3C0.800
%
G90
G05
T1
X29800Y-141600
X46325Y-52075
X46330Y-71120
X46335Y-90175
X46340Y-109235
X46345Y-128255
X46350Y-147300
X56475Y-160325
X65300Y-52075
X65300Y-71125
X65300Y-90175
X65300Y-109225
X65300Y-128275
X65300Y-147325
X75830Y-156820
X76000Y-65525
X81850Y-158290
X84375Y-109225
X84400Y-52075
X84400Y-71100
X84400Y-90175
X84400Y-128200
X84400Y-147325
X91625Y-59050
X92075Y-153987
X92900Y-157050
X98425Y-159544
X102394Y-161131
X103475Y-52075
X103475Y-71125
X103475Y-90150
X103475Y-109225
X103475Y-128225
X103475Y-147325
X107156Y-147638
X107950Y-158750
X113800Y-63225
X115094Y-157163
X121444Y-161131
X122425Y-71100
X122450Y-52075
X122450Y-90150
X122450Y-109250
X122450Y-128325
X122500Y-147250
X126206Y-147638
X127000Y-158750
X134144Y-157163
X135000Y-65450
X135825Y-63150
X141288Y-161131
X141625Y-71125
X141625Y-109225
X141625Y-128275
X141637Y-90237
X141650Y-52075
X141750Y-147250
X145256Y-147638
X146050Y-158750
X152400Y-124619
X152850Y-63150
X153194Y-157163
X157956Y-159544
X160338Y-161131
X160625Y-128425
X160650Y-52050
X160650Y-71100
X160650Y-90125
X160650Y-109175
X160750Y-147250
X164306Y-147638
X165100Y-158750
X170625Y-63225
X172244Y-157163
X178594Y-161131
X179625Y-71125
X179625Y-90175
X179650Y-52075
X179650Y-109225
X179650Y-128275
X179750Y-147250
X181650Y-65300
X182630Y-68620
X183356Y-147638
X184150Y-158750
X190500Y-63750
X191294Y-157163
X198875Y-52075
X198875Y-71075
X198875Y-90175
X198875Y-109200
X198875Y-128275
X199000Y-147250
X202406Y-147638
X203200Y-158750
X212620Y-42460
X217950Y-52075
X217950Y-71125
X217950Y-90175
X217950Y-109225
X217950Y-128275
X217950Y-147325
X219975Y-57875
X220750Y-160475
X221940Y-156010
X225100Y-39240
X226110Y-36480
X226630Y-35480
X227040Y-34010
X227835Y-30515
X227910Y-33180
X227965Y-31592
X228640Y-32330
X233180Y-33710
X234380Y-30320
X234400Y-29000
X236080Y-38890
X236850Y-109225
X236900Y-52075
X236900Y-71100
X236900Y-90175
X236900Y-128275
X236900Y-147325
X237825Y-105375
X237825Y-142000
X237900Y-61000
X237900Y-66875
X239000Y-57800
X240050Y-42000
X240060Y-40020
X241375Y-43100
X241600Y-27600
X243500Y-43175
X244525Y-43625
X245000Y-26275
X245607Y-42557
X245910Y-27180
X247220Y-26570
X248470Y-26500
X249300Y-33000
X249800Y-42475
X250750Y-158025
X251100Y-42400
X253270Y-29490
X254600Y-29600
X254925Y-35725
X255280Y-43620
X255440Y-40940
X255500Y-30700
X255950Y-52075
X255950Y-71125
X255950Y-90175
X255950Y-109225
X255950Y-128275
X255950Y-147325
X257000Y-52110
X257600Y-30000
X258125Y-58400
X258580Y-43820
X259775Y-143775
X260350Y-36512
X263200Y-63300
X264275Y-140725
X266500Y-29700
X268275Y-32425
X269200Y-35250
X270425Y-32600
X270450Y-37925
X274950Y-52075
X274950Y-71125
X274950Y-90175
X274950Y-109225
X274950Y-128275
X274950Y-147325
X275700Y-105200
X276400Y-139775
T3
X230700Y-31820
X230700Y-33820
X230700Y-35820
X230700Y-37820
T2
G00X274295Y-31180
M15
G01X273195Y-31180
M16
G05
G00X274295Y-39820
M15
G01X273195Y-39820
M16
G05
G00X278225Y-31180
M15
G01X277625Y-31180
M16
G05
G00X278225Y-39820
M15
G01X277625Y-39820
M16
G05
T0
M30
