G04 #@! TF.GenerationSoftware,KiCad,Pcbnew,(5.1.4)-1*
G04 #@! TF.CreationDate,2021-02-14T12:55:50+01:00*
G04 #@! TF.ProjectId,index-tab,696e6465-782d-4746-9162-2e6b69636164,5*
G04 #@! TF.SameCoordinates,Original*
G04 #@! TF.FileFunction,Legend,Top*
G04 #@! TF.FilePolarity,Positive*
%FSLAX46Y46*%
G04 Gerber Fmt 4.6, Leading zero omitted, Abs format (unit mm)*
G04 Created by KiCad (PCBNEW (5.1.4)-1) date 2021-02-14 12:55:50*
%MOMM*%
%LPD*%
G04 APERTURE LIST*
%ADD10C,0.120000*%
%ADD11C,0.010000*%
%ADD12C,0.150000*%
G04 APERTURE END LIST*
D10*
X145375000Y-104775000D02*
G75*
G03X145375000Y-104775000I-2500000J0D01*
G01*
X183475000Y-66675000D02*
G75*
G03X183475000Y-66675000I-2500000J0D01*
G01*
X183475000Y-142875000D02*
G75*
G03X183475000Y-142875000I-2500000J0D01*
G01*
X107275000Y-142875000D02*
G75*
G03X107275000Y-142875000I-2500000J0D01*
G01*
X107275000Y-66675000D02*
G75*
G03X107275000Y-66675000I-2500000J0D01*
G01*
X259675000Y-142875000D02*
G75*
G03X259675000Y-142875000I-2500000J0D01*
G01*
X259675000Y-66675000D02*
G75*
G03X259675000Y-66675000I-2500000J0D01*
G01*
X50125000Y-104775000D02*
G75*
G03X50125000Y-104775000I-2500000J0D01*
G01*
X50125000Y-142875000D02*
G75*
G03X50125000Y-142875000I-2500000J0D01*
G01*
X50125000Y-66675000D02*
G75*
G03X50125000Y-66675000I-2500000J0D01*
G01*
X210759488Y-36000170D02*
G75*
G02X210900000Y-35700000I390512J170D01*
G01*
X221623712Y-25170748D02*
G75*
G02X222000000Y-25000000I376288J-329252D01*
G01*
X279000000Y-164500000D02*
G75*
G02X278500000Y-165000000I-500000J0D01*
G01*
X25500000Y-165000000D02*
G75*
G02X25000000Y-164500000I0J500000D01*
G01*
X25000000Y-44500000D02*
G75*
G02X25500000Y-44000000I500000J0D01*
G01*
X210750000Y-43500000D02*
G75*
G02X210250000Y-44000000I-500000J0D01*
G01*
X278000000Y-25000000D02*
G75*
G02X279000000Y-26000000I0J-1000000D01*
G01*
X210759488Y-36000170D02*
X210750000Y-43500000D01*
X210900000Y-35700000D02*
X221623712Y-25170748D01*
X278000000Y-25000000D02*
X222000000Y-25000000D01*
X25000000Y-44500000D02*
X25000000Y-164500000D01*
X279000000Y-164500000D02*
X279000000Y-26000000D01*
X25500000Y-165000000D02*
X278500000Y-165000000D01*
X25500000Y-44000000D02*
X210250000Y-44000000D01*
D11*
G36*
X196796191Y-68752926D02*
G01*
X197928583Y-69049167D01*
X198940382Y-69557050D01*
X199821140Y-70269116D01*
X200560408Y-71177908D01*
X201147738Y-72275970D01*
X201572680Y-73555844D01*
X201824787Y-75010074D01*
X201878192Y-75701759D01*
X201861788Y-77155354D01*
X201682893Y-78731492D01*
X201353082Y-80367742D01*
X200883934Y-82001672D01*
X200526659Y-82990000D01*
X199540194Y-85214392D01*
X198373111Y-87338320D01*
X197045255Y-89335693D01*
X195576469Y-91180422D01*
X193986597Y-92846418D01*
X192295484Y-94307591D01*
X191437500Y-94939771D01*
X189995688Y-95834048D01*
X188546974Y-96519995D01*
X187113703Y-96990774D01*
X185718223Y-97239549D01*
X184382881Y-97259480D01*
X183989489Y-97218772D01*
X183308281Y-97059807D01*
X182554264Y-96776460D01*
X181834477Y-96415816D01*
X181255961Y-96024957D01*
X181234296Y-96006848D01*
X180819438Y-95590708D01*
X180371794Y-95039698D01*
X179963614Y-94450210D01*
X179667150Y-93918636D01*
X179664107Y-93912000D01*
X179225224Y-92670702D01*
X178962790Y-91269507D01*
X178909780Y-90316481D01*
X179976841Y-90316481D01*
X180128627Y-91552616D01*
X180335921Y-92355365D01*
X180639368Y-93171660D01*
X181001726Y-93915390D01*
X181385752Y-94500447D01*
X181423363Y-94546256D01*
X182145467Y-95211689D01*
X183021686Y-95688768D01*
X184029422Y-95971590D01*
X185146076Y-96054253D01*
X186349048Y-95930852D01*
X186562077Y-95888625D01*
X187849785Y-95502946D01*
X189182938Y-94891405D01*
X190538465Y-94072727D01*
X191893298Y-93065634D01*
X193224366Y-91888851D01*
X194508599Y-90561100D01*
X195722927Y-89101105D01*
X196821630Y-87562000D01*
X197143538Y-87068420D01*
X197428338Y-86621945D01*
X197635924Y-86285928D01*
X197706019Y-86165000D01*
X198653429Y-84306547D01*
X199405616Y-82568570D01*
X199971690Y-80920668D01*
X200360763Y-79332442D01*
X200581946Y-77773493D01*
X200645000Y-76359258D01*
X200572986Y-74884340D01*
X200353706Y-73611772D01*
X199982303Y-72533583D01*
X199453920Y-71641801D01*
X198763698Y-70928454D01*
X197906781Y-70385569D01*
X196878311Y-70005173D01*
X196753715Y-69972711D01*
X195755630Y-69845689D01*
X194654490Y-69928754D01*
X193474004Y-70211888D01*
X192237887Y-70685074D01*
X190969849Y-71338296D01*
X189693601Y-72161535D01*
X188432856Y-73144774D01*
X187707370Y-73794484D01*
X186300520Y-75233659D01*
X185006133Y-76786674D01*
X183834852Y-78428590D01*
X182797320Y-80134470D01*
X181904179Y-81879376D01*
X181166072Y-83638370D01*
X180593642Y-85386515D01*
X180197532Y-87098874D01*
X179988384Y-88750508D01*
X179976841Y-90316481D01*
X178909780Y-90316481D01*
X178877250Y-89731651D01*
X178969045Y-88080368D01*
X179238619Y-86338895D01*
X179498226Y-85212500D01*
X179987121Y-83634685D01*
X180650141Y-81968542D01*
X181457069Y-80276610D01*
X182377690Y-78621432D01*
X183381789Y-77065546D01*
X183547813Y-76830500D01*
X183915551Y-76339699D01*
X184375974Y-75759455D01*
X184887912Y-75138158D01*
X185410194Y-74524196D01*
X185901651Y-73965958D01*
X186321111Y-73511835D01*
X186627406Y-73210214D01*
X186629879Y-73208024D01*
X187936845Y-72096571D01*
X189131325Y-71176373D01*
X190242946Y-70428161D01*
X191301338Y-69832669D01*
X192336128Y-69370629D01*
X192779951Y-69208613D01*
X194211426Y-68825192D01*
X195553656Y-68675781D01*
X196796191Y-68752926D01*
X196796191Y-68752926D01*
G37*
X196796191Y-68752926D02*
X197928583Y-69049167D01*
X198940382Y-69557050D01*
X199821140Y-70269116D01*
X200560408Y-71177908D01*
X201147738Y-72275970D01*
X201572680Y-73555844D01*
X201824787Y-75010074D01*
X201878192Y-75701759D01*
X201861788Y-77155354D01*
X201682893Y-78731492D01*
X201353082Y-80367742D01*
X200883934Y-82001672D01*
X200526659Y-82990000D01*
X199540194Y-85214392D01*
X198373111Y-87338320D01*
X197045255Y-89335693D01*
X195576469Y-91180422D01*
X193986597Y-92846418D01*
X192295484Y-94307591D01*
X191437500Y-94939771D01*
X189995688Y-95834048D01*
X188546974Y-96519995D01*
X187113703Y-96990774D01*
X185718223Y-97239549D01*
X184382881Y-97259480D01*
X183989489Y-97218772D01*
X183308281Y-97059807D01*
X182554264Y-96776460D01*
X181834477Y-96415816D01*
X181255961Y-96024957D01*
X181234296Y-96006848D01*
X180819438Y-95590708D01*
X180371794Y-95039698D01*
X179963614Y-94450210D01*
X179667150Y-93918636D01*
X179664107Y-93912000D01*
X179225224Y-92670702D01*
X178962790Y-91269507D01*
X178909780Y-90316481D01*
X179976841Y-90316481D01*
X180128627Y-91552616D01*
X180335921Y-92355365D01*
X180639368Y-93171660D01*
X181001726Y-93915390D01*
X181385752Y-94500447D01*
X181423363Y-94546256D01*
X182145467Y-95211689D01*
X183021686Y-95688768D01*
X184029422Y-95971590D01*
X185146076Y-96054253D01*
X186349048Y-95930852D01*
X186562077Y-95888625D01*
X187849785Y-95502946D01*
X189182938Y-94891405D01*
X190538465Y-94072727D01*
X191893298Y-93065634D01*
X193224366Y-91888851D01*
X194508599Y-90561100D01*
X195722927Y-89101105D01*
X196821630Y-87562000D01*
X197143538Y-87068420D01*
X197428338Y-86621945D01*
X197635924Y-86285928D01*
X197706019Y-86165000D01*
X198653429Y-84306547D01*
X199405616Y-82568570D01*
X199971690Y-80920668D01*
X200360763Y-79332442D01*
X200581946Y-77773493D01*
X200645000Y-76359258D01*
X200572986Y-74884340D01*
X200353706Y-73611772D01*
X199982303Y-72533583D01*
X199453920Y-71641801D01*
X198763698Y-70928454D01*
X197906781Y-70385569D01*
X196878311Y-70005173D01*
X196753715Y-69972711D01*
X195755630Y-69845689D01*
X194654490Y-69928754D01*
X193474004Y-70211888D01*
X192237887Y-70685074D01*
X190969849Y-71338296D01*
X189693601Y-72161535D01*
X188432856Y-73144774D01*
X187707370Y-73794484D01*
X186300520Y-75233659D01*
X185006133Y-76786674D01*
X183834852Y-78428590D01*
X182797320Y-80134470D01*
X181904179Y-81879376D01*
X181166072Y-83638370D01*
X180593642Y-85386515D01*
X180197532Y-87098874D01*
X179988384Y-88750508D01*
X179976841Y-90316481D01*
X178909780Y-90316481D01*
X178877250Y-89731651D01*
X178969045Y-88080368D01*
X179238619Y-86338895D01*
X179498226Y-85212500D01*
X179987121Y-83634685D01*
X180650141Y-81968542D01*
X181457069Y-80276610D01*
X182377690Y-78621432D01*
X183381789Y-77065546D01*
X183547813Y-76830500D01*
X183915551Y-76339699D01*
X184375974Y-75759455D01*
X184887912Y-75138158D01*
X185410194Y-74524196D01*
X185901651Y-73965958D01*
X186321111Y-73511835D01*
X186627406Y-73210214D01*
X186629879Y-73208024D01*
X187936845Y-72096571D01*
X189131325Y-71176373D01*
X190242946Y-70428161D01*
X191301338Y-69832669D01*
X192336128Y-69370629D01*
X192779951Y-69208613D01*
X194211426Y-68825192D01*
X195553656Y-68675781D01*
X196796191Y-68752926D01*
G36*
X256425876Y-66414426D02*
G01*
X257718106Y-66866487D01*
X258841865Y-67485777D01*
X260039394Y-68410926D01*
X261082398Y-69517132D01*
X261977386Y-70813868D01*
X262730869Y-72310608D01*
X263349355Y-74016822D01*
X263364669Y-74067295D01*
X263594516Y-74857325D01*
X263769934Y-75546882D01*
X263897829Y-76192125D01*
X263985108Y-76849215D01*
X264038677Y-77574310D01*
X264065441Y-78423570D01*
X264072308Y-79453155D01*
X264071486Y-79815000D01*
X264059056Y-80966301D01*
X264026245Y-81926210D01*
X263965827Y-82756995D01*
X263870574Y-83520922D01*
X263733259Y-84280259D01*
X263546655Y-85097274D01*
X263385186Y-85727938D01*
X263193151Y-86446297D01*
X263036253Y-86998544D01*
X262887804Y-87464931D01*
X262721117Y-87925707D01*
X262509505Y-88461123D01*
X262331800Y-88895500D01*
X261418291Y-90868714D01*
X260379883Y-92662382D01*
X259226359Y-94266071D01*
X257967506Y-95669352D01*
X256613109Y-96861795D01*
X255172954Y-97832970D01*
X253656826Y-98572447D01*
X253041647Y-98797590D01*
X252238619Y-99003586D01*
X251318777Y-99142464D01*
X250378338Y-99206347D01*
X249513521Y-99187360D01*
X249032000Y-99125813D01*
X247697402Y-98748574D01*
X246452154Y-98145301D01*
X245305492Y-97330996D01*
X244266652Y-96320658D01*
X243344870Y-95129290D01*
X242549382Y-93771892D01*
X241889425Y-92263465D01*
X241374235Y-90619011D01*
X241013047Y-88853530D01*
X240815098Y-86982023D01*
X240778342Y-85720500D01*
X240779940Y-85669373D01*
X242714116Y-85669373D01*
X242725469Y-86165000D01*
X242887282Y-88048756D01*
X243200848Y-89787384D01*
X243659435Y-91370096D01*
X244256310Y-92786103D01*
X244984741Y-94024617D01*
X245837995Y-95074849D01*
X246809339Y-95926011D01*
X247892041Y-96567314D01*
X249079369Y-96987971D01*
X249540000Y-97084863D01*
X250032839Y-97159697D01*
X250442201Y-97185050D01*
X250850463Y-97155051D01*
X251340007Y-97063829D01*
X251968465Y-96911797D01*
X253271817Y-96476024D01*
X254496528Y-95842824D01*
X255671690Y-94993964D01*
X256826392Y-93911214D01*
X256929516Y-93802511D01*
X258071439Y-92441016D01*
X259076297Y-90945450D01*
X259942062Y-89339503D01*
X260666711Y-87646867D01*
X261248217Y-85891234D01*
X261684554Y-84096294D01*
X261973696Y-82285738D01*
X262113619Y-80483258D01*
X262102296Y-78712545D01*
X261937702Y-76997290D01*
X261617810Y-75361184D01*
X261140596Y-73827918D01*
X260504033Y-72421184D01*
X259706096Y-71164673D01*
X258941268Y-70274489D01*
X257971510Y-69422061D01*
X256974103Y-68811413D01*
X255921757Y-68430325D01*
X254787182Y-68266578D01*
X254437795Y-68258000D01*
X253211916Y-68381950D01*
X251976213Y-68744672D01*
X250748717Y-69332466D01*
X249547460Y-70131635D01*
X248390475Y-71128482D01*
X247295793Y-72309309D01*
X246281447Y-73660418D01*
X245382733Y-75136463D01*
X244995028Y-75908625D01*
X244581993Y-76837567D01*
X244177817Y-77837199D01*
X243816686Y-78821429D01*
X243532788Y-79704168D01*
X243450213Y-80002991D01*
X243139266Y-81401997D01*
X242906081Y-82870996D01*
X242760938Y-84322588D01*
X242714116Y-85669373D01*
X240779940Y-85669373D01*
X240811029Y-84675097D01*
X240901812Y-83522755D01*
X241040336Y-82347202D01*
X241216243Y-81232164D01*
X241419178Y-80261368D01*
X241485219Y-80005500D01*
X241615386Y-79526686D01*
X241733399Y-79088989D01*
X241793768Y-78862500D01*
X242266919Y-77372640D01*
X242908851Y-75812339D01*
X243683116Y-74260815D01*
X244553267Y-72797283D01*
X244656970Y-72639500D01*
X245072671Y-72020722D01*
X245412657Y-71539815D01*
X245729646Y-71132386D01*
X246076351Y-70734043D01*
X246505488Y-70280391D01*
X247000000Y-69777408D01*
X248285764Y-68617265D01*
X249615966Y-67679016D01*
X250976101Y-66965469D01*
X252351663Y-66479429D01*
X253728150Y-66223704D01*
X255091055Y-66201101D01*
X256425876Y-66414426D01*
X256425876Y-66414426D01*
G37*
X256425876Y-66414426D02*
X257718106Y-66866487D01*
X258841865Y-67485777D01*
X260039394Y-68410926D01*
X261082398Y-69517132D01*
X261977386Y-70813868D01*
X262730869Y-72310608D01*
X263349355Y-74016822D01*
X263364669Y-74067295D01*
X263594516Y-74857325D01*
X263769934Y-75546882D01*
X263897829Y-76192125D01*
X263985108Y-76849215D01*
X264038677Y-77574310D01*
X264065441Y-78423570D01*
X264072308Y-79453155D01*
X264071486Y-79815000D01*
X264059056Y-80966301D01*
X264026245Y-81926210D01*
X263965827Y-82756995D01*
X263870574Y-83520922D01*
X263733259Y-84280259D01*
X263546655Y-85097274D01*
X263385186Y-85727938D01*
X263193151Y-86446297D01*
X263036253Y-86998544D01*
X262887804Y-87464931D01*
X262721117Y-87925707D01*
X262509505Y-88461123D01*
X262331800Y-88895500D01*
X261418291Y-90868714D01*
X260379883Y-92662382D01*
X259226359Y-94266071D01*
X257967506Y-95669352D01*
X256613109Y-96861795D01*
X255172954Y-97832970D01*
X253656826Y-98572447D01*
X253041647Y-98797590D01*
X252238619Y-99003586D01*
X251318777Y-99142464D01*
X250378338Y-99206347D01*
X249513521Y-99187360D01*
X249032000Y-99125813D01*
X247697402Y-98748574D01*
X246452154Y-98145301D01*
X245305492Y-97330996D01*
X244266652Y-96320658D01*
X243344870Y-95129290D01*
X242549382Y-93771892D01*
X241889425Y-92263465D01*
X241374235Y-90619011D01*
X241013047Y-88853530D01*
X240815098Y-86982023D01*
X240778342Y-85720500D01*
X240779940Y-85669373D01*
X242714116Y-85669373D01*
X242725469Y-86165000D01*
X242887282Y-88048756D01*
X243200848Y-89787384D01*
X243659435Y-91370096D01*
X244256310Y-92786103D01*
X244984741Y-94024617D01*
X245837995Y-95074849D01*
X246809339Y-95926011D01*
X247892041Y-96567314D01*
X249079369Y-96987971D01*
X249540000Y-97084863D01*
X250032839Y-97159697D01*
X250442201Y-97185050D01*
X250850463Y-97155051D01*
X251340007Y-97063829D01*
X251968465Y-96911797D01*
X253271817Y-96476024D01*
X254496528Y-95842824D01*
X255671690Y-94993964D01*
X256826392Y-93911214D01*
X256929516Y-93802511D01*
X258071439Y-92441016D01*
X259076297Y-90945450D01*
X259942062Y-89339503D01*
X260666711Y-87646867D01*
X261248217Y-85891234D01*
X261684554Y-84096294D01*
X261973696Y-82285738D01*
X262113619Y-80483258D01*
X262102296Y-78712545D01*
X261937702Y-76997290D01*
X261617810Y-75361184D01*
X261140596Y-73827918D01*
X260504033Y-72421184D01*
X259706096Y-71164673D01*
X258941268Y-70274489D01*
X257971510Y-69422061D01*
X256974103Y-68811413D01*
X255921757Y-68430325D01*
X254787182Y-68266578D01*
X254437795Y-68258000D01*
X253211916Y-68381950D01*
X251976213Y-68744672D01*
X250748717Y-69332466D01*
X249547460Y-70131635D01*
X248390475Y-71128482D01*
X247295793Y-72309309D01*
X246281447Y-73660418D01*
X245382733Y-75136463D01*
X244995028Y-75908625D01*
X244581993Y-76837567D01*
X244177817Y-77837199D01*
X243816686Y-78821429D01*
X243532788Y-79704168D01*
X243450213Y-80002991D01*
X243139266Y-81401997D01*
X242906081Y-82870996D01*
X242760938Y-84322588D01*
X242714116Y-85669373D01*
X240779940Y-85669373D01*
X240811029Y-84675097D01*
X240901812Y-83522755D01*
X241040336Y-82347202D01*
X241216243Y-81232164D01*
X241419178Y-80261368D01*
X241485219Y-80005500D01*
X241615386Y-79526686D01*
X241733399Y-79088989D01*
X241793768Y-78862500D01*
X242266919Y-77372640D01*
X242908851Y-75812339D01*
X243683116Y-74260815D01*
X244553267Y-72797283D01*
X244656970Y-72639500D01*
X245072671Y-72020722D01*
X245412657Y-71539815D01*
X245729646Y-71132386D01*
X246076351Y-70734043D01*
X246505488Y-70280391D01*
X247000000Y-69777408D01*
X248285764Y-68617265D01*
X249615966Y-67679016D01*
X250976101Y-66965469D01*
X252351663Y-66479429D01*
X253728150Y-66223704D01*
X255091055Y-66201101D01*
X256425876Y-66414426D01*
G36*
X201538110Y-60668616D02*
G01*
X202583506Y-60705012D01*
X203573599Y-60770655D01*
X204436745Y-60863307D01*
X204963000Y-60950255D01*
X206857298Y-61452020D01*
X208605699Y-62149946D01*
X210198963Y-63037447D01*
X211627849Y-64107940D01*
X212883116Y-65354838D01*
X213955522Y-66771557D01*
X214551335Y-67782607D01*
X215314010Y-69490807D01*
X215849799Y-71307053D01*
X216157963Y-73223750D01*
X216237766Y-75233305D01*
X216088468Y-77328123D01*
X215709332Y-79500608D01*
X215695737Y-79561000D01*
X215548492Y-80180497D01*
X215396246Y-80770059D01*
X215261051Y-81246495D01*
X215194886Y-81450217D01*
X215076973Y-81788998D01*
X215005667Y-82011844D01*
X214996000Y-82053467D01*
X215118309Y-82067515D01*
X215466503Y-82079011D01*
X216012480Y-82088032D01*
X216728138Y-82094655D01*
X217585374Y-82098954D01*
X218556088Y-82101008D01*
X219612177Y-82100891D01*
X220725540Y-82098680D01*
X221868074Y-82094451D01*
X223011678Y-82088281D01*
X224128249Y-82080245D01*
X225189687Y-82070421D01*
X226167889Y-82058883D01*
X227034753Y-82045709D01*
X227762178Y-82030975D01*
X228242289Y-82017535D01*
X230734424Y-81934071D01*
X230814607Y-81350785D01*
X231246279Y-79067996D01*
X231910291Y-76834667D01*
X232815713Y-74622012D01*
X233159984Y-73909500D01*
X234086606Y-72216824D01*
X235095419Y-70695283D01*
X236243484Y-69263259D01*
X236947320Y-68492254D01*
X238767940Y-66749877D01*
X240701069Y-65235190D01*
X242747851Y-63947598D01*
X244909430Y-62886508D01*
X247186951Y-62051325D01*
X249581556Y-61441454D01*
X250989727Y-61195821D01*
X251796388Y-61110048D01*
X252776409Y-61057269D01*
X253866202Y-61036349D01*
X255002182Y-61046152D01*
X256120762Y-61085544D01*
X257158355Y-61153390D01*
X258051375Y-61248552D01*
X258557000Y-61330928D01*
X261014255Y-61938989D01*
X263354282Y-62761317D01*
X265566053Y-63789604D01*
X267638539Y-65015544D01*
X269560712Y-66430827D01*
X271321542Y-68027147D01*
X272910002Y-69796196D01*
X274315063Y-71729665D01*
X275525696Y-73819247D01*
X275760690Y-74290500D01*
X276660840Y-76357861D01*
X277333265Y-78396296D01*
X277790354Y-80459713D01*
X278044496Y-82602018D01*
X278110204Y-84514000D01*
X278005622Y-86896927D01*
X277687865Y-89159190D01*
X277151448Y-91326348D01*
X276390887Y-93423956D01*
X276019585Y-94255816D01*
X275469257Y-95425133D01*
X275329797Y-100669316D01*
X275301810Y-101721947D01*
X275268096Y-102990395D01*
X275229667Y-104436570D01*
X275187533Y-106022378D01*
X275142708Y-107709728D01*
X275096203Y-109460526D01*
X275049031Y-111236681D01*
X275002202Y-113000100D01*
X274956729Y-114712692D01*
X274944203Y-115184500D01*
X274902103Y-116759353D01*
X274860170Y-118307258D01*
X274819148Y-119802078D01*
X274779777Y-121217679D01*
X274742799Y-122527924D01*
X274708956Y-123706678D01*
X274678989Y-124727805D01*
X274653640Y-125565168D01*
X274633651Y-126192633D01*
X274623446Y-126487500D01*
X274607618Y-126955102D01*
X274585960Y-127650618D01*
X274559206Y-128548046D01*
X274528090Y-129621385D01*
X274493347Y-130844633D01*
X274455709Y-132191789D01*
X274415911Y-133636851D01*
X274374687Y-135153818D01*
X274332771Y-136716689D01*
X274302621Y-137854000D01*
X274258244Y-139531064D01*
X274212367Y-141254743D01*
X274165959Y-142989180D01*
X274119991Y-144698517D01*
X274075434Y-146346895D01*
X274033258Y-147898456D01*
X273994432Y-149317343D01*
X273959928Y-150567698D01*
X273930715Y-151613663D01*
X273921177Y-151951000D01*
X273885305Y-153216421D01*
X273847140Y-154566564D01*
X273808407Y-155940242D01*
X273770825Y-157276263D01*
X273736119Y-158513437D01*
X273706009Y-159590576D01*
X273692411Y-160079000D01*
X273663818Y-160983898D01*
X273631183Y-161808747D01*
X273596425Y-162518420D01*
X273561463Y-163077790D01*
X273528214Y-163451731D01*
X273499948Y-163603250D01*
X273389565Y-163637306D01*
X273100275Y-163666637D01*
X272626774Y-163691244D01*
X271963755Y-163711130D01*
X271105912Y-163726297D01*
X270047940Y-163736748D01*
X268784532Y-163742485D01*
X267310383Y-163743510D01*
X265620188Y-163739826D01*
X263708640Y-163731435D01*
X261570433Y-163718341D01*
X259200262Y-163700544D01*
X256592820Y-163678048D01*
X253742803Y-163650856D01*
X250644904Y-163618969D01*
X250175000Y-163613957D01*
X248803735Y-163599427D01*
X247204669Y-163582752D01*
X245403986Y-163564194D01*
X243427873Y-163544016D01*
X241302517Y-163522479D01*
X239054104Y-163499845D01*
X236708819Y-163476376D01*
X234292849Y-163452334D01*
X231832381Y-163427981D01*
X229353600Y-163403579D01*
X226882693Y-163379390D01*
X224445846Y-163355675D01*
X222069246Y-163332697D01*
X221663500Y-163328790D01*
X203121500Y-163150382D01*
X198613000Y-162315606D01*
X197485102Y-162106783D01*
X196357929Y-161898121D01*
X195275325Y-161697734D01*
X194281132Y-161513736D01*
X193419196Y-161354242D01*
X192733361Y-161227366D01*
X192390000Y-161163872D01*
X191735983Y-161043929D01*
X190899647Y-160892009D01*
X189948794Y-160720345D01*
X188951227Y-160541170D01*
X187974751Y-160366717D01*
X187754500Y-160327521D01*
X186804213Y-160157745D01*
X185827398Y-159981815D01*
X184888922Y-159811515D01*
X184053655Y-159658627D01*
X183386465Y-159534936D01*
X183246000Y-159508535D01*
X182577196Y-159384420D01*
X181939854Y-159269858D01*
X181407397Y-159177826D01*
X181060977Y-159122409D01*
X180655364Y-159054507D01*
X180374913Y-158960077D01*
X180197187Y-158796373D01*
X180099750Y-158520650D01*
X180062035Y-158110500D01*
X180896500Y-158110500D01*
X187354024Y-158143420D01*
X193811549Y-158176341D01*
X193477072Y-157778838D01*
X193191309Y-157369114D01*
X192898304Y-156807092D01*
X192596436Y-156085644D01*
X192284080Y-155197645D01*
X191959612Y-154135968D01*
X191621411Y-152893486D01*
X191267851Y-151463072D01*
X190897311Y-149837599D01*
X190508167Y-148009941D01*
X190098794Y-145972971D01*
X189667571Y-143719562D01*
X189212873Y-141242587D01*
X188733078Y-138534920D01*
X188226562Y-135589434D01*
X188212324Y-135504500D01*
X190816408Y-135504500D01*
X190817916Y-136685312D01*
X190829799Y-137708219D01*
X190856260Y-138621996D01*
X190901502Y-139475422D01*
X190969728Y-140317275D01*
X191065143Y-141196332D01*
X191191949Y-142161370D01*
X191354350Y-143261168D01*
X191556550Y-144544502D01*
X191639963Y-145061250D01*
X191916780Y-146611653D01*
X192271807Y-148346512D01*
X192692479Y-150213054D01*
X193166229Y-152158508D01*
X193680493Y-154130105D01*
X194222705Y-156075072D01*
X194437178Y-156808750D01*
X194841801Y-158174000D01*
X196759150Y-158191791D01*
X197235344Y-158196385D01*
X197936520Y-158203399D01*
X198833674Y-158212531D01*
X199897802Y-158223480D01*
X201099901Y-158235945D01*
X202410967Y-158249627D01*
X203801995Y-158264224D01*
X205243984Y-158279436D01*
X206614000Y-158293963D01*
X208301721Y-158310935D01*
X210143978Y-158327738D01*
X212084258Y-158343961D01*
X214066048Y-158359190D01*
X216032833Y-158373016D01*
X217928101Y-158385026D01*
X219695338Y-158394808D01*
X221278032Y-158401952D01*
X221608123Y-158403172D01*
X228664746Y-158428000D01*
X230625123Y-156490859D01*
X232493423Y-154596322D01*
X234178361Y-152782453D01*
X235718189Y-151005812D01*
X237151158Y-149222960D01*
X237922063Y-148204500D01*
X239488471Y-145971738D01*
X240826691Y-143810331D01*
X241936082Y-141722968D01*
X242816003Y-139712336D01*
X243465815Y-137781123D01*
X243884875Y-135932018D01*
X244072545Y-134167709D01*
X244028183Y-132490884D01*
X243751148Y-130904231D01*
X243240801Y-129410439D01*
X242667385Y-128289584D01*
X241834566Y-127113478D01*
X240768208Y-125985350D01*
X239486662Y-124920499D01*
X238008278Y-123934226D01*
X236404446Y-123067535D01*
X234208433Y-122086012D01*
X232006892Y-121269604D01*
X229831637Y-120626671D01*
X227714480Y-120165572D01*
X225687234Y-119894665D01*
X224045585Y-119820173D01*
X222107525Y-119924905D01*
X220310276Y-120240277D01*
X218649200Y-120768699D01*
X217119654Y-121512582D01*
X215716998Y-122474337D01*
X214436591Y-123656374D01*
X213273794Y-125061104D01*
X212886435Y-125616759D01*
X212435692Y-126364018D01*
X211985128Y-127236007D01*
X211573995Y-128146781D01*
X211241544Y-129010395D01*
X211053248Y-129630750D01*
X210948091Y-129979219D01*
X210848280Y-130197115D01*
X210806154Y-130234000D01*
X210727295Y-130122214D01*
X210649995Y-129844332D01*
X210633040Y-129749823D01*
X210523347Y-129259513D01*
X210335671Y-128614217D01*
X210096334Y-127890543D01*
X209831658Y-127165102D01*
X209567962Y-126514503D01*
X209386241Y-126120903D01*
X208573221Y-124714978D01*
X207644508Y-123502499D01*
X206613436Y-122495153D01*
X205493342Y-121704632D01*
X204297559Y-121142623D01*
X203419755Y-120890828D01*
X202149336Y-120734481D01*
X200789309Y-120773792D01*
X199392470Y-120994095D01*
X198011618Y-121380724D01*
X196699549Y-121919011D01*
X195509063Y-122594292D01*
X194525675Y-123361447D01*
X193715582Y-124197345D01*
X193028992Y-125105922D01*
X192448233Y-126123006D01*
X191955632Y-127284424D01*
X191533515Y-128626004D01*
X191166933Y-130170500D01*
X191066455Y-130664610D01*
X190987597Y-131097166D01*
X190927679Y-131508939D01*
X190884022Y-131940704D01*
X190853947Y-132433232D01*
X190834773Y-133027297D01*
X190823823Y-133763672D01*
X190818415Y-134683131D01*
X190816408Y-135504500D01*
X188212324Y-135504500D01*
X187691701Y-132399002D01*
X187680182Y-132329500D01*
X187520808Y-131369631D01*
X187357954Y-130392328D01*
X187201809Y-129458471D01*
X187062558Y-128628941D01*
X186950389Y-127964618D01*
X186915166Y-127757500D01*
X186779583Y-126952551D01*
X186628106Y-126037309D01*
X186483797Y-125151723D01*
X186412896Y-124709500D01*
X186285832Y-123936469D01*
X186139268Y-123085115D01*
X185995018Y-122280569D01*
X185914801Y-121852251D01*
X185702132Y-120431402D01*
X185651205Y-119180291D01*
X185769775Y-118066657D01*
X186065596Y-117058239D01*
X186546423Y-116122775D01*
X187220011Y-115228003D01*
X187607482Y-114810211D01*
X188692926Y-113861774D01*
X190019657Y-112981470D01*
X191583868Y-112170773D01*
X193381750Y-111431153D01*
X195409494Y-110764085D01*
X197663292Y-110171041D01*
X200139334Y-109653492D01*
X201597500Y-109401071D01*
X203819762Y-109082943D01*
X206202712Y-108816119D01*
X208706540Y-108601322D01*
X211291441Y-108439277D01*
X213917605Y-108330705D01*
X216545226Y-108276331D01*
X219134496Y-108276878D01*
X221645607Y-108333069D01*
X224038752Y-108445628D01*
X226274123Y-108615278D01*
X228311913Y-108842741D01*
X228775500Y-108907226D01*
X231112775Y-109341470D01*
X233494978Y-109962996D01*
X235837203Y-110745730D01*
X238054546Y-111663596D01*
X238618000Y-111929843D01*
X240260377Y-112780112D01*
X241867971Y-113711450D01*
X243394748Y-114693299D01*
X244794673Y-115695102D01*
X246021712Y-116686302D01*
X246663048Y-117270177D01*
X247623487Y-118366174D01*
X248379580Y-119611698D01*
X248931308Y-121005389D01*
X249278652Y-122545887D01*
X249421594Y-124231834D01*
X249360114Y-126061871D01*
X249094194Y-128034637D01*
X248623815Y-130148775D01*
X247948957Y-132402924D01*
X247069603Y-134795726D01*
X246911704Y-135187000D01*
X246246475Y-136726185D01*
X245460178Y-138393773D01*
X244589148Y-140118813D01*
X243669720Y-141830358D01*
X242738227Y-143457459D01*
X242326457Y-144140500D01*
X241221378Y-145894726D01*
X240084191Y-147611814D01*
X238930257Y-149272629D01*
X237774940Y-150858041D01*
X236633604Y-152348915D01*
X235521610Y-153726119D01*
X234454323Y-154970521D01*
X233447104Y-156062988D01*
X232515318Y-156984387D01*
X231674327Y-157715585D01*
X231075905Y-158151605D01*
X230553500Y-158491500D01*
X237665500Y-158556601D01*
X239131327Y-158569966D01*
X240637037Y-158583599D01*
X242141776Y-158597135D01*
X243604690Y-158610210D01*
X244984923Y-158622462D01*
X246241621Y-158633525D01*
X247333931Y-158643038D01*
X248220997Y-158650635D01*
X248365250Y-158651851D01*
X251953000Y-158682000D01*
X251953483Y-157888250D01*
X251957298Y-157592524D01*
X251967998Y-157071552D01*
X251984783Y-156353972D01*
X252006851Y-155468422D01*
X252033401Y-154443539D01*
X252063633Y-153307961D01*
X252096745Y-152090326D01*
X252131937Y-150819271D01*
X252168407Y-149523435D01*
X252205356Y-148231455D01*
X252241981Y-146971969D01*
X252277481Y-145773614D01*
X252311057Y-144665029D01*
X252341907Y-143674850D01*
X252369230Y-142831717D01*
X252392225Y-142164266D01*
X252396581Y-142045000D01*
X252417573Y-141439652D01*
X252443644Y-140626886D01*
X252473414Y-139653201D01*
X252505504Y-138565097D01*
X252538537Y-137409073D01*
X252571133Y-136231628D01*
X252592384Y-135441000D01*
X252635450Y-133827173D01*
X252681602Y-132115926D01*
X252730198Y-130329984D01*
X252780595Y-128492070D01*
X252832150Y-126624907D01*
X252884221Y-124751220D01*
X252936166Y-122893731D01*
X252987342Y-121075164D01*
X253037107Y-119318244D01*
X253084818Y-117645693D01*
X253129833Y-116080235D01*
X253171508Y-114644595D01*
X253209203Y-113361495D01*
X253242273Y-112253659D01*
X253270078Y-111343811D01*
X253291973Y-110654674D01*
X253299898Y-110417648D01*
X253384871Y-107936796D01*
X251941934Y-107776349D01*
X249474517Y-107378144D01*
X247090685Y-106743763D01*
X244801773Y-105877784D01*
X242619115Y-104784786D01*
X240554044Y-103469347D01*
X239697500Y-102830573D01*
X238734167Y-102013809D01*
X237719332Y-101039532D01*
X236707531Y-99967887D01*
X235753301Y-98859024D01*
X234911180Y-97773090D01*
X234306933Y-96885435D01*
X233961245Y-96289652D01*
X233559059Y-95526756D01*
X233133034Y-94665712D01*
X232715831Y-93775489D01*
X232340110Y-92925053D01*
X232038530Y-92183372D01*
X231904226Y-91811727D01*
X231279933Y-89594577D01*
X230897216Y-87367398D01*
X230749087Y-85100277D01*
X233064463Y-85100277D01*
X233235411Y-87180267D01*
X233583290Y-89140319D01*
X234121537Y-91020119D01*
X234863587Y-92859353D01*
X235822874Y-94697707D01*
X236885930Y-96388500D01*
X237565999Y-97293760D01*
X238414058Y-98264757D01*
X239374322Y-99247058D01*
X240391005Y-100186234D01*
X241408319Y-101027855D01*
X242301000Y-101671938D01*
X244352122Y-102888028D01*
X246461806Y-103865433D01*
X248618685Y-104599851D01*
X250811391Y-105086979D01*
X251635500Y-105204408D01*
X252186481Y-105272861D01*
X252673532Y-105336579D01*
X253017786Y-105385127D01*
X253096000Y-105397643D01*
X253442280Y-105424543D01*
X253981003Y-105427674D01*
X254652032Y-105410121D01*
X255395234Y-105374974D01*
X256150475Y-105325322D01*
X256857619Y-105264251D01*
X257456533Y-105194850D01*
X257668000Y-105162851D01*
X259226329Y-104864222D01*
X260619171Y-104508808D01*
X261933250Y-104069897D01*
X263255292Y-103520776D01*
X263758073Y-103287065D01*
X264489087Y-102912123D01*
X265300401Y-102452323D01*
X266125654Y-101949069D01*
X266898485Y-101443767D01*
X267552531Y-100977823D01*
X267891500Y-100708060D01*
X269250584Y-99483654D01*
X270415803Y-98280872D01*
X271435730Y-97045579D01*
X272346699Y-95742621D01*
X273440522Y-93817101D01*
X274328581Y-91754914D01*
X275001720Y-89580214D01*
X275388230Y-87721809D01*
X275477929Y-86965896D01*
X275536486Y-86032056D01*
X275563928Y-84994441D01*
X275560279Y-83927203D01*
X275525563Y-82904496D01*
X275459805Y-82000471D01*
X275386121Y-81420163D01*
X274891116Y-79170527D01*
X274163609Y-77007813D01*
X273214921Y-74947755D01*
X272056369Y-73006088D01*
X270699273Y-71198546D01*
X269154952Y-69540865D01*
X267434726Y-68048778D01*
X265549912Y-66738019D01*
X264313831Y-66028719D01*
X263069745Y-65439346D01*
X261661739Y-64892347D01*
X260171584Y-64412840D01*
X258681053Y-64025946D01*
X257271916Y-63756784D01*
X256662401Y-63678241D01*
X254452014Y-63558834D01*
X252213256Y-63654912D01*
X250002878Y-63960348D01*
X247877634Y-64469012D01*
X247121078Y-64708569D01*
X246662912Y-64883738D01*
X246047864Y-65145818D01*
X245343709Y-65463210D01*
X244618226Y-65804316D01*
X243939189Y-66137535D01*
X243374376Y-66431271D01*
X243124653Y-66571786D01*
X242290755Y-67109248D01*
X241373202Y-67777967D01*
X240452878Y-68515697D01*
X239610664Y-69260193D01*
X239519316Y-69346434D01*
X237923971Y-71032310D01*
X236544551Y-72842973D01*
X235386222Y-74765809D01*
X234454155Y-76788207D01*
X233753515Y-78897553D01*
X233289471Y-81081233D01*
X233067192Y-83326635D01*
X233064463Y-85100277D01*
X230749087Y-85100277D01*
X230747685Y-85078834D01*
X230744842Y-84715888D01*
X230744000Y-82822276D01*
X227484898Y-82906138D01*
X226551606Y-82926457D01*
X225423544Y-82945001D01*
X224159943Y-82961155D01*
X222820031Y-82974303D01*
X221463036Y-82983828D01*
X220148188Y-82989116D01*
X219417676Y-82990000D01*
X214609554Y-82990000D01*
X214465976Y-83339250D01*
X214281159Y-83761323D01*
X214015559Y-84332749D01*
X213698378Y-84994249D01*
X213358819Y-85686545D01*
X213026081Y-86350360D01*
X212729367Y-86926416D01*
X212497878Y-87355434D01*
X212428556Y-87475141D01*
X211670123Y-88699717D01*
X210944931Y-89783584D01*
X210190378Y-90813972D01*
X209343863Y-91878108D01*
X208811633Y-92515000D01*
X208209968Y-93218256D01*
X207678954Y-93819469D01*
X207176931Y-94360502D01*
X206662239Y-94883221D01*
X206093221Y-95429492D01*
X205428215Y-96041179D01*
X204625564Y-96760149D01*
X204301426Y-97047520D01*
X202770863Y-98296177D01*
X201046297Y-99517064D01*
X199187630Y-100675493D01*
X197254764Y-101736773D01*
X195307601Y-102666217D01*
X193406045Y-103429136D01*
X193088500Y-103540851D01*
X191393127Y-104062745D01*
X189656174Y-104482730D01*
X187931331Y-104792351D01*
X186272286Y-104983154D01*
X184732728Y-105046687D01*
X183753050Y-105010769D01*
X182634926Y-104926362D01*
X182563926Y-105737431D01*
X182536781Y-106133050D01*
X182505917Y-106722677D01*
X182474015Y-107446399D01*
X182443758Y-108244304D01*
X182422472Y-108898000D01*
X182358954Y-111007444D01*
X182295904Y-113084470D01*
X182233888Y-115111344D01*
X182173466Y-117070330D01*
X182115204Y-118943694D01*
X182059665Y-120713702D01*
X182007412Y-122362618D01*
X181959009Y-123872708D01*
X181915019Y-125226237D01*
X181876005Y-126405471D01*
X181842531Y-127392675D01*
X181815161Y-128170115D01*
X181794458Y-128720055D01*
X181786945Y-128900500D01*
X181773433Y-129247047D01*
X181753014Y-129825554D01*
X181726366Y-130614095D01*
X181694166Y-131590741D01*
X181657091Y-132733568D01*
X181615819Y-134020647D01*
X181571027Y-135430052D01*
X181523394Y-136939856D01*
X181473596Y-138528133D01*
X181422311Y-140172955D01*
X181370216Y-141852396D01*
X181317989Y-143544529D01*
X181266308Y-145227428D01*
X181215850Y-146879164D01*
X181167292Y-148477813D01*
X181121311Y-150001446D01*
X181078587Y-151428137D01*
X181039795Y-152735960D01*
X181005613Y-153902987D01*
X180976720Y-154907291D01*
X180953791Y-155726947D01*
X180937506Y-156340026D01*
X180931504Y-156586500D01*
X180896500Y-158110500D01*
X180062035Y-158110500D01*
X180060164Y-158090163D01*
X180055994Y-157462166D01*
X180058474Y-157212503D01*
X180068291Y-156650067D01*
X180086790Y-155890931D01*
X180112292Y-154992183D01*
X180143123Y-154010912D01*
X180177603Y-153004206D01*
X180199959Y-152395500D01*
X180226684Y-151662471D01*
X180259889Y-150709729D01*
X180298459Y-149571445D01*
X180341275Y-148281792D01*
X180387221Y-146874942D01*
X180435181Y-145385069D01*
X180484037Y-143846343D01*
X180532673Y-142292938D01*
X180575596Y-140902000D01*
X180621104Y-139427609D01*
X180666269Y-137985942D01*
X180710194Y-136604229D01*
X180751984Y-135309699D01*
X180790745Y-134129583D01*
X180825580Y-133091109D01*
X180855595Y-132221508D01*
X180879894Y-131548009D01*
X180897581Y-131097841D01*
X180899244Y-131059500D01*
X180910816Y-130761298D01*
X180929278Y-130239490D01*
X180953960Y-129515265D01*
X180984191Y-128609812D01*
X181019299Y-127544318D01*
X181058615Y-126339975D01*
X181101467Y-125017969D01*
X181147185Y-123599490D01*
X181195097Y-122105728D01*
X181244532Y-120557870D01*
X181294821Y-118977105D01*
X181345291Y-117384624D01*
X181395272Y-115801614D01*
X181444094Y-114249264D01*
X181491084Y-112748763D01*
X181535574Y-111321301D01*
X181576891Y-109988065D01*
X181614364Y-108770245D01*
X181647324Y-107689030D01*
X181675098Y-106765609D01*
X181697017Y-106021170D01*
X181712408Y-105476903D01*
X181720603Y-105153996D01*
X181721798Y-105079549D01*
X181639586Y-104948506D01*
X181370667Y-104832178D01*
X180882050Y-104716457D01*
X180864749Y-104713061D01*
X179058119Y-104238545D01*
X177370656Y-103551581D01*
X175817056Y-102665747D01*
X174412020Y-101594625D01*
X173170246Y-100351793D01*
X172106431Y-98950831D01*
X171235276Y-97405319D01*
X170571477Y-95728837D01*
X170363916Y-95011575D01*
X169974842Y-93009892D01*
X169830383Y-90944317D01*
X169844528Y-90642657D01*
X171070944Y-90642657D01*
X171074398Y-91653844D01*
X171117441Y-92560702D01*
X171201773Y-93300428D01*
X171238154Y-93493439D01*
X171663216Y-95129739D01*
X172196245Y-96591211D01*
X172827340Y-97853654D01*
X173339320Y-98629037D01*
X174503212Y-99985945D01*
X175811715Y-101135985D01*
X177266075Y-102079728D01*
X178867537Y-102817748D01*
X180617348Y-103350618D01*
X182516753Y-103678910D01*
X184566996Y-103803198D01*
X184591056Y-103803440D01*
X185326179Y-103797106D01*
X186096846Y-103768491D01*
X186796504Y-103722574D01*
X187194556Y-103681837D01*
X189756052Y-103228933D01*
X192299255Y-102529022D01*
X194808086Y-101589088D01*
X197266465Y-100416114D01*
X199658312Y-99017084D01*
X201967546Y-97398981D01*
X202359500Y-97095749D01*
X204719991Y-95094384D01*
X206858533Y-92969630D01*
X208775330Y-90721248D01*
X210470583Y-88348995D01*
X211944495Y-85852629D01*
X212209093Y-85345571D01*
X213241838Y-83103287D01*
X214027019Y-80900684D01*
X214566504Y-78729481D01*
X214862159Y-76581400D01*
X214915853Y-74448159D01*
X214867142Y-73560250D01*
X214629176Y-71792206D01*
X214197904Y-70170309D01*
X213561825Y-68663325D01*
X212709435Y-67240023D01*
X212364584Y-66764706D01*
X211245607Y-65495727D01*
X209958225Y-64413457D01*
X208509527Y-63520983D01*
X206906605Y-62821392D01*
X205156550Y-62317773D01*
X203266453Y-62013212D01*
X201243406Y-61910797D01*
X201216500Y-61910810D01*
X198918759Y-62036750D01*
X196594950Y-62402552D01*
X194262450Y-62997821D01*
X191938632Y-63812162D01*
X189640873Y-64835178D01*
X187386547Y-66056475D01*
X185193031Y-67465658D01*
X183077699Y-69052330D01*
X181057926Y-70806097D01*
X179151088Y-72716564D01*
X177374561Y-74773334D01*
X175745719Y-76966013D01*
X175535986Y-77275000D01*
X174520324Y-78928389D01*
X173581562Y-80731157D01*
X172749874Y-82613418D01*
X172055433Y-84505285D01*
X171528412Y-86336871D01*
X171419024Y-86810671D01*
X171281119Y-87611147D01*
X171176004Y-88558505D01*
X171105379Y-89589943D01*
X171070944Y-90642657D01*
X169844528Y-90642657D01*
X169930101Y-88817786D01*
X170273561Y-86633234D01*
X170860325Y-84393597D01*
X171689958Y-82101810D01*
X172577184Y-80132500D01*
X173918205Y-77676139D01*
X175484349Y-75307961D01*
X177256217Y-73047413D01*
X179214410Y-70913943D01*
X181339530Y-68926998D01*
X183612175Y-67106024D01*
X186012948Y-65470469D01*
X188522450Y-64039781D01*
X188742793Y-63926900D01*
X190951269Y-62889456D01*
X193092216Y-62060667D01*
X195216512Y-61424477D01*
X197375036Y-60964831D01*
X198786535Y-60757297D01*
X199567981Y-60692521D01*
X200509054Y-60663707D01*
X201538110Y-60668616D01*
X201538110Y-60668616D01*
G37*
X201538110Y-60668616D02*
X202583506Y-60705012D01*
X203573599Y-60770655D01*
X204436745Y-60863307D01*
X204963000Y-60950255D01*
X206857298Y-61452020D01*
X208605699Y-62149946D01*
X210198963Y-63037447D01*
X211627849Y-64107940D01*
X212883116Y-65354838D01*
X213955522Y-66771557D01*
X214551335Y-67782607D01*
X215314010Y-69490807D01*
X215849799Y-71307053D01*
X216157963Y-73223750D01*
X216237766Y-75233305D01*
X216088468Y-77328123D01*
X215709332Y-79500608D01*
X215695737Y-79561000D01*
X215548492Y-80180497D01*
X215396246Y-80770059D01*
X215261051Y-81246495D01*
X215194886Y-81450217D01*
X215076973Y-81788998D01*
X215005667Y-82011844D01*
X214996000Y-82053467D01*
X215118309Y-82067515D01*
X215466503Y-82079011D01*
X216012480Y-82088032D01*
X216728138Y-82094655D01*
X217585374Y-82098954D01*
X218556088Y-82101008D01*
X219612177Y-82100891D01*
X220725540Y-82098680D01*
X221868074Y-82094451D01*
X223011678Y-82088281D01*
X224128249Y-82080245D01*
X225189687Y-82070421D01*
X226167889Y-82058883D01*
X227034753Y-82045709D01*
X227762178Y-82030975D01*
X228242289Y-82017535D01*
X230734424Y-81934071D01*
X230814607Y-81350785D01*
X231246279Y-79067996D01*
X231910291Y-76834667D01*
X232815713Y-74622012D01*
X233159984Y-73909500D01*
X234086606Y-72216824D01*
X235095419Y-70695283D01*
X236243484Y-69263259D01*
X236947320Y-68492254D01*
X238767940Y-66749877D01*
X240701069Y-65235190D01*
X242747851Y-63947598D01*
X244909430Y-62886508D01*
X247186951Y-62051325D01*
X249581556Y-61441454D01*
X250989727Y-61195821D01*
X251796388Y-61110048D01*
X252776409Y-61057269D01*
X253866202Y-61036349D01*
X255002182Y-61046152D01*
X256120762Y-61085544D01*
X257158355Y-61153390D01*
X258051375Y-61248552D01*
X258557000Y-61330928D01*
X261014255Y-61938989D01*
X263354282Y-62761317D01*
X265566053Y-63789604D01*
X267638539Y-65015544D01*
X269560712Y-66430827D01*
X271321542Y-68027147D01*
X272910002Y-69796196D01*
X274315063Y-71729665D01*
X275525696Y-73819247D01*
X275760690Y-74290500D01*
X276660840Y-76357861D01*
X277333265Y-78396296D01*
X277790354Y-80459713D01*
X278044496Y-82602018D01*
X278110204Y-84514000D01*
X278005622Y-86896927D01*
X277687865Y-89159190D01*
X277151448Y-91326348D01*
X276390887Y-93423956D01*
X276019585Y-94255816D01*
X275469257Y-95425133D01*
X275329797Y-100669316D01*
X275301810Y-101721947D01*
X275268096Y-102990395D01*
X275229667Y-104436570D01*
X275187533Y-106022378D01*
X275142708Y-107709728D01*
X275096203Y-109460526D01*
X275049031Y-111236681D01*
X275002202Y-113000100D01*
X274956729Y-114712692D01*
X274944203Y-115184500D01*
X274902103Y-116759353D01*
X274860170Y-118307258D01*
X274819148Y-119802078D01*
X274779777Y-121217679D01*
X274742799Y-122527924D01*
X274708956Y-123706678D01*
X274678989Y-124727805D01*
X274653640Y-125565168D01*
X274633651Y-126192633D01*
X274623446Y-126487500D01*
X274607618Y-126955102D01*
X274585960Y-127650618D01*
X274559206Y-128548046D01*
X274528090Y-129621385D01*
X274493347Y-130844633D01*
X274455709Y-132191789D01*
X274415911Y-133636851D01*
X274374687Y-135153818D01*
X274332771Y-136716689D01*
X274302621Y-137854000D01*
X274258244Y-139531064D01*
X274212367Y-141254743D01*
X274165959Y-142989180D01*
X274119991Y-144698517D01*
X274075434Y-146346895D01*
X274033258Y-147898456D01*
X273994432Y-149317343D01*
X273959928Y-150567698D01*
X273930715Y-151613663D01*
X273921177Y-151951000D01*
X273885305Y-153216421D01*
X273847140Y-154566564D01*
X273808407Y-155940242D01*
X273770825Y-157276263D01*
X273736119Y-158513437D01*
X273706009Y-159590576D01*
X273692411Y-160079000D01*
X273663818Y-160983898D01*
X273631183Y-161808747D01*
X273596425Y-162518420D01*
X273561463Y-163077790D01*
X273528214Y-163451731D01*
X273499948Y-163603250D01*
X273389565Y-163637306D01*
X273100275Y-163666637D01*
X272626774Y-163691244D01*
X271963755Y-163711130D01*
X271105912Y-163726297D01*
X270047940Y-163736748D01*
X268784532Y-163742485D01*
X267310383Y-163743510D01*
X265620188Y-163739826D01*
X263708640Y-163731435D01*
X261570433Y-163718341D01*
X259200262Y-163700544D01*
X256592820Y-163678048D01*
X253742803Y-163650856D01*
X250644904Y-163618969D01*
X250175000Y-163613957D01*
X248803735Y-163599427D01*
X247204669Y-163582752D01*
X245403986Y-163564194D01*
X243427873Y-163544016D01*
X241302517Y-163522479D01*
X239054104Y-163499845D01*
X236708819Y-163476376D01*
X234292849Y-163452334D01*
X231832381Y-163427981D01*
X229353600Y-163403579D01*
X226882693Y-163379390D01*
X224445846Y-163355675D01*
X222069246Y-163332697D01*
X221663500Y-163328790D01*
X203121500Y-163150382D01*
X198613000Y-162315606D01*
X197485102Y-162106783D01*
X196357929Y-161898121D01*
X195275325Y-161697734D01*
X194281132Y-161513736D01*
X193419196Y-161354242D01*
X192733361Y-161227366D01*
X192390000Y-161163872D01*
X191735983Y-161043929D01*
X190899647Y-160892009D01*
X189948794Y-160720345D01*
X188951227Y-160541170D01*
X187974751Y-160366717D01*
X187754500Y-160327521D01*
X186804213Y-160157745D01*
X185827398Y-159981815D01*
X184888922Y-159811515D01*
X184053655Y-159658627D01*
X183386465Y-159534936D01*
X183246000Y-159508535D01*
X182577196Y-159384420D01*
X181939854Y-159269858D01*
X181407397Y-159177826D01*
X181060977Y-159122409D01*
X180655364Y-159054507D01*
X180374913Y-158960077D01*
X180197187Y-158796373D01*
X180099750Y-158520650D01*
X180062035Y-158110500D01*
X180896500Y-158110500D01*
X187354024Y-158143420D01*
X193811549Y-158176341D01*
X193477072Y-157778838D01*
X193191309Y-157369114D01*
X192898304Y-156807092D01*
X192596436Y-156085644D01*
X192284080Y-155197645D01*
X191959612Y-154135968D01*
X191621411Y-152893486D01*
X191267851Y-151463072D01*
X190897311Y-149837599D01*
X190508167Y-148009941D01*
X190098794Y-145972971D01*
X189667571Y-143719562D01*
X189212873Y-141242587D01*
X188733078Y-138534920D01*
X188226562Y-135589434D01*
X188212324Y-135504500D01*
X190816408Y-135504500D01*
X190817916Y-136685312D01*
X190829799Y-137708219D01*
X190856260Y-138621996D01*
X190901502Y-139475422D01*
X190969728Y-140317275D01*
X191065143Y-141196332D01*
X191191949Y-142161370D01*
X191354350Y-143261168D01*
X191556550Y-144544502D01*
X191639963Y-145061250D01*
X191916780Y-146611653D01*
X192271807Y-148346512D01*
X192692479Y-150213054D01*
X193166229Y-152158508D01*
X193680493Y-154130105D01*
X194222705Y-156075072D01*
X194437178Y-156808750D01*
X194841801Y-158174000D01*
X196759150Y-158191791D01*
X197235344Y-158196385D01*
X197936520Y-158203399D01*
X198833674Y-158212531D01*
X199897802Y-158223480D01*
X201099901Y-158235945D01*
X202410967Y-158249627D01*
X203801995Y-158264224D01*
X205243984Y-158279436D01*
X206614000Y-158293963D01*
X208301721Y-158310935D01*
X210143978Y-158327738D01*
X212084258Y-158343961D01*
X214066048Y-158359190D01*
X216032833Y-158373016D01*
X217928101Y-158385026D01*
X219695338Y-158394808D01*
X221278032Y-158401952D01*
X221608123Y-158403172D01*
X228664746Y-158428000D01*
X230625123Y-156490859D01*
X232493423Y-154596322D01*
X234178361Y-152782453D01*
X235718189Y-151005812D01*
X237151158Y-149222960D01*
X237922063Y-148204500D01*
X239488471Y-145971738D01*
X240826691Y-143810331D01*
X241936082Y-141722968D01*
X242816003Y-139712336D01*
X243465815Y-137781123D01*
X243884875Y-135932018D01*
X244072545Y-134167709D01*
X244028183Y-132490884D01*
X243751148Y-130904231D01*
X243240801Y-129410439D01*
X242667385Y-128289584D01*
X241834566Y-127113478D01*
X240768208Y-125985350D01*
X239486662Y-124920499D01*
X238008278Y-123934226D01*
X236404446Y-123067535D01*
X234208433Y-122086012D01*
X232006892Y-121269604D01*
X229831637Y-120626671D01*
X227714480Y-120165572D01*
X225687234Y-119894665D01*
X224045585Y-119820173D01*
X222107525Y-119924905D01*
X220310276Y-120240277D01*
X218649200Y-120768699D01*
X217119654Y-121512582D01*
X215716998Y-122474337D01*
X214436591Y-123656374D01*
X213273794Y-125061104D01*
X212886435Y-125616759D01*
X212435692Y-126364018D01*
X211985128Y-127236007D01*
X211573995Y-128146781D01*
X211241544Y-129010395D01*
X211053248Y-129630750D01*
X210948091Y-129979219D01*
X210848280Y-130197115D01*
X210806154Y-130234000D01*
X210727295Y-130122214D01*
X210649995Y-129844332D01*
X210633040Y-129749823D01*
X210523347Y-129259513D01*
X210335671Y-128614217D01*
X210096334Y-127890543D01*
X209831658Y-127165102D01*
X209567962Y-126514503D01*
X209386241Y-126120903D01*
X208573221Y-124714978D01*
X207644508Y-123502499D01*
X206613436Y-122495153D01*
X205493342Y-121704632D01*
X204297559Y-121142623D01*
X203419755Y-120890828D01*
X202149336Y-120734481D01*
X200789309Y-120773792D01*
X199392470Y-120994095D01*
X198011618Y-121380724D01*
X196699549Y-121919011D01*
X195509063Y-122594292D01*
X194525675Y-123361447D01*
X193715582Y-124197345D01*
X193028992Y-125105922D01*
X192448233Y-126123006D01*
X191955632Y-127284424D01*
X191533515Y-128626004D01*
X191166933Y-130170500D01*
X191066455Y-130664610D01*
X190987597Y-131097166D01*
X190927679Y-131508939D01*
X190884022Y-131940704D01*
X190853947Y-132433232D01*
X190834773Y-133027297D01*
X190823823Y-133763672D01*
X190818415Y-134683131D01*
X190816408Y-135504500D01*
X188212324Y-135504500D01*
X187691701Y-132399002D01*
X187680182Y-132329500D01*
X187520808Y-131369631D01*
X187357954Y-130392328D01*
X187201809Y-129458471D01*
X187062558Y-128628941D01*
X186950389Y-127964618D01*
X186915166Y-127757500D01*
X186779583Y-126952551D01*
X186628106Y-126037309D01*
X186483797Y-125151723D01*
X186412896Y-124709500D01*
X186285832Y-123936469D01*
X186139268Y-123085115D01*
X185995018Y-122280569D01*
X185914801Y-121852251D01*
X185702132Y-120431402D01*
X185651205Y-119180291D01*
X185769775Y-118066657D01*
X186065596Y-117058239D01*
X186546423Y-116122775D01*
X187220011Y-115228003D01*
X187607482Y-114810211D01*
X188692926Y-113861774D01*
X190019657Y-112981470D01*
X191583868Y-112170773D01*
X193381750Y-111431153D01*
X195409494Y-110764085D01*
X197663292Y-110171041D01*
X200139334Y-109653492D01*
X201597500Y-109401071D01*
X203819762Y-109082943D01*
X206202712Y-108816119D01*
X208706540Y-108601322D01*
X211291441Y-108439277D01*
X213917605Y-108330705D01*
X216545226Y-108276331D01*
X219134496Y-108276878D01*
X221645607Y-108333069D01*
X224038752Y-108445628D01*
X226274123Y-108615278D01*
X228311913Y-108842741D01*
X228775500Y-108907226D01*
X231112775Y-109341470D01*
X233494978Y-109962996D01*
X235837203Y-110745730D01*
X238054546Y-111663596D01*
X238618000Y-111929843D01*
X240260377Y-112780112D01*
X241867971Y-113711450D01*
X243394748Y-114693299D01*
X244794673Y-115695102D01*
X246021712Y-116686302D01*
X246663048Y-117270177D01*
X247623487Y-118366174D01*
X248379580Y-119611698D01*
X248931308Y-121005389D01*
X249278652Y-122545887D01*
X249421594Y-124231834D01*
X249360114Y-126061871D01*
X249094194Y-128034637D01*
X248623815Y-130148775D01*
X247948957Y-132402924D01*
X247069603Y-134795726D01*
X246911704Y-135187000D01*
X246246475Y-136726185D01*
X245460178Y-138393773D01*
X244589148Y-140118813D01*
X243669720Y-141830358D01*
X242738227Y-143457459D01*
X242326457Y-144140500D01*
X241221378Y-145894726D01*
X240084191Y-147611814D01*
X238930257Y-149272629D01*
X237774940Y-150858041D01*
X236633604Y-152348915D01*
X235521610Y-153726119D01*
X234454323Y-154970521D01*
X233447104Y-156062988D01*
X232515318Y-156984387D01*
X231674327Y-157715585D01*
X231075905Y-158151605D01*
X230553500Y-158491500D01*
X237665500Y-158556601D01*
X239131327Y-158569966D01*
X240637037Y-158583599D01*
X242141776Y-158597135D01*
X243604690Y-158610210D01*
X244984923Y-158622462D01*
X246241621Y-158633525D01*
X247333931Y-158643038D01*
X248220997Y-158650635D01*
X248365250Y-158651851D01*
X251953000Y-158682000D01*
X251953483Y-157888250D01*
X251957298Y-157592524D01*
X251967998Y-157071552D01*
X251984783Y-156353972D01*
X252006851Y-155468422D01*
X252033401Y-154443539D01*
X252063633Y-153307961D01*
X252096745Y-152090326D01*
X252131937Y-150819271D01*
X252168407Y-149523435D01*
X252205356Y-148231455D01*
X252241981Y-146971969D01*
X252277481Y-145773614D01*
X252311057Y-144665029D01*
X252341907Y-143674850D01*
X252369230Y-142831717D01*
X252392225Y-142164266D01*
X252396581Y-142045000D01*
X252417573Y-141439652D01*
X252443644Y-140626886D01*
X252473414Y-139653201D01*
X252505504Y-138565097D01*
X252538537Y-137409073D01*
X252571133Y-136231628D01*
X252592384Y-135441000D01*
X252635450Y-133827173D01*
X252681602Y-132115926D01*
X252730198Y-130329984D01*
X252780595Y-128492070D01*
X252832150Y-126624907D01*
X252884221Y-124751220D01*
X252936166Y-122893731D01*
X252987342Y-121075164D01*
X253037107Y-119318244D01*
X253084818Y-117645693D01*
X253129833Y-116080235D01*
X253171508Y-114644595D01*
X253209203Y-113361495D01*
X253242273Y-112253659D01*
X253270078Y-111343811D01*
X253291973Y-110654674D01*
X253299898Y-110417648D01*
X253384871Y-107936796D01*
X251941934Y-107776349D01*
X249474517Y-107378144D01*
X247090685Y-106743763D01*
X244801773Y-105877784D01*
X242619115Y-104784786D01*
X240554044Y-103469347D01*
X239697500Y-102830573D01*
X238734167Y-102013809D01*
X237719332Y-101039532D01*
X236707531Y-99967887D01*
X235753301Y-98859024D01*
X234911180Y-97773090D01*
X234306933Y-96885435D01*
X233961245Y-96289652D01*
X233559059Y-95526756D01*
X233133034Y-94665712D01*
X232715831Y-93775489D01*
X232340110Y-92925053D01*
X232038530Y-92183372D01*
X231904226Y-91811727D01*
X231279933Y-89594577D01*
X230897216Y-87367398D01*
X230749087Y-85100277D01*
X233064463Y-85100277D01*
X233235411Y-87180267D01*
X233583290Y-89140319D01*
X234121537Y-91020119D01*
X234863587Y-92859353D01*
X235822874Y-94697707D01*
X236885930Y-96388500D01*
X237565999Y-97293760D01*
X238414058Y-98264757D01*
X239374322Y-99247058D01*
X240391005Y-100186234D01*
X241408319Y-101027855D01*
X242301000Y-101671938D01*
X244352122Y-102888028D01*
X246461806Y-103865433D01*
X248618685Y-104599851D01*
X250811391Y-105086979D01*
X251635500Y-105204408D01*
X252186481Y-105272861D01*
X252673532Y-105336579D01*
X253017786Y-105385127D01*
X253096000Y-105397643D01*
X253442280Y-105424543D01*
X253981003Y-105427674D01*
X254652032Y-105410121D01*
X255395234Y-105374974D01*
X256150475Y-105325322D01*
X256857619Y-105264251D01*
X257456533Y-105194850D01*
X257668000Y-105162851D01*
X259226329Y-104864222D01*
X260619171Y-104508808D01*
X261933250Y-104069897D01*
X263255292Y-103520776D01*
X263758073Y-103287065D01*
X264489087Y-102912123D01*
X265300401Y-102452323D01*
X266125654Y-101949069D01*
X266898485Y-101443767D01*
X267552531Y-100977823D01*
X267891500Y-100708060D01*
X269250584Y-99483654D01*
X270415803Y-98280872D01*
X271435730Y-97045579D01*
X272346699Y-95742621D01*
X273440522Y-93817101D01*
X274328581Y-91754914D01*
X275001720Y-89580214D01*
X275388230Y-87721809D01*
X275477929Y-86965896D01*
X275536486Y-86032056D01*
X275563928Y-84994441D01*
X275560279Y-83927203D01*
X275525563Y-82904496D01*
X275459805Y-82000471D01*
X275386121Y-81420163D01*
X274891116Y-79170527D01*
X274163609Y-77007813D01*
X273214921Y-74947755D01*
X272056369Y-73006088D01*
X270699273Y-71198546D01*
X269154952Y-69540865D01*
X267434726Y-68048778D01*
X265549912Y-66738019D01*
X264313831Y-66028719D01*
X263069745Y-65439346D01*
X261661739Y-64892347D01*
X260171584Y-64412840D01*
X258681053Y-64025946D01*
X257271916Y-63756784D01*
X256662401Y-63678241D01*
X254452014Y-63558834D01*
X252213256Y-63654912D01*
X250002878Y-63960348D01*
X247877634Y-64469012D01*
X247121078Y-64708569D01*
X246662912Y-64883738D01*
X246047864Y-65145818D01*
X245343709Y-65463210D01*
X244618226Y-65804316D01*
X243939189Y-66137535D01*
X243374376Y-66431271D01*
X243124653Y-66571786D01*
X242290755Y-67109248D01*
X241373202Y-67777967D01*
X240452878Y-68515697D01*
X239610664Y-69260193D01*
X239519316Y-69346434D01*
X237923971Y-71032310D01*
X236544551Y-72842973D01*
X235386222Y-74765809D01*
X234454155Y-76788207D01*
X233753515Y-78897553D01*
X233289471Y-81081233D01*
X233067192Y-83326635D01*
X233064463Y-85100277D01*
X230749087Y-85100277D01*
X230747685Y-85078834D01*
X230744842Y-84715888D01*
X230744000Y-82822276D01*
X227484898Y-82906138D01*
X226551606Y-82926457D01*
X225423544Y-82945001D01*
X224159943Y-82961155D01*
X222820031Y-82974303D01*
X221463036Y-82983828D01*
X220148188Y-82989116D01*
X219417676Y-82990000D01*
X214609554Y-82990000D01*
X214465976Y-83339250D01*
X214281159Y-83761323D01*
X214015559Y-84332749D01*
X213698378Y-84994249D01*
X213358819Y-85686545D01*
X213026081Y-86350360D01*
X212729367Y-86926416D01*
X212497878Y-87355434D01*
X212428556Y-87475141D01*
X211670123Y-88699717D01*
X210944931Y-89783584D01*
X210190378Y-90813972D01*
X209343863Y-91878108D01*
X208811633Y-92515000D01*
X208209968Y-93218256D01*
X207678954Y-93819469D01*
X207176931Y-94360502D01*
X206662239Y-94883221D01*
X206093221Y-95429492D01*
X205428215Y-96041179D01*
X204625564Y-96760149D01*
X204301426Y-97047520D01*
X202770863Y-98296177D01*
X201046297Y-99517064D01*
X199187630Y-100675493D01*
X197254764Y-101736773D01*
X195307601Y-102666217D01*
X193406045Y-103429136D01*
X193088500Y-103540851D01*
X191393127Y-104062745D01*
X189656174Y-104482730D01*
X187931331Y-104792351D01*
X186272286Y-104983154D01*
X184732728Y-105046687D01*
X183753050Y-105010769D01*
X182634926Y-104926362D01*
X182563926Y-105737431D01*
X182536781Y-106133050D01*
X182505917Y-106722677D01*
X182474015Y-107446399D01*
X182443758Y-108244304D01*
X182422472Y-108898000D01*
X182358954Y-111007444D01*
X182295904Y-113084470D01*
X182233888Y-115111344D01*
X182173466Y-117070330D01*
X182115204Y-118943694D01*
X182059665Y-120713702D01*
X182007412Y-122362618D01*
X181959009Y-123872708D01*
X181915019Y-125226237D01*
X181876005Y-126405471D01*
X181842531Y-127392675D01*
X181815161Y-128170115D01*
X181794458Y-128720055D01*
X181786945Y-128900500D01*
X181773433Y-129247047D01*
X181753014Y-129825554D01*
X181726366Y-130614095D01*
X181694166Y-131590741D01*
X181657091Y-132733568D01*
X181615819Y-134020647D01*
X181571027Y-135430052D01*
X181523394Y-136939856D01*
X181473596Y-138528133D01*
X181422311Y-140172955D01*
X181370216Y-141852396D01*
X181317989Y-143544529D01*
X181266308Y-145227428D01*
X181215850Y-146879164D01*
X181167292Y-148477813D01*
X181121311Y-150001446D01*
X181078587Y-151428137D01*
X181039795Y-152735960D01*
X181005613Y-153902987D01*
X180976720Y-154907291D01*
X180953791Y-155726947D01*
X180937506Y-156340026D01*
X180931504Y-156586500D01*
X180896500Y-158110500D01*
X180062035Y-158110500D01*
X180060164Y-158090163D01*
X180055994Y-157462166D01*
X180058474Y-157212503D01*
X180068291Y-156650067D01*
X180086790Y-155890931D01*
X180112292Y-154992183D01*
X180143123Y-154010912D01*
X180177603Y-153004206D01*
X180199959Y-152395500D01*
X180226684Y-151662471D01*
X180259889Y-150709729D01*
X180298459Y-149571445D01*
X180341275Y-148281792D01*
X180387221Y-146874942D01*
X180435181Y-145385069D01*
X180484037Y-143846343D01*
X180532673Y-142292938D01*
X180575596Y-140902000D01*
X180621104Y-139427609D01*
X180666269Y-137985942D01*
X180710194Y-136604229D01*
X180751984Y-135309699D01*
X180790745Y-134129583D01*
X180825580Y-133091109D01*
X180855595Y-132221508D01*
X180879894Y-131548009D01*
X180897581Y-131097841D01*
X180899244Y-131059500D01*
X180910816Y-130761298D01*
X180929278Y-130239490D01*
X180953960Y-129515265D01*
X180984191Y-128609812D01*
X181019299Y-127544318D01*
X181058615Y-126339975D01*
X181101467Y-125017969D01*
X181147185Y-123599490D01*
X181195097Y-122105728D01*
X181244532Y-120557870D01*
X181294821Y-118977105D01*
X181345291Y-117384624D01*
X181395272Y-115801614D01*
X181444094Y-114249264D01*
X181491084Y-112748763D01*
X181535574Y-111321301D01*
X181576891Y-109988065D01*
X181614364Y-108770245D01*
X181647324Y-107689030D01*
X181675098Y-106765609D01*
X181697017Y-106021170D01*
X181712408Y-105476903D01*
X181720603Y-105153996D01*
X181721798Y-105079549D01*
X181639586Y-104948506D01*
X181370667Y-104832178D01*
X180882050Y-104716457D01*
X180864749Y-104713061D01*
X179058119Y-104238545D01*
X177370656Y-103551581D01*
X175817056Y-102665747D01*
X174412020Y-101594625D01*
X173170246Y-100351793D01*
X172106431Y-98950831D01*
X171235276Y-97405319D01*
X170571477Y-95728837D01*
X170363916Y-95011575D01*
X169974842Y-93009892D01*
X169830383Y-90944317D01*
X169844528Y-90642657D01*
X171070944Y-90642657D01*
X171074398Y-91653844D01*
X171117441Y-92560702D01*
X171201773Y-93300428D01*
X171238154Y-93493439D01*
X171663216Y-95129739D01*
X172196245Y-96591211D01*
X172827340Y-97853654D01*
X173339320Y-98629037D01*
X174503212Y-99985945D01*
X175811715Y-101135985D01*
X177266075Y-102079728D01*
X178867537Y-102817748D01*
X180617348Y-103350618D01*
X182516753Y-103678910D01*
X184566996Y-103803198D01*
X184591056Y-103803440D01*
X185326179Y-103797106D01*
X186096846Y-103768491D01*
X186796504Y-103722574D01*
X187194556Y-103681837D01*
X189756052Y-103228933D01*
X192299255Y-102529022D01*
X194808086Y-101589088D01*
X197266465Y-100416114D01*
X199658312Y-99017084D01*
X201967546Y-97398981D01*
X202359500Y-97095749D01*
X204719991Y-95094384D01*
X206858533Y-92969630D01*
X208775330Y-90721248D01*
X210470583Y-88348995D01*
X211944495Y-85852629D01*
X212209093Y-85345571D01*
X213241838Y-83103287D01*
X214027019Y-80900684D01*
X214566504Y-78729481D01*
X214862159Y-76581400D01*
X214915853Y-74448159D01*
X214867142Y-73560250D01*
X214629176Y-71792206D01*
X214197904Y-70170309D01*
X213561825Y-68663325D01*
X212709435Y-67240023D01*
X212364584Y-66764706D01*
X211245607Y-65495727D01*
X209958225Y-64413457D01*
X208509527Y-63520983D01*
X206906605Y-62821392D01*
X205156550Y-62317773D01*
X203266453Y-62013212D01*
X201243406Y-61910797D01*
X201216500Y-61910810D01*
X198918759Y-62036750D01*
X196594950Y-62402552D01*
X194262450Y-62997821D01*
X191938632Y-63812162D01*
X189640873Y-64835178D01*
X187386547Y-66056475D01*
X185193031Y-67465658D01*
X183077699Y-69052330D01*
X181057926Y-70806097D01*
X179151088Y-72716564D01*
X177374561Y-74773334D01*
X175745719Y-76966013D01*
X175535986Y-77275000D01*
X174520324Y-78928389D01*
X173581562Y-80731157D01*
X172749874Y-82613418D01*
X172055433Y-84505285D01*
X171528412Y-86336871D01*
X171419024Y-86810671D01*
X171281119Y-87611147D01*
X171176004Y-88558505D01*
X171105379Y-89589943D01*
X171070944Y-90642657D01*
X169844528Y-90642657D01*
X169930101Y-88817786D01*
X170273561Y-86633234D01*
X170860325Y-84393597D01*
X171689958Y-82101810D01*
X172577184Y-80132500D01*
X173918205Y-77676139D01*
X175484349Y-75307961D01*
X177256217Y-73047413D01*
X179214410Y-70913943D01*
X181339530Y-68926998D01*
X183612175Y-67106024D01*
X186012948Y-65470469D01*
X188522450Y-64039781D01*
X188742793Y-63926900D01*
X190951269Y-62889456D01*
X193092216Y-62060667D01*
X195216512Y-61424477D01*
X197375036Y-60964831D01*
X198786535Y-60757297D01*
X199567981Y-60692521D01*
X200509054Y-60663707D01*
X201538110Y-60668616D01*
D12*
X168925000Y-145400000D02*
X168925000Y-146400000D01*
X167925000Y-159400000D02*
X168925000Y-159400000D01*
X168925000Y-145400000D02*
X167925000Y-145400000D01*
X168925000Y-158400000D02*
X168925000Y-159400000D01*
X154925000Y-159400000D02*
X154925000Y-158400000D01*
X155925000Y-145400000D02*
X154925000Y-145400000D01*
X154925000Y-159400000D02*
X155925000Y-159400000D01*
X154925000Y-146400000D02*
X154925000Y-145400000D01*
X130825000Y-145400000D02*
X130825000Y-146400000D01*
X129825000Y-159400000D02*
X130825000Y-159400000D01*
X130825000Y-145400000D02*
X129825000Y-145400000D01*
X130825000Y-158400000D02*
X130825000Y-159400000D01*
X116825000Y-159400000D02*
X116825000Y-158400000D01*
X117825000Y-145400000D02*
X116825000Y-145400000D01*
X116825000Y-159400000D02*
X117825000Y-159400000D01*
X116825000Y-146400000D02*
X116825000Y-145400000D01*
X164450000Y-159400000D02*
X164450000Y-158400000D01*
X165450000Y-145400000D02*
X164450000Y-145400000D01*
X164450000Y-159400000D02*
X165450000Y-159400000D01*
X164450000Y-146400000D02*
X164450000Y-145400000D01*
X178450000Y-145400000D02*
X178450000Y-146400000D01*
X177450000Y-159400000D02*
X178450000Y-159400000D01*
X178450000Y-145400000D02*
X177450000Y-145400000D01*
X178450000Y-158400000D02*
X178450000Y-159400000D01*
X126350000Y-159400000D02*
X126350000Y-158400000D01*
X127350000Y-145400000D02*
X126350000Y-145400000D01*
X126350000Y-159400000D02*
X127350000Y-159400000D01*
X126350000Y-146400000D02*
X126350000Y-145400000D01*
X140350000Y-145400000D02*
X140350000Y-146400000D01*
X139350000Y-159400000D02*
X140350000Y-159400000D01*
X140350000Y-145400000D02*
X139350000Y-145400000D01*
X140350000Y-158400000D02*
X140350000Y-159400000D01*
X254650000Y-50150000D02*
X254650000Y-51150000D01*
X253650000Y-64150000D02*
X254650000Y-64150000D01*
X254650000Y-50150000D02*
X253650000Y-50150000D01*
X254650000Y-63150000D02*
X254650000Y-64150000D01*
X240650000Y-64150000D02*
X240650000Y-63150000D01*
X241650000Y-50150000D02*
X240650000Y-50150000D01*
X240650000Y-64150000D02*
X241650000Y-64150000D01*
X240650000Y-51150000D02*
X240650000Y-50150000D01*
X102250000Y-69200000D02*
X102250000Y-70200000D01*
X101250000Y-83200000D02*
X102250000Y-83200000D01*
X102250000Y-69200000D02*
X101250000Y-69200000D01*
X102250000Y-82200000D02*
X102250000Y-83200000D01*
X88250000Y-83200000D02*
X88250000Y-82200000D01*
X89250000Y-69200000D02*
X88250000Y-69200000D01*
X88250000Y-83200000D02*
X89250000Y-83200000D01*
X88250000Y-70200000D02*
X88250000Y-69200000D01*
X121300000Y-69200000D02*
X121300000Y-70200000D01*
X120300000Y-83200000D02*
X121300000Y-83200000D01*
X121300000Y-69200000D02*
X120300000Y-69200000D01*
X121300000Y-82200000D02*
X121300000Y-83200000D01*
X107300000Y-83200000D02*
X107300000Y-82200000D01*
X108300000Y-69200000D02*
X107300000Y-69200000D01*
X107300000Y-83200000D02*
X108300000Y-83200000D01*
X107300000Y-70200000D02*
X107300000Y-69200000D01*
X273700000Y-126350000D02*
X273700000Y-127350000D01*
X272700000Y-140350000D02*
X273700000Y-140350000D01*
X273700000Y-126350000D02*
X272700000Y-126350000D01*
X273700000Y-139350000D02*
X273700000Y-140350000D01*
X259700000Y-140350000D02*
X259700000Y-139350000D01*
X260700000Y-126350000D02*
X259700000Y-126350000D01*
X259700000Y-140350000D02*
X260700000Y-140350000D01*
X259700000Y-127350000D02*
X259700000Y-126350000D01*
X273700000Y-145400000D02*
X273700000Y-146400000D01*
X272700000Y-159400000D02*
X273700000Y-159400000D01*
X273700000Y-145400000D02*
X272700000Y-145400000D01*
X273700000Y-158400000D02*
X273700000Y-159400000D01*
X259700000Y-159400000D02*
X259700000Y-158400000D01*
X260700000Y-145400000D02*
X259700000Y-145400000D01*
X259700000Y-159400000D02*
X260700000Y-159400000D01*
X259700000Y-146400000D02*
X259700000Y-145400000D01*
X273700000Y-107300000D02*
X273700000Y-108300000D01*
X272700000Y-121300000D02*
X273700000Y-121300000D01*
X273700000Y-107300000D02*
X272700000Y-107300000D01*
X273700000Y-120300000D02*
X273700000Y-121300000D01*
X259700000Y-121300000D02*
X259700000Y-120300000D01*
X260700000Y-107300000D02*
X259700000Y-107300000D01*
X259700000Y-121300000D02*
X260700000Y-121300000D01*
X259700000Y-108300000D02*
X259700000Y-107300000D01*
X273700000Y-88250000D02*
X273700000Y-89250000D01*
X272700000Y-102250000D02*
X273700000Y-102250000D01*
X273700000Y-88250000D02*
X272700000Y-88250000D01*
X273700000Y-101250000D02*
X273700000Y-102250000D01*
X259700000Y-102250000D02*
X259700000Y-101250000D01*
X260700000Y-88250000D02*
X259700000Y-88250000D01*
X259700000Y-102250000D02*
X260700000Y-102250000D01*
X259700000Y-89250000D02*
X259700000Y-88250000D01*
X273700000Y-69200000D02*
X273700000Y-70200000D01*
X272700000Y-83200000D02*
X273700000Y-83200000D01*
X273700000Y-69200000D02*
X272700000Y-69200000D01*
X273700000Y-82200000D02*
X273700000Y-83200000D01*
X259700000Y-83200000D02*
X259700000Y-82200000D01*
X260700000Y-69200000D02*
X259700000Y-69200000D01*
X259700000Y-83200000D02*
X260700000Y-83200000D01*
X259700000Y-70200000D02*
X259700000Y-69200000D01*
X273700000Y-50150000D02*
X273700000Y-51150000D01*
X272700000Y-64150000D02*
X273700000Y-64150000D01*
X273700000Y-50150000D02*
X272700000Y-50150000D01*
X273700000Y-63150000D02*
X273700000Y-64150000D01*
X259700000Y-64150000D02*
X259700000Y-63150000D01*
X260700000Y-50150000D02*
X259700000Y-50150000D01*
X259700000Y-64150000D02*
X260700000Y-64150000D01*
X259700000Y-51150000D02*
X259700000Y-50150000D01*
X254650000Y-145400000D02*
X254650000Y-146400000D01*
X253650000Y-159400000D02*
X254650000Y-159400000D01*
X254650000Y-145400000D02*
X253650000Y-145400000D01*
X254650000Y-158400000D02*
X254650000Y-159400000D01*
X240650000Y-159400000D02*
X240650000Y-158400000D01*
X241650000Y-145400000D02*
X240650000Y-145400000D01*
X240650000Y-159400000D02*
X241650000Y-159400000D01*
X240650000Y-146400000D02*
X240650000Y-145400000D01*
X254650000Y-126350000D02*
X254650000Y-127350000D01*
X253650000Y-140350000D02*
X254650000Y-140350000D01*
X254650000Y-126350000D02*
X253650000Y-126350000D01*
X254650000Y-139350000D02*
X254650000Y-140350000D01*
X240650000Y-140350000D02*
X240650000Y-139350000D01*
X241650000Y-126350000D02*
X240650000Y-126350000D01*
X240650000Y-140350000D02*
X241650000Y-140350000D01*
X240650000Y-127350000D02*
X240650000Y-126350000D01*
X254650000Y-107300000D02*
X254650000Y-108300000D01*
X253650000Y-121300000D02*
X254650000Y-121300000D01*
X254650000Y-107300000D02*
X253650000Y-107300000D01*
X254650000Y-120300000D02*
X254650000Y-121300000D01*
X240650000Y-121300000D02*
X240650000Y-120300000D01*
X241650000Y-107300000D02*
X240650000Y-107300000D01*
X240650000Y-121300000D02*
X241650000Y-121300000D01*
X240650000Y-108300000D02*
X240650000Y-107300000D01*
X254650000Y-88250000D02*
X254650000Y-89250000D01*
X253650000Y-102250000D02*
X254650000Y-102250000D01*
X254650000Y-88250000D02*
X253650000Y-88250000D01*
X254650000Y-101250000D02*
X254650000Y-102250000D01*
X240650000Y-102250000D02*
X240650000Y-101250000D01*
X241650000Y-88250000D02*
X240650000Y-88250000D01*
X240650000Y-102250000D02*
X241650000Y-102250000D01*
X240650000Y-89250000D02*
X240650000Y-88250000D01*
X254650000Y-69200000D02*
X254650000Y-70200000D01*
X253650000Y-83200000D02*
X254650000Y-83200000D01*
X254650000Y-69200000D02*
X253650000Y-69200000D01*
X254650000Y-82200000D02*
X254650000Y-83200000D01*
X240650000Y-83200000D02*
X240650000Y-82200000D01*
X241650000Y-69200000D02*
X240650000Y-69200000D01*
X240650000Y-83200000D02*
X241650000Y-83200000D01*
X240650000Y-70200000D02*
X240650000Y-69200000D01*
X235600000Y-145400000D02*
X235600000Y-146400000D01*
X234600000Y-159400000D02*
X235600000Y-159400000D01*
X235600000Y-145400000D02*
X234600000Y-145400000D01*
X235600000Y-158400000D02*
X235600000Y-159400000D01*
X221600000Y-159400000D02*
X221600000Y-158400000D01*
X222600000Y-145400000D02*
X221600000Y-145400000D01*
X221600000Y-159400000D02*
X222600000Y-159400000D01*
X221600000Y-146400000D02*
X221600000Y-145400000D01*
X235600000Y-126350000D02*
X235600000Y-127350000D01*
X234600000Y-140350000D02*
X235600000Y-140350000D01*
X235600000Y-126350000D02*
X234600000Y-126350000D01*
X235600000Y-139350000D02*
X235600000Y-140350000D01*
X221600000Y-140350000D02*
X221600000Y-139350000D01*
X222600000Y-126350000D02*
X221600000Y-126350000D01*
X221600000Y-140350000D02*
X222600000Y-140350000D01*
X221600000Y-127350000D02*
X221600000Y-126350000D01*
X235600000Y-107300000D02*
X235600000Y-108300000D01*
X234600000Y-121300000D02*
X235600000Y-121300000D01*
X235600000Y-107300000D02*
X234600000Y-107300000D01*
X235600000Y-120300000D02*
X235600000Y-121300000D01*
X221600000Y-121300000D02*
X221600000Y-120300000D01*
X222600000Y-107300000D02*
X221600000Y-107300000D01*
X221600000Y-121300000D02*
X222600000Y-121300000D01*
X221600000Y-108300000D02*
X221600000Y-107300000D01*
X235600000Y-88250000D02*
X235600000Y-89250000D01*
X234600000Y-102250000D02*
X235600000Y-102250000D01*
X235600000Y-88250000D02*
X234600000Y-88250000D01*
X235600000Y-101250000D02*
X235600000Y-102250000D01*
X221600000Y-102250000D02*
X221600000Y-101250000D01*
X222600000Y-88250000D02*
X221600000Y-88250000D01*
X221600000Y-102250000D02*
X222600000Y-102250000D01*
X221600000Y-89250000D02*
X221600000Y-88250000D01*
X235600000Y-69200000D02*
X235600000Y-70200000D01*
X234600000Y-83200000D02*
X235600000Y-83200000D01*
X235600000Y-69200000D02*
X234600000Y-69200000D01*
X235600000Y-82200000D02*
X235600000Y-83200000D01*
X221600000Y-83200000D02*
X221600000Y-82200000D01*
X222600000Y-69200000D02*
X221600000Y-69200000D01*
X221600000Y-83200000D02*
X222600000Y-83200000D01*
X221600000Y-70200000D02*
X221600000Y-69200000D01*
X235600000Y-50150000D02*
X235600000Y-51150000D01*
X234600000Y-64150000D02*
X235600000Y-64150000D01*
X235600000Y-50150000D02*
X234600000Y-50150000D01*
X235600000Y-63150000D02*
X235600000Y-64150000D01*
X221600000Y-64150000D02*
X221600000Y-63150000D01*
X222600000Y-50150000D02*
X221600000Y-50150000D01*
X221600000Y-64150000D02*
X222600000Y-64150000D01*
X221600000Y-51150000D02*
X221600000Y-50150000D01*
X216550000Y-145400000D02*
X216550000Y-146400000D01*
X215550000Y-159400000D02*
X216550000Y-159400000D01*
X216550000Y-145400000D02*
X215550000Y-145400000D01*
X216550000Y-158400000D02*
X216550000Y-159400000D01*
X202550000Y-159400000D02*
X202550000Y-158400000D01*
X203550000Y-145400000D02*
X202550000Y-145400000D01*
X202550000Y-159400000D02*
X203550000Y-159400000D01*
X202550000Y-146400000D02*
X202550000Y-145400000D01*
X216550000Y-126350000D02*
X216550000Y-127350000D01*
X215550000Y-140350000D02*
X216550000Y-140350000D01*
X216550000Y-126350000D02*
X215550000Y-126350000D01*
X216550000Y-139350000D02*
X216550000Y-140350000D01*
X202550000Y-140350000D02*
X202550000Y-139350000D01*
X203550000Y-126350000D02*
X202550000Y-126350000D01*
X202550000Y-140350000D02*
X203550000Y-140350000D01*
X202550000Y-127350000D02*
X202550000Y-126350000D01*
X216550000Y-107300000D02*
X216550000Y-108300000D01*
X215550000Y-121300000D02*
X216550000Y-121300000D01*
X216550000Y-107300000D02*
X215550000Y-107300000D01*
X216550000Y-120300000D02*
X216550000Y-121300000D01*
X202550000Y-121300000D02*
X202550000Y-120300000D01*
X203550000Y-107300000D02*
X202550000Y-107300000D01*
X202550000Y-121300000D02*
X203550000Y-121300000D01*
X202550000Y-108300000D02*
X202550000Y-107300000D01*
X216550000Y-88250000D02*
X216550000Y-89250000D01*
X215550000Y-102250000D02*
X216550000Y-102250000D01*
X216550000Y-88250000D02*
X215550000Y-88250000D01*
X216550000Y-101250000D02*
X216550000Y-102250000D01*
X202550000Y-102250000D02*
X202550000Y-101250000D01*
X203550000Y-88250000D02*
X202550000Y-88250000D01*
X202550000Y-102250000D02*
X203550000Y-102250000D01*
X202550000Y-89250000D02*
X202550000Y-88250000D01*
X216550000Y-69200000D02*
X216550000Y-70200000D01*
X215550000Y-83200000D02*
X216550000Y-83200000D01*
X216550000Y-69200000D02*
X215550000Y-69200000D01*
X216550000Y-82200000D02*
X216550000Y-83200000D01*
X202550000Y-83200000D02*
X202550000Y-82200000D01*
X203550000Y-69200000D02*
X202550000Y-69200000D01*
X202550000Y-83200000D02*
X203550000Y-83200000D01*
X202550000Y-70200000D02*
X202550000Y-69200000D01*
X216550000Y-50150000D02*
X216550000Y-51150000D01*
X215550000Y-64150000D02*
X216550000Y-64150000D01*
X216550000Y-50150000D02*
X215550000Y-50150000D01*
X216550000Y-63150000D02*
X216550000Y-64150000D01*
X202550000Y-64150000D02*
X202550000Y-63150000D01*
X203550000Y-50150000D02*
X202550000Y-50150000D01*
X202550000Y-64150000D02*
X203550000Y-64150000D01*
X202550000Y-51150000D02*
X202550000Y-50150000D01*
X197500000Y-145400000D02*
X197500000Y-146400000D01*
X196500000Y-159400000D02*
X197500000Y-159400000D01*
X197500000Y-145400000D02*
X196500000Y-145400000D01*
X197500000Y-158400000D02*
X197500000Y-159400000D01*
X183500000Y-159400000D02*
X183500000Y-158400000D01*
X184500000Y-145400000D02*
X183500000Y-145400000D01*
X183500000Y-159400000D02*
X184500000Y-159400000D01*
X183500000Y-146400000D02*
X183500000Y-145400000D01*
X197500000Y-126350000D02*
X197500000Y-127350000D01*
X196500000Y-140350000D02*
X197500000Y-140350000D01*
X197500000Y-126350000D02*
X196500000Y-126350000D01*
X197500000Y-139350000D02*
X197500000Y-140350000D01*
X183500000Y-140350000D02*
X183500000Y-139350000D01*
X184500000Y-126350000D02*
X183500000Y-126350000D01*
X183500000Y-140350000D02*
X184500000Y-140350000D01*
X183500000Y-127350000D02*
X183500000Y-126350000D01*
X197500000Y-107300000D02*
X197500000Y-108300000D01*
X196500000Y-121300000D02*
X197500000Y-121300000D01*
X197500000Y-107300000D02*
X196500000Y-107300000D01*
X197500000Y-120300000D02*
X197500000Y-121300000D01*
X183500000Y-121300000D02*
X183500000Y-120300000D01*
X184500000Y-107300000D02*
X183500000Y-107300000D01*
X183500000Y-121300000D02*
X184500000Y-121300000D01*
X183500000Y-108300000D02*
X183500000Y-107300000D01*
X197500000Y-88250000D02*
X197500000Y-89250000D01*
X196500000Y-102250000D02*
X197500000Y-102250000D01*
X197500000Y-88250000D02*
X196500000Y-88250000D01*
X197500000Y-101250000D02*
X197500000Y-102250000D01*
X183500000Y-102250000D02*
X183500000Y-101250000D01*
X184500000Y-88250000D02*
X183500000Y-88250000D01*
X183500000Y-102250000D02*
X184500000Y-102250000D01*
X183500000Y-89250000D02*
X183500000Y-88250000D01*
X197500000Y-69200000D02*
X197500000Y-70200000D01*
X196500000Y-83200000D02*
X197500000Y-83200000D01*
X197500000Y-69200000D02*
X196500000Y-69200000D01*
X197500000Y-82200000D02*
X197500000Y-83200000D01*
X183500000Y-83200000D02*
X183500000Y-82200000D01*
X184500000Y-69200000D02*
X183500000Y-69200000D01*
X183500000Y-83200000D02*
X184500000Y-83200000D01*
X183500000Y-70200000D02*
X183500000Y-69200000D01*
X197500000Y-50150000D02*
X197500000Y-51150000D01*
X196500000Y-64150000D02*
X197500000Y-64150000D01*
X197500000Y-50150000D02*
X196500000Y-50150000D01*
X197500000Y-63150000D02*
X197500000Y-64150000D01*
X183500000Y-64150000D02*
X183500000Y-63150000D01*
X184500000Y-50150000D02*
X183500000Y-50150000D01*
X183500000Y-64150000D02*
X184500000Y-64150000D01*
X183500000Y-51150000D02*
X183500000Y-50150000D01*
X178450000Y-126350000D02*
X178450000Y-127350000D01*
X177450000Y-140350000D02*
X178450000Y-140350000D01*
X178450000Y-126350000D02*
X177450000Y-126350000D01*
X178450000Y-139350000D02*
X178450000Y-140350000D01*
X164450000Y-140350000D02*
X164450000Y-139350000D01*
X165450000Y-126350000D02*
X164450000Y-126350000D01*
X164450000Y-140350000D02*
X165450000Y-140350000D01*
X164450000Y-127350000D02*
X164450000Y-126350000D01*
X178450000Y-107300000D02*
X178450000Y-108300000D01*
X177450000Y-121300000D02*
X178450000Y-121300000D01*
X178450000Y-107300000D02*
X177450000Y-107300000D01*
X178450000Y-120300000D02*
X178450000Y-121300000D01*
X164450000Y-121300000D02*
X164450000Y-120300000D01*
X165450000Y-107300000D02*
X164450000Y-107300000D01*
X164450000Y-121300000D02*
X165450000Y-121300000D01*
X164450000Y-108300000D02*
X164450000Y-107300000D01*
X178450000Y-88250000D02*
X178450000Y-89250000D01*
X177450000Y-102250000D02*
X178450000Y-102250000D01*
X178450000Y-88250000D02*
X177450000Y-88250000D01*
X178450000Y-101250000D02*
X178450000Y-102250000D01*
X164450000Y-102250000D02*
X164450000Y-101250000D01*
X165450000Y-88250000D02*
X164450000Y-88250000D01*
X164450000Y-102250000D02*
X165450000Y-102250000D01*
X164450000Y-89250000D02*
X164450000Y-88250000D01*
X178450000Y-69200000D02*
X178450000Y-70200000D01*
X177450000Y-83200000D02*
X178450000Y-83200000D01*
X178450000Y-69200000D02*
X177450000Y-69200000D01*
X178450000Y-82200000D02*
X178450000Y-83200000D01*
X164450000Y-83200000D02*
X164450000Y-82200000D01*
X165450000Y-69200000D02*
X164450000Y-69200000D01*
X164450000Y-83200000D02*
X165450000Y-83200000D01*
X164450000Y-70200000D02*
X164450000Y-69200000D01*
X178450000Y-50150000D02*
X178450000Y-51150000D01*
X177450000Y-64150000D02*
X178450000Y-64150000D01*
X178450000Y-50150000D02*
X177450000Y-50150000D01*
X178450000Y-63150000D02*
X178450000Y-64150000D01*
X164450000Y-64150000D02*
X164450000Y-63150000D01*
X165450000Y-50150000D02*
X164450000Y-50150000D01*
X164450000Y-64150000D02*
X165450000Y-64150000D01*
X164450000Y-51150000D02*
X164450000Y-50150000D01*
X145400000Y-159400000D02*
X145400000Y-158400000D01*
X146400000Y-145400000D02*
X145400000Y-145400000D01*
X145400000Y-159400000D02*
X146400000Y-159400000D01*
X145400000Y-146400000D02*
X145400000Y-145400000D01*
X159400000Y-145400000D02*
X159400000Y-146400000D01*
X158400000Y-159400000D02*
X159400000Y-159400000D01*
X159400000Y-145400000D02*
X158400000Y-145400000D01*
X159400000Y-158400000D02*
X159400000Y-159400000D01*
X159400000Y-126350000D02*
X159400000Y-127350000D01*
X158400000Y-140350000D02*
X159400000Y-140350000D01*
X159400000Y-126350000D02*
X158400000Y-126350000D01*
X159400000Y-139350000D02*
X159400000Y-140350000D01*
X145400000Y-140350000D02*
X145400000Y-139350000D01*
X146400000Y-126350000D02*
X145400000Y-126350000D01*
X145400000Y-140350000D02*
X146400000Y-140350000D01*
X145400000Y-127350000D02*
X145400000Y-126350000D01*
X159400000Y-107300000D02*
X159400000Y-108300000D01*
X158400000Y-121300000D02*
X159400000Y-121300000D01*
X159400000Y-107300000D02*
X158400000Y-107300000D01*
X159400000Y-120300000D02*
X159400000Y-121300000D01*
X145400000Y-121300000D02*
X145400000Y-120300000D01*
X146400000Y-107300000D02*
X145400000Y-107300000D01*
X145400000Y-121300000D02*
X146400000Y-121300000D01*
X145400000Y-108300000D02*
X145400000Y-107300000D01*
X159400000Y-88250000D02*
X159400000Y-89250000D01*
X158400000Y-102250000D02*
X159400000Y-102250000D01*
X159400000Y-88250000D02*
X158400000Y-88250000D01*
X159400000Y-101250000D02*
X159400000Y-102250000D01*
X145400000Y-102250000D02*
X145400000Y-101250000D01*
X146400000Y-88250000D02*
X145400000Y-88250000D01*
X145400000Y-102250000D02*
X146400000Y-102250000D01*
X145400000Y-89250000D02*
X145400000Y-88250000D01*
X159400000Y-69200000D02*
X159400000Y-70200000D01*
X158400000Y-83200000D02*
X159400000Y-83200000D01*
X159400000Y-69200000D02*
X158400000Y-69200000D01*
X159400000Y-82200000D02*
X159400000Y-83200000D01*
X145400000Y-83200000D02*
X145400000Y-82200000D01*
X146400000Y-69200000D02*
X145400000Y-69200000D01*
X145400000Y-83200000D02*
X146400000Y-83200000D01*
X145400000Y-70200000D02*
X145400000Y-69200000D01*
X159400000Y-50150000D02*
X159400000Y-51150000D01*
X158400000Y-64150000D02*
X159400000Y-64150000D01*
X159400000Y-50150000D02*
X158400000Y-50150000D01*
X159400000Y-63150000D02*
X159400000Y-64150000D01*
X145400000Y-64150000D02*
X145400000Y-63150000D01*
X146400000Y-50150000D02*
X145400000Y-50150000D01*
X145400000Y-64150000D02*
X146400000Y-64150000D01*
X145400000Y-51150000D02*
X145400000Y-50150000D01*
X140350000Y-126350000D02*
X140350000Y-127350000D01*
X139350000Y-140350000D02*
X140350000Y-140350000D01*
X140350000Y-126350000D02*
X139350000Y-126350000D01*
X140350000Y-139350000D02*
X140350000Y-140350000D01*
X126350000Y-140350000D02*
X126350000Y-139350000D01*
X127350000Y-126350000D02*
X126350000Y-126350000D01*
X126350000Y-140350000D02*
X127350000Y-140350000D01*
X126350000Y-127350000D02*
X126350000Y-126350000D01*
X140350000Y-107300000D02*
X140350000Y-108300000D01*
X139350000Y-121300000D02*
X140350000Y-121300000D01*
X140350000Y-107300000D02*
X139350000Y-107300000D01*
X140350000Y-120300000D02*
X140350000Y-121300000D01*
X126350000Y-121300000D02*
X126350000Y-120300000D01*
X127350000Y-107300000D02*
X126350000Y-107300000D01*
X126350000Y-121300000D02*
X127350000Y-121300000D01*
X126350000Y-108300000D02*
X126350000Y-107300000D01*
X140350000Y-88250000D02*
X140350000Y-89250000D01*
X139350000Y-102250000D02*
X140350000Y-102250000D01*
X140350000Y-88250000D02*
X139350000Y-88250000D01*
X140350000Y-101250000D02*
X140350000Y-102250000D01*
X126350000Y-102250000D02*
X126350000Y-101250000D01*
X127350000Y-88250000D02*
X126350000Y-88250000D01*
X126350000Y-102250000D02*
X127350000Y-102250000D01*
X126350000Y-89250000D02*
X126350000Y-88250000D01*
X140350000Y-69200000D02*
X140350000Y-70200000D01*
X139350000Y-83200000D02*
X140350000Y-83200000D01*
X140350000Y-69200000D02*
X139350000Y-69200000D01*
X140350000Y-82200000D02*
X140350000Y-83200000D01*
X126350000Y-83200000D02*
X126350000Y-82200000D01*
X127350000Y-69200000D02*
X126350000Y-69200000D01*
X126350000Y-83200000D02*
X127350000Y-83200000D01*
X126350000Y-70200000D02*
X126350000Y-69200000D01*
X140350000Y-50150000D02*
X140350000Y-51150000D01*
X139350000Y-64150000D02*
X140350000Y-64150000D01*
X140350000Y-50150000D02*
X139350000Y-50150000D01*
X140350000Y-63150000D02*
X140350000Y-64150000D01*
X126350000Y-64150000D02*
X126350000Y-63150000D01*
X127350000Y-50150000D02*
X126350000Y-50150000D01*
X126350000Y-64150000D02*
X127350000Y-64150000D01*
X126350000Y-51150000D02*
X126350000Y-50150000D01*
X107300000Y-159400000D02*
X107300000Y-158400000D01*
X108300000Y-145400000D02*
X107300000Y-145400000D01*
X107300000Y-159400000D02*
X108300000Y-159400000D01*
X107300000Y-146400000D02*
X107300000Y-145400000D01*
X121300000Y-145400000D02*
X121300000Y-146400000D01*
X120300000Y-159400000D02*
X121300000Y-159400000D01*
X121300000Y-145400000D02*
X120300000Y-145400000D01*
X121300000Y-158400000D02*
X121300000Y-159400000D01*
X121300000Y-126350000D02*
X121300000Y-127350000D01*
X120300000Y-140350000D02*
X121300000Y-140350000D01*
X121300000Y-126350000D02*
X120300000Y-126350000D01*
X121300000Y-139350000D02*
X121300000Y-140350000D01*
X107300000Y-140350000D02*
X107300000Y-139350000D01*
X108300000Y-126350000D02*
X107300000Y-126350000D01*
X107300000Y-140350000D02*
X108300000Y-140350000D01*
X107300000Y-127350000D02*
X107300000Y-126350000D01*
X121300000Y-107300000D02*
X121300000Y-108300000D01*
X120300000Y-121300000D02*
X121300000Y-121300000D01*
X121300000Y-107300000D02*
X120300000Y-107300000D01*
X121300000Y-120300000D02*
X121300000Y-121300000D01*
X107300000Y-121300000D02*
X107300000Y-120300000D01*
X108300000Y-107300000D02*
X107300000Y-107300000D01*
X107300000Y-121300000D02*
X108300000Y-121300000D01*
X107300000Y-108300000D02*
X107300000Y-107300000D01*
X121300000Y-88250000D02*
X121300000Y-89250000D01*
X120300000Y-102250000D02*
X121300000Y-102250000D01*
X121300000Y-88250000D02*
X120300000Y-88250000D01*
X121300000Y-101250000D02*
X121300000Y-102250000D01*
X107300000Y-102250000D02*
X107300000Y-101250000D01*
X108300000Y-88250000D02*
X107300000Y-88250000D01*
X107300000Y-102250000D02*
X108300000Y-102250000D01*
X107300000Y-89250000D02*
X107300000Y-88250000D01*
X121300000Y-50150000D02*
X121300000Y-51150000D01*
X120300000Y-64150000D02*
X121300000Y-64150000D01*
X121300000Y-50150000D02*
X120300000Y-50150000D01*
X121300000Y-63150000D02*
X121300000Y-64150000D01*
X107300000Y-64150000D02*
X107300000Y-63150000D01*
X108300000Y-50150000D02*
X107300000Y-50150000D01*
X107300000Y-64150000D02*
X108300000Y-64150000D01*
X107300000Y-51150000D02*
X107300000Y-50150000D01*
X102250000Y-145400000D02*
X102250000Y-146400000D01*
X101250000Y-159400000D02*
X102250000Y-159400000D01*
X102250000Y-145400000D02*
X101250000Y-145400000D01*
X102250000Y-158400000D02*
X102250000Y-159400000D01*
X88250000Y-159400000D02*
X88250000Y-158400000D01*
X89250000Y-145400000D02*
X88250000Y-145400000D01*
X88250000Y-159400000D02*
X89250000Y-159400000D01*
X88250000Y-146400000D02*
X88250000Y-145400000D01*
X102250000Y-126350000D02*
X102250000Y-127350000D01*
X101250000Y-140350000D02*
X102250000Y-140350000D01*
X102250000Y-126350000D02*
X101250000Y-126350000D01*
X102250000Y-139350000D02*
X102250000Y-140350000D01*
X88250000Y-140350000D02*
X88250000Y-139350000D01*
X89250000Y-126350000D02*
X88250000Y-126350000D01*
X88250000Y-140350000D02*
X89250000Y-140350000D01*
X88250000Y-127350000D02*
X88250000Y-126350000D01*
X102250000Y-107300000D02*
X102250000Y-108300000D01*
X101250000Y-121300000D02*
X102250000Y-121300000D01*
X102250000Y-107300000D02*
X101250000Y-107300000D01*
X102250000Y-120300000D02*
X102250000Y-121300000D01*
X88250000Y-121300000D02*
X88250000Y-120300000D01*
X89250000Y-107300000D02*
X88250000Y-107300000D01*
X88250000Y-121300000D02*
X89250000Y-121300000D01*
X88250000Y-108300000D02*
X88250000Y-107300000D01*
X102250000Y-88250000D02*
X102250000Y-89250000D01*
X101250000Y-102250000D02*
X102250000Y-102250000D01*
X102250000Y-88250000D02*
X101250000Y-88250000D01*
X102250000Y-101250000D02*
X102250000Y-102250000D01*
X88250000Y-102250000D02*
X88250000Y-101250000D01*
X89250000Y-88250000D02*
X88250000Y-88250000D01*
X88250000Y-102250000D02*
X89250000Y-102250000D01*
X88250000Y-89250000D02*
X88250000Y-88250000D01*
X102250000Y-50150000D02*
X102250000Y-51150000D01*
X101250000Y-64150000D02*
X102250000Y-64150000D01*
X102250000Y-50150000D02*
X101250000Y-50150000D01*
X102250000Y-63150000D02*
X102250000Y-64150000D01*
X88250000Y-64150000D02*
X88250000Y-63150000D01*
X89250000Y-50150000D02*
X88250000Y-50150000D01*
X88250000Y-64150000D02*
X89250000Y-64150000D01*
X88250000Y-51150000D02*
X88250000Y-50150000D01*
X83200000Y-145400000D02*
X83200000Y-146400000D01*
X82200000Y-159400000D02*
X83200000Y-159400000D01*
X83200000Y-145400000D02*
X82200000Y-145400000D01*
X83200000Y-158400000D02*
X83200000Y-159400000D01*
X69200000Y-159400000D02*
X69200000Y-158400000D01*
X70200000Y-145400000D02*
X69200000Y-145400000D01*
X69200000Y-159400000D02*
X70200000Y-159400000D01*
X69200000Y-146400000D02*
X69200000Y-145400000D01*
X83200000Y-126350000D02*
X83200000Y-127350000D01*
X82200000Y-140350000D02*
X83200000Y-140350000D01*
X83200000Y-126350000D02*
X82200000Y-126350000D01*
X83200000Y-139350000D02*
X83200000Y-140350000D01*
X69200000Y-140350000D02*
X69200000Y-139350000D01*
X70200000Y-126350000D02*
X69200000Y-126350000D01*
X69200000Y-140350000D02*
X70200000Y-140350000D01*
X69200000Y-127350000D02*
X69200000Y-126350000D01*
X83200000Y-107300000D02*
X83200000Y-108300000D01*
X82200000Y-121300000D02*
X83200000Y-121300000D01*
X83200000Y-107300000D02*
X82200000Y-107300000D01*
X83200000Y-120300000D02*
X83200000Y-121300000D01*
X69200000Y-121300000D02*
X69200000Y-120300000D01*
X70200000Y-107300000D02*
X69200000Y-107300000D01*
X69200000Y-121300000D02*
X70200000Y-121300000D01*
X69200000Y-108300000D02*
X69200000Y-107300000D01*
X83200000Y-88250000D02*
X83200000Y-89250000D01*
X82200000Y-102250000D02*
X83200000Y-102250000D01*
X83200000Y-88250000D02*
X82200000Y-88250000D01*
X83200000Y-101250000D02*
X83200000Y-102250000D01*
X69200000Y-102250000D02*
X69200000Y-101250000D01*
X70200000Y-88250000D02*
X69200000Y-88250000D01*
X69200000Y-102250000D02*
X70200000Y-102250000D01*
X69200000Y-89250000D02*
X69200000Y-88250000D01*
X83200000Y-69200000D02*
X83200000Y-70200000D01*
X82200000Y-83200000D02*
X83200000Y-83200000D01*
X83200000Y-69200000D02*
X82200000Y-69200000D01*
X83200000Y-82200000D02*
X83200000Y-83200000D01*
X69200000Y-83200000D02*
X69200000Y-82200000D01*
X70200000Y-69200000D02*
X69200000Y-69200000D01*
X69200000Y-83200000D02*
X70200000Y-83200000D01*
X69200000Y-70200000D02*
X69200000Y-69200000D01*
X83200000Y-50150000D02*
X83200000Y-51150000D01*
X82200000Y-64150000D02*
X83200000Y-64150000D01*
X83200000Y-50150000D02*
X82200000Y-50150000D01*
X83200000Y-63150000D02*
X83200000Y-64150000D01*
X69200000Y-64150000D02*
X69200000Y-63150000D01*
X70200000Y-50150000D02*
X69200000Y-50150000D01*
X69200000Y-64150000D02*
X70200000Y-64150000D01*
X69200000Y-51150000D02*
X69200000Y-50150000D01*
X64150000Y-145400000D02*
X64150000Y-146400000D01*
X63150000Y-159400000D02*
X64150000Y-159400000D01*
X64150000Y-145400000D02*
X63150000Y-145400000D01*
X64150000Y-158400000D02*
X64150000Y-159400000D01*
X50150000Y-159400000D02*
X50150000Y-158400000D01*
X51150000Y-145400000D02*
X50150000Y-145400000D01*
X50150000Y-159400000D02*
X51150000Y-159400000D01*
X50150000Y-146400000D02*
X50150000Y-145400000D01*
X64150000Y-126350000D02*
X64150000Y-127350000D01*
X63150000Y-140350000D02*
X64150000Y-140350000D01*
X64150000Y-126350000D02*
X63150000Y-126350000D01*
X64150000Y-139350000D02*
X64150000Y-140350000D01*
X50150000Y-140350000D02*
X50150000Y-139350000D01*
X51150000Y-126350000D02*
X50150000Y-126350000D01*
X50150000Y-140350000D02*
X51150000Y-140350000D01*
X50150000Y-127350000D02*
X50150000Y-126350000D01*
X64150000Y-107300000D02*
X64150000Y-108300000D01*
X63150000Y-121300000D02*
X64150000Y-121300000D01*
X64150000Y-107300000D02*
X63150000Y-107300000D01*
X64150000Y-120300000D02*
X64150000Y-121300000D01*
X50150000Y-121300000D02*
X50150000Y-120300000D01*
X51150000Y-107300000D02*
X50150000Y-107300000D01*
X50150000Y-121300000D02*
X51150000Y-121300000D01*
X50150000Y-108300000D02*
X50150000Y-107300000D01*
X64150000Y-88250000D02*
X64150000Y-89250000D01*
X63150000Y-102250000D02*
X64150000Y-102250000D01*
X64150000Y-88250000D02*
X63150000Y-88250000D01*
X64150000Y-101250000D02*
X64150000Y-102250000D01*
X50150000Y-102250000D02*
X50150000Y-101250000D01*
X51150000Y-88250000D02*
X50150000Y-88250000D01*
X50150000Y-102250000D02*
X51150000Y-102250000D01*
X50150000Y-89250000D02*
X50150000Y-88250000D01*
X64150000Y-69200000D02*
X64150000Y-70200000D01*
X63150000Y-83200000D02*
X64150000Y-83200000D01*
X64150000Y-69200000D02*
X63150000Y-69200000D01*
X64150000Y-82200000D02*
X64150000Y-83200000D01*
X50150000Y-83200000D02*
X50150000Y-82200000D01*
X51150000Y-69200000D02*
X50150000Y-69200000D01*
X50150000Y-83200000D02*
X51150000Y-83200000D01*
X50150000Y-70200000D02*
X50150000Y-69200000D01*
X64150000Y-50150000D02*
X64150000Y-51150000D01*
X63150000Y-64150000D02*
X64150000Y-64150000D01*
X64150000Y-50150000D02*
X63150000Y-50150000D01*
X64150000Y-63150000D02*
X64150000Y-64150000D01*
X50150000Y-64150000D02*
X50150000Y-63150000D01*
X51150000Y-50150000D02*
X50150000Y-50150000D01*
X50150000Y-64150000D02*
X51150000Y-64150000D01*
X50150000Y-51150000D02*
X50150000Y-50150000D01*
X45100000Y-145400000D02*
X45100000Y-146400000D01*
X44100000Y-159400000D02*
X45100000Y-159400000D01*
X45100000Y-145400000D02*
X44100000Y-145400000D01*
X45100000Y-158400000D02*
X45100000Y-159400000D01*
X31100000Y-159400000D02*
X31100000Y-158400000D01*
X32100000Y-145400000D02*
X31100000Y-145400000D01*
X31100000Y-159400000D02*
X32100000Y-159400000D01*
X31100000Y-146400000D02*
X31100000Y-145400000D01*
X45100000Y-126350000D02*
X45100000Y-127350000D01*
X44100000Y-140350000D02*
X45100000Y-140350000D01*
X45100000Y-126350000D02*
X44100000Y-126350000D01*
X45100000Y-139350000D02*
X45100000Y-140350000D01*
X31100000Y-140350000D02*
X31100000Y-139350000D01*
X32100000Y-126350000D02*
X31100000Y-126350000D01*
X31100000Y-140350000D02*
X32100000Y-140350000D01*
X31100000Y-127350000D02*
X31100000Y-126350000D01*
X45100000Y-107300000D02*
X45100000Y-108300000D01*
X44100000Y-121300000D02*
X45100000Y-121300000D01*
X45100000Y-107300000D02*
X44100000Y-107300000D01*
X45100000Y-120300000D02*
X45100000Y-121300000D01*
X31100000Y-121300000D02*
X31100000Y-120300000D01*
X32100000Y-107300000D02*
X31100000Y-107300000D01*
X31100000Y-121300000D02*
X32100000Y-121300000D01*
X31100000Y-108300000D02*
X31100000Y-107300000D01*
X45100000Y-88250000D02*
X45100000Y-89250000D01*
X44100000Y-102250000D02*
X45100000Y-102250000D01*
X45100000Y-88250000D02*
X44100000Y-88250000D01*
X45100000Y-101250000D02*
X45100000Y-102250000D01*
X31100000Y-102250000D02*
X31100000Y-101250000D01*
X32100000Y-88250000D02*
X31100000Y-88250000D01*
X31100000Y-102250000D02*
X32100000Y-102250000D01*
X31100000Y-89250000D02*
X31100000Y-88250000D01*
X45100000Y-69200000D02*
X45100000Y-70200000D01*
X44100000Y-83200000D02*
X45100000Y-83200000D01*
X45100000Y-69200000D02*
X44100000Y-69200000D01*
X45100000Y-82200000D02*
X45100000Y-83200000D01*
X31100000Y-83200000D02*
X31100000Y-82200000D01*
X32100000Y-69200000D02*
X31100000Y-69200000D01*
X31100000Y-83200000D02*
X32100000Y-83200000D01*
X31100000Y-70200000D02*
X31100000Y-69200000D01*
X45100000Y-50150000D02*
X45100000Y-51150000D01*
X44100000Y-64150000D02*
X45100000Y-64150000D01*
X45100000Y-50150000D02*
X44100000Y-50150000D01*
X45100000Y-63150000D02*
X45100000Y-64150000D01*
X31100000Y-64150000D02*
X31100000Y-63150000D01*
X32100000Y-50150000D02*
X31100000Y-50150000D01*
X31100000Y-64150000D02*
X32100000Y-64150000D01*
X31100000Y-51150000D02*
X31100000Y-50150000D01*
M02*
