M48
; DRILL file {KiCad (5.1.5)-3} date 20.02.2020 07:19:21
; FORMAT={3:3/ absolute / metric / suppress leading zeros}
; #@! TF.CreationDate,2020-02-20T07:19:21+01:00
; #@! TF.GenerationSoftware,Kicad,Pcbnew,(5.1.5)-3
; #@! TF.FileFunction,Plated,1,2,PTH
FMAT,2
METRIC,TZ
T1C0.400
T2C0.600
%
G90
G05
T1
X31750Y-123825
X33338Y-105569
X34131Y-145256
X42863Y-64294
X46250Y-52500
X46250Y-71250
X46250Y-90250
X46250Y-109250
X46250Y-128250
X46250Y-147250
X65500Y-52500
X65500Y-71000
X65500Y-90000
X65500Y-109250
X65500Y-128250
X65500Y-147250
X84500Y-52500
X84500Y-71250
X84500Y-90250
X84500Y-109250
X84500Y-128250
X84500Y-147250
X103750Y-52500
X103750Y-71250
X103750Y-90250
X103750Y-109250
X103750Y-128250
X103750Y-147500
X103981Y-153194
X119856Y-64294
X122500Y-52455
X122500Y-71250
X122500Y-90250
X122500Y-109250
X122500Y-128250
X132500Y-147500
X141500Y-52500
X141500Y-71250
X141500Y-90250
X141500Y-109250
X141500Y-128250
X160750Y-52500
X160750Y-71250
X160750Y-90250
X160750Y-109250
X160750Y-128250
X160750Y-147250
X167481Y-123031
X179750Y-52500
X179750Y-71250
X179750Y-90250
X179750Y-109250
X179750Y-128250
X190000Y-147500
X190500Y-154781
X195263Y-64294
X198750Y-52500
X198750Y-71250
X198750Y-90250
X198750Y-109250
X198750Y-128250
X213519Y-141288
X214650Y-36025
X217750Y-52500
X217750Y-71250
X217750Y-90250
X217750Y-109250
X217750Y-128500
X217750Y-147500
X219869Y-46038
X219869Y-65881
X219869Y-105569
X219869Y-142875
X227400Y-39000
X227400Y-40200
X228800Y-40400
X229540Y-27460
X230200Y-41000
X231190Y-37450
X231200Y-28200
X232000Y-41400
X232600Y-29000
X233600Y-29800
X235200Y-31600
X235800Y-41800
X236750Y-52500
X236750Y-71250
X236750Y-90250
X236750Y-109250
X236750Y-128500
X236750Y-147500
X237400Y-42800
X237600Y-30800
X237800Y-32000
X238000Y-33200
X238960Y-58340
X241070Y-36280
X242500Y-44550
X242600Y-28600
X244870Y-32670
X245750Y-28250
X246856Y-40481
X249550Y-38200
X250600Y-36800
X251230Y-30190
X253960Y-42920
X254825Y-34650
X255750Y-52500
X255750Y-71250
X255750Y-90250
X255750Y-109000
X255750Y-128250
X255750Y-147500
X256688Y-38738
X257475Y-27675
X257475Y-29450
X259475Y-45400
X260200Y-64850
X260250Y-38150
X261960Y-31220
X263525Y-145256
X264490Y-33910
X265906Y-123825
X266220Y-26410
X268375Y-42650
X269875Y-60325
X270570Y-35170
X271370Y-39590
X271463Y-103188
X272256Y-105569
X273050Y-142875
X274475Y-34775
X274500Y-33725
X275000Y-52500
X275000Y-71250
X275000Y-90250
X275000Y-109250
X275000Y-128250
X275000Y-147500
X276940Y-46760
X277040Y-43250
X277700Y-26450
T2
G00X274220Y-30180
M15
G01X273120Y-30180
M16
G05
G00X274220Y-38820
M15
G01X273120Y-38820
M16
G05
G00X278150Y-30180
M15
G01X277550Y-30180
M16
G05
G00X278150Y-38820
M15
G01X277550Y-38820
M16
G05
T0
M30
