M48
; DRILL file {KiCad (5.1.5)-3} date 08.03.2020 23:01:57
; FORMAT={3:3/ absolute / metric / suppress leading zeros}
; #@! TF.CreationDate,2020-03-08T23:01:57+01:00
; #@! TF.GenerationSoftware,Kicad,Pcbnew,(5.1.5)-3
; #@! TF.FileFunction,Plated,1,2,PTH
FMAT,2
METRIC,TZ
T1C0.400
T2C0.600
%
G90
G05
T1
X46325Y-52075
X46330Y-71120
X46335Y-90175
X46340Y-109235
X46345Y-128255
X46350Y-147300
X59025Y-141125
X65300Y-52075
X65300Y-71125
X65300Y-90175
X65300Y-109225
X65300Y-128275
X65300Y-147325
X76000Y-65525
X77475Y-141050
X84375Y-109225
X84400Y-52075
X84400Y-71100
X84400Y-90175
X84400Y-128200
X84400Y-147325
X91625Y-59050
X97875Y-140975
X103475Y-52075
X103475Y-71125
X103475Y-90150
X103475Y-109225
X103475Y-128225
X103475Y-147325
X113800Y-63225
X115425Y-140975
X122425Y-71100
X122450Y-52075
X122450Y-90150
X122450Y-109250
X122450Y-128325
X132225Y-147325
X134025Y-141125
X135000Y-65450
X135825Y-63150
X141625Y-71125
X141625Y-109225
X141625Y-128275
X141637Y-90237
X141650Y-52075
X152850Y-63150
X153975Y-141125
X160650Y-52050
X160650Y-71100
X160650Y-90125
X160650Y-109175
X160650Y-128275
X160650Y-147325
X170625Y-63225
X173025Y-141050
X179625Y-71125
X179625Y-90175
X179650Y-52075
X179650Y-109225
X179650Y-128275
X181650Y-65300
X189325Y-147325
X190500Y-63750
X191400Y-141050
X194175Y-149600
X198875Y-52075
X198875Y-71075
X198875Y-90175
X198875Y-109200
X198875Y-128275
X209475Y-141125
X214250Y-38725
X217950Y-52075
X217950Y-71125
X217950Y-90175
X217950Y-109225
X217950Y-128275
X217950Y-147325
X219975Y-57875
X228525Y-141125
X232375Y-37775
X233875Y-36825
X233925Y-31975
X234400Y-29000
X235225Y-32875
X235300Y-36000
X236025Y-33875
X236225Y-35125
X236850Y-109225
X236900Y-52075
X236900Y-71100
X236900Y-90175
X236900Y-128275
X236900Y-147325
X237825Y-105375
X237825Y-142000
X237900Y-61000
X237900Y-66875
X239000Y-57800
X239100Y-40575
X240050Y-42000
X241375Y-43100
X243500Y-43175
X244525Y-43625
X245000Y-26275
X245607Y-42557
X247425Y-26625
X249300Y-33000
X249800Y-42325
X250625Y-140975
X251100Y-42400
X254600Y-29600
X254925Y-35725
X255450Y-41275
X255500Y-30700
X255950Y-52075
X255950Y-71125
X255950Y-90175
X255950Y-109225
X255950Y-128275
X255950Y-147325
X257025Y-44450
X257600Y-30000
X258125Y-58400
X258700Y-143225
X260350Y-36512
X262075Y-139550
X263200Y-63300
X264150Y-141125
X265925Y-144775
X266500Y-29700
X268275Y-32425
X269200Y-35250
X270425Y-32600
X270450Y-37925
X274950Y-52075
X274950Y-71125
X274950Y-90175
X274950Y-109225
X274950Y-128275
X274950Y-147325
X275700Y-105200
X276400Y-139775
T2
G00X274295Y-31180
M15
G01X273195Y-31180
M16
G05
G00X274295Y-39820
M15
G01X273195Y-39820
M16
G05
G00X278225Y-31180
M15
G01X277625Y-31180
M16
G05
G00X278225Y-39820
M15
G01X277625Y-39820
M16
G05
T0
M30
