G04 #@! TF.GenerationSoftware,KiCad,Pcbnew,(5.1.4)-1*
G04 #@! TF.CreationDate,2021-02-14T12:55:50+01:00*
G04 #@! TF.ProjectId,index-tab,696e6465-782d-4746-9162-2e6b69636164,5*
G04 #@! TF.SameCoordinates,Original*
G04 #@! TF.FileFunction,Legend,Bot*
G04 #@! TF.FilePolarity,Positive*
%FSLAX46Y46*%
G04 Gerber Fmt 4.6, Leading zero omitted, Abs format (unit mm)*
G04 Created by KiCad (PCBNEW (5.1.4)-1) date 2021-02-14 12:55:50*
%MOMM*%
%LPD*%
G04 APERTURE LIST*
%ADD10C,0.120000*%
%ADD11C,0.150000*%
G04 APERTURE END LIST*
D10*
X145375000Y-104775000D02*
G75*
G03X145375000Y-104775000I-2500000J0D01*
G01*
X183475000Y-66675000D02*
G75*
G03X183475000Y-66675000I-2500000J0D01*
G01*
X183475000Y-142875000D02*
G75*
G03X183475000Y-142875000I-2500000J0D01*
G01*
X107275000Y-142875000D02*
G75*
G03X107275000Y-142875000I-2500000J0D01*
G01*
X107275000Y-66675000D02*
G75*
G03X107275000Y-66675000I-2500000J0D01*
G01*
X259675000Y-142875000D02*
G75*
G03X259675000Y-142875000I-2500000J0D01*
G01*
X259675000Y-66675000D02*
G75*
G03X259675000Y-66675000I-2500000J0D01*
G01*
X50125000Y-104775000D02*
G75*
G03X50125000Y-104775000I-2500000J0D01*
G01*
X50125000Y-142875000D02*
G75*
G03X50125000Y-142875000I-2500000J0D01*
G01*
X50125000Y-66675000D02*
G75*
G03X50125000Y-66675000I-2500000J0D01*
G01*
X210759488Y-36000170D02*
G75*
G02X210900000Y-35700000I390512J170D01*
G01*
X221623712Y-25170748D02*
G75*
G02X222000000Y-25000000I376288J-329252D01*
G01*
X279000000Y-164500000D02*
G75*
G02X278500000Y-165000000I-500000J0D01*
G01*
X25500000Y-165000000D02*
G75*
G02X25000000Y-164500000I0J500000D01*
G01*
X25000000Y-44500000D02*
G75*
G02X25500000Y-44000000I500000J0D01*
G01*
X210750000Y-43500000D02*
G75*
G02X210250000Y-44000000I-500000J0D01*
G01*
X278000000Y-25000000D02*
G75*
G02X279000000Y-26000000I0J-1000000D01*
G01*
X210759488Y-36000170D02*
X210750000Y-43500000D01*
X210900000Y-35700000D02*
X221623712Y-25170748D01*
X278000000Y-25000000D02*
X222000000Y-25000000D01*
X25000000Y-44500000D02*
X25000000Y-164500000D01*
X279000000Y-164500000D02*
X279000000Y-26000000D01*
X25500000Y-165000000D02*
X278500000Y-165000000D01*
X25500000Y-44000000D02*
X210250000Y-44000000D01*
X265660000Y-25715000D02*
X269540000Y-25715000D01*
X270710000Y-30185000D02*
X269660000Y-30185000D01*
X270710000Y-27685000D02*
X270710000Y-30185000D01*
X265540000Y-30185000D02*
X265540000Y-31175000D01*
X264490000Y-30185000D02*
X265540000Y-30185000D01*
X264490000Y-27685000D02*
X264490000Y-30185000D01*
X36510000Y-62722500D02*
X36510000Y-63872500D01*
X29210000Y-62722500D02*
X36510000Y-62722500D01*
X29210000Y-68222500D02*
X36510000Y-68222500D01*
X247500000Y-46900000D02*
X247350000Y-46900000D01*
X247500000Y-44500000D02*
X247350000Y-44500000D01*
X244950000Y-44500000D02*
X244900000Y-44500000D01*
X243900000Y-44500000D02*
X244050000Y-44500000D01*
X243900000Y-46900000D02*
X244050000Y-46900000D01*
X243700000Y-44900000D02*
X243700000Y-44500000D01*
X243900000Y-44900000D02*
X243900000Y-44500000D01*
X247500000Y-44900000D02*
X247500000Y-44500000D01*
X243700000Y-46900000D02*
X243700000Y-44900000D01*
X244950000Y-44500000D02*
X244950000Y-44100000D01*
X243900000Y-44900000D02*
X243900000Y-46900000D01*
X247500000Y-46900000D02*
X247500000Y-44900000D01*
X266300000Y-33890000D02*
X268750000Y-33890000D01*
X268100000Y-37110000D02*
X266300000Y-37110000D01*
X218222392Y-33175634D02*
X217324366Y-32277608D01*
X216520621Y-33180348D02*
X217373864Y-32327106D01*
X216605474Y-33265201D02*
X217458717Y-32411958D01*
X216690327Y-33350054D02*
X217543569Y-32496811D01*
X216775180Y-33434906D02*
X217628422Y-32581664D01*
X216860033Y-33519759D02*
X217713275Y-32666517D01*
X216944885Y-33604612D02*
X217798128Y-32751370D01*
X217029738Y-33689465D02*
X217882981Y-32836222D01*
X217114591Y-33774318D02*
X217967834Y-32921075D01*
X217199444Y-33859170D02*
X218052686Y-33005928D01*
X217284297Y-33944023D02*
X218137539Y-33090781D01*
X219928876Y-31469150D02*
X217369150Y-34028876D01*
X219030850Y-30571124D02*
X219928876Y-31469150D01*
X216471124Y-33130850D02*
X219030850Y-30571124D01*
X217369150Y-34028876D02*
X216471124Y-33130850D01*
X217280761Y-36542641D02*
X216302833Y-35564712D01*
X217280761Y-36542641D02*
X218258690Y-35564712D01*
X220045549Y-29323080D02*
X219119239Y-28396771D01*
X222103229Y-31380761D02*
X221176920Y-30454451D01*
X215223080Y-34145549D02*
X214296771Y-33219239D01*
X217280761Y-36203229D02*
X216354451Y-35276920D01*
X214296771Y-33219239D02*
X219119239Y-28396771D01*
X217280761Y-36203229D02*
X222103229Y-31380761D01*
X236862221Y-30190000D02*
X237187779Y-30190000D01*
X236862221Y-31210000D02*
X237187779Y-31210000D01*
X250990000Y-46175280D02*
X250990000Y-45849722D01*
X252010000Y-46175280D02*
X252010000Y-45849722D01*
X262737221Y-34040000D02*
X263062779Y-34040000D01*
X262737221Y-35060000D02*
X263062779Y-35060000D01*
X262737221Y-35940000D02*
X263062779Y-35940000D01*
X262737221Y-36960000D02*
X263062779Y-36960000D01*
X274662221Y-28365000D02*
X274987779Y-28365000D01*
X274662221Y-29385000D02*
X274987779Y-29385000D01*
X274987779Y-42860000D02*
X274662221Y-42860000D01*
X274987779Y-41840000D02*
X274662221Y-41840000D01*
X263410000Y-31537221D02*
X263410000Y-31862779D01*
X262390000Y-31537221D02*
X262390000Y-31862779D01*
X256575279Y-35210000D02*
X256249721Y-35210000D01*
X256575279Y-34190000D02*
X256249721Y-34190000D01*
X256690000Y-30875279D02*
X256690000Y-30549721D01*
X257710000Y-30875279D02*
X257710000Y-30549721D01*
X252024721Y-26190000D02*
X252350279Y-26190000D01*
X252024721Y-27210000D02*
X252350279Y-27210000D01*
X250310000Y-47424722D02*
X250310000Y-47750280D01*
X249290000Y-47424722D02*
X249290000Y-47750280D01*
X242775279Y-27210000D02*
X242449721Y-27210000D01*
X242775279Y-26190000D02*
X242449721Y-26190000D01*
X237187779Y-38410000D02*
X236862221Y-38410000D01*
X237187779Y-37390000D02*
X236862221Y-37390000D01*
D11*
X252575000Y-30100000D02*
X253850000Y-30100000D01*
X242225000Y-29525000D02*
X242900000Y-29525000D01*
X242225000Y-39875000D02*
X242900000Y-39875000D01*
X252575000Y-39875000D02*
X251900000Y-39875000D01*
X252575000Y-29525000D02*
X251900000Y-29525000D01*
X252575000Y-39875000D02*
X252575000Y-39200000D01*
X242225000Y-39875000D02*
X242225000Y-39200000D01*
X242225000Y-29525000D02*
X242225000Y-30200000D01*
X252575000Y-29525000D02*
X252575000Y-30100000D01*
X167005000Y-145415000D02*
X167005000Y-145796000D01*
X158115000Y-145415000D02*
X167005000Y-145415000D01*
X155575000Y-147955000D02*
X155575000Y-148336000D01*
X155956000Y-151765000D02*
X155575000Y-151765000D01*
X159460838Y-151765000D02*
X157734000Y-151765000D01*
X167005000Y-149860000D02*
X161925000Y-149860000D01*
X167005000Y-148844000D02*
X167005000Y-149860000D01*
X155575000Y-151384000D02*
X155575000Y-151765000D01*
X159460838Y-151783960D02*
G75*
G02X161925000Y-149860000I2464162J-616040D01*
G01*
X155575000Y-147955000D02*
G75*
G02X158115000Y-145415000I2540000J0D01*
G01*
X128905000Y-145415000D02*
X128905000Y-145796000D01*
X120015000Y-145415000D02*
X128905000Y-145415000D01*
X117475000Y-147955000D02*
X117475000Y-148336000D01*
X117856000Y-151765000D02*
X117475000Y-151765000D01*
X121360838Y-151765000D02*
X119634000Y-151765000D01*
X128905000Y-149860000D02*
X123825000Y-149860000D01*
X128905000Y-148844000D02*
X128905000Y-149860000D01*
X117475000Y-151384000D02*
X117475000Y-151765000D01*
X121360838Y-151783960D02*
G75*
G02X123825000Y-149860000I2464162J-616040D01*
G01*
X117475000Y-147955000D02*
G75*
G02X120015000Y-145415000I2540000J0D01*
G01*
D10*
X122800000Y-164175000D02*
X122800000Y-160275000D01*
X120800000Y-164175000D02*
X120800000Y-160275000D01*
X122800000Y-164175000D02*
X120800000Y-164175000D01*
D11*
X166370000Y-159385000D02*
X166370000Y-159004000D01*
X175260000Y-159385000D02*
X166370000Y-159385000D01*
X177800000Y-156845000D02*
X177800000Y-156464000D01*
X177419000Y-153035000D02*
X177800000Y-153035000D01*
X173914162Y-153035000D02*
X175641000Y-153035000D01*
X166370000Y-154940000D02*
X171450000Y-154940000D01*
X166370000Y-155956000D02*
X166370000Y-154940000D01*
X177800000Y-153416000D02*
X177800000Y-153035000D01*
X173914162Y-153016040D02*
G75*
G02X171450000Y-154940000I-2464162J616040D01*
G01*
X177800000Y-156845000D02*
G75*
G02X175260000Y-159385000I-2540000J0D01*
G01*
X128270000Y-159385000D02*
X128270000Y-159004000D01*
X137160000Y-159385000D02*
X128270000Y-159385000D01*
X139700000Y-156845000D02*
X139700000Y-156464000D01*
X139319000Y-153035000D02*
X139700000Y-153035000D01*
X135814162Y-153035000D02*
X137541000Y-153035000D01*
X128270000Y-154940000D02*
X133350000Y-154940000D01*
X128270000Y-155956000D02*
X128270000Y-154940000D01*
X139700000Y-153416000D02*
X139700000Y-153035000D01*
X135814162Y-153016040D02*
G75*
G02X133350000Y-154940000I-2464162J616040D01*
G01*
X139700000Y-156845000D02*
G75*
G02X137160000Y-159385000I-2540000J0D01*
G01*
D10*
X180200000Y-164175000D02*
X180200000Y-160275000D01*
X178200000Y-164175000D02*
X178200000Y-160275000D01*
X180200000Y-164175000D02*
X178200000Y-164175000D01*
X142100000Y-164175000D02*
X142100000Y-160275000D01*
X140100000Y-164175000D02*
X140100000Y-160275000D01*
X142100000Y-164175000D02*
X140100000Y-164175000D01*
X280775000Y-30800000D02*
X280775000Y-40200000D01*
X274975000Y-40200000D02*
X276975000Y-40200000D01*
X278875000Y-40200000D02*
X280775000Y-40200000D01*
X274975000Y-30800000D02*
X276975000Y-30800000D01*
X278875000Y-30800000D02*
X280775000Y-30800000D01*
X259925000Y-159850000D02*
X259925000Y-155950000D01*
X257925000Y-159850000D02*
X257925000Y-155950000D01*
X259925000Y-159850000D02*
X257925000Y-159850000D01*
X259900000Y-139750000D02*
X259900000Y-135850000D01*
X257900000Y-139750000D02*
X257900000Y-135850000D01*
X259900000Y-139750000D02*
X257900000Y-139750000D01*
X259925000Y-121750000D02*
X259925000Y-117850000D01*
X257925000Y-121750000D02*
X257925000Y-117850000D01*
X259925000Y-121750000D02*
X257925000Y-121750000D01*
X259925000Y-102700000D02*
X259925000Y-98800000D01*
X257925000Y-102700000D02*
X257925000Y-98800000D01*
X259925000Y-102700000D02*
X257925000Y-102700000D01*
X259925000Y-83650000D02*
X259925000Y-79750000D01*
X257925000Y-83650000D02*
X257925000Y-79750000D01*
X259925000Y-83650000D02*
X257925000Y-83650000D01*
X259925000Y-62650000D02*
X259925000Y-58750000D01*
X257925000Y-62650000D02*
X257925000Y-58750000D01*
X259925000Y-62650000D02*
X257925000Y-62650000D01*
X240875000Y-159850000D02*
X240875000Y-155950000D01*
X238875000Y-159850000D02*
X238875000Y-155950000D01*
X240875000Y-159850000D02*
X238875000Y-159850000D01*
X240875000Y-140800000D02*
X240875000Y-136900000D01*
X238875000Y-140800000D02*
X238875000Y-136900000D01*
X240875000Y-140800000D02*
X238875000Y-140800000D01*
X240875000Y-121750000D02*
X240875000Y-117850000D01*
X238875000Y-121750000D02*
X238875000Y-117850000D01*
X240875000Y-121750000D02*
X238875000Y-121750000D01*
X240875000Y-102700000D02*
X240875000Y-98800000D01*
X238875000Y-102700000D02*
X238875000Y-98800000D01*
X240875000Y-102700000D02*
X238875000Y-102700000D01*
X240875000Y-83650000D02*
X240875000Y-79750000D01*
X238875000Y-83650000D02*
X238875000Y-79750000D01*
X240875000Y-83650000D02*
X238875000Y-83650000D01*
X240875000Y-64600000D02*
X240875000Y-60700000D01*
X238875000Y-64600000D02*
X238875000Y-60700000D01*
X240875000Y-64600000D02*
X238875000Y-64600000D01*
X228012500Y-162587500D02*
X228012500Y-158687500D01*
X226012500Y-162587500D02*
X226012500Y-158687500D01*
X228012500Y-162587500D02*
X226012500Y-162587500D01*
X221825000Y-140800000D02*
X221825000Y-136900000D01*
X219825000Y-140800000D02*
X219825000Y-136900000D01*
X221825000Y-140800000D02*
X219825000Y-140800000D01*
X221825000Y-121750000D02*
X221825000Y-117850000D01*
X219825000Y-121750000D02*
X219825000Y-117850000D01*
X221825000Y-121750000D02*
X219825000Y-121750000D01*
X221825000Y-102700000D02*
X221825000Y-98800000D01*
X219825000Y-102700000D02*
X219825000Y-98800000D01*
X221825000Y-102700000D02*
X219825000Y-102700000D01*
X221825000Y-83650000D02*
X221825000Y-79750000D01*
X219825000Y-83650000D02*
X219825000Y-79750000D01*
X221825000Y-83650000D02*
X219825000Y-83650000D01*
X221825000Y-64600000D02*
X221825000Y-60700000D01*
X219825000Y-64600000D02*
X219825000Y-60700000D01*
X221825000Y-64600000D02*
X219825000Y-64600000D01*
X204200000Y-164175000D02*
X204200000Y-160275000D01*
X202200000Y-164175000D02*
X202200000Y-160275000D01*
X204200000Y-164175000D02*
X202200000Y-164175000D01*
X202775000Y-140800000D02*
X202775000Y-136900000D01*
X200775000Y-140800000D02*
X200775000Y-136900000D01*
X202775000Y-140800000D02*
X200775000Y-140800000D01*
X202775000Y-121750000D02*
X202775000Y-117850000D01*
X200775000Y-121750000D02*
X200775000Y-117850000D01*
X202775000Y-121750000D02*
X200775000Y-121750000D01*
X202775000Y-102700000D02*
X202775000Y-98800000D01*
X200775000Y-102700000D02*
X200775000Y-98800000D01*
X202775000Y-102700000D02*
X200775000Y-102700000D01*
X202775000Y-83650000D02*
X202775000Y-79750000D01*
X200775000Y-83650000D02*
X200775000Y-79750000D01*
X202775000Y-83650000D02*
X200775000Y-83650000D01*
X202775000Y-64600000D02*
X202775000Y-60700000D01*
X200775000Y-64600000D02*
X200775000Y-60700000D01*
X202775000Y-64600000D02*
X200775000Y-64600000D01*
X185150000Y-164175000D02*
X185150000Y-160275000D01*
X183150000Y-164175000D02*
X183150000Y-160275000D01*
X185150000Y-164175000D02*
X183150000Y-164175000D01*
X183725000Y-139350000D02*
X183725000Y-135450000D01*
X181725000Y-139350000D02*
X181725000Y-135450000D01*
X183725000Y-139350000D02*
X181725000Y-139350000D01*
X183725000Y-121750000D02*
X183725000Y-117850000D01*
X181725000Y-121750000D02*
X181725000Y-117850000D01*
X183725000Y-121750000D02*
X181725000Y-121750000D01*
X183725000Y-102700000D02*
X183725000Y-98800000D01*
X181725000Y-102700000D02*
X181725000Y-98800000D01*
X183725000Y-102700000D02*
X181725000Y-102700000D01*
X183725000Y-83650000D02*
X183725000Y-79750000D01*
X181725000Y-83650000D02*
X181725000Y-79750000D01*
X183725000Y-83650000D02*
X181725000Y-83650000D01*
X198005000Y-64600000D02*
X198005000Y-60700000D01*
X196005000Y-64600000D02*
X196005000Y-60700000D01*
X198005000Y-64600000D02*
X196005000Y-64600000D01*
X164675000Y-140800000D02*
X164675000Y-136900000D01*
X162675000Y-140800000D02*
X162675000Y-136900000D01*
X164675000Y-140800000D02*
X162675000Y-140800000D01*
X164675000Y-121750000D02*
X164675000Y-117850000D01*
X162675000Y-121750000D02*
X162675000Y-117850000D01*
X164675000Y-121750000D02*
X162675000Y-121750000D01*
X164675000Y-102700000D02*
X164675000Y-98800000D01*
X162675000Y-102700000D02*
X162675000Y-98800000D01*
X164675000Y-102700000D02*
X162675000Y-102700000D01*
X164675000Y-83650000D02*
X164675000Y-79750000D01*
X162675000Y-83650000D02*
X162675000Y-79750000D01*
X164675000Y-83650000D02*
X162675000Y-83650000D01*
X164675000Y-64600000D02*
X164675000Y-60700000D01*
X162675000Y-64600000D02*
X162675000Y-60700000D01*
X164675000Y-64600000D02*
X162675000Y-64600000D01*
X161000000Y-164175000D02*
X161000000Y-160275000D01*
X159000000Y-164175000D02*
X159000000Y-160275000D01*
X161000000Y-164175000D02*
X159000000Y-164175000D01*
X145625000Y-140800000D02*
X145625000Y-136900000D01*
X143625000Y-140800000D02*
X143625000Y-136900000D01*
X145625000Y-140800000D02*
X143625000Y-140800000D01*
X145625000Y-121750000D02*
X145625000Y-117850000D01*
X143625000Y-121750000D02*
X143625000Y-117850000D01*
X145625000Y-121750000D02*
X143625000Y-121750000D01*
X145625000Y-101950000D02*
X145625000Y-98050000D01*
X143625000Y-101950000D02*
X143625000Y-98050000D01*
X145625000Y-101950000D02*
X143625000Y-101950000D01*
X145625000Y-83650000D02*
X145625000Y-79750000D01*
X143625000Y-83650000D02*
X143625000Y-79750000D01*
X145625000Y-83650000D02*
X143625000Y-83650000D01*
X145625000Y-64600000D02*
X145625000Y-60700000D01*
X143625000Y-64600000D02*
X143625000Y-60700000D01*
X145625000Y-64600000D02*
X143625000Y-64600000D01*
X126575000Y-140800000D02*
X126575000Y-136900000D01*
X124575000Y-140800000D02*
X124575000Y-136900000D01*
X126575000Y-140800000D02*
X124575000Y-140800000D01*
X126575000Y-121750000D02*
X126575000Y-117850000D01*
X124575000Y-121750000D02*
X124575000Y-117850000D01*
X126575000Y-121750000D02*
X124575000Y-121750000D01*
X126575000Y-102700000D02*
X126575000Y-98800000D01*
X124575000Y-102700000D02*
X124575000Y-98800000D01*
X126575000Y-102700000D02*
X124575000Y-102700000D01*
X126575000Y-83650000D02*
X126575000Y-79750000D01*
X124575000Y-83650000D02*
X124575000Y-79750000D01*
X126575000Y-83650000D02*
X124575000Y-83650000D01*
X126575000Y-64600000D02*
X126575000Y-60700000D01*
X124575000Y-64600000D02*
X124575000Y-60700000D01*
X126575000Y-64600000D02*
X124575000Y-64600000D01*
X107525000Y-139950000D02*
X107525000Y-136050000D01*
X105525000Y-139950000D02*
X105525000Y-136050000D01*
X107525000Y-139950000D02*
X105525000Y-139950000D01*
X107525000Y-121750000D02*
X107525000Y-117850000D01*
X105525000Y-121750000D02*
X105525000Y-117850000D01*
X107525000Y-121750000D02*
X105525000Y-121750000D01*
X107525000Y-102700000D02*
X107525000Y-98800000D01*
X105525000Y-102700000D02*
X105525000Y-98800000D01*
X107525000Y-102700000D02*
X105525000Y-102700000D01*
X107525000Y-83650000D02*
X107525000Y-79750000D01*
X105525000Y-83650000D02*
X105525000Y-79750000D01*
X107525000Y-83650000D02*
X105525000Y-83650000D01*
X121805000Y-64600000D02*
X121805000Y-60700000D01*
X119805000Y-64600000D02*
X119805000Y-60700000D01*
X121805000Y-64600000D02*
X119805000Y-64600000D01*
X88475000Y-159850000D02*
X88475000Y-155950000D01*
X86475000Y-159850000D02*
X86475000Y-155950000D01*
X88475000Y-159850000D02*
X86475000Y-159850000D01*
X88475000Y-140800000D02*
X88475000Y-136900000D01*
X86475000Y-140800000D02*
X86475000Y-136900000D01*
X88475000Y-140800000D02*
X86475000Y-140800000D01*
X88475000Y-121750000D02*
X88475000Y-117850000D01*
X86475000Y-121750000D02*
X86475000Y-117850000D01*
X88475000Y-121750000D02*
X86475000Y-121750000D01*
X88475000Y-102700000D02*
X88475000Y-98800000D01*
X86475000Y-102700000D02*
X86475000Y-98800000D01*
X88475000Y-102700000D02*
X86475000Y-102700000D01*
X88475000Y-83650000D02*
X88475000Y-79750000D01*
X86475000Y-83650000D02*
X86475000Y-79750000D01*
X88475000Y-83650000D02*
X86475000Y-83650000D01*
X88475000Y-64600000D02*
X88475000Y-60700000D01*
X86475000Y-64600000D02*
X86475000Y-60700000D01*
X88475000Y-64600000D02*
X86475000Y-64600000D01*
X69425000Y-159850000D02*
X69425000Y-155950000D01*
X67425000Y-159850000D02*
X67425000Y-155950000D01*
X69425000Y-159850000D02*
X67425000Y-159850000D01*
X69425000Y-140800000D02*
X69425000Y-136900000D01*
X67425000Y-140800000D02*
X67425000Y-136900000D01*
X69425000Y-140800000D02*
X67425000Y-140800000D01*
X69425000Y-121750000D02*
X69425000Y-117850000D01*
X67425000Y-121750000D02*
X67425000Y-117850000D01*
X69425000Y-121750000D02*
X67425000Y-121750000D01*
X69425000Y-102700000D02*
X69425000Y-98800000D01*
X67425000Y-102700000D02*
X67425000Y-98800000D01*
X69425000Y-102700000D02*
X67425000Y-102700000D01*
X69425000Y-83650000D02*
X69425000Y-79750000D01*
X67425000Y-83650000D02*
X67425000Y-79750000D01*
X69425000Y-83650000D02*
X67425000Y-83650000D01*
X69425000Y-64600000D02*
X69425000Y-60700000D01*
X67425000Y-64600000D02*
X67425000Y-60700000D01*
X69425000Y-64600000D02*
X67425000Y-64600000D01*
X50375000Y-159850000D02*
X50375000Y-155950000D01*
X48375000Y-159850000D02*
X48375000Y-155950000D01*
X50375000Y-159850000D02*
X48375000Y-159850000D01*
X50375000Y-139750000D02*
X50375000Y-135850000D01*
X48375000Y-139750000D02*
X48375000Y-135850000D01*
X50375000Y-139750000D02*
X48375000Y-139750000D01*
X50375000Y-121750000D02*
X50375000Y-117850000D01*
X48375000Y-121750000D02*
X48375000Y-117850000D01*
X50375000Y-121750000D02*
X48375000Y-121750000D01*
X50375000Y-101550000D02*
X50375000Y-97650000D01*
X48375000Y-101550000D02*
X48375000Y-97650000D01*
X50375000Y-101550000D02*
X48375000Y-101550000D01*
X50375000Y-83650000D02*
X50375000Y-79750000D01*
X48375000Y-83650000D02*
X48375000Y-79750000D01*
X50375000Y-83650000D02*
X48375000Y-83650000D01*
X50375000Y-63650000D02*
X50375000Y-59750000D01*
X48375000Y-63650000D02*
X48375000Y-59750000D01*
X50375000Y-63650000D02*
X48375000Y-63650000D01*
X31325000Y-159850000D02*
X31325000Y-155950000D01*
X29325000Y-159850000D02*
X29325000Y-155950000D01*
X31325000Y-159850000D02*
X29325000Y-159850000D01*
X45605000Y-140800000D02*
X45605000Y-136900000D01*
X43605000Y-140800000D02*
X43605000Y-136900000D01*
X45605000Y-140800000D02*
X43605000Y-140800000D01*
X31325000Y-121750000D02*
X31325000Y-117850000D01*
X29325000Y-121750000D02*
X29325000Y-117850000D01*
X31325000Y-121750000D02*
X29325000Y-121750000D01*
X45605000Y-102700000D02*
X45605000Y-98800000D01*
X43605000Y-102700000D02*
X43605000Y-98800000D01*
X45605000Y-102700000D02*
X43605000Y-102700000D01*
X31325000Y-83650000D02*
X31325000Y-79750000D01*
X29325000Y-83650000D02*
X29325000Y-79750000D01*
X31325000Y-83650000D02*
X29325000Y-83650000D01*
X45605000Y-64600000D02*
X45605000Y-60700000D01*
X43605000Y-64600000D02*
X43605000Y-60700000D01*
X45605000Y-64600000D02*
X43605000Y-64600000D01*
X274320000Y-138922500D02*
X274320000Y-140072500D01*
X267020000Y-138922500D02*
X274320000Y-138922500D01*
X267020000Y-144422500D02*
X274320000Y-144422500D01*
X36510000Y-101170000D02*
X36510000Y-102320000D01*
X29210000Y-101170000D02*
X36510000Y-101170000D01*
X29210000Y-106670000D02*
X36510000Y-106670000D01*
X274320000Y-62722500D02*
X274320000Y-63872500D01*
X267020000Y-62722500D02*
X274320000Y-62722500D01*
X267020000Y-68222500D02*
X274320000Y-68222500D01*
X274320000Y-100822500D02*
X274320000Y-101972500D01*
X267020000Y-100822500D02*
X274320000Y-100822500D01*
X267020000Y-106322500D02*
X274320000Y-106322500D01*
X36510000Y-138922500D02*
X36510000Y-140072500D01*
X29210000Y-138922500D02*
X36510000Y-138922500D01*
X29210000Y-144422500D02*
X36510000Y-144422500D01*
X184625000Y-59165000D02*
X184625000Y-60315000D01*
X177325000Y-59165000D02*
X184625000Y-59165000D01*
X177325000Y-64665000D02*
X184625000Y-64665000D01*
X85406250Y-157088899D02*
X85406250Y-158238899D01*
X78106250Y-157088899D02*
X85406250Y-157088899D01*
X78106250Y-162588899D02*
X85406250Y-162588899D01*
X108425000Y-58750000D02*
X108425000Y-59900000D01*
X101125000Y-58750000D02*
X108425000Y-58750000D01*
X101125000Y-64250000D02*
X108425000Y-64250000D01*
X224500000Y-157088899D02*
X224500000Y-158238899D01*
X217200000Y-157088899D02*
X224500000Y-157088899D01*
X217200000Y-162588899D02*
X224500000Y-162588899D01*
D11*
X252730000Y-50165000D02*
X252730000Y-50546000D01*
X243840000Y-50165000D02*
X252730000Y-50165000D01*
X241300000Y-52705000D02*
X241300000Y-53086000D01*
X241681000Y-56515000D02*
X241300000Y-56515000D01*
X245185838Y-56515000D02*
X243459000Y-56515000D01*
X252730000Y-54610000D02*
X247650000Y-54610000D01*
X252730000Y-53594000D02*
X252730000Y-54610000D01*
X241300000Y-56134000D02*
X241300000Y-56515000D01*
X245185838Y-56533960D02*
G75*
G02X247650000Y-54610000I2464162J-616040D01*
G01*
X241300000Y-52705000D02*
G75*
G02X243840000Y-50165000I2540000J0D01*
G01*
X100330000Y-69215000D02*
X100330000Y-69596000D01*
X91440000Y-69215000D02*
X100330000Y-69215000D01*
X88900000Y-71755000D02*
X88900000Y-72136000D01*
X89281000Y-75565000D02*
X88900000Y-75565000D01*
X92785838Y-75565000D02*
X91059000Y-75565000D01*
X100330000Y-73660000D02*
X95250000Y-73660000D01*
X100330000Y-72644000D02*
X100330000Y-73660000D01*
X88900000Y-75184000D02*
X88900000Y-75565000D01*
X92785838Y-75583960D02*
G75*
G02X95250000Y-73660000I2464162J-616040D01*
G01*
X88900000Y-71755000D02*
G75*
G02X91440000Y-69215000I2540000J0D01*
G01*
X119380000Y-69215000D02*
X119380000Y-69596000D01*
X110490000Y-69215000D02*
X119380000Y-69215000D01*
X107950000Y-71755000D02*
X107950000Y-72136000D01*
X108331000Y-75565000D02*
X107950000Y-75565000D01*
X111835838Y-75565000D02*
X110109000Y-75565000D01*
X119380000Y-73660000D02*
X114300000Y-73660000D01*
X119380000Y-72644000D02*
X119380000Y-73660000D01*
X107950000Y-75184000D02*
X107950000Y-75565000D01*
X111835838Y-75583960D02*
G75*
G02X114300000Y-73660000I2464162J-616040D01*
G01*
X107950000Y-71755000D02*
G75*
G02X110490000Y-69215000I2540000J0D01*
G01*
X271780000Y-126365000D02*
X271780000Y-126746000D01*
X262890000Y-126365000D02*
X271780000Y-126365000D01*
X260350000Y-128905000D02*
X260350000Y-129286000D01*
X260731000Y-132715000D02*
X260350000Y-132715000D01*
X264235838Y-132715000D02*
X262509000Y-132715000D01*
X271780000Y-130810000D02*
X266700000Y-130810000D01*
X271780000Y-129794000D02*
X271780000Y-130810000D01*
X260350000Y-132334000D02*
X260350000Y-132715000D01*
X264235838Y-132733960D02*
G75*
G02X266700000Y-130810000I2464162J-616040D01*
G01*
X260350000Y-128905000D02*
G75*
G02X262890000Y-126365000I2540000J0D01*
G01*
X271780000Y-145415000D02*
X271780000Y-145796000D01*
X262890000Y-145415000D02*
X271780000Y-145415000D01*
X260350000Y-147955000D02*
X260350000Y-148336000D01*
X260731000Y-151765000D02*
X260350000Y-151765000D01*
X264235838Y-151765000D02*
X262509000Y-151765000D01*
X271780000Y-149860000D02*
X266700000Y-149860000D01*
X271780000Y-148844000D02*
X271780000Y-149860000D01*
X260350000Y-151384000D02*
X260350000Y-151765000D01*
X264235838Y-151783960D02*
G75*
G02X266700000Y-149860000I2464162J-616040D01*
G01*
X260350000Y-147955000D02*
G75*
G02X262890000Y-145415000I2540000J0D01*
G01*
X271780000Y-107315000D02*
X271780000Y-107696000D01*
X262890000Y-107315000D02*
X271780000Y-107315000D01*
X260350000Y-109855000D02*
X260350000Y-110236000D01*
X260731000Y-113665000D02*
X260350000Y-113665000D01*
X264235838Y-113665000D02*
X262509000Y-113665000D01*
X271780000Y-111760000D02*
X266700000Y-111760000D01*
X271780000Y-110744000D02*
X271780000Y-111760000D01*
X260350000Y-113284000D02*
X260350000Y-113665000D01*
X264235838Y-113683960D02*
G75*
G02X266700000Y-111760000I2464162J-616040D01*
G01*
X260350000Y-109855000D02*
G75*
G02X262890000Y-107315000I2540000J0D01*
G01*
X271780000Y-88265000D02*
X271780000Y-88646000D01*
X262890000Y-88265000D02*
X271780000Y-88265000D01*
X260350000Y-90805000D02*
X260350000Y-91186000D01*
X260731000Y-94615000D02*
X260350000Y-94615000D01*
X264235838Y-94615000D02*
X262509000Y-94615000D01*
X271780000Y-92710000D02*
X266700000Y-92710000D01*
X271780000Y-91694000D02*
X271780000Y-92710000D01*
X260350000Y-94234000D02*
X260350000Y-94615000D01*
X264235838Y-94633960D02*
G75*
G02X266700000Y-92710000I2464162J-616040D01*
G01*
X260350000Y-90805000D02*
G75*
G02X262890000Y-88265000I2540000J0D01*
G01*
X271780000Y-69215000D02*
X271780000Y-69596000D01*
X262890000Y-69215000D02*
X271780000Y-69215000D01*
X260350000Y-71755000D02*
X260350000Y-72136000D01*
X260731000Y-75565000D02*
X260350000Y-75565000D01*
X264235838Y-75565000D02*
X262509000Y-75565000D01*
X271780000Y-73660000D02*
X266700000Y-73660000D01*
X271780000Y-72644000D02*
X271780000Y-73660000D01*
X260350000Y-75184000D02*
X260350000Y-75565000D01*
X264235838Y-75583960D02*
G75*
G02X266700000Y-73660000I2464162J-616040D01*
G01*
X260350000Y-71755000D02*
G75*
G02X262890000Y-69215000I2540000J0D01*
G01*
X271780000Y-50165000D02*
X271780000Y-50546000D01*
X262890000Y-50165000D02*
X271780000Y-50165000D01*
X260350000Y-52705000D02*
X260350000Y-53086000D01*
X260731000Y-56515000D02*
X260350000Y-56515000D01*
X264235838Y-56515000D02*
X262509000Y-56515000D01*
X271780000Y-54610000D02*
X266700000Y-54610000D01*
X271780000Y-53594000D02*
X271780000Y-54610000D01*
X260350000Y-56134000D02*
X260350000Y-56515000D01*
X264235838Y-56533960D02*
G75*
G02X266700000Y-54610000I2464162J-616040D01*
G01*
X260350000Y-52705000D02*
G75*
G02X262890000Y-50165000I2540000J0D01*
G01*
X252730000Y-145415000D02*
X252730000Y-145796000D01*
X243840000Y-145415000D02*
X252730000Y-145415000D01*
X241300000Y-147955000D02*
X241300000Y-148336000D01*
X241681000Y-151765000D02*
X241300000Y-151765000D01*
X245185838Y-151765000D02*
X243459000Y-151765000D01*
X252730000Y-149860000D02*
X247650000Y-149860000D01*
X252730000Y-148844000D02*
X252730000Y-149860000D01*
X241300000Y-151384000D02*
X241300000Y-151765000D01*
X245185838Y-151783960D02*
G75*
G02X247650000Y-149860000I2464162J-616040D01*
G01*
X241300000Y-147955000D02*
G75*
G02X243840000Y-145415000I2540000J0D01*
G01*
X252730000Y-126365000D02*
X252730000Y-126746000D01*
X243840000Y-126365000D02*
X252730000Y-126365000D01*
X241300000Y-128905000D02*
X241300000Y-129286000D01*
X241681000Y-132715000D02*
X241300000Y-132715000D01*
X245185838Y-132715000D02*
X243459000Y-132715000D01*
X252730000Y-130810000D02*
X247650000Y-130810000D01*
X252730000Y-129794000D02*
X252730000Y-130810000D01*
X241300000Y-132334000D02*
X241300000Y-132715000D01*
X245185838Y-132733960D02*
G75*
G02X247650000Y-130810000I2464162J-616040D01*
G01*
X241300000Y-128905000D02*
G75*
G02X243840000Y-126365000I2540000J0D01*
G01*
X252730000Y-107315000D02*
X252730000Y-107696000D01*
X243840000Y-107315000D02*
X252730000Y-107315000D01*
X241300000Y-109855000D02*
X241300000Y-110236000D01*
X241681000Y-113665000D02*
X241300000Y-113665000D01*
X245185838Y-113665000D02*
X243459000Y-113665000D01*
X252730000Y-111760000D02*
X247650000Y-111760000D01*
X252730000Y-110744000D02*
X252730000Y-111760000D01*
X241300000Y-113284000D02*
X241300000Y-113665000D01*
X245185838Y-113683960D02*
G75*
G02X247650000Y-111760000I2464162J-616040D01*
G01*
X241300000Y-109855000D02*
G75*
G02X243840000Y-107315000I2540000J0D01*
G01*
X252730000Y-88265000D02*
X252730000Y-88646000D01*
X243840000Y-88265000D02*
X252730000Y-88265000D01*
X241300000Y-90805000D02*
X241300000Y-91186000D01*
X241681000Y-94615000D02*
X241300000Y-94615000D01*
X245185838Y-94615000D02*
X243459000Y-94615000D01*
X252730000Y-92710000D02*
X247650000Y-92710000D01*
X252730000Y-91694000D02*
X252730000Y-92710000D01*
X241300000Y-94234000D02*
X241300000Y-94615000D01*
X245185838Y-94633960D02*
G75*
G02X247650000Y-92710000I2464162J-616040D01*
G01*
X241300000Y-90805000D02*
G75*
G02X243840000Y-88265000I2540000J0D01*
G01*
X252730000Y-69215000D02*
X252730000Y-69596000D01*
X243840000Y-69215000D02*
X252730000Y-69215000D01*
X241300000Y-71755000D02*
X241300000Y-72136000D01*
X241681000Y-75565000D02*
X241300000Y-75565000D01*
X245185838Y-75565000D02*
X243459000Y-75565000D01*
X252730000Y-73660000D02*
X247650000Y-73660000D01*
X252730000Y-72644000D02*
X252730000Y-73660000D01*
X241300000Y-75184000D02*
X241300000Y-75565000D01*
X245185838Y-75583960D02*
G75*
G02X247650000Y-73660000I2464162J-616040D01*
G01*
X241300000Y-71755000D02*
G75*
G02X243840000Y-69215000I2540000J0D01*
G01*
X233680000Y-145415000D02*
X233680000Y-145796000D01*
X224790000Y-145415000D02*
X233680000Y-145415000D01*
X222250000Y-147955000D02*
X222250000Y-148336000D01*
X222631000Y-151765000D02*
X222250000Y-151765000D01*
X226135838Y-151765000D02*
X224409000Y-151765000D01*
X233680000Y-149860000D02*
X228600000Y-149860000D01*
X233680000Y-148844000D02*
X233680000Y-149860000D01*
X222250000Y-151384000D02*
X222250000Y-151765000D01*
X226135838Y-151783960D02*
G75*
G02X228600000Y-149860000I2464162J-616040D01*
G01*
X222250000Y-147955000D02*
G75*
G02X224790000Y-145415000I2540000J0D01*
G01*
X233680000Y-126365000D02*
X233680000Y-126746000D01*
X224790000Y-126365000D02*
X233680000Y-126365000D01*
X222250000Y-128905000D02*
X222250000Y-129286000D01*
X222631000Y-132715000D02*
X222250000Y-132715000D01*
X226135838Y-132715000D02*
X224409000Y-132715000D01*
X233680000Y-130810000D02*
X228600000Y-130810000D01*
X233680000Y-129794000D02*
X233680000Y-130810000D01*
X222250000Y-132334000D02*
X222250000Y-132715000D01*
X226135838Y-132733960D02*
G75*
G02X228600000Y-130810000I2464162J-616040D01*
G01*
X222250000Y-128905000D02*
G75*
G02X224790000Y-126365000I2540000J0D01*
G01*
X233680000Y-107315000D02*
X233680000Y-107696000D01*
X224790000Y-107315000D02*
X233680000Y-107315000D01*
X222250000Y-109855000D02*
X222250000Y-110236000D01*
X222631000Y-113665000D02*
X222250000Y-113665000D01*
X226135838Y-113665000D02*
X224409000Y-113665000D01*
X233680000Y-111760000D02*
X228600000Y-111760000D01*
X233680000Y-110744000D02*
X233680000Y-111760000D01*
X222250000Y-113284000D02*
X222250000Y-113665000D01*
X226135838Y-113683960D02*
G75*
G02X228600000Y-111760000I2464162J-616040D01*
G01*
X222250000Y-109855000D02*
G75*
G02X224790000Y-107315000I2540000J0D01*
G01*
X233680000Y-88265000D02*
X233680000Y-88646000D01*
X224790000Y-88265000D02*
X233680000Y-88265000D01*
X222250000Y-90805000D02*
X222250000Y-91186000D01*
X222631000Y-94615000D02*
X222250000Y-94615000D01*
X226135838Y-94615000D02*
X224409000Y-94615000D01*
X233680000Y-92710000D02*
X228600000Y-92710000D01*
X233680000Y-91694000D02*
X233680000Y-92710000D01*
X222250000Y-94234000D02*
X222250000Y-94615000D01*
X226135838Y-94633960D02*
G75*
G02X228600000Y-92710000I2464162J-616040D01*
G01*
X222250000Y-90805000D02*
G75*
G02X224790000Y-88265000I2540000J0D01*
G01*
X233680000Y-69215000D02*
X233680000Y-69596000D01*
X224790000Y-69215000D02*
X233680000Y-69215000D01*
X222250000Y-71755000D02*
X222250000Y-72136000D01*
X222631000Y-75565000D02*
X222250000Y-75565000D01*
X226135838Y-75565000D02*
X224409000Y-75565000D01*
X233680000Y-73660000D02*
X228600000Y-73660000D01*
X233680000Y-72644000D02*
X233680000Y-73660000D01*
X222250000Y-75184000D02*
X222250000Y-75565000D01*
X226135838Y-75583960D02*
G75*
G02X228600000Y-73660000I2464162J-616040D01*
G01*
X222250000Y-71755000D02*
G75*
G02X224790000Y-69215000I2540000J0D01*
G01*
X233680000Y-50165000D02*
X233680000Y-50546000D01*
X224790000Y-50165000D02*
X233680000Y-50165000D01*
X222250000Y-52705000D02*
X222250000Y-53086000D01*
X222631000Y-56515000D02*
X222250000Y-56515000D01*
X226135838Y-56515000D02*
X224409000Y-56515000D01*
X233680000Y-54610000D02*
X228600000Y-54610000D01*
X233680000Y-53594000D02*
X233680000Y-54610000D01*
X222250000Y-56134000D02*
X222250000Y-56515000D01*
X226135838Y-56533960D02*
G75*
G02X228600000Y-54610000I2464162J-616040D01*
G01*
X222250000Y-52705000D02*
G75*
G02X224790000Y-50165000I2540000J0D01*
G01*
X214630000Y-145415000D02*
X214630000Y-145796000D01*
X205740000Y-145415000D02*
X214630000Y-145415000D01*
X203200000Y-147955000D02*
X203200000Y-148336000D01*
X203581000Y-151765000D02*
X203200000Y-151765000D01*
X207085838Y-151765000D02*
X205359000Y-151765000D01*
X214630000Y-149860000D02*
X209550000Y-149860000D01*
X214630000Y-148844000D02*
X214630000Y-149860000D01*
X203200000Y-151384000D02*
X203200000Y-151765000D01*
X207085838Y-151783960D02*
G75*
G02X209550000Y-149860000I2464162J-616040D01*
G01*
X203200000Y-147955000D02*
G75*
G02X205740000Y-145415000I2540000J0D01*
G01*
X214630000Y-126365000D02*
X214630000Y-126746000D01*
X205740000Y-126365000D02*
X214630000Y-126365000D01*
X203200000Y-128905000D02*
X203200000Y-129286000D01*
X203581000Y-132715000D02*
X203200000Y-132715000D01*
X207085838Y-132715000D02*
X205359000Y-132715000D01*
X214630000Y-130810000D02*
X209550000Y-130810000D01*
X214630000Y-129794000D02*
X214630000Y-130810000D01*
X203200000Y-132334000D02*
X203200000Y-132715000D01*
X207085838Y-132733960D02*
G75*
G02X209550000Y-130810000I2464162J-616040D01*
G01*
X203200000Y-128905000D02*
G75*
G02X205740000Y-126365000I2540000J0D01*
G01*
X214630000Y-107315000D02*
X214630000Y-107696000D01*
X205740000Y-107315000D02*
X214630000Y-107315000D01*
X203200000Y-109855000D02*
X203200000Y-110236000D01*
X203581000Y-113665000D02*
X203200000Y-113665000D01*
X207085838Y-113665000D02*
X205359000Y-113665000D01*
X214630000Y-111760000D02*
X209550000Y-111760000D01*
X214630000Y-110744000D02*
X214630000Y-111760000D01*
X203200000Y-113284000D02*
X203200000Y-113665000D01*
X207085838Y-113683960D02*
G75*
G02X209550000Y-111760000I2464162J-616040D01*
G01*
X203200000Y-109855000D02*
G75*
G02X205740000Y-107315000I2540000J0D01*
G01*
X214630000Y-88265000D02*
X214630000Y-88646000D01*
X205740000Y-88265000D02*
X214630000Y-88265000D01*
X203200000Y-90805000D02*
X203200000Y-91186000D01*
X203581000Y-94615000D02*
X203200000Y-94615000D01*
X207085838Y-94615000D02*
X205359000Y-94615000D01*
X214630000Y-92710000D02*
X209550000Y-92710000D01*
X214630000Y-91694000D02*
X214630000Y-92710000D01*
X203200000Y-94234000D02*
X203200000Y-94615000D01*
X207085838Y-94633960D02*
G75*
G02X209550000Y-92710000I2464162J-616040D01*
G01*
X203200000Y-90805000D02*
G75*
G02X205740000Y-88265000I2540000J0D01*
G01*
X214630000Y-69215000D02*
X214630000Y-69596000D01*
X205740000Y-69215000D02*
X214630000Y-69215000D01*
X203200000Y-71755000D02*
X203200000Y-72136000D01*
X203581000Y-75565000D02*
X203200000Y-75565000D01*
X207085838Y-75565000D02*
X205359000Y-75565000D01*
X214630000Y-73660000D02*
X209550000Y-73660000D01*
X214630000Y-72644000D02*
X214630000Y-73660000D01*
X203200000Y-75184000D02*
X203200000Y-75565000D01*
X207085838Y-75583960D02*
G75*
G02X209550000Y-73660000I2464162J-616040D01*
G01*
X203200000Y-71755000D02*
G75*
G02X205740000Y-69215000I2540000J0D01*
G01*
X214630000Y-50165000D02*
X214630000Y-50546000D01*
X205740000Y-50165000D02*
X214630000Y-50165000D01*
X203200000Y-52705000D02*
X203200000Y-53086000D01*
X203581000Y-56515000D02*
X203200000Y-56515000D01*
X207085838Y-56515000D02*
X205359000Y-56515000D01*
X214630000Y-54610000D02*
X209550000Y-54610000D01*
X214630000Y-53594000D02*
X214630000Y-54610000D01*
X203200000Y-56134000D02*
X203200000Y-56515000D01*
X207085838Y-56533960D02*
G75*
G02X209550000Y-54610000I2464162J-616040D01*
G01*
X203200000Y-52705000D02*
G75*
G02X205740000Y-50165000I2540000J0D01*
G01*
X195580000Y-145415000D02*
X195580000Y-145796000D01*
X186690000Y-145415000D02*
X195580000Y-145415000D01*
X184150000Y-147955000D02*
X184150000Y-148336000D01*
X184531000Y-151765000D02*
X184150000Y-151765000D01*
X188035838Y-151765000D02*
X186309000Y-151765000D01*
X195580000Y-149860000D02*
X190500000Y-149860000D01*
X195580000Y-148844000D02*
X195580000Y-149860000D01*
X184150000Y-151384000D02*
X184150000Y-151765000D01*
X188035838Y-151783960D02*
G75*
G02X190500000Y-149860000I2464162J-616040D01*
G01*
X184150000Y-147955000D02*
G75*
G02X186690000Y-145415000I2540000J0D01*
G01*
X195580000Y-126365000D02*
X195580000Y-126746000D01*
X186690000Y-126365000D02*
X195580000Y-126365000D01*
X184150000Y-128905000D02*
X184150000Y-129286000D01*
X184531000Y-132715000D02*
X184150000Y-132715000D01*
X188035838Y-132715000D02*
X186309000Y-132715000D01*
X195580000Y-130810000D02*
X190500000Y-130810000D01*
X195580000Y-129794000D02*
X195580000Y-130810000D01*
X184150000Y-132334000D02*
X184150000Y-132715000D01*
X188035838Y-132733960D02*
G75*
G02X190500000Y-130810000I2464162J-616040D01*
G01*
X184150000Y-128905000D02*
G75*
G02X186690000Y-126365000I2540000J0D01*
G01*
X195580000Y-107315000D02*
X195580000Y-107696000D01*
X186690000Y-107315000D02*
X195580000Y-107315000D01*
X184150000Y-109855000D02*
X184150000Y-110236000D01*
X184531000Y-113665000D02*
X184150000Y-113665000D01*
X188035838Y-113665000D02*
X186309000Y-113665000D01*
X195580000Y-111760000D02*
X190500000Y-111760000D01*
X195580000Y-110744000D02*
X195580000Y-111760000D01*
X184150000Y-113284000D02*
X184150000Y-113665000D01*
X188035838Y-113683960D02*
G75*
G02X190500000Y-111760000I2464162J-616040D01*
G01*
X184150000Y-109855000D02*
G75*
G02X186690000Y-107315000I2540000J0D01*
G01*
X195580000Y-88265000D02*
X195580000Y-88646000D01*
X186690000Y-88265000D02*
X195580000Y-88265000D01*
X184150000Y-90805000D02*
X184150000Y-91186000D01*
X184531000Y-94615000D02*
X184150000Y-94615000D01*
X188035838Y-94615000D02*
X186309000Y-94615000D01*
X195580000Y-92710000D02*
X190500000Y-92710000D01*
X195580000Y-91694000D02*
X195580000Y-92710000D01*
X184150000Y-94234000D02*
X184150000Y-94615000D01*
X188035838Y-94633960D02*
G75*
G02X190500000Y-92710000I2464162J-616040D01*
G01*
X184150000Y-90805000D02*
G75*
G02X186690000Y-88265000I2540000J0D01*
G01*
X195580000Y-69215000D02*
X195580000Y-69596000D01*
X186690000Y-69215000D02*
X195580000Y-69215000D01*
X184150000Y-71755000D02*
X184150000Y-72136000D01*
X184531000Y-75565000D02*
X184150000Y-75565000D01*
X188035838Y-75565000D02*
X186309000Y-75565000D01*
X195580000Y-73660000D02*
X190500000Y-73660000D01*
X195580000Y-72644000D02*
X195580000Y-73660000D01*
X184150000Y-75184000D02*
X184150000Y-75565000D01*
X188035838Y-75583960D02*
G75*
G02X190500000Y-73660000I2464162J-616040D01*
G01*
X184150000Y-71755000D02*
G75*
G02X186690000Y-69215000I2540000J0D01*
G01*
X195580000Y-50165000D02*
X195580000Y-50546000D01*
X186690000Y-50165000D02*
X195580000Y-50165000D01*
X184150000Y-52705000D02*
X184150000Y-53086000D01*
X184531000Y-56515000D02*
X184150000Y-56515000D01*
X188035838Y-56515000D02*
X186309000Y-56515000D01*
X195580000Y-54610000D02*
X190500000Y-54610000D01*
X195580000Y-53594000D02*
X195580000Y-54610000D01*
X184150000Y-56134000D02*
X184150000Y-56515000D01*
X188035838Y-56533960D02*
G75*
G02X190500000Y-54610000I2464162J-616040D01*
G01*
X184150000Y-52705000D02*
G75*
G02X186690000Y-50165000I2540000J0D01*
G01*
X176530000Y-126365000D02*
X176530000Y-126746000D01*
X167640000Y-126365000D02*
X176530000Y-126365000D01*
X165100000Y-128905000D02*
X165100000Y-129286000D01*
X165481000Y-132715000D02*
X165100000Y-132715000D01*
X168985838Y-132715000D02*
X167259000Y-132715000D01*
X176530000Y-130810000D02*
X171450000Y-130810000D01*
X176530000Y-129794000D02*
X176530000Y-130810000D01*
X165100000Y-132334000D02*
X165100000Y-132715000D01*
X168985838Y-132733960D02*
G75*
G02X171450000Y-130810000I2464162J-616040D01*
G01*
X165100000Y-128905000D02*
G75*
G02X167640000Y-126365000I2540000J0D01*
G01*
X176530000Y-107315000D02*
X176530000Y-107696000D01*
X167640000Y-107315000D02*
X176530000Y-107315000D01*
X165100000Y-109855000D02*
X165100000Y-110236000D01*
X165481000Y-113665000D02*
X165100000Y-113665000D01*
X168985838Y-113665000D02*
X167259000Y-113665000D01*
X176530000Y-111760000D02*
X171450000Y-111760000D01*
X176530000Y-110744000D02*
X176530000Y-111760000D01*
X165100000Y-113284000D02*
X165100000Y-113665000D01*
X168985838Y-113683960D02*
G75*
G02X171450000Y-111760000I2464162J-616040D01*
G01*
X165100000Y-109855000D02*
G75*
G02X167640000Y-107315000I2540000J0D01*
G01*
X176530000Y-88265000D02*
X176530000Y-88646000D01*
X167640000Y-88265000D02*
X176530000Y-88265000D01*
X165100000Y-90805000D02*
X165100000Y-91186000D01*
X165481000Y-94615000D02*
X165100000Y-94615000D01*
X168985838Y-94615000D02*
X167259000Y-94615000D01*
X176530000Y-92710000D02*
X171450000Y-92710000D01*
X176530000Y-91694000D02*
X176530000Y-92710000D01*
X165100000Y-94234000D02*
X165100000Y-94615000D01*
X168985838Y-94633960D02*
G75*
G02X171450000Y-92710000I2464162J-616040D01*
G01*
X165100000Y-90805000D02*
G75*
G02X167640000Y-88265000I2540000J0D01*
G01*
X176530000Y-69215000D02*
X176530000Y-69596000D01*
X167640000Y-69215000D02*
X176530000Y-69215000D01*
X165100000Y-71755000D02*
X165100000Y-72136000D01*
X165481000Y-75565000D02*
X165100000Y-75565000D01*
X168985838Y-75565000D02*
X167259000Y-75565000D01*
X176530000Y-73660000D02*
X171450000Y-73660000D01*
X176530000Y-72644000D02*
X176530000Y-73660000D01*
X165100000Y-75184000D02*
X165100000Y-75565000D01*
X168985838Y-75583960D02*
G75*
G02X171450000Y-73660000I2464162J-616040D01*
G01*
X165100000Y-71755000D02*
G75*
G02X167640000Y-69215000I2540000J0D01*
G01*
X176530000Y-50165000D02*
X176530000Y-50546000D01*
X167640000Y-50165000D02*
X176530000Y-50165000D01*
X165100000Y-52705000D02*
X165100000Y-53086000D01*
X165481000Y-56515000D02*
X165100000Y-56515000D01*
X168985838Y-56515000D02*
X167259000Y-56515000D01*
X176530000Y-54610000D02*
X171450000Y-54610000D01*
X176530000Y-53594000D02*
X176530000Y-54610000D01*
X165100000Y-56134000D02*
X165100000Y-56515000D01*
X168985838Y-56533960D02*
G75*
G02X171450000Y-54610000I2464162J-616040D01*
G01*
X165100000Y-52705000D02*
G75*
G02X167640000Y-50165000I2540000J0D01*
G01*
X147320000Y-159385000D02*
X147320000Y-159004000D01*
X156210000Y-159385000D02*
X147320000Y-159385000D01*
X158750000Y-156845000D02*
X158750000Y-156464000D01*
X158369000Y-153035000D02*
X158750000Y-153035000D01*
X154864162Y-153035000D02*
X156591000Y-153035000D01*
X147320000Y-154940000D02*
X152400000Y-154940000D01*
X147320000Y-155956000D02*
X147320000Y-154940000D01*
X158750000Y-153416000D02*
X158750000Y-153035000D01*
X154864162Y-153016040D02*
G75*
G02X152400000Y-154940000I-2464162J616040D01*
G01*
X158750000Y-156845000D02*
G75*
G02X156210000Y-159385000I-2540000J0D01*
G01*
X157480000Y-126365000D02*
X157480000Y-126746000D01*
X148590000Y-126365000D02*
X157480000Y-126365000D01*
X146050000Y-128905000D02*
X146050000Y-129286000D01*
X146431000Y-132715000D02*
X146050000Y-132715000D01*
X149935838Y-132715000D02*
X148209000Y-132715000D01*
X157480000Y-130810000D02*
X152400000Y-130810000D01*
X157480000Y-129794000D02*
X157480000Y-130810000D01*
X146050000Y-132334000D02*
X146050000Y-132715000D01*
X149935838Y-132733960D02*
G75*
G02X152400000Y-130810000I2464162J-616040D01*
G01*
X146050000Y-128905000D02*
G75*
G02X148590000Y-126365000I2540000J0D01*
G01*
X157480000Y-107315000D02*
X157480000Y-107696000D01*
X148590000Y-107315000D02*
X157480000Y-107315000D01*
X146050000Y-109855000D02*
X146050000Y-110236000D01*
X146431000Y-113665000D02*
X146050000Y-113665000D01*
X149935838Y-113665000D02*
X148209000Y-113665000D01*
X157480000Y-111760000D02*
X152400000Y-111760000D01*
X157480000Y-110744000D02*
X157480000Y-111760000D01*
X146050000Y-113284000D02*
X146050000Y-113665000D01*
X149935838Y-113683960D02*
G75*
G02X152400000Y-111760000I2464162J-616040D01*
G01*
X146050000Y-109855000D02*
G75*
G02X148590000Y-107315000I2540000J0D01*
G01*
X157480000Y-88265000D02*
X157480000Y-88646000D01*
X148590000Y-88265000D02*
X157480000Y-88265000D01*
X146050000Y-90805000D02*
X146050000Y-91186000D01*
X146431000Y-94615000D02*
X146050000Y-94615000D01*
X149935838Y-94615000D02*
X148209000Y-94615000D01*
X157480000Y-92710000D02*
X152400000Y-92710000D01*
X157480000Y-91694000D02*
X157480000Y-92710000D01*
X146050000Y-94234000D02*
X146050000Y-94615000D01*
X149935838Y-94633960D02*
G75*
G02X152400000Y-92710000I2464162J-616040D01*
G01*
X146050000Y-90805000D02*
G75*
G02X148590000Y-88265000I2540000J0D01*
G01*
X157480000Y-69215000D02*
X157480000Y-69596000D01*
X148590000Y-69215000D02*
X157480000Y-69215000D01*
X146050000Y-71755000D02*
X146050000Y-72136000D01*
X146431000Y-75565000D02*
X146050000Y-75565000D01*
X149935838Y-75565000D02*
X148209000Y-75565000D01*
X157480000Y-73660000D02*
X152400000Y-73660000D01*
X157480000Y-72644000D02*
X157480000Y-73660000D01*
X146050000Y-75184000D02*
X146050000Y-75565000D01*
X149935838Y-75583960D02*
G75*
G02X152400000Y-73660000I2464162J-616040D01*
G01*
X146050000Y-71755000D02*
G75*
G02X148590000Y-69215000I2540000J0D01*
G01*
X157480000Y-50165000D02*
X157480000Y-50546000D01*
X148590000Y-50165000D02*
X157480000Y-50165000D01*
X146050000Y-52705000D02*
X146050000Y-53086000D01*
X146431000Y-56515000D02*
X146050000Y-56515000D01*
X149935838Y-56515000D02*
X148209000Y-56515000D01*
X157480000Y-54610000D02*
X152400000Y-54610000D01*
X157480000Y-53594000D02*
X157480000Y-54610000D01*
X146050000Y-56134000D02*
X146050000Y-56515000D01*
X149935838Y-56533960D02*
G75*
G02X152400000Y-54610000I2464162J-616040D01*
G01*
X146050000Y-52705000D02*
G75*
G02X148590000Y-50165000I2540000J0D01*
G01*
X138430000Y-126365000D02*
X138430000Y-126746000D01*
X129540000Y-126365000D02*
X138430000Y-126365000D01*
X127000000Y-128905000D02*
X127000000Y-129286000D01*
X127381000Y-132715000D02*
X127000000Y-132715000D01*
X130885838Y-132715000D02*
X129159000Y-132715000D01*
X138430000Y-130810000D02*
X133350000Y-130810000D01*
X138430000Y-129794000D02*
X138430000Y-130810000D01*
X127000000Y-132334000D02*
X127000000Y-132715000D01*
X130885838Y-132733960D02*
G75*
G02X133350000Y-130810000I2464162J-616040D01*
G01*
X127000000Y-128905000D02*
G75*
G02X129540000Y-126365000I2540000J0D01*
G01*
X138430000Y-107315000D02*
X138430000Y-107696000D01*
X129540000Y-107315000D02*
X138430000Y-107315000D01*
X127000000Y-109855000D02*
X127000000Y-110236000D01*
X127381000Y-113665000D02*
X127000000Y-113665000D01*
X130885838Y-113665000D02*
X129159000Y-113665000D01*
X138430000Y-111760000D02*
X133350000Y-111760000D01*
X138430000Y-110744000D02*
X138430000Y-111760000D01*
X127000000Y-113284000D02*
X127000000Y-113665000D01*
X130885838Y-113683960D02*
G75*
G02X133350000Y-111760000I2464162J-616040D01*
G01*
X127000000Y-109855000D02*
G75*
G02X129540000Y-107315000I2540000J0D01*
G01*
X138430000Y-88265000D02*
X138430000Y-88646000D01*
X129540000Y-88265000D02*
X138430000Y-88265000D01*
X127000000Y-90805000D02*
X127000000Y-91186000D01*
X127381000Y-94615000D02*
X127000000Y-94615000D01*
X130885838Y-94615000D02*
X129159000Y-94615000D01*
X138430000Y-92710000D02*
X133350000Y-92710000D01*
X138430000Y-91694000D02*
X138430000Y-92710000D01*
X127000000Y-94234000D02*
X127000000Y-94615000D01*
X130885838Y-94633960D02*
G75*
G02X133350000Y-92710000I2464162J-616040D01*
G01*
X127000000Y-90805000D02*
G75*
G02X129540000Y-88265000I2540000J0D01*
G01*
X138430000Y-69215000D02*
X138430000Y-69596000D01*
X129540000Y-69215000D02*
X138430000Y-69215000D01*
X127000000Y-71755000D02*
X127000000Y-72136000D01*
X127381000Y-75565000D02*
X127000000Y-75565000D01*
X130885838Y-75565000D02*
X129159000Y-75565000D01*
X138430000Y-73660000D02*
X133350000Y-73660000D01*
X138430000Y-72644000D02*
X138430000Y-73660000D01*
X127000000Y-75184000D02*
X127000000Y-75565000D01*
X130885838Y-75583960D02*
G75*
G02X133350000Y-73660000I2464162J-616040D01*
G01*
X127000000Y-71755000D02*
G75*
G02X129540000Y-69215000I2540000J0D01*
G01*
X138430000Y-50165000D02*
X138430000Y-50546000D01*
X129540000Y-50165000D02*
X138430000Y-50165000D01*
X127000000Y-52705000D02*
X127000000Y-53086000D01*
X127381000Y-56515000D02*
X127000000Y-56515000D01*
X130885838Y-56515000D02*
X129159000Y-56515000D01*
X138430000Y-54610000D02*
X133350000Y-54610000D01*
X138430000Y-53594000D02*
X138430000Y-54610000D01*
X127000000Y-56134000D02*
X127000000Y-56515000D01*
X130885838Y-56533960D02*
G75*
G02X133350000Y-54610000I2464162J-616040D01*
G01*
X127000000Y-52705000D02*
G75*
G02X129540000Y-50165000I2540000J0D01*
G01*
X109220000Y-159385000D02*
X109220000Y-159004000D01*
X118110000Y-159385000D02*
X109220000Y-159385000D01*
X120650000Y-156845000D02*
X120650000Y-156464000D01*
X120269000Y-153035000D02*
X120650000Y-153035000D01*
X116764162Y-153035000D02*
X118491000Y-153035000D01*
X109220000Y-154940000D02*
X114300000Y-154940000D01*
X109220000Y-155956000D02*
X109220000Y-154940000D01*
X120650000Y-153416000D02*
X120650000Y-153035000D01*
X116764162Y-153016040D02*
G75*
G02X114300000Y-154940000I-2464162J616040D01*
G01*
X120650000Y-156845000D02*
G75*
G02X118110000Y-159385000I-2540000J0D01*
G01*
X119380000Y-126365000D02*
X119380000Y-126746000D01*
X110490000Y-126365000D02*
X119380000Y-126365000D01*
X107950000Y-128905000D02*
X107950000Y-129286000D01*
X108331000Y-132715000D02*
X107950000Y-132715000D01*
X111835838Y-132715000D02*
X110109000Y-132715000D01*
X119380000Y-130810000D02*
X114300000Y-130810000D01*
X119380000Y-129794000D02*
X119380000Y-130810000D01*
X107950000Y-132334000D02*
X107950000Y-132715000D01*
X111835838Y-132733960D02*
G75*
G02X114300000Y-130810000I2464162J-616040D01*
G01*
X107950000Y-128905000D02*
G75*
G02X110490000Y-126365000I2540000J0D01*
G01*
X119380000Y-107315000D02*
X119380000Y-107696000D01*
X110490000Y-107315000D02*
X119380000Y-107315000D01*
X107950000Y-109855000D02*
X107950000Y-110236000D01*
X108331000Y-113665000D02*
X107950000Y-113665000D01*
X111835838Y-113665000D02*
X110109000Y-113665000D01*
X119380000Y-111760000D02*
X114300000Y-111760000D01*
X119380000Y-110744000D02*
X119380000Y-111760000D01*
X107950000Y-113284000D02*
X107950000Y-113665000D01*
X111835838Y-113683960D02*
G75*
G02X114300000Y-111760000I2464162J-616040D01*
G01*
X107950000Y-109855000D02*
G75*
G02X110490000Y-107315000I2540000J0D01*
G01*
X119380000Y-88265000D02*
X119380000Y-88646000D01*
X110490000Y-88265000D02*
X119380000Y-88265000D01*
X107950000Y-90805000D02*
X107950000Y-91186000D01*
X108331000Y-94615000D02*
X107950000Y-94615000D01*
X111835838Y-94615000D02*
X110109000Y-94615000D01*
X119380000Y-92710000D02*
X114300000Y-92710000D01*
X119380000Y-91694000D02*
X119380000Y-92710000D01*
X107950000Y-94234000D02*
X107950000Y-94615000D01*
X111835838Y-94633960D02*
G75*
G02X114300000Y-92710000I2464162J-616040D01*
G01*
X107950000Y-90805000D02*
G75*
G02X110490000Y-88265000I2540000J0D01*
G01*
X119380000Y-50165000D02*
X119380000Y-50546000D01*
X110490000Y-50165000D02*
X119380000Y-50165000D01*
X107950000Y-52705000D02*
X107950000Y-53086000D01*
X108331000Y-56515000D02*
X107950000Y-56515000D01*
X111835838Y-56515000D02*
X110109000Y-56515000D01*
X119380000Y-54610000D02*
X114300000Y-54610000D01*
X119380000Y-53594000D02*
X119380000Y-54610000D01*
X107950000Y-56134000D02*
X107950000Y-56515000D01*
X111835838Y-56533960D02*
G75*
G02X114300000Y-54610000I2464162J-616040D01*
G01*
X107950000Y-52705000D02*
G75*
G02X110490000Y-50165000I2540000J0D01*
G01*
X100330000Y-145415000D02*
X100330000Y-145796000D01*
X91440000Y-145415000D02*
X100330000Y-145415000D01*
X88900000Y-147955000D02*
X88900000Y-148336000D01*
X89281000Y-151765000D02*
X88900000Y-151765000D01*
X92785838Y-151765000D02*
X91059000Y-151765000D01*
X100330000Y-149860000D02*
X95250000Y-149860000D01*
X100330000Y-148844000D02*
X100330000Y-149860000D01*
X88900000Y-151384000D02*
X88900000Y-151765000D01*
X92785838Y-151783960D02*
G75*
G02X95250000Y-149860000I2464162J-616040D01*
G01*
X88900000Y-147955000D02*
G75*
G02X91440000Y-145415000I2540000J0D01*
G01*
X100330000Y-126365000D02*
X100330000Y-126746000D01*
X91440000Y-126365000D02*
X100330000Y-126365000D01*
X88900000Y-128905000D02*
X88900000Y-129286000D01*
X89281000Y-132715000D02*
X88900000Y-132715000D01*
X92785838Y-132715000D02*
X91059000Y-132715000D01*
X100330000Y-130810000D02*
X95250000Y-130810000D01*
X100330000Y-129794000D02*
X100330000Y-130810000D01*
X88900000Y-132334000D02*
X88900000Y-132715000D01*
X92785838Y-132733960D02*
G75*
G02X95250000Y-130810000I2464162J-616040D01*
G01*
X88900000Y-128905000D02*
G75*
G02X91440000Y-126365000I2540000J0D01*
G01*
X100330000Y-107315000D02*
X100330000Y-107696000D01*
X91440000Y-107315000D02*
X100330000Y-107315000D01*
X88900000Y-109855000D02*
X88900000Y-110236000D01*
X89281000Y-113665000D02*
X88900000Y-113665000D01*
X92785838Y-113665000D02*
X91059000Y-113665000D01*
X100330000Y-111760000D02*
X95250000Y-111760000D01*
X100330000Y-110744000D02*
X100330000Y-111760000D01*
X88900000Y-113284000D02*
X88900000Y-113665000D01*
X92785838Y-113683960D02*
G75*
G02X95250000Y-111760000I2464162J-616040D01*
G01*
X88900000Y-109855000D02*
G75*
G02X91440000Y-107315000I2540000J0D01*
G01*
X100330000Y-88265000D02*
X100330000Y-88646000D01*
X91440000Y-88265000D02*
X100330000Y-88265000D01*
X88900000Y-90805000D02*
X88900000Y-91186000D01*
X89281000Y-94615000D02*
X88900000Y-94615000D01*
X92785838Y-94615000D02*
X91059000Y-94615000D01*
X100330000Y-92710000D02*
X95250000Y-92710000D01*
X100330000Y-91694000D02*
X100330000Y-92710000D01*
X88900000Y-94234000D02*
X88900000Y-94615000D01*
X92785838Y-94633960D02*
G75*
G02X95250000Y-92710000I2464162J-616040D01*
G01*
X88900000Y-90805000D02*
G75*
G02X91440000Y-88265000I2540000J0D01*
G01*
X100330000Y-50165000D02*
X100330000Y-50546000D01*
X91440000Y-50165000D02*
X100330000Y-50165000D01*
X88900000Y-52705000D02*
X88900000Y-53086000D01*
X89281000Y-56515000D02*
X88900000Y-56515000D01*
X92785838Y-56515000D02*
X91059000Y-56515000D01*
X100330000Y-54610000D02*
X95250000Y-54610000D01*
X100330000Y-53594000D02*
X100330000Y-54610000D01*
X88900000Y-56134000D02*
X88900000Y-56515000D01*
X92785838Y-56533960D02*
G75*
G02X95250000Y-54610000I2464162J-616040D01*
G01*
X88900000Y-52705000D02*
G75*
G02X91440000Y-50165000I2540000J0D01*
G01*
X81280000Y-145415000D02*
X81280000Y-145796000D01*
X72390000Y-145415000D02*
X81280000Y-145415000D01*
X69850000Y-147955000D02*
X69850000Y-148336000D01*
X70231000Y-151765000D02*
X69850000Y-151765000D01*
X73735838Y-151765000D02*
X72009000Y-151765000D01*
X81280000Y-149860000D02*
X76200000Y-149860000D01*
X81280000Y-148844000D02*
X81280000Y-149860000D01*
X69850000Y-151384000D02*
X69850000Y-151765000D01*
X73735838Y-151783960D02*
G75*
G02X76200000Y-149860000I2464162J-616040D01*
G01*
X69850000Y-147955000D02*
G75*
G02X72390000Y-145415000I2540000J0D01*
G01*
X81280000Y-126365000D02*
X81280000Y-126746000D01*
X72390000Y-126365000D02*
X81280000Y-126365000D01*
X69850000Y-128905000D02*
X69850000Y-129286000D01*
X70231000Y-132715000D02*
X69850000Y-132715000D01*
X73735838Y-132715000D02*
X72009000Y-132715000D01*
X81280000Y-130810000D02*
X76200000Y-130810000D01*
X81280000Y-129794000D02*
X81280000Y-130810000D01*
X69850000Y-132334000D02*
X69850000Y-132715000D01*
X73735838Y-132733960D02*
G75*
G02X76200000Y-130810000I2464162J-616040D01*
G01*
X69850000Y-128905000D02*
G75*
G02X72390000Y-126365000I2540000J0D01*
G01*
X81280000Y-107315000D02*
X81280000Y-107696000D01*
X72390000Y-107315000D02*
X81280000Y-107315000D01*
X69850000Y-109855000D02*
X69850000Y-110236000D01*
X70231000Y-113665000D02*
X69850000Y-113665000D01*
X73735838Y-113665000D02*
X72009000Y-113665000D01*
X81280000Y-111760000D02*
X76200000Y-111760000D01*
X81280000Y-110744000D02*
X81280000Y-111760000D01*
X69850000Y-113284000D02*
X69850000Y-113665000D01*
X73735838Y-113683960D02*
G75*
G02X76200000Y-111760000I2464162J-616040D01*
G01*
X69850000Y-109855000D02*
G75*
G02X72390000Y-107315000I2540000J0D01*
G01*
X81280000Y-88265000D02*
X81280000Y-88646000D01*
X72390000Y-88265000D02*
X81280000Y-88265000D01*
X69850000Y-90805000D02*
X69850000Y-91186000D01*
X70231000Y-94615000D02*
X69850000Y-94615000D01*
X73735838Y-94615000D02*
X72009000Y-94615000D01*
X81280000Y-92710000D02*
X76200000Y-92710000D01*
X81280000Y-91694000D02*
X81280000Y-92710000D01*
X69850000Y-94234000D02*
X69850000Y-94615000D01*
X73735838Y-94633960D02*
G75*
G02X76200000Y-92710000I2464162J-616040D01*
G01*
X69850000Y-90805000D02*
G75*
G02X72390000Y-88265000I2540000J0D01*
G01*
X81280000Y-69215000D02*
X81280000Y-69596000D01*
X72390000Y-69215000D02*
X81280000Y-69215000D01*
X69850000Y-71755000D02*
X69850000Y-72136000D01*
X70231000Y-75565000D02*
X69850000Y-75565000D01*
X73735838Y-75565000D02*
X72009000Y-75565000D01*
X81280000Y-73660000D02*
X76200000Y-73660000D01*
X81280000Y-72644000D02*
X81280000Y-73660000D01*
X69850000Y-75184000D02*
X69850000Y-75565000D01*
X73735838Y-75583960D02*
G75*
G02X76200000Y-73660000I2464162J-616040D01*
G01*
X69850000Y-71755000D02*
G75*
G02X72390000Y-69215000I2540000J0D01*
G01*
X81280000Y-50165000D02*
X81280000Y-50546000D01*
X72390000Y-50165000D02*
X81280000Y-50165000D01*
X69850000Y-52705000D02*
X69850000Y-53086000D01*
X70231000Y-56515000D02*
X69850000Y-56515000D01*
X73735838Y-56515000D02*
X72009000Y-56515000D01*
X81280000Y-54610000D02*
X76200000Y-54610000D01*
X81280000Y-53594000D02*
X81280000Y-54610000D01*
X69850000Y-56134000D02*
X69850000Y-56515000D01*
X73735838Y-56533960D02*
G75*
G02X76200000Y-54610000I2464162J-616040D01*
G01*
X69850000Y-52705000D02*
G75*
G02X72390000Y-50165000I2540000J0D01*
G01*
X62230000Y-145415000D02*
X62230000Y-145796000D01*
X53340000Y-145415000D02*
X62230000Y-145415000D01*
X50800000Y-147955000D02*
X50800000Y-148336000D01*
X51181000Y-151765000D02*
X50800000Y-151765000D01*
X54685838Y-151765000D02*
X52959000Y-151765000D01*
X62230000Y-149860000D02*
X57150000Y-149860000D01*
X62230000Y-148844000D02*
X62230000Y-149860000D01*
X50800000Y-151384000D02*
X50800000Y-151765000D01*
X54685838Y-151783960D02*
G75*
G02X57150000Y-149860000I2464162J-616040D01*
G01*
X50800000Y-147955000D02*
G75*
G02X53340000Y-145415000I2540000J0D01*
G01*
X62230000Y-126365000D02*
X62230000Y-126746000D01*
X53340000Y-126365000D02*
X62230000Y-126365000D01*
X50800000Y-128905000D02*
X50800000Y-129286000D01*
X51181000Y-132715000D02*
X50800000Y-132715000D01*
X54685838Y-132715000D02*
X52959000Y-132715000D01*
X62230000Y-130810000D02*
X57150000Y-130810000D01*
X62230000Y-129794000D02*
X62230000Y-130810000D01*
X50800000Y-132334000D02*
X50800000Y-132715000D01*
X54685838Y-132733960D02*
G75*
G02X57150000Y-130810000I2464162J-616040D01*
G01*
X50800000Y-128905000D02*
G75*
G02X53340000Y-126365000I2540000J0D01*
G01*
X62230000Y-107315000D02*
X62230000Y-107696000D01*
X53340000Y-107315000D02*
X62230000Y-107315000D01*
X50800000Y-109855000D02*
X50800000Y-110236000D01*
X51181000Y-113665000D02*
X50800000Y-113665000D01*
X54685838Y-113665000D02*
X52959000Y-113665000D01*
X62230000Y-111760000D02*
X57150000Y-111760000D01*
X62230000Y-110744000D02*
X62230000Y-111760000D01*
X50800000Y-113284000D02*
X50800000Y-113665000D01*
X54685838Y-113683960D02*
G75*
G02X57150000Y-111760000I2464162J-616040D01*
G01*
X50800000Y-109855000D02*
G75*
G02X53340000Y-107315000I2540000J0D01*
G01*
X62230000Y-88265000D02*
X62230000Y-88646000D01*
X53340000Y-88265000D02*
X62230000Y-88265000D01*
X50800000Y-90805000D02*
X50800000Y-91186000D01*
X51181000Y-94615000D02*
X50800000Y-94615000D01*
X54685838Y-94615000D02*
X52959000Y-94615000D01*
X62230000Y-92710000D02*
X57150000Y-92710000D01*
X62230000Y-91694000D02*
X62230000Y-92710000D01*
X50800000Y-94234000D02*
X50800000Y-94615000D01*
X54685838Y-94633960D02*
G75*
G02X57150000Y-92710000I2464162J-616040D01*
G01*
X50800000Y-90805000D02*
G75*
G02X53340000Y-88265000I2540000J0D01*
G01*
X62230000Y-69215000D02*
X62230000Y-69596000D01*
X53340000Y-69215000D02*
X62230000Y-69215000D01*
X50800000Y-71755000D02*
X50800000Y-72136000D01*
X51181000Y-75565000D02*
X50800000Y-75565000D01*
X54685838Y-75565000D02*
X52959000Y-75565000D01*
X62230000Y-73660000D02*
X57150000Y-73660000D01*
X62230000Y-72644000D02*
X62230000Y-73660000D01*
X50800000Y-75184000D02*
X50800000Y-75565000D01*
X54685838Y-75583960D02*
G75*
G02X57150000Y-73660000I2464162J-616040D01*
G01*
X50800000Y-71755000D02*
G75*
G02X53340000Y-69215000I2540000J0D01*
G01*
X62230000Y-50165000D02*
X62230000Y-50546000D01*
X53340000Y-50165000D02*
X62230000Y-50165000D01*
X50800000Y-52705000D02*
X50800000Y-53086000D01*
X51181000Y-56515000D02*
X50800000Y-56515000D01*
X54685838Y-56515000D02*
X52959000Y-56515000D01*
X62230000Y-54610000D02*
X57150000Y-54610000D01*
X62230000Y-53594000D02*
X62230000Y-54610000D01*
X50800000Y-56134000D02*
X50800000Y-56515000D01*
X54685838Y-56533960D02*
G75*
G02X57150000Y-54610000I2464162J-616040D01*
G01*
X50800000Y-52705000D02*
G75*
G02X53340000Y-50165000I2540000J0D01*
G01*
X43180000Y-145415000D02*
X43180000Y-145796000D01*
X34290000Y-145415000D02*
X43180000Y-145415000D01*
X31750000Y-147955000D02*
X31750000Y-148336000D01*
X32131000Y-151765000D02*
X31750000Y-151765000D01*
X35635838Y-151765000D02*
X33909000Y-151765000D01*
X43180000Y-149860000D02*
X38100000Y-149860000D01*
X43180000Y-148844000D02*
X43180000Y-149860000D01*
X31750000Y-151384000D02*
X31750000Y-151765000D01*
X35635838Y-151783960D02*
G75*
G02X38100000Y-149860000I2464162J-616040D01*
G01*
X31750000Y-147955000D02*
G75*
G02X34290000Y-145415000I2540000J0D01*
G01*
X43180000Y-126365000D02*
X43180000Y-126746000D01*
X34290000Y-126365000D02*
X43180000Y-126365000D01*
X31750000Y-128905000D02*
X31750000Y-129286000D01*
X32131000Y-132715000D02*
X31750000Y-132715000D01*
X35635838Y-132715000D02*
X33909000Y-132715000D01*
X43180000Y-130810000D02*
X38100000Y-130810000D01*
X43180000Y-129794000D02*
X43180000Y-130810000D01*
X31750000Y-132334000D02*
X31750000Y-132715000D01*
X35635838Y-132733960D02*
G75*
G02X38100000Y-130810000I2464162J-616040D01*
G01*
X31750000Y-128905000D02*
G75*
G02X34290000Y-126365000I2540000J0D01*
G01*
X43180000Y-107315000D02*
X43180000Y-107696000D01*
X34290000Y-107315000D02*
X43180000Y-107315000D01*
X31750000Y-109855000D02*
X31750000Y-110236000D01*
X32131000Y-113665000D02*
X31750000Y-113665000D01*
X35635838Y-113665000D02*
X33909000Y-113665000D01*
X43180000Y-111760000D02*
X38100000Y-111760000D01*
X43180000Y-110744000D02*
X43180000Y-111760000D01*
X31750000Y-113284000D02*
X31750000Y-113665000D01*
X35635838Y-113683960D02*
G75*
G02X38100000Y-111760000I2464162J-616040D01*
G01*
X31750000Y-109855000D02*
G75*
G02X34290000Y-107315000I2540000J0D01*
G01*
X43180000Y-88265000D02*
X43180000Y-88646000D01*
X34290000Y-88265000D02*
X43180000Y-88265000D01*
X31750000Y-90805000D02*
X31750000Y-91186000D01*
X32131000Y-94615000D02*
X31750000Y-94615000D01*
X35635838Y-94615000D02*
X33909000Y-94615000D01*
X43180000Y-92710000D02*
X38100000Y-92710000D01*
X43180000Y-91694000D02*
X43180000Y-92710000D01*
X31750000Y-94234000D02*
X31750000Y-94615000D01*
X35635838Y-94633960D02*
G75*
G02X38100000Y-92710000I2464162J-616040D01*
G01*
X31750000Y-90805000D02*
G75*
G02X34290000Y-88265000I2540000J0D01*
G01*
X43180000Y-69215000D02*
X43180000Y-69596000D01*
X34290000Y-69215000D02*
X43180000Y-69215000D01*
X31750000Y-71755000D02*
X31750000Y-72136000D01*
X32131000Y-75565000D02*
X31750000Y-75565000D01*
X35635838Y-75565000D02*
X33909000Y-75565000D01*
X43180000Y-73660000D02*
X38100000Y-73660000D01*
X43180000Y-72644000D02*
X43180000Y-73660000D01*
X31750000Y-75184000D02*
X31750000Y-75565000D01*
X35635838Y-75583960D02*
G75*
G02X38100000Y-73660000I2464162J-616040D01*
G01*
X31750000Y-71755000D02*
G75*
G02X34290000Y-69215000I2540000J0D01*
G01*
X43180000Y-50165000D02*
X43180000Y-50546000D01*
X34290000Y-50165000D02*
X43180000Y-50165000D01*
X31750000Y-52705000D02*
X31750000Y-53086000D01*
X32131000Y-56515000D02*
X31750000Y-56515000D01*
X35635838Y-56515000D02*
X33909000Y-56515000D01*
X43180000Y-54610000D02*
X38100000Y-54610000D01*
X43180000Y-53594000D02*
X43180000Y-54610000D01*
X31750000Y-56134000D02*
X31750000Y-56515000D01*
X35635838Y-56533960D02*
G75*
G02X38100000Y-54610000I2464162J-616040D01*
G01*
X31750000Y-52705000D02*
G75*
G02X34290000Y-50165000I2540000J0D01*
G01*
X266234285Y-105624880D02*
X266805714Y-105624880D01*
X266520000Y-105624880D02*
X266520000Y-104624880D01*
X266615238Y-104767738D01*
X266710476Y-104862976D01*
X266805714Y-104910595D01*
M02*
